<svg width="629" height="764" viewBox="0 0 629 764" fill="none" xmlns="http://www.w3.org/2000/svg">
<g filter="url(#filter0_d_1731_26469)">
<rect x="32" y="32" width="565" height="700" rx="32" fill="white"/>
</g>
<path d="M407.884 513.215L421.925 479.532L436.458 471.698C444.368 467.421 451.672 462.009 458.03 455.651C464.805 448.877 472.639 440.702 473.244 438.355C474.304 434.382 471.201 431.316 467.53 433.435C467.53 433.435 467.643 425.753 460.566 429.272C460.566 429.272 460.452 423.293 453.716 426.699C453.716 426.699 453.526 421.362 446.828 425.298L419.957 445.357L411.063 446.757C411.063 446.757 416.097 433.549 414.696 426.85C413.296 420.189 407.543 428.591 407.543 428.591L388.015 462.88L356.64 513.177H407.884V513.215Z" fill="white"/>
<path d="M408.527 514.161H354.9L387.182 462.425L406.749 428.099C407.354 427.229 410.458 422.876 413.145 423.406C414.356 423.633 415.188 424.731 415.605 426.699C416.778 432.262 413.788 441.875 412.501 445.584L419.578 444.449L446.298 424.504L446.336 424.466C449.061 422.876 451.256 422.498 452.77 423.33C453.678 423.822 454.132 424.655 454.397 425.336C456.441 424.504 458.144 424.466 459.43 425.261C460.528 425.942 461.058 427.039 461.285 427.91C463.215 427.191 464.805 427.229 466.091 428.023C467.605 428.969 468.173 430.786 468.362 432.035C469.876 431.581 471.39 431.77 472.563 432.678C474.19 433.927 474.834 436.198 474.19 438.582C474.001 439.339 473.358 441.686 458.749 456.294C452.315 462.728 444.973 468.178 436.95 472.53L422.682 480.213L408.527 514.161ZM358.306 512.269H407.241L421.168 478.851L435.966 470.827C443.838 466.589 451.029 461.214 457.311 454.932C470.217 442.064 472.071 438.847 472.26 438.09C472.677 436.463 472.336 434.949 471.314 434.192C470.444 433.511 469.195 433.549 467.908 434.268L466.47 435.101L466.508 433.435C466.508 432.641 466.243 430.446 464.994 429.651C464.085 429.083 462.723 429.234 460.906 430.143L459.582 430.824L459.544 429.348C459.544 429.348 459.468 427.607 458.371 426.926C457.462 426.396 455.986 426.623 454.056 427.569L452.732 428.25L452.694 426.774C452.694 426.774 452.618 425.526 451.785 425.034C450.915 424.542 449.326 424.958 447.282 426.131L420.298 446.303L409.549 448.006L410.117 446.492C410.155 446.379 415.037 433.435 413.712 427.115C413.485 426.055 413.145 425.374 412.728 425.298C411.707 425.109 409.511 427.418 408.3 429.159L388.772 463.409L358.306 512.269Z" fill="#111C3A"/>
<path d="M443.8 453.797C443.535 453.797 443.27 453.683 443.081 453.456C442.74 453.04 442.816 452.472 443.194 452.131L466.886 432.716C467.302 432.376 467.87 432.451 468.211 432.83C468.551 433.246 468.476 433.814 468.097 434.154L444.406 453.569C444.216 453.721 444.027 453.797 443.8 453.797Z" fill="#111C3A"/>
<path d="M436.647 449.898C436.382 449.898 436.117 449.785 435.928 449.558C435.587 449.141 435.663 448.574 436.042 448.233L459.733 428.818C460.149 428.477 460.717 428.553 461.058 428.932C461.398 429.348 461.323 429.916 460.944 430.256L437.253 449.671C437.063 449.861 436.836 449.898 436.647 449.898Z" fill="#111C3A"/>
<path d="M429.797 447.098C429.532 447.098 429.267 446.984 429.078 446.757C428.737 446.341 428.813 445.773 429.191 445.433L452.883 426.018C453.299 425.677 453.867 425.753 454.207 426.131C454.548 426.547 454.472 427.115 454.094 427.456L430.402 446.871C430.213 447.022 429.986 447.098 429.797 447.098Z" fill="#111C3A"/>
<path d="M418.102 454.099C416.967 458.225 412.009 460.495 408.149 458.944C407.657 458.754 407.127 459.133 406.976 459.587C406.824 460.117 407.165 460.571 407.619 460.76C412.463 462.728 418.519 459.587 419.881 454.591C420.222 453.456 418.405 452.926 418.102 454.099Z" fill="#111C3A"/>
<path d="M191.576 392.672L195.965 397.061L200.354 392.672L195.965 388.283L191.576 392.672Z" fill="#FF4A57"/>
<path d="M173.176 325.453L180.16 332.438L187.145 325.453L180.16 318.469L173.176 325.453Z" fill="#FF4A57"/>
<path d="M118.516 364.095L128.07 373.648L137.623 364.095L128.07 354.541L118.516 364.095Z" fill="#FF4A57"/>
<path d="M174.866 420.643L222.59 406.073L276.142 416.026L293.097 421.665C333.706 435.176 360.842 473.477 360.16 516.281L358.344 625.353H179.786L140.01 559.463L174.866 420.643Z" fill="#FF4A57"/>
<path d="M418.973 619.827L456.479 511.36C458.636 505.154 454.019 498.644 447.434 498.644H296.011C294.195 498.644 292.605 499.817 292.037 501.558L252.488 625.542H151.099C149.206 625.542 147.655 627.094 147.655 628.986C147.655 630.878 149.206 632.43 151.099 632.43H401.186C409.209 632.468 416.362 627.397 418.973 619.827Z" fill="#10002B"/>
<path d="M253.018 623.953L291.924 501.445C292.454 499.78 294.005 498.644 295.784 498.644C298.509 498.644 300.477 501.331 299.607 503.943L259.187 628.381C258.392 630.841 256.084 632.544 253.472 632.544H151.099C149.206 632.544 147.655 630.992 147.655 629.1C147.655 627.207 149.206 625.656 151.099 625.656H250.823C251.807 625.542 252.715 624.899 253.018 623.953Z" fill="#9F99AA"/>
<path d="M151.099 633.414C148.677 633.414 146.709 631.446 146.709 629.024C146.709 626.602 148.677 624.634 151.099 624.634H250.823C251.429 624.634 251.958 624.255 252.11 623.688L291.016 501.18C291.659 499.098 293.589 497.698 295.784 497.698C296.314 497.698 296.73 498.114 296.73 498.644C296.73 499.174 296.314 499.59 295.784 499.59C294.422 499.59 293.249 500.461 292.832 501.748L253.926 624.255C253.51 625.618 252.261 626.526 250.823 626.526H151.099C149.698 626.526 148.601 627.662 148.601 629.024C148.601 630.386 149.736 631.522 151.099 631.522C151.629 631.522 152.045 631.938 152.045 632.468C152.045 632.998 151.629 633.414 151.099 633.414Z" fill="#111C3A"/>
<path d="M356.981 570.173L364.815 584.782L378.894 570.173L370.038 555.148L356.981 570.173Z" fill="white"/>
<path d="M282.462 407.246L281.138 430.408C280.305 445.168 261.874 451.299 252.337 439.983C238.296 423.293 223.915 406.148 223.915 406.148L243.632 378.218H263.577L282.462 407.246Z" fill="white"/>
<path d="M207.949 475.664C220.867 462.747 220.867 441.804 207.949 428.886C195.032 415.969 174.089 415.969 161.171 428.886C148.254 441.804 148.254 462.747 161.171 475.664C174.089 488.582 195.032 488.582 207.949 475.664Z" fill="#FF4A57"/>
<path d="M214.226 466.891L168.356 543.832L111.966 514.085L155.943 435.668L214.226 466.891Z" fill="#FF4A57"/>
<path d="M168.356 543.832L156.927 566.2L206.657 598.255L227.396 599.769C233.754 600.223 239.431 603.97 242.383 609.609L250.596 625.353H194.054C184.63 625.353 175.244 623.801 166.313 620.698L126.12 606.846C93.8753 595.719 81.4239 556.7 101.293 528.959L111.966 514.048L168.356 543.832Z" fill="white"/>
<path d="M252.11 626.299H194.054C184.479 626.299 175.055 624.71 166.01 621.606L125.817 607.755C110.149 602.343 98.3032 590.232 93.2697 574.45C88.2361 558.668 90.8854 541.902 100.536 528.429L111.701 512.837L112.42 513.215L169.605 543.416L158.138 565.859L206.921 597.347L227.434 598.823C234.057 599.315 240.113 603.251 243.178 609.193L252.11 626.299ZM112.268 515.297L102.05 529.527C92.7398 542.508 90.2041 558.668 95.0484 573.844C99.8927 589.059 111.322 600.753 126.423 605.938L166.615 619.79C175.471 622.855 184.706 624.369 194.054 624.369H249.006L241.513 609.987C238.75 604.651 233.3 601.094 227.321 600.639L206.316 599.126L155.678 566.464L167.07 544.173L112.268 515.297Z" fill="#111C3A"/>
<path d="M161.128 569.833C160.939 569.833 160.749 569.795 160.598 569.681L146.519 560.22C146.103 559.917 145.989 559.349 146.254 558.895C146.557 558.479 147.125 558.365 147.579 558.63L161.658 568.092C162.074 568.395 162.188 568.962 161.923 569.416C161.733 569.719 161.431 569.833 161.128 569.833Z" fill="#111C3A"/>
<path d="M168.356 544.779C168.205 544.779 168.016 544.741 167.864 544.627C167.41 544.362 167.259 543.795 167.524 543.34L196.173 495.314C196.438 494.86 197.006 494.708 197.46 494.973C197.914 495.238 198.066 495.806 197.801 496.26L169.151 544.287C169 544.589 168.659 544.779 168.356 544.779Z" fill="#111C3A"/>
<path d="M290.41 312.631C290.41 312.631 323.412 344.156 308.879 390.556C294.384 436.955 243.632 378.218 243.632 378.218L234.587 328.904C234.587 328.942 256.348 298.098 290.41 312.631Z" fill="white"/>
<path d="M289.805 409.365C282.841 409.365 274.515 405.883 264.94 398.995C264.523 398.693 264.41 398.087 264.713 397.671C265.015 397.255 265.621 397.141 266.037 397.444C277.883 405.997 287.647 409.1 295.027 406.64C300.818 404.71 305.208 399.185 307.971 390.253C315.389 366.561 310.014 346.919 304.224 334.581C298.358 322.092 290.902 314.447 289.88 313.425C276.142 307.635 262.782 308.543 250.255 316.112C240.832 321.827 235.382 329.396 235.344 329.472C235.041 329.888 234.436 330.002 234.019 329.699C233.603 329.396 233.49 328.791 233.792 328.375C234.019 328.072 239.469 320.427 249.196 314.523C258.241 309.035 272.774 304.077 290.751 311.76L290.902 311.836L291.016 311.949C291.356 312.29 299.455 320.124 305.889 333.787C311.831 346.427 317.319 366.599 309.749 390.859C306.76 400.396 301.991 406.338 295.595 408.457C293.816 409.062 291.886 409.365 289.805 409.365Z" fill="#111C3A"/>
<path d="M221.303 339.085C222.968 334.96 219.562 330.721 217.14 326.974C215.323 324.174 213.961 320.881 214.264 317.551C214.566 314.22 216.989 310.928 220.319 310.511C221.303 310.398 222.325 310.511 223.195 310.095C226.299 308.77 224.671 304.191 224.066 300.861C222.968 294.919 227.964 288.636 233.981 288.371C241.248 288.031 247.076 294.994 254.343 295.6C262.063 296.243 268.308 289.734 273.152 283.716C277.996 277.699 283.825 271 291.583 271C299.417 271 305.359 278.002 309.03 284.927C311.301 289.242 313.193 293.821 313.723 298.665C315.351 313.198 302.483 327.693 287.874 327.807C279.472 327.845 270.389 324.022 263.047 328.185C255.478 332.5 254.343 342.832 249.347 350.023C244.616 356.797 233.262 362.096 224.823 359.938C221.227 359.03 219.146 357.062 217.783 353.618C215.172 347.033 219.07 344.535 221.303 339.085Z" fill="#10002B"/>
<path d="M243.746 352.861C243.746 352.861 227.169 341.696 224.709 352.861C222.249 364.026 225.58 377.423 234.209 375.682C242.837 373.979 247.53 372.163 247.53 372.163L243.746 352.861Z" fill="white"/>
<path d="M232.77 376.78C230.727 376.78 228.91 375.985 227.358 374.433C223.385 370.384 221.909 361.225 223.763 352.634C224.293 350.25 225.542 348.66 227.472 347.903C233.944 345.405 245.979 353.769 246.471 354.148C246.887 354.451 247.001 355.056 246.698 355.472C246.395 355.889 245.789 356.002 245.373 355.7C242.118 353.429 232.733 347.903 228.153 349.682C226.829 350.212 225.996 351.309 225.617 353.05C223.877 360.922 225.201 369.551 228.683 373.109C230.159 374.623 231.938 375.152 234.019 374.774C242.459 373.109 247.152 371.292 247.19 371.292C247.682 371.103 248.212 371.33 248.401 371.822C248.59 372.314 248.363 372.844 247.871 373.033C247.682 373.109 243.027 374.887 234.398 376.628C233.868 376.742 233.3 376.78 232.77 376.78Z" fill="#111C3A"/>
<path d="M264.713 446.757C259.755 446.757 255.024 444.6 251.656 440.55C237.615 423.86 223.233 406.716 223.233 406.716L222.779 406.148L242.346 378.445L241.891 373.714C241.854 373.184 242.232 372.73 242.762 372.692C243.292 372.655 243.746 373.033 243.784 373.563L244.276 379.013L225.126 406.073C227.699 409.138 240.529 424.428 253.094 439.339C257.219 444.259 263.615 446.076 269.708 444.032C275.802 441.989 279.851 436.728 280.192 430.332L281.478 407.7C281.516 407.17 281.933 406.792 282.462 406.792C282.992 406.83 283.371 407.284 283.371 407.776L282.084 430.408C281.668 437.636 277.164 443.54 270.276 445.811C268.459 446.454 266.567 446.757 264.713 446.757Z" fill="#111C3A"/>
<path d="M111.966 515.031C111.814 515.031 111.663 514.994 111.512 514.918C111.057 514.653 110.906 514.085 111.133 513.631L125.401 488.199C125.666 487.744 126.234 487.593 126.688 487.82C127.142 488.085 127.293 488.653 127.066 489.107L112.798 514.539C112.609 514.842 112.306 515.031 111.966 515.031Z" fill="#111C3A"/>
<path d="M293.324 382.04C289.539 383.138 285.225 381.359 283.295 377.953C282.689 376.893 281.062 377.84 281.667 378.899C284.014 383.062 289.236 385.182 293.816 383.857C294.989 383.516 294.497 381.7 293.324 382.04Z" fill="#111C3A"/>
<path d="M294.27 347.335C296.125 350.59 297.676 354.034 298.887 357.592C299.493 359.371 300.023 361.187 300.439 363.004C300.855 364.82 301.196 366.751 300.855 368.567C300.704 369.4 300.439 370.232 300.023 370.951C299.796 371.33 299.569 371.671 299.304 372.011C299.152 372.163 299.001 372.314 298.85 372.465C298.774 372.541 298.698 372.579 298.623 372.655C298.206 372.957 298.698 372.427 299.077 372.844C299.152 373.071 299.266 373.298 299.342 373.525C299.342 373.487 299.342 373.487 299.342 373.449C299.266 373.676 299.152 373.903 299.077 374.131C299.077 374.093 299.115 374.093 299.115 374.055C299.417 373.639 299.493 373.109 299.115 372.73C298.774 372.39 298.093 372.314 297.79 372.73C296.882 373.903 298.358 375.077 299.493 374.358C300.326 373.828 301.045 373.033 301.537 372.163C302.596 370.422 302.975 368.302 302.861 366.259C302.748 363.95 302.104 361.641 301.461 359.446C300.855 357.327 300.099 355.283 299.266 353.239C298.282 350.855 297.184 348.584 295.898 346.351C295.292 345.33 293.665 346.276 294.27 347.335Z" fill="#111C3A"/>
<path d="M271.108 341.394C275.499 339.653 280.192 338.782 284.922 338.782C286.133 338.782 286.133 336.89 284.922 336.89C280.04 336.89 275.158 337.798 270.616 339.577C270.124 339.766 269.822 340.22 269.973 340.75C270.087 341.167 270.654 341.583 271.108 341.394Z" fill="#111C3A"/>
<path d="M299.872 337.382C300.099 337.306 300.288 337.268 300.515 337.231C300.628 337.193 300.742 337.193 300.856 337.155C300.893 337.155 301.196 337.117 301.045 337.117C301.461 337.079 301.915 337.041 302.332 337.041C302.559 337.041 302.748 337.041 302.937 337.079C303.013 337.079 303.051 337.079 303.126 337.117C303.051 337.117 303.051 337.117 303.164 337.117C303.278 337.117 303.353 337.155 303.467 337.155C303.921 337.231 304.337 337.344 304.754 337.496C305.208 337.647 305.813 337.306 305.927 336.852C306.04 336.322 305.776 335.868 305.284 335.679C303.391 334.998 301.31 334.96 299.38 335.528C298.888 335.679 298.547 336.209 298.736 336.701C298.85 337.193 299.342 337.533 299.872 337.382Z" fill="#111C3A"/>
<path d="M280.902 352.474C282.523 352.157 283.416 349.754 282.898 347.108C282.381 344.462 280.647 342.574 279.026 342.891C277.406 343.208 276.512 345.611 277.03 348.257C277.548 350.903 279.282 352.791 280.902 352.474Z" fill="#040A2E"/>
<path d="M305.246 344.611C305.775 347.26 304.867 349.682 303.24 349.985C301.612 350.288 299.871 348.395 299.379 345.746C298.85 343.097 299.758 340.675 301.385 340.372C302.975 340.069 304.716 341.961 305.246 344.611Z" fill="#040A2E"/>
<path d="M239.393 361.301C237.236 360.922 235.079 360.506 232.922 360.128C232.43 360.052 231.9 360.279 231.749 360.771C231.635 361.225 231.9 361.831 232.392 361.944C234.549 362.323 236.706 362.739 238.864 363.117C239.356 363.193 239.885 362.966 240.037 362.474C240.188 362.02 239.923 361.414 239.393 361.301Z" fill="#111C3A"/>
<path d="M519.492 408.306H374.163C363.453 408.306 354.786 399.639 354.786 388.928V301.428C354.786 290.718 363.453 282.051 374.163 282.051H519.454C530.165 282.051 538.832 290.718 538.832 301.428V388.928C538.832 399.639 530.165 408.306 519.492 408.306Z" fill="#FF4A57"/>
<path d="M435.701 310.721H443.61L450.319 327.081H450.629L457.338 310.721H465.247V337.145H459.028V320.914H458.808L452.461 336.977H448.487L442.139 320.824H441.92V337.145H435.701V310.721Z" fill="white"/>
<path d="M475.617 310.721V337.145H469.23V310.721H475.617Z" fill="white"/>
<path d="M493.909 318.643C493.823 317.697 493.44 316.961 492.76 316.437C492.089 315.904 491.13 315.637 489.883 315.637C489.057 315.637 488.369 315.744 487.819 315.959C487.268 316.174 486.855 316.471 486.58 316.85C486.305 317.22 486.163 317.645 486.154 318.127C486.137 318.523 486.215 318.871 486.387 319.172C486.567 319.473 486.825 319.74 487.161 319.972C487.505 320.196 487.918 320.393 488.399 320.565C488.881 320.737 489.423 320.888 490.025 321.017L492.296 321.533C493.603 321.817 494.756 322.195 495.754 322.669C496.76 323.142 497.603 323.705 498.282 324.359C498.97 325.012 499.491 325.765 499.844 326.617C500.196 327.468 500.377 328.423 500.385 329.481C500.377 331.149 499.955 332.582 499.121 333.777C498.287 334.973 497.087 335.889 495.521 336.525C493.964 337.162 492.085 337.48 489.883 337.48C487.673 337.48 485.746 337.149 484.103 336.487C482.46 335.824 481.183 334.818 480.271 333.468C479.359 332.117 478.891 330.41 478.865 328.345H484.98C485.032 329.197 485.26 329.907 485.664 330.474C486.068 331.042 486.623 331.472 487.329 331.764C488.042 332.057 488.868 332.203 489.806 332.203C490.666 332.203 491.397 332.087 491.999 331.855C492.61 331.623 493.079 331.3 493.405 330.887C493.732 330.474 493.9 330.001 493.909 329.468C493.9 328.969 493.745 328.543 493.444 328.191C493.143 327.829 492.679 327.52 492.051 327.262C491.431 326.995 490.64 326.75 489.677 326.526L486.916 325.881C484.628 325.356 482.826 324.509 481.51 323.339C480.194 322.161 479.54 320.57 479.549 318.566C479.54 316.931 479.979 315.499 480.865 314.269C481.751 313.039 482.976 312.08 484.542 311.392C486.107 310.704 487.892 310.36 489.896 310.36C491.943 310.36 493.719 310.708 495.225 311.405C496.738 312.093 497.913 313.061 498.747 314.308C499.581 315.555 500.007 317 500.024 318.643H493.909Z" fill="white"/>
<path d="M517.894 318.643C517.808 317.697 517.425 316.961 516.745 316.437C516.074 315.904 515.115 315.637 513.868 315.637C513.042 315.637 512.354 315.744 511.804 315.959C511.253 316.174 510.84 316.471 510.565 316.85C510.29 317.22 510.148 317.645 510.139 318.127C510.122 318.523 510.2 318.871 510.372 319.172C510.552 319.473 510.81 319.74 511.146 319.972C511.49 320.196 511.903 320.393 512.384 320.565C512.866 320.737 513.408 320.888 514.01 321.017L516.281 321.533C517.588 321.817 518.741 322.195 519.739 322.669C520.745 323.142 521.588 323.705 522.267 324.359C522.955 325.012 523.476 325.765 523.828 326.617C524.181 327.468 524.362 328.423 524.37 329.481C524.362 331.149 523.94 332.582 523.106 333.777C522.272 334.973 521.072 335.889 519.506 336.525C517.949 337.162 516.07 337.48 513.868 337.48C511.658 337.48 509.731 337.149 508.088 336.487C506.445 335.824 505.168 334.818 504.256 333.468C503.344 332.117 502.876 330.41 502.85 328.345H508.965C509.017 329.197 509.245 329.907 509.649 330.474C510.053 331.042 510.608 331.472 511.313 331.764C512.027 332.057 512.853 332.203 513.791 332.203C514.651 332.203 515.382 332.087 515.984 331.855C516.595 331.623 517.064 331.3 517.39 330.887C517.717 330.474 517.885 330.001 517.894 329.468C517.885 328.969 517.73 328.543 517.429 328.191C517.128 327.829 516.664 327.52 516.036 327.262C515.416 326.995 514.625 326.75 513.662 326.526L510.901 325.881C508.613 325.356 506.811 324.509 505.495 323.339C504.179 322.161 503.525 320.57 503.534 318.566C503.525 316.931 503.964 315.499 504.85 314.269C505.735 313.039 506.961 312.08 508.527 311.392C510.092 310.704 511.877 310.36 513.881 310.36C515.928 310.36 517.704 310.708 519.21 311.405C520.723 312.093 521.897 313.061 522.732 314.308C523.566 315.555 523.992 317 524.009 318.643H517.894Z" fill="white"/>
<path d="M488.801 382.532C490.157 381.554 490.464 379.662 489.487 378.306C488.509 376.949 486.617 376.642 485.26 377.62C483.904 378.597 483.597 380.49 484.574 381.846C485.552 383.203 487.444 383.51 488.801 382.532Z" fill="white"/>
<path d="M498.481 383.095C500.149 382.976 501.405 381.528 501.287 379.86C501.168 378.192 499.72 376.936 498.052 377.054C496.384 377.173 495.128 378.621 495.247 380.289C495.365 381.957 496.813 383.213 498.481 383.095Z" fill="white"/>
<path d="M512.41 380.568C512.678 378.917 511.557 377.362 509.907 377.094C508.256 376.826 506.701 377.947 506.433 379.598C506.165 381.248 507.286 382.804 508.937 383.072C510.587 383.339 512.142 382.219 512.41 380.568Z" fill="white"/>
<path d="M489.986 390.823C490.471 389.222 489.566 387.532 487.966 387.048C486.365 386.563 484.675 387.468 484.191 389.068C483.706 390.668 484.611 392.359 486.211 392.843C487.811 393.328 489.502 392.423 489.986 390.823Z" fill="white"/>
<path d="M501.285 390.146C501.413 388.478 500.165 387.023 498.497 386.896C496.83 386.768 495.375 388.017 495.248 389.684C495.12 391.351 496.368 392.806 498.036 392.934C499.703 393.061 501.158 391.813 501.285 390.146Z" fill="white"/>
<path d="M510.603 392.743C512.148 392.103 512.882 390.332 512.242 388.787C511.602 387.242 509.831 386.509 508.286 387.148C506.741 387.788 506.007 389.56 506.647 391.104C507.287 392.649 509.058 393.383 510.603 392.743Z" fill="white"/>
<path d="M419.503 392.94H376.321C373.861 392.94 371.817 390.934 371.817 388.436V358.538H423.969V388.436C423.969 390.934 421.963 392.94 419.503 392.94Z" fill="white"/>
<path d="M419.503 393.886H376.321C373.331 393.886 370.871 391.464 370.871 388.436V357.592H424.915V388.436C424.915 391.464 422.493 393.886 419.503 393.886ZM372.763 359.522V388.474C372.763 390.442 374.353 392.032 376.321 392.032H419.503C421.471 392.032 423.06 390.442 423.06 388.474V359.522H372.763Z" fill="#111C3A"/>
<path d="M426.429 347.487H369.395V358.576H426.429V347.487Z" fill="white"/>
<path d="M427.375 359.522H368.449V346.541H427.375V359.522ZM370.341 357.63H425.483V348.433H370.341V357.63Z" fill="#111C3A"/>
<path d="M423.969 359.522H371.817C371.287 359.522 370.871 359.106 370.871 358.576C370.871 358.046 371.287 357.63 371.817 357.63H423.969C424.499 357.63 424.915 358.046 424.915 358.576C424.915 359.106 424.499 359.522 423.969 359.522Z" fill="#111C3A"/>
<path d="M396.682 347.638H388.772C385.29 347.638 382.452 344.8 382.452 341.318V338.101C382.452 334.619 385.29 331.781 388.772 331.781H391.989C395.471 331.781 398.309 334.619 398.309 338.101V346.011C398.309 346.881 397.59 347.638 396.682 347.638ZM388.734 333.597C386.274 333.597 384.306 335.603 384.306 338.025V341.242C384.306 343.702 386.312 345.67 388.734 345.67H396.417V337.988C396.417 335.528 394.411 333.56 391.989 333.56H388.734V333.597Z" fill="#111C3A"/>
<path d="M407.279 347.638H399.369C398.46 347.638 397.704 346.881 397.704 345.973V338.063C397.704 334.581 400.542 331.743 404.024 331.743H407.241C410.723 331.743 413.561 334.581 413.561 338.063V341.28C413.599 344.8 410.76 347.638 407.279 347.638ZM399.596 345.746H407.279C409.739 345.746 411.707 343.74 411.707 341.318V338.101C411.707 335.641 409.701 333.673 407.279 333.673H404.062C401.602 333.673 399.634 335.679 399.634 338.101V345.746H399.596Z" fill="#111C3A"/>
<path d="M398.233 393.886C397.704 393.886 397.287 393.47 397.287 392.94V346.692C397.287 346.162 397.704 345.746 398.233 345.746C398.763 345.746 399.18 346.162 399.18 346.692V392.94C399.18 393.47 398.763 393.886 398.233 393.886Z" fill="#111C3A"/>
<path d="M383.36 329.094C381.203 329.094 379.462 327.353 379.462 325.196C379.462 323.038 381.203 321.297 383.36 321.297C385.517 321.297 387.258 323.038 387.258 325.196C387.258 327.353 385.479 329.094 383.36 329.094ZM383.36 323.19C382.262 323.19 381.354 324.098 381.354 325.196C381.354 326.293 382.262 327.201 383.36 327.201C384.457 327.201 385.366 326.293 385.366 325.196C385.328 324.098 384.457 323.19 383.36 323.19Z" fill="#111C3A"/>
<path d="M423.477 310.511C420.827 310.511 418.67 308.354 418.67 305.705C418.67 303.056 420.827 300.898 423.477 300.898C426.126 300.898 428.321 303.056 428.321 305.705C428.321 308.354 426.164 310.511 423.477 310.511ZM423.477 302.753C421.849 302.753 420.563 304.077 420.563 305.667C420.563 307.294 421.887 308.581 423.477 308.581C425.104 308.581 426.429 307.257 426.429 305.667C426.429 304.077 425.104 302.753 423.477 302.753Z" fill="#111C3A"/>
<path d="M401.185 318.686C398.196 318.686 395.736 316.226 395.736 313.236C395.736 310.246 398.196 307.786 401.185 307.786C404.175 307.786 406.635 310.246 406.635 313.236C406.635 316.226 404.175 318.686 401.185 318.686ZM401.185 309.679C399.217 309.679 397.628 311.268 397.628 313.236C397.628 315.204 399.217 316.794 401.185 316.794C403.153 316.794 404.743 315.204 404.743 313.236C404.743 311.268 403.116 309.679 401.185 309.679Z" fill="#111C3A"/>
<path d="M380.332 306.613C376.51 306.613 373.406 303.51 373.406 299.687C373.406 295.865 376.51 292.761 380.332 292.761C384.155 292.761 387.258 295.865 387.258 299.687C387.22 303.51 384.117 306.613 380.332 306.613ZM380.332 294.692C377.57 294.692 375.299 296.962 375.299 299.725C375.299 302.488 377.57 304.759 380.332 304.759C383.095 304.759 385.366 302.488 385.366 299.725C385.328 296.925 383.095 294.692 380.332 294.692Z" fill="#111C3A"/>
<path d="M409.057 298.136C408.527 298.136 408.111 297.719 408.111 297.189V291.55C408.111 291.021 408.527 290.604 409.057 290.604C409.587 290.604 410.003 291.021 410.003 291.55V297.189C410.003 297.719 409.587 298.136 409.057 298.136Z" fill="#111C3A"/>
<path d="M411.896 295.335H406.257C405.727 295.335 405.311 294.919 405.311 294.389C405.311 293.859 405.727 293.443 406.257 293.443H411.896C412.426 293.443 412.842 293.859 412.842 294.389C412.842 294.881 412.426 295.335 411.896 295.335Z" fill="#111C3A"/>
<path d="M417.876 329.434C417.346 329.434 416.929 329.018 416.929 328.488V322.849C416.929 322.319 417.346 321.903 417.876 321.903C418.405 321.903 418.822 322.319 418.822 322.849V328.488C418.822 329.018 418.368 329.434 417.876 329.434Z" fill="#111C3A"/>
<path d="M420.676 326.634H415.037C414.507 326.634 414.091 326.217 414.091 325.688C414.091 325.158 414.507 324.741 415.037 324.741H420.676C421.206 324.741 421.622 325.158 421.622 325.688C421.622 326.217 421.206 326.634 420.676 326.634Z" fill="#111C3A"/>
<path d="M373.444 319.821C372.915 319.821 372.498 319.405 372.498 318.875V313.236C372.498 312.706 372.915 312.29 373.444 312.29C373.974 312.29 374.391 312.706 374.391 313.236V318.875C374.391 319.405 373.974 319.821 373.444 319.821Z" fill="#111C3A"/>
<path d="M376.283 317.021H370.644C370.114 317.021 369.698 316.604 369.698 316.075C369.698 315.545 370.114 315.128 370.644 315.128H376.283C376.813 315.128 377.229 315.545 377.229 316.075C377.229 316.567 376.813 317.021 376.283 317.021Z" fill="#111C3A"/>
<path d="M422.871 608.057L434.187 599.277C436.42 597.536 439.221 596.59 442.059 596.59H513.588C523.958 596.59 532.36 588.188 532.36 577.818V538.875C532.36 528.505 523.958 520.103 513.588 520.103H440.167C429.797 520.103 421.395 528.505 421.395 538.875V607.338C421.395 608.095 422.266 608.511 422.871 608.057Z" fill="#FF4A57"/>
<path d="M457.908 559.394C458.7 556.038 456.622 552.674 453.265 551.882C449.909 551.089 446.546 553.168 445.753 556.524C444.96 559.88 447.039 563.244 450.395 564.036C453.752 564.829 457.115 562.75 457.908 559.394Z" fill="white"/>
<path d="M483.026 558.928C483.579 555.523 481.267 552.316 477.863 551.763C474.458 551.211 471.251 553.523 470.698 556.927C470.146 560.331 472.458 563.539 475.862 564.091C479.266 564.644 482.474 562.332 483.026 558.928Z" fill="white"/>
<path d="M506.27 562.34C508.709 559.902 508.709 555.948 506.27 553.509C503.832 551.071 499.878 551.071 497.439 553.509C495 555.948 495 559.902 497.439 562.34C499.878 564.779 503.832 564.779 506.27 562.34Z" fill="white"/>
<path d="M556.089 633.414H72.9462C72.4163 633.414 72 632.998 72 632.468C72 631.938 72.4163 631.522 72.9462 631.522H556.052C556.581 631.522 556.998 631.938 556.998 632.468C557.036 632.998 556.619 633.414 556.089 633.414Z" fill="#111C3A"/>
<rect x="72" y="162" width="420" height="8" fill="#FF4981"/>
<path d="M83.412 118.324C82.5 118.324 81.804 118.072 81.324 117.568C80.844 117.064 80.604 116.356 80.604 115.444V97.228H74.232C73.488 97.228 72.912 97.024 72.504 96.616C72.096 96.208 71.892 95.644 71.892 94.924C71.892 94.18 72.096 93.616 72.504 93.232C72.912 92.824 73.488 92.62 74.232 92.62H92.556C93.3 92.62 93.876 92.824 94.284 93.232C94.692 93.616 94.896 94.18 94.896 94.924C94.896 95.644 94.692 96.208 94.284 96.616C93.876 97.024 93.3 97.228 92.556 97.228H86.184V115.444C86.184 116.356 85.944 117.064 85.464 117.568C85.008 118.072 84.324 118.324 83.412 118.324ZM102.482 118.396C100.586 118.396 98.9304 118.024 97.5144 117.28C96.1224 116.536 95.0424 115.468 94.2744 114.076C93.5064 112.684 93.1224 111.04 93.1224 109.144C93.1224 107.728 93.3384 106.456 93.7704 105.328C94.2024 104.2 94.8264 103.24 95.6424 102.448C96.4824 101.632 97.4784 101.02 98.6304 100.612C99.7824 100.18 101.066 99.964 102.482 99.964C104.378 99.964 106.022 100.336 107.414 101.08C108.83 101.824 109.922 102.88 110.69 104.248C111.482 105.616 111.878 107.248 111.878 109.144C111.878 110.584 111.65 111.868 111.194 112.996C110.762 114.124 110.138 115.096 109.322 115.912C108.506 116.728 107.51 117.352 106.334 117.784C105.182 118.192 103.898 118.396 102.482 118.396ZM102.482 114.328C103.274 114.328 103.958 114.136 104.534 113.752C105.11 113.368 105.566 112.804 105.902 112.06C106.238 111.292 106.406 110.32 106.406 109.144C106.406 107.392 106.046 106.108 105.326 105.292C104.606 104.452 103.658 104.032 102.482 104.032C101.714 104.032 101.03 104.212 100.43 104.572C99.8544 104.932 99.3984 105.496 99.0624 106.264C98.7504 107.008 98.5944 107.968 98.5944 109.144C98.5944 110.896 98.9544 112.204 99.6744 113.068C100.394 113.908 101.33 114.328 102.482 114.328ZM134.42 118.396C132.332 118.396 130.532 118.024 129.02 117.28C127.532 116.512 126.38 115.444 125.564 114.076C124.772 112.684 124.376 111.052 124.376 109.18C124.376 107.356 124.76 105.76 125.528 104.392C126.296 103 127.364 101.92 128.732 101.152C130.124 100.36 131.696 99.964 133.448 99.964C134.72 99.964 135.872 100.18 136.904 100.612C137.936 101.02 138.824 101.62 139.568 102.412C140.312 103.18 140.876 104.128 141.26 105.256C141.644 106.36 141.836 107.596 141.836 108.964C141.836 109.42 141.692 109.768 141.404 110.008C141.116 110.224 140.696 110.332 140.144 110.332H128.84V107.524H137.912L137.336 108.028C137.336 107.044 137.192 106.228 136.904 105.58C136.616 104.908 136.196 104.404 135.644 104.068C135.116 103.732 134.456 103.564 133.664 103.564C132.776 103.564 132.02 103.768 131.396 104.176C130.772 104.584 130.292 105.172 129.956 105.94C129.62 106.708 129.452 107.632 129.452 108.712V109C129.452 110.824 129.872 112.168 130.712 113.032C131.576 113.896 132.848 114.328 134.528 114.328C135.104 114.328 135.764 114.256 136.508 114.112C137.252 113.968 137.948 113.74 138.596 113.428C139.148 113.164 139.64 113.08 140.072 113.176C140.504 113.248 140.84 113.44 141.08 113.752C141.32 114.064 141.452 114.424 141.476 114.832C141.524 115.24 141.44 115.648 141.224 116.056C141.008 116.44 140.648 116.764 140.144 117.028C139.328 117.484 138.404 117.82 137.372 118.036C136.364 118.276 135.38 118.396 134.42 118.396ZM147.806 118.324C146.918 118.324 146.234 118.084 145.754 117.604C145.298 117.124 145.07 116.44 145.07 115.552V102.772C145.07 101.884 145.298 101.212 145.754 100.756C146.234 100.276 146.894 100.036 147.734 100.036C148.598 100.036 149.258 100.276 149.714 100.756C150.17 101.212 150.398 101.884 150.398 102.772V105.076L150.002 103.636C150.482 102.532 151.226 101.644 152.234 100.972C153.242 100.3 154.43 99.964 155.798 99.964C157.166 99.964 158.306 100.288 159.218 100.936C160.13 101.584 160.778 102.58 161.162 103.924H160.658C161.186 102.7 161.99 101.74 163.07 101.044C164.174 100.324 165.434 99.964 166.85 99.964C168.218 99.964 169.334 100.24 170.198 100.792C171.086 101.32 171.746 102.136 172.178 103.24C172.61 104.32 172.826 105.7 172.826 107.38V115.552C172.826 116.44 172.586 117.124 172.106 117.604C171.65 118.084 170.99 118.324 170.126 118.324C169.238 118.324 168.554 118.084 168.074 117.604C167.618 117.124 167.39 116.44 167.39 115.552V107.56C167.39 106.384 167.198 105.532 166.814 105.004C166.454 104.452 165.83 104.176 164.942 104.176C163.91 104.176 163.106 104.536 162.53 105.256C161.954 105.976 161.666 106.996 161.666 108.316V115.552C161.666 116.44 161.426 117.124 160.946 117.604C160.49 118.084 159.83 118.324 158.966 118.324C158.102 118.324 157.43 118.084 156.95 117.604C156.47 117.124 156.23 116.44 156.23 115.552V107.56C156.23 106.384 156.038 105.532 155.654 105.004C155.294 104.452 154.67 104.176 153.782 104.176C152.75 104.176 151.946 104.536 151.37 105.256C150.794 105.976 150.506 106.996 150.506 108.316V115.552C150.506 117.4 149.606 118.324 147.806 118.324ZM187.898 118.396C186.482 118.396 185.222 118.048 184.118 117.352C183.038 116.632 182.318 115.684 181.958 114.508L182.354 113.32V115.552C182.354 116.44 182.126 117.124 181.67 117.604C181.214 118.084 180.554 118.324 179.69 118.324C178.826 118.324 178.154 118.084 177.674 117.604C177.218 117.124 176.99 116.44 176.99 115.552V95.068C176.99 94.156 177.218 93.472 177.674 93.016C178.154 92.536 178.838 92.296 179.726 92.296C180.59 92.296 181.25 92.536 181.706 93.016C182.186 93.472 182.426 94.156 182.426 95.068V103.6H181.994C182.378 102.52 183.11 101.644 184.19 100.972C185.27 100.3 186.506 99.964 187.898 99.964C189.458 99.964 190.814 100.336 191.966 101.08C193.118 101.824 194.018 102.88 194.666 104.248C195.314 105.616 195.638 107.248 195.638 109.144C195.638 111.04 195.314 112.684 194.666 114.076C194.018 115.468 193.106 116.536 191.93 117.28C190.778 118.024 189.434 118.396 187.898 118.396ZM186.278 114.328C187.046 114.328 187.718 114.136 188.294 113.752C188.894 113.368 189.35 112.804 189.662 112.06C189.998 111.292 190.166 110.32 190.166 109.144C190.166 107.392 189.806 106.108 189.086 105.292C188.366 104.452 187.43 104.032 186.278 104.032C185.51 104.032 184.826 104.212 184.226 104.572C183.65 104.932 183.194 105.496 182.858 106.264C182.522 107.008 182.354 107.968 182.354 109.144C182.354 110.896 182.714 112.204 183.434 113.068C184.154 113.908 185.102 114.328 186.278 114.328ZM204.939 118.396C203.643 118.396 202.479 118.144 201.447 117.64C200.415 117.136 199.611 116.452 199.035 115.588C198.459 114.724 198.171 113.752 198.171 112.672C198.171 111.376 198.507 110.356 199.179 109.612C199.851 108.844 200.943 108.304 202.455 107.992C203.967 107.656 205.971 107.488 208.467 107.488H210.375V110.296H208.503C207.279 110.296 206.283 110.368 205.515 110.512C204.771 110.632 204.231 110.848 203.895 111.16C203.583 111.472 203.427 111.904 203.427 112.456C203.427 113.128 203.655 113.68 204.111 114.112C204.591 114.544 205.275 114.76 206.163 114.76C206.859 114.76 207.471 114.604 207.999 114.292C208.551 113.956 208.983 113.512 209.295 112.96C209.607 112.384 209.763 111.736 209.763 111.016V106.876C209.763 105.82 209.523 105.076 209.043 104.644C208.563 104.188 207.747 103.96 206.595 103.96C205.947 103.96 205.239 104.044 204.471 104.212C203.727 104.356 202.899 104.608 201.987 104.968C201.459 105.208 200.991 105.268 200.583 105.148C200.175 105.004 199.863 104.764 199.647 104.428C199.431 104.068 199.323 103.684 199.323 103.276C199.323 102.844 199.443 102.436 199.683 102.052C199.923 101.644 200.319 101.344 200.871 101.152C201.999 100.696 203.055 100.384 204.039 100.216C205.047 100.048 205.971 99.964 206.811 99.964C208.659 99.964 210.171 100.24 211.347 100.792C212.547 101.32 213.447 102.148 214.047 103.276C214.647 104.38 214.947 105.808 214.947 107.56V115.552C214.947 116.44 214.731 117.124 214.299 117.604C213.867 118.084 213.243 118.324 212.427 118.324C211.611 118.324 210.975 118.084 210.519 117.604C210.087 117.124 209.871 116.44 209.871 115.552V114.22L210.123 114.436C209.979 115.252 209.667 115.96 209.187 116.56C208.731 117.136 208.143 117.592 207.423 117.928C206.703 118.24 205.875 118.396 204.939 118.396ZM221.81 118.324C220.898 118.324 220.202 118.084 219.722 117.604C219.242 117.124 219.002 116.44 219.002 115.552V102.772C219.002 101.884 219.23 101.212 219.686 100.756C220.166 100.276 220.826 100.036 221.666 100.036C222.53 100.036 223.19 100.276 223.646 100.756C224.102 101.212 224.33 101.884 224.33 102.772V104.644H223.97C224.258 103.204 224.894 102.088 225.878 101.296C226.862 100.504 228.134 100.06 229.694 99.964C230.294 99.916 230.75 100.072 231.062 100.432C231.398 100.768 231.578 101.332 231.602 102.124C231.65 102.868 231.494 103.456 231.134 103.888C230.798 104.32 230.222 104.584 229.406 104.68L228.578 104.752C227.21 104.872 226.19 105.268 225.518 105.94C224.87 106.612 224.546 107.584 224.546 108.856V115.552C224.546 116.44 224.306 117.124 223.826 117.604C223.37 118.084 222.698 118.324 221.81 118.324ZM236.646 118.324C235.734 118.324 235.038 118.084 234.558 117.604C234.078 117.124 233.838 116.44 233.838 115.552V102.772C233.838 101.884 234.066 101.212 234.522 100.756C235.002 100.276 235.662 100.036 236.502 100.036C237.366 100.036 238.026 100.276 238.482 100.756C238.938 101.212 239.166 101.884 239.166 102.772V104.644H238.806C239.094 103.204 239.73 102.088 240.714 101.296C241.698 100.504 242.97 100.06 244.53 99.964C245.13 99.916 245.586 100.072 245.898 100.432C246.234 100.768 246.414 101.332 246.438 102.124C246.486 102.868 246.33 103.456 245.97 103.888C245.634 104.32 245.058 104.584 244.242 104.68L243.414 104.752C242.046 104.872 241.026 105.268 240.354 105.94C239.706 106.612 239.382 107.584 239.382 108.856V115.552C239.382 116.44 239.142 117.124 238.662 117.604C238.206 118.084 237.534 118.324 236.646 118.324ZM254.474 118.396C253.178 118.396 252.014 118.144 250.982 117.64C249.95 117.136 249.146 116.452 248.57 115.588C247.994 114.724 247.706 113.752 247.706 112.672C247.706 111.376 248.042 110.356 248.714 109.612C249.386 108.844 250.478 108.304 251.99 107.992C253.502 107.656 255.506 107.488 258.002 107.488H259.91V110.296H258.038C256.814 110.296 255.818 110.368 255.05 110.512C254.306 110.632 253.766 110.848 253.43 111.16C253.118 111.472 252.962 111.904 252.962 112.456C252.962 113.128 253.19 113.68 253.646 114.112C254.126 114.544 254.81 114.76 255.698 114.76C256.394 114.76 257.006 114.604 257.534 114.292C258.086 113.956 258.518 113.512 258.83 112.96C259.142 112.384 259.298 111.736 259.298 111.016V106.876C259.298 105.82 259.058 105.076 258.578 104.644C258.098 104.188 257.282 103.96 256.13 103.96C255.482 103.96 254.774 104.044 254.006 104.212C253.262 104.356 252.434 104.608 251.522 104.968C250.994 105.208 250.526 105.268 250.118 105.148C249.71 105.004 249.398 104.764 249.182 104.428C248.966 104.068 248.858 103.684 248.858 103.276C248.858 102.844 248.978 102.436 249.218 102.052C249.458 101.644 249.854 101.344 250.406 101.152C251.534 100.696 252.59 100.384 253.574 100.216C254.582 100.048 255.506 99.964 256.346 99.964C258.194 99.964 259.706 100.24 260.882 100.792C262.082 101.32 262.982 102.148 263.582 103.276C264.182 104.38 264.482 105.808 264.482 107.56V115.552C264.482 116.44 264.266 117.124 263.834 117.604C263.402 118.084 262.778 118.324 261.962 118.324C261.146 118.324 260.51 118.084 260.054 117.604C259.622 117.124 259.406 116.44 259.406 115.552V114.22L259.658 114.436C259.514 115.252 259.202 115.96 258.722 116.56C258.266 117.136 257.678 117.592 256.958 117.928C256.238 118.24 255.41 118.396 254.474 118.396ZM275.305 118.396C274.249 118.396 273.157 118.3 272.029 118.108C270.925 117.916 269.917 117.592 269.005 117.136C268.525 116.896 268.177 116.596 267.961 116.236C267.769 115.852 267.685 115.468 267.709 115.084C267.733 114.7 267.853 114.352 268.069 114.04C268.309 113.728 268.609 113.524 268.969 113.428C269.353 113.308 269.773 113.344 270.229 113.536C271.213 113.944 272.113 114.232 272.929 114.4C273.745 114.568 274.549 114.652 275.341 114.652C276.373 114.652 277.117 114.496 277.573 114.184C278.053 113.848 278.293 113.416 278.293 112.888C278.293 112.408 278.137 112.048 277.825 111.808C277.513 111.568 277.057 111.4 276.457 111.304L272.677 110.62C271.189 110.356 270.037 109.816 269.221 109C268.429 108.16 268.033 107.092 268.033 105.796C268.033 104.596 268.369 103.564 269.041 102.7C269.713 101.812 270.637 101.14 271.813 100.684C273.013 100.204 274.369 99.964 275.881 99.964C276.961 99.964 277.957 100.06 278.869 100.252C279.781 100.444 280.657 100.756 281.497 101.188C281.929 101.404 282.229 101.692 282.397 102.052C282.589 102.412 282.649 102.784 282.577 103.168C282.529 103.552 282.385 103.9 282.145 104.212C281.905 104.524 281.593 104.728 281.209 104.824C280.849 104.92 280.429 104.872 279.949 104.68C279.181 104.32 278.473 104.068 277.825 103.924C277.177 103.756 276.553 103.672 275.953 103.672C274.873 103.672 274.093 103.852 273.613 104.212C273.133 104.548 272.893 104.98 272.893 105.508C272.893 105.916 273.025 106.264 273.289 106.552C273.577 106.816 274.009 106.996 274.585 107.092L278.365 107.776C279.925 108.04 281.113 108.568 281.929 109.36C282.745 110.128 283.153 111.184 283.153 112.528C283.153 114.352 282.433 115.792 280.993 116.848C279.577 117.88 277.681 118.396 275.305 118.396ZM293.024 118.396C291.968 118.396 290.876 118.3 289.748 118.108C288.644 117.916 287.636 117.592 286.724 117.136C286.244 116.896 285.896 116.596 285.68 116.236C285.488 115.852 285.404 115.468 285.428 115.084C285.452 114.7 285.572 114.352 285.788 114.04C286.028 113.728 286.328 113.524 286.688 113.428C287.072 113.308 287.492 113.344 287.948 113.536C288.932 113.944 289.832 114.232 290.648 114.4C291.464 114.568 292.268 114.652 293.06 114.652C294.092 114.652 294.836 114.496 295.292 114.184C295.772 113.848 296.012 113.416 296.012 112.888C296.012 112.408 295.856 112.048 295.544 111.808C295.232 111.568 294.776 111.4 294.176 111.304L290.396 110.62C288.908 110.356 287.756 109.816 286.94 109C286.148 108.16 285.752 107.092 285.752 105.796C285.752 104.596 286.088 103.564 286.76 102.7C287.432 101.812 288.356 101.14 289.532 100.684C290.732 100.204 292.088 99.964 293.6 99.964C294.68 99.964 295.676 100.06 296.588 100.252C297.5 100.444 298.376 100.756 299.216 101.188C299.648 101.404 299.948 101.692 300.116 102.052C300.308 102.412 300.368 102.784 300.296 103.168C300.248 103.552 300.104 103.9 299.864 104.212C299.624 104.524 299.312 104.728 298.928 104.824C298.568 104.92 298.148 104.872 297.668 104.68C296.9 104.32 296.192 104.068 295.544 103.924C294.896 103.756 294.272 103.672 293.672 103.672C292.592 103.672 291.812 103.852 291.332 104.212C290.852 104.548 290.612 104.98 290.612 105.508C290.612 105.916 290.744 106.264 291.008 106.552C291.296 106.816 291.728 106.996 292.304 107.092L296.084 107.776C297.644 108.04 298.832 108.568 299.648 109.36C300.464 110.128 300.872 111.184 300.872 112.528C300.872 114.352 300.152 115.792 298.712 116.848C297.296 117.88 295.4 118.396 293.024 118.396ZM313.155 118.396C311.067 118.396 309.267 118.024 307.755 117.28C306.267 116.512 305.115 115.444 304.299 114.076C303.507 112.684 303.111 111.052 303.111 109.18C303.111 107.356 303.495 105.76 304.263 104.392C305.031 103 306.099 101.92 307.467 101.152C308.859 100.36 310.431 99.964 312.183 99.964C313.455 99.964 314.607 100.18 315.639 100.612C316.671 101.02 317.559 101.62 318.303 102.412C319.047 103.18 319.611 104.128 319.995 105.256C320.379 106.36 320.571 107.596 320.571 108.964C320.571 109.42 320.427 109.768 320.139 110.008C319.851 110.224 319.431 110.332 318.879 110.332H307.575V107.524H316.647L316.071 108.028C316.071 107.044 315.927 106.228 315.639 105.58C315.351 104.908 314.931 104.404 314.379 104.068C313.851 103.732 313.191 103.564 312.399 103.564C311.511 103.564 310.755 103.768 310.131 104.176C309.507 104.584 309.027 105.172 308.691 105.94C308.355 106.708 308.187 107.632 308.187 108.712V109C308.187 110.824 308.607 112.168 309.447 113.032C310.311 113.896 311.583 114.328 313.263 114.328C313.839 114.328 314.499 114.256 315.243 114.112C315.987 113.968 316.683 113.74 317.331 113.428C317.883 113.164 318.375 113.08 318.807 113.176C319.239 113.248 319.575 113.44 319.815 113.752C320.055 114.064 320.187 114.424 320.211 114.832C320.259 115.24 320.175 115.648 319.959 116.056C319.743 116.44 319.383 116.764 318.879 117.028C318.063 117.484 317.139 117.82 316.107 118.036C315.099 118.276 314.115 118.396 313.155 118.396ZM330.609 118.396C329.073 118.396 327.717 118.024 326.541 117.28C325.389 116.536 324.489 115.468 323.841 114.076C323.193 112.684 322.869 111.04 322.869 109.144C322.869 107.248 323.193 105.616 323.841 104.248C324.489 102.88 325.389 101.824 326.541 101.08C327.717 100.336 329.073 99.964 330.609 99.964C332.001 99.964 333.225 100.3 334.281 100.972C335.361 101.644 336.093 102.52 336.477 103.6H336.081V95.068C336.081 94.156 336.309 93.472 336.765 93.016C337.221 92.536 337.893 92.296 338.781 92.296C339.645 92.296 340.317 92.536 340.797 93.016C341.277 93.472 341.517 94.156 341.517 95.068V115.552C341.517 116.44 341.277 117.124 340.797 117.604C340.341 118.084 339.681 118.324 338.817 118.324C337.953 118.324 337.281 118.084 336.801 117.604C336.345 117.124 336.117 116.44 336.117 115.552V113.104L336.513 114.508C336.177 115.684 335.457 116.632 334.353 117.352C333.273 118.048 332.025 118.396 330.609 118.396ZM332.229 114.328C333.021 114.328 333.705 114.136 334.281 113.752C334.857 113.368 335.313 112.804 335.649 112.06C335.985 111.292 336.153 110.32 336.153 109.144C336.153 107.392 335.793 106.108 335.073 105.292C334.353 104.452 333.405 104.032 332.229 104.032C331.461 104.032 330.777 104.212 330.177 104.572C329.601 104.932 329.145 105.496 328.809 106.264C328.497 107.008 328.341 107.968 328.341 109.144C328.341 110.896 328.701 112.204 329.421 113.068C330.141 113.908 331.077 114.328 332.229 114.328ZM364.436 118.396C362.78 118.396 361.388 118.12 360.26 117.568C359.156 117.016 358.328 116.212 357.776 115.156C357.248 114.1 356.984 112.768 356.984 111.16V104.392H355.472C354.8 104.392 354.272 104.212 353.888 103.852C353.528 103.492 353.348 103 353.348 102.376C353.348 101.704 353.528 101.2 353.888 100.864C354.272 100.504 354.8 100.324 355.472 100.324H356.984V97.588C356.984 96.676 357.224 95.992 357.704 95.536C358.184 95.056 358.856 94.816 359.72 94.816C360.608 94.816 361.28 95.056 361.736 95.536C362.192 95.992 362.42 96.676 362.42 97.588V100.324H365.84C366.512 100.324 367.028 100.504 367.388 100.864C367.748 101.2 367.928 101.704 367.928 102.376C367.928 103 367.748 103.492 367.388 103.852C367.028 104.212 366.512 104.392 365.84 104.392H362.42V110.944C362.42 111.952 362.648 112.708 363.104 113.212C363.584 113.716 364.34 113.968 365.372 113.968C365.732 113.968 366.068 113.932 366.38 113.86C366.692 113.788 366.98 113.74 367.244 113.716C367.58 113.692 367.856 113.8 368.072 114.04C368.288 114.256 368.396 114.748 368.396 115.516C368.396 116.092 368.3 116.596 368.108 117.028C367.916 117.46 367.58 117.772 367.1 117.964C366.788 118.084 366.356 118.18 365.804 118.252C365.276 118.348 364.82 118.396 364.436 118.396ZM378.635 118.396C376.739 118.396 375.083 118.024 373.667 117.28C372.275 116.536 371.195 115.468 370.427 114.076C369.659 112.684 369.275 111.04 369.275 109.144C369.275 107.728 369.491 106.456 369.923 105.328C370.355 104.2 370.979 103.24 371.795 102.448C372.635 101.632 373.631 101.02 374.783 100.612C375.935 100.18 377.219 99.964 378.635 99.964C380.531 99.964 382.175 100.336 383.567 101.08C384.983 101.824 386.075 102.88 386.843 104.248C387.635 105.616 388.031 107.248 388.031 109.144C388.031 110.584 387.803 111.868 387.347 112.996C386.915 114.124 386.291 115.096 385.475 115.912C384.659 116.728 383.663 117.352 382.487 117.784C381.335 118.192 380.051 118.396 378.635 118.396ZM378.635 114.328C379.427 114.328 380.111 114.136 380.687 113.752C381.263 113.368 381.719 112.804 382.055 112.06C382.391 111.292 382.559 110.32 382.559 109.144C382.559 107.392 382.199 106.108 381.479 105.292C380.759 104.452 379.811 104.032 378.635 104.032C377.867 104.032 377.183 104.212 376.583 104.572C376.007 104.932 375.551 105.496 375.215 106.264C374.903 107.008 374.747 107.968 374.747 109.144C374.747 110.896 375.107 112.204 375.827 113.068C376.547 113.908 377.483 114.328 378.635 114.328ZM410.069 118.396C408.413 118.396 407.021 118.12 405.893 117.568C404.789 117.016 403.961 116.212 403.409 115.156C402.881 114.1 402.617 112.768 402.617 111.16V104.392H401.105C400.433 104.392 399.905 104.212 399.521 103.852C399.161 103.492 398.981 103 398.981 102.376C398.981 101.704 399.161 101.2 399.521 100.864C399.905 100.504 400.433 100.324 401.105 100.324H402.617V97.588C402.617 96.676 402.857 95.992 403.337 95.536C403.817 95.056 404.489 94.816 405.353 94.816C406.241 94.816 406.913 95.056 407.369 95.536C407.825 95.992 408.053 96.676 408.053 97.588V100.324H411.473C412.145 100.324 412.661 100.504 413.021 100.864C413.381 101.2 413.561 101.704 413.561 102.376C413.561 103 413.381 103.492 413.021 103.852C412.661 104.212 412.145 104.392 411.473 104.392H408.053V110.944C408.053 111.952 408.281 112.708 408.737 113.212C409.217 113.716 409.973 113.968 411.005 113.968C411.365 113.968 411.701 113.932 412.013 113.86C412.325 113.788 412.613 113.74 412.877 113.716C413.213 113.692 413.489 113.8 413.705 114.04C413.921 114.256 414.029 114.748 414.029 115.516C414.029 116.092 413.933 116.596 413.741 117.028C413.549 117.46 413.213 117.772 412.733 117.964C412.421 118.084 411.989 118.18 411.437 118.252C410.909 118.348 410.453 118.396 410.069 118.396ZM424.952 118.396C422.864 118.396 421.064 118.024 419.552 117.28C418.064 116.512 416.912 115.444 416.096 114.076C415.304 112.684 414.908 111.052 414.908 109.18C414.908 107.356 415.292 105.76 416.06 104.392C416.828 103 417.896 101.92 419.264 101.152C420.656 100.36 422.228 99.964 423.98 99.964C425.252 99.964 426.404 100.18 427.436 100.612C428.468 101.02 429.356 101.62 430.1 102.412C430.844 103.18 431.408 104.128 431.792 105.256C432.176 106.36 432.368 107.596 432.368 108.964C432.368 109.42 432.224 109.768 431.936 110.008C431.648 110.224 431.228 110.332 430.676 110.332H419.372V107.524H428.444L427.868 108.028C427.868 107.044 427.724 106.228 427.436 105.58C427.148 104.908 426.728 104.404 426.176 104.068C425.648 103.732 424.988 103.564 424.196 103.564C423.308 103.564 422.552 103.768 421.928 104.176C421.304 104.584 420.824 105.172 420.488 105.94C420.152 106.708 419.984 107.632 419.984 108.712V109C419.984 110.824 420.404 112.168 421.244 113.032C422.108 113.896 423.38 114.328 425.06 114.328C425.636 114.328 426.296 114.256 427.04 114.112C427.784 113.968 428.48 113.74 429.128 113.428C429.68 113.164 430.172 113.08 430.604 113.176C431.036 113.248 431.372 113.44 431.612 113.752C431.852 114.064 431.984 114.424 432.008 114.832C432.056 115.24 431.972 115.648 431.756 116.056C431.54 116.44 431.18 116.764 430.676 117.028C429.86 117.484 428.936 117.82 427.904 118.036C426.896 118.276 425.912 118.396 424.952 118.396ZM441.901 118.396C439.765 118.396 438.169 117.808 437.113 116.632C436.057 115.432 435.529 113.656 435.529 111.304V95.068C435.529 94.156 435.757 93.472 436.213 93.016C436.693 92.536 437.377 92.296 438.265 92.296C439.129 92.296 439.789 92.536 440.245 93.016C440.725 93.472 440.965 94.156 440.965 95.068V111.088C440.965 112.072 441.169 112.804 441.577 113.284C442.009 113.74 442.573 113.968 443.269 113.968C443.461 113.968 443.641 113.956 443.809 113.932C443.977 113.908 444.157 113.896 444.349 113.896C444.733 113.848 444.997 113.968 445.141 114.256C445.309 114.52 445.393 115.06 445.393 115.876C445.393 116.596 445.249 117.148 444.961 117.532C444.673 117.892 444.229 118.132 443.629 118.252C443.389 118.276 443.113 118.3 442.801 118.324C442.489 118.372 442.189 118.396 441.901 118.396ZM453.89 118.396C451.754 118.396 450.158 117.808 449.102 116.632C448.046 115.432 447.518 113.656 447.518 111.304V95.068C447.518 94.156 447.746 93.472 448.202 93.016C448.682 92.536 449.366 92.296 450.254 92.296C451.118 92.296 451.778 92.536 452.234 93.016C452.714 93.472 452.954 94.156 452.954 95.068V111.088C452.954 112.072 453.158 112.804 453.566 113.284C453.998 113.74 454.562 113.968 455.258 113.968C455.45 113.968 455.63 113.956 455.798 113.932C455.966 113.908 456.146 113.896 456.338 113.896C456.722 113.848 456.986 113.968 457.13 114.256C457.298 114.52 457.382 115.06 457.382 115.876C457.382 116.596 457.238 117.148 456.95 117.532C456.662 117.892 456.218 118.132 455.618 118.252C455.378 118.276 455.102 118.3 454.79 118.324C454.478 118.372 454.178 118.396 453.89 118.396ZM80.856 167.396C79.8 167.396 78.708 167.3 77.58 167.108C76.476 166.916 75.468 166.592 74.556 166.136C74.076 165.896 73.728 165.596 73.512 165.236C73.32 164.852 73.236 164.468 73.26 164.084C73.284 163.7 73.404 163.352 73.62 163.04C73.86 162.728 74.16 162.524 74.52 162.428C74.904 162.308 75.324 162.344 75.78 162.536C76.764 162.944 77.664 163.232 78.48 163.4C79.296 163.568 80.1 163.652 80.892 163.652C81.924 163.652 82.668 163.496 83.124 163.184C83.604 162.848 83.844 162.416 83.844 161.888C83.844 161.408 83.688 161.048 83.376 160.808C83.064 160.568 82.608 160.4 82.008 160.304L78.228 159.62C76.74 159.356 75.588 158.816 74.772 158C73.98 157.16 73.584 156.092 73.584 154.796C73.584 153.596 73.92 152.564 74.592 151.7C75.264 150.812 76.188 150.14 77.364 149.684C78.564 149.204 79.92 148.964 81.432 148.964C82.512 148.964 83.508 149.06 84.42 149.252C85.332 149.444 86.208 149.756 87.048 150.188C87.48 150.404 87.78 150.692 87.948 151.052C88.14 151.412 88.2 151.784 88.128 152.168C88.08 152.552 87.936 152.9 87.696 153.212C87.456 153.524 87.144 153.728 86.76 153.824C86.4 153.92 85.98 153.872 85.5 153.68C84.732 153.32 84.024 153.068 83.376 152.924C82.728 152.756 82.104 152.672 81.504 152.672C80.424 152.672 79.644 152.852 79.164 153.212C78.684 153.548 78.444 153.98 78.444 154.508C78.444 154.916 78.576 155.264 78.84 155.552C79.128 155.816 79.56 155.996 80.136 156.092L83.916 156.776C85.476 157.04 86.664 157.568 87.48 158.36C88.296 159.128 88.704 160.184 88.704 161.528C88.704 163.352 87.984 164.792 86.544 165.848C85.128 166.88 83.232 167.396 80.856 167.396ZM100.303 167.396C98.4068 167.396 96.7508 167.024 95.3348 166.28C93.9428 165.536 92.8628 164.468 92.0947 163.076C91.3268 161.684 90.9428 160.04 90.9428 158.144C90.9428 156.728 91.1588 155.456 91.5908 154.328C92.0228 153.2 92.6468 152.24 93.4628 151.448C94.3028 150.632 95.2988 150.02 96.4508 149.612C97.6028 149.18 98.8868 148.964 100.303 148.964C102.199 148.964 103.843 149.336 105.235 150.08C106.651 150.824 107.743 151.88 108.511 153.248C109.303 154.616 109.699 156.248 109.699 158.144C109.699 159.584 109.471 160.868 109.015 161.996C108.583 163.124 107.959 164.096 107.143 164.912C106.327 165.728 105.331 166.352 104.155 166.784C103.003 167.192 101.719 167.396 100.303 167.396ZM100.303 163.328C101.095 163.328 101.779 163.136 102.355 162.752C102.931 162.368 103.387 161.804 103.723 161.06C104.059 160.292 104.227 159.32 104.227 158.144C104.227 156.392 103.867 155.108 103.147 154.292C102.427 153.452 101.479 153.032 100.303 153.032C99.5348 153.032 98.8508 153.212 98.2508 153.572C97.6748 153.932 97.2188 154.496 96.8828 155.264C96.5708 156.008 96.4148 156.968 96.4148 158.144C96.4148 159.896 96.7748 161.204 97.4948 162.068C98.2148 162.908 99.1508 163.328 100.303 163.328ZM115.814 167.324C114.926 167.324 114.242 167.084 113.762 166.604C113.306 166.124 113.078 165.44 113.078 164.552V151.772C113.078 150.884 113.306 150.212 113.762 149.756C114.242 149.276 114.902 149.036 115.742 149.036C116.606 149.036 117.266 149.276 117.722 149.756C118.178 150.212 118.406 150.884 118.406 151.772V154.076L118.01 152.636C118.49 151.532 119.234 150.644 120.242 149.972C121.25 149.3 122.438 148.964 123.806 148.964C125.174 148.964 126.314 149.288 127.226 149.936C128.138 150.584 128.786 151.58 129.17 152.924H128.666C129.194 151.7 129.998 150.74 131.078 150.044C132.182 149.324 133.442 148.964 134.858 148.964C136.226 148.964 137.342 149.24 138.206 149.792C139.094 150.32 139.754 151.136 140.186 152.24C140.618 153.32 140.834 154.7 140.834 156.38V164.552C140.834 165.44 140.594 166.124 140.114 166.604C139.658 167.084 138.998 167.324 138.134 167.324C137.246 167.324 136.562 167.084 136.082 166.604C135.626 166.124 135.398 165.44 135.398 164.552V156.56C135.398 155.384 135.206 154.532 134.822 154.004C134.462 153.452 133.838 153.176 132.95 153.176C131.918 153.176 131.114 153.536 130.538 154.256C129.962 154.976 129.674 155.996 129.674 157.316V164.552C129.674 165.44 129.434 166.124 128.954 166.604C128.498 167.084 127.838 167.324 126.974 167.324C126.11 167.324 125.438 167.084 124.958 166.604C124.478 166.124 124.238 165.44 124.238 164.552V156.56C124.238 155.384 124.046 154.532 123.662 154.004C123.302 153.452 122.678 153.176 121.79 153.176C120.758 153.176 119.954 153.536 119.378 154.256C118.802 154.976 118.514 155.996 118.514 157.316V164.552C118.514 166.4 117.614 167.324 115.814 167.324ZM154.178 167.396C152.09 167.396 150.29 167.024 148.778 166.28C147.29 165.512 146.138 164.444 145.322 163.076C144.53 161.684 144.134 160.052 144.134 158.18C144.134 156.356 144.518 154.76 145.286 153.392C146.054 152 147.122 150.92 148.49 150.152C149.882 149.36 151.454 148.964 153.206 148.964C154.478 148.964 155.63 149.18 156.662 149.612C157.694 150.02 158.582 150.62 159.326 151.412C160.07 152.18 160.634 153.128 161.018 154.256C161.402 155.36 161.594 156.596 161.594 157.964C161.594 158.42 161.45 158.768 161.162 159.008C160.874 159.224 160.454 159.332 159.902 159.332H148.598V156.524H157.67L157.094 157.028C157.094 156.044 156.95 155.228 156.662 154.58C156.374 153.908 155.954 153.404 155.402 153.068C154.874 152.732 154.214 152.564 153.422 152.564C152.534 152.564 151.778 152.768 151.154 153.176C150.53 153.584 150.05 154.172 149.714 154.94C149.378 155.708 149.21 156.632 149.21 157.712V158C149.21 159.824 149.63 161.168 150.47 162.032C151.334 162.896 152.606 163.328 154.286 163.328C154.862 163.328 155.522 163.256 156.266 163.112C157.01 162.968 157.706 162.74 158.354 162.428C158.906 162.164 159.398 162.08 159.83 162.176C160.262 162.248 160.598 162.44 160.838 162.752C161.078 163.064 161.21 163.424 161.234 163.832C161.282 164.24 161.198 164.648 160.982 165.056C160.766 165.44 160.406 165.764 159.902 166.028C159.086 166.484 158.162 166.82 157.13 167.036C156.122 167.276 155.138 167.396 154.178 167.396ZM173.252 167.396C171.356 167.396 169.7 167.024 168.284 166.28C166.892 165.536 165.812 164.468 165.044 163.076C164.276 161.684 163.892 160.04 163.892 158.144C163.892 156.728 164.108 155.456 164.54 154.328C164.972 153.2 165.596 152.24 166.412 151.448C167.252 150.632 168.248 150.02 169.4 149.612C170.552 149.18 171.836 148.964 173.252 148.964C175.148 148.964 176.792 149.336 178.184 150.08C179.6 150.824 180.692 151.88 181.46 153.248C182.252 154.616 182.648 156.248 182.648 158.144C182.648 159.584 182.42 160.868 181.964 161.996C181.532 163.124 180.908 164.096 180.092 164.912C179.276 165.728 178.28 166.352 177.104 166.784C175.952 167.192 174.668 167.396 173.252 167.396ZM173.252 163.328C174.044 163.328 174.728 163.136 175.304 162.752C175.88 162.368 176.336 161.804 176.672 161.06C177.008 160.292 177.176 159.32 177.176 158.144C177.176 156.392 176.816 155.108 176.096 154.292C175.376 153.452 174.428 153.032 173.252 153.032C172.484 153.032 171.8 153.212 171.2 153.572C170.624 153.932 170.168 154.496 169.832 155.264C169.52 156.008 169.364 156.968 169.364 158.144C169.364 159.896 169.724 161.204 170.444 162.068C171.164 162.908 172.1 163.328 173.252 163.328ZM188.691 167.324C187.803 167.324 187.119 167.084 186.639 166.604C186.183 166.124 185.955 165.44 185.955 164.552V151.772C185.955 150.884 186.183 150.212 186.639 149.756C187.119 149.276 187.779 149.036 188.619 149.036C189.483 149.036 190.143 149.276 190.599 149.756C191.055 150.212 191.283 150.884 191.283 151.772V153.824L190.887 152.636C191.439 151.46 192.255 150.56 193.335 149.936C194.439 149.288 195.687 148.964 197.079 148.964C198.495 148.964 199.659 149.24 200.571 149.792C201.483 150.32 202.167 151.136 202.623 152.24C203.079 153.32 203.307 154.7 203.307 156.38V164.552C203.307 165.44 203.067 166.124 202.587 166.604C202.131 167.084 201.459 167.324 200.571 167.324C199.707 167.324 199.035 167.084 198.555 166.604C198.099 166.124 197.871 165.44 197.871 164.552V156.632C197.871 155.408 197.643 154.532 197.187 154.004C196.755 153.452 196.083 153.176 195.171 153.176C194.019 153.176 193.095 153.536 192.399 154.256C191.727 154.976 191.391 155.936 191.391 157.136V164.552C191.391 166.4 190.491 167.324 188.691 167.324ZM216.545 167.396C214.457 167.396 212.657 167.024 211.145 166.28C209.657 165.512 208.505 164.444 207.689 163.076C206.897 161.684 206.501 160.052 206.501 158.18C206.501 156.356 206.885 154.76 207.653 153.392C208.421 152 209.489 150.92 210.857 150.152C212.249 149.36 213.821 148.964 215.573 148.964C216.845 148.964 217.997 149.18 219.029 149.612C220.061 150.02 220.949 150.62 221.693 151.412C222.437 152.18 223.001 153.128 223.385 154.256C223.769 155.36 223.961 156.596 223.961 157.964C223.961 158.42 223.817 158.768 223.529 159.008C223.241 159.224 222.821 159.332 222.269 159.332H210.965V156.524H220.037L219.461 157.028C219.461 156.044 219.317 155.228 219.029 154.58C218.741 153.908 218.321 153.404 217.769 153.068C217.241 152.732 216.581 152.564 215.789 152.564C214.901 152.564 214.145 152.768 213.521 153.176C212.897 153.584 212.417 154.172 212.081 154.94C211.745 155.708 211.577 156.632 211.577 157.712V158C211.577 159.824 211.997 161.168 212.837 162.032C213.701 162.896 214.973 163.328 216.653 163.328C217.229 163.328 217.889 163.256 218.633 163.112C219.377 162.968 220.073 162.74 220.721 162.428C221.273 162.164 221.765 162.08 222.197 162.176C222.629 162.248 222.965 162.44 223.205 162.752C223.445 163.064 223.577 163.424 223.601 163.832C223.649 164.24 223.565 164.648 223.349 165.056C223.133 165.44 222.773 165.764 222.269 166.028C221.453 166.484 220.529 166.82 219.497 167.036C218.489 167.276 217.505 167.396 216.545 167.396ZM242.002 173.804C241.378 173.804 240.862 173.636 240.454 173.3C240.046 172.964 239.806 172.52 239.734 171.968C239.662 171.44 239.758 170.876 240.022 170.276L242.434 164.948V167.18L236.062 152.564C235.822 151.94 235.738 151.364 235.81 150.836C235.906 150.284 236.17 149.852 236.602 149.54C237.058 149.204 237.682 149.036 238.474 149.036C239.122 149.036 239.638 149.192 240.022 149.504C240.43 149.792 240.802 150.356 241.138 151.196L245.386 161.996H244.234L248.626 151.16C248.962 150.344 249.334 149.792 249.742 149.504C250.174 149.192 250.75 149.036 251.47 149.036C252.094 149.036 252.586 149.204 252.946 149.54C253.33 149.852 253.558 150.272 253.63 150.8C253.726 151.328 253.63 151.904 253.342 152.528L244.882 171.716C244.522 172.532 244.114 173.084 243.658 173.372C243.226 173.66 242.674 173.804 242.002 173.804ZM264.447 167.396C262.551 167.396 260.895 167.024 259.479 166.28C258.087 165.536 257.007 164.468 256.239 163.076C255.471 161.684 255.087 160.04 255.087 158.144C255.087 156.728 255.303 155.456 255.735 154.328C256.167 153.2 256.791 152.24 257.607 151.448C258.447 150.632 259.443 150.02 260.595 149.612C261.747 149.18 263.031 148.964 264.447 148.964C266.343 148.964 267.987 149.336 269.379 150.08C270.795 150.824 271.887 151.88 272.655 153.248C273.447 154.616 273.843 156.248 273.843 158.144C273.843 159.584 273.615 160.868 273.159 161.996C272.727 163.124 272.103 164.096 271.287 164.912C270.471 165.728 269.475 166.352 268.299 166.784C267.147 167.192 265.863 167.396 264.447 167.396ZM264.447 163.328C265.239 163.328 265.923 163.136 266.499 162.752C267.075 162.368 267.531 161.804 267.867 161.06C268.203 160.292 268.371 159.32 268.371 158.144C268.371 156.392 268.011 155.108 267.291 154.292C266.571 153.452 265.623 153.032 264.447 153.032C263.679 153.032 262.995 153.212 262.395 153.572C261.819 153.932 261.363 154.496 261.027 155.264C260.715 156.008 260.559 156.968 260.559 158.144C260.559 159.896 260.919 161.204 261.639 162.068C262.359 162.908 263.295 163.328 264.447 163.328ZM283.667 167.396C282.179 167.396 280.943 167.12 279.959 166.568C278.975 166.016 278.243 165.188 277.763 164.084C277.307 162.956 277.079 161.564 277.079 159.908V151.772C277.079 150.86 277.307 150.176 277.763 149.72C278.243 149.264 278.915 149.036 279.779 149.036C280.643 149.036 281.315 149.264 281.795 149.72C282.275 150.176 282.515 150.86 282.515 151.772V160.052C282.515 161.108 282.731 161.9 283.163 162.428C283.595 162.932 284.279 163.184 285.215 163.184C286.247 163.184 287.087 162.824 287.735 162.104C288.407 161.36 288.743 160.388 288.743 159.188V151.772C288.743 150.86 288.971 150.176 289.427 149.72C289.907 149.264 290.579 149.036 291.443 149.036C292.331 149.036 293.003 149.264 293.459 149.72C293.939 150.176 294.179 150.86 294.179 151.772V164.552C294.179 166.4 293.303 167.324 291.551 167.324C290.687 167.324 290.027 167.084 289.571 166.604C289.115 166.124 288.887 165.44 288.887 164.552V162.14L289.427 163.544C288.899 164.768 288.143 165.716 287.159 166.388C286.175 167.06 285.011 167.396 283.667 167.396ZM311.248 167.324C310.36 167.324 309.676 167.084 309.196 166.604C308.74 166.124 308.512 165.44 308.512 164.552V151.772C308.512 150.884 308.74 150.212 309.196 149.756C309.676 149.276 310.336 149.036 311.176 149.036C312.04 149.036 312.7 149.276 313.156 149.756C313.612 150.212 313.84 150.884 313.84 151.772V154.076L313.444 152.636C313.924 151.532 314.668 150.644 315.676 149.972C316.684 149.3 317.872 148.964 319.24 148.964C320.608 148.964 321.748 149.288 322.66 149.936C323.572 150.584 324.22 151.58 324.604 152.924H324.1C324.628 151.7 325.432 150.74 326.512 150.044C327.616 149.324 328.876 148.964 330.292 148.964C331.66 148.964 332.776 149.24 333.64 149.792C334.528 150.32 335.188 151.136 335.62 152.24C336.052 153.32 336.268 154.7 336.268 156.38V164.552C336.268 165.44 336.028 166.124 335.548 166.604C335.092 167.084 334.432 167.324 333.568 167.324C332.68 167.324 331.996 167.084 331.516 166.604C331.06 166.124 330.832 165.44 330.832 164.552V156.56C330.832 155.384 330.64 154.532 330.256 154.004C329.896 153.452 329.272 153.176 328.384 153.176C327.352 153.176 326.548 153.536 325.972 154.256C325.396 154.976 325.108 155.996 325.108 157.316V164.552C325.108 165.44 324.868 166.124 324.388 166.604C323.932 167.084 323.272 167.324 322.408 167.324C321.544 167.324 320.872 167.084 320.392 166.604C319.912 166.124 319.672 165.44 319.672 164.552V156.56C319.672 155.384 319.48 154.532 319.096 154.004C318.736 153.452 318.112 153.176 317.224 153.176C316.192 153.176 315.388 153.536 314.812 154.256C314.236 154.976 313.948 155.996 313.948 157.316V164.552C313.948 166.4 313.048 167.324 311.248 167.324ZM343.168 167.288C342.28 167.288 341.596 167.036 341.116 166.532C340.66 166.004 340.432 165.272 340.432 164.336V152.024C340.432 151.064 340.66 150.332 341.116 149.828C341.596 149.3 342.28 149.036 343.168 149.036C344.032 149.036 344.692 149.3 345.148 149.828C345.628 150.332 345.868 151.064 345.868 152.024V164.336C345.868 165.272 345.64 166.004 345.184 166.532C344.728 167.036 344.056 167.288 343.168 167.288ZM343.168 146.084C342.16 146.084 341.38 145.856 340.828 145.4C340.3 144.92 340.036 144.248 340.036 143.384C340.036 142.496 340.3 141.824 340.828 141.368C341.38 140.888 342.16 140.648 343.168 140.648C344.176 140.648 344.944 140.888 345.472 141.368C346 141.824 346.264 142.496 346.264 143.384C346.264 144.248 346 144.92 345.472 145.4C344.944 145.856 344.176 146.084 343.168 146.084ZM356.833 167.396C355.777 167.396 354.685 167.3 353.557 167.108C352.453 166.916 351.445 166.592 350.533 166.136C350.053 165.896 349.705 165.596 349.489 165.236C349.297 164.852 349.213 164.468 349.237 164.084C349.261 163.7 349.381 163.352 349.597 163.04C349.837 162.728 350.137 162.524 350.497 162.428C350.881 162.308 351.301 162.344 351.757 162.536C352.741 162.944 353.641 163.232 354.457 163.4C355.273 163.568 356.077 163.652 356.869 163.652C357.901 163.652 358.645 163.496 359.101 163.184C359.581 162.848 359.821 162.416 359.821 161.888C359.821 161.408 359.665 161.048 359.353 160.808C359.041 160.568 358.585 160.4 357.985 160.304L354.205 159.62C352.717 159.356 351.565 158.816 350.749 158C349.957 157.16 349.561 156.092 349.561 154.796C349.561 153.596 349.897 152.564 350.569 151.7C351.241 150.812 352.165 150.14 353.341 149.684C354.541 149.204 355.897 148.964 357.409 148.964C358.489 148.964 359.485 149.06 360.397 149.252C361.309 149.444 362.185 149.756 363.025 150.188C363.457 150.404 363.757 150.692 363.925 151.052C364.117 151.412 364.177 151.784 364.105 152.168C364.057 152.552 363.913 152.9 363.673 153.212C363.433 153.524 363.121 153.728 362.737 153.824C362.377 153.92 361.957 153.872 361.477 153.68C360.709 153.32 360.001 153.068 359.353 152.924C358.705 152.756 358.081 152.672 357.481 152.672C356.401 152.672 355.621 152.852 355.141 153.212C354.661 153.548 354.421 153.98 354.421 154.508C354.421 154.916 354.553 155.264 354.817 155.552C355.105 155.816 355.537 155.996 356.113 156.092L359.893 156.776C361.453 157.04 362.641 157.568 363.457 158.36C364.273 159.128 364.681 160.184 364.681 161.528C364.681 163.352 363.961 164.792 362.521 165.848C361.105 166.88 359.209 167.396 356.833 167.396ZM374.551 167.396C373.495 167.396 372.403 167.3 371.275 167.108C370.171 166.916 369.163 166.592 368.251 166.136C367.771 165.896 367.423 165.596 367.207 165.236C367.015 164.852 366.931 164.468 366.955 164.084C366.979 163.7 367.099 163.352 367.315 163.04C367.555 162.728 367.855 162.524 368.215 162.428C368.599 162.308 369.019 162.344 369.475 162.536C370.459 162.944 371.359 163.232 372.175 163.4C372.991 163.568 373.795 163.652 374.587 163.652C375.619 163.652 376.363 163.496 376.819 163.184C377.299 162.848 377.539 162.416 377.539 161.888C377.539 161.408 377.383 161.048 377.071 160.808C376.759 160.568 376.303 160.4 375.703 160.304L371.923 159.62C370.435 159.356 369.283 158.816 368.467 158C367.675 157.16 367.279 156.092 367.279 154.796C367.279 153.596 367.615 152.564 368.287 151.7C368.959 150.812 369.883 150.14 371.059 149.684C372.259 149.204 373.615 148.964 375.127 148.964C376.207 148.964 377.203 149.06 378.115 149.252C379.027 149.444 379.903 149.756 380.743 150.188C381.175 150.404 381.475 150.692 381.643 151.052C381.835 151.412 381.895 151.784 381.823 152.168C381.775 152.552 381.631 152.9 381.391 153.212C381.151 153.524 380.839 153.728 380.455 153.824C380.095 153.92 379.675 153.872 379.195 153.68C378.427 153.32 377.719 153.068 377.071 152.924C376.423 152.756 375.799 152.672 375.199 152.672C374.119 152.672 373.339 152.852 372.859 153.212C372.379 153.548 372.139 153.98 372.139 154.508C372.139 154.916 372.271 155.264 372.535 155.552C372.823 155.816 373.255 155.996 373.831 156.092L377.611 156.776C379.171 157.04 380.359 157.568 381.175 158.36C381.991 159.128 382.399 160.184 382.399 161.528C382.399 163.352 381.679 164.792 380.239 165.848C378.823 166.88 376.927 167.396 374.551 167.396ZM404.233 167.396C402.577 167.396 401.185 167.12 400.057 166.568C398.953 166.016 398.125 165.212 397.573 164.156C397.045 163.1 396.781 161.768 396.781 160.16V153.392H395.269C394.597 153.392 394.069 153.212 393.685 152.852C393.325 152.492 393.145 152 393.145 151.376C393.145 150.704 393.325 150.2 393.685 149.864C394.069 149.504 394.597 149.324 395.269 149.324H396.781V146.588C396.781 145.676 397.021 144.992 397.501 144.536C397.981 144.056 398.653 143.816 399.517 143.816C400.405 143.816 401.077 144.056 401.533 144.536C401.989 144.992 402.217 145.676 402.217 146.588V149.324H405.637C406.309 149.324 406.825 149.504 407.185 149.864C407.545 150.2 407.725 150.704 407.725 151.376C407.725 152 407.545 152.492 407.185 152.852C406.825 153.212 406.309 153.392 405.637 153.392H402.217V159.944C402.217 160.952 402.445 161.708 402.901 162.212C403.381 162.716 404.137 162.968 405.169 162.968C405.529 162.968 405.865 162.932 406.177 162.86C406.489 162.788 406.777 162.74 407.041 162.716C407.377 162.692 407.653 162.8 407.869 163.04C408.085 163.256 408.193 163.748 408.193 164.516C408.193 165.092 408.097 165.596 407.905 166.028C407.713 166.46 407.377 166.772 406.897 166.964C406.585 167.084 406.153 167.18 405.601 167.252C405.073 167.348 404.617 167.396 404.233 167.396ZM413.41 167.324C412.522 167.324 411.838 167.084 411.358 166.604C410.902 166.124 410.674 165.44 410.674 164.552V144.068C410.674 143.156 410.902 142.472 411.358 142.016C411.838 141.536 412.522 141.296 413.41 141.296C414.274 141.296 414.934 141.536 415.39 142.016C415.87 142.472 416.11 143.156 416.11 144.068V152.636H415.606C416.158 151.46 416.974 150.56 418.054 149.936C419.158 149.288 420.406 148.964 421.798 148.964C423.214 148.964 424.378 149.24 425.29 149.792C426.202 150.32 426.886 151.136 427.342 152.24C427.798 153.32 428.026 154.7 428.026 156.38V164.552C428.026 165.44 427.786 166.124 427.306 166.604C426.85 167.084 426.178 167.324 425.29 167.324C424.426 167.324 423.754 167.084 423.274 166.604C422.818 166.124 422.59 165.44 422.59 164.552V156.632C422.59 155.408 422.362 154.532 421.906 154.004C421.474 153.452 420.802 153.176 419.89 153.176C418.738 153.176 417.814 153.536 417.118 154.256C416.446 154.976 416.11 155.936 416.11 157.136V164.552C416.11 166.4 415.21 167.324 413.41 167.324ZM441.264 167.396C439.176 167.396 437.376 167.024 435.864 166.28C434.376 165.512 433.224 164.444 432.408 163.076C431.616 161.684 431.22 160.052 431.22 158.18C431.22 156.356 431.604 154.76 432.372 153.392C433.14 152 434.208 150.92 435.576 150.152C436.968 149.36 438.54 148.964 440.292 148.964C441.564 148.964 442.716 149.18 443.748 149.612C444.78 150.02 445.668 150.62 446.412 151.412C447.156 152.18 447.72 153.128 448.104 154.256C448.488 155.36 448.68 156.596 448.68 157.964C448.68 158.42 448.536 158.768 448.248 159.008C447.96 159.224 447.54 159.332 446.988 159.332H435.684V156.524H444.756L444.18 157.028C444.18 156.044 444.036 155.228 443.748 154.58C443.46 153.908 443.04 153.404 442.488 153.068C441.96 152.732 441.3 152.564 440.508 152.564C439.62 152.564 438.864 152.768 438.24 153.176C437.616 153.584 437.136 154.172 436.8 154.94C436.464 155.708 436.296 156.632 436.296 157.712V158C436.296 159.824 436.716 161.168 437.556 162.032C438.42 162.896 439.692 163.328 441.372 163.328C441.948 163.328 442.608 163.256 443.352 163.112C444.096 162.968 444.792 162.74 445.44 162.428C445.992 162.164 446.484 162.08 446.916 162.176C447.348 162.248 447.684 162.44 447.924 162.752C448.164 163.064 448.296 163.424 448.32 163.832C448.368 164.24 448.284 164.648 448.068 165.056C447.852 165.44 447.492 165.764 446.988 166.028C446.172 166.484 445.248 166.82 444.216 167.036C443.208 167.276 442.224 167.396 441.264 167.396ZM454.65 167.324C453.762 167.324 453.078 167.084 452.598 166.604C452.142 166.124 451.914 165.44 451.914 164.552V151.772C451.914 150.884 452.142 150.212 452.598 149.756C453.078 149.276 453.738 149.036 454.578 149.036C455.442 149.036 456.102 149.276 456.558 149.756C457.014 150.212 457.242 150.884 457.242 151.772V154.076L456.846 152.636C457.326 151.532 458.07 150.644 459.078 149.972C460.086 149.3 461.274 148.964 462.642 148.964C464.01 148.964 465.15 149.288 466.062 149.936C466.974 150.584 467.622 151.58 468.006 152.924H467.502C468.03 151.7 468.834 150.74 469.914 150.044C471.018 149.324 472.278 148.964 473.694 148.964C475.062 148.964 476.178 149.24 477.042 149.792C477.93 150.32 478.59 151.136 479.022 152.24C479.454 153.32 479.67 154.7 479.67 156.38V164.552C479.67 165.44 479.43 166.124 478.95 166.604C478.494 167.084 477.834 167.324 476.97 167.324C476.082 167.324 475.398 167.084 474.918 166.604C474.462 166.124 474.234 165.44 474.234 164.552V156.56C474.234 155.384 474.042 154.532 473.658 154.004C473.298 153.452 472.674 153.176 471.786 153.176C470.754 153.176 469.95 153.536 469.374 154.256C468.798 154.976 468.51 155.996 468.51 157.316V164.552C468.51 165.44 468.27 166.124 467.79 166.604C467.334 167.084 466.674 167.324 465.81 167.324C464.946 167.324 464.274 167.084 463.794 166.604C463.314 166.124 463.074 165.44 463.074 164.552V156.56C463.074 155.384 462.882 154.532 462.498 154.004C462.138 153.452 461.514 153.176 460.626 153.176C459.594 153.176 458.79 153.536 458.214 154.256C457.638 154.976 457.35 155.996 457.35 157.316V164.552C457.35 166.4 456.45 167.324 454.65 167.324ZM489.57 159.152C489.042 159.152 488.622 158.984 488.31 158.648C488.022 158.288 487.878 157.808 487.878 157.208C487.878 156.512 487.962 155.864 488.13 155.264C488.298 154.64 488.562 154.016 488.922 153.392C489.306 152.768 489.81 152.132 490.434 151.484C490.866 150.98 491.214 150.548 491.478 150.188C491.766 149.804 491.958 149.444 492.054 149.108C492.174 148.748 492.234 148.388 492.234 148.028C492.234 147.356 491.982 146.828 491.478 146.444C490.998 146.06 490.302 145.868 489.39 145.868C488.526 145.868 487.722 145.976 486.978 146.192C486.258 146.408 485.55 146.72 484.854 147.128C484.23 147.464 483.666 147.596 483.162 147.524C482.682 147.428 482.298 147.212 482.01 146.876C481.722 146.516 481.554 146.096 481.506 145.616C481.458 145.136 481.566 144.668 481.83 144.212C482.094 143.732 482.538 143.312 483.162 142.952C484.146 142.376 485.238 141.944 486.438 141.656C487.638 141.368 488.754 141.224 489.786 141.224C491.37 141.224 492.762 141.488 493.962 142.016C495.162 142.544 496.086 143.264 496.734 144.176C497.406 145.088 497.742 146.156 497.742 147.38C497.742 148.124 497.634 148.82 497.418 149.468C497.202 150.116 496.854 150.764 496.374 151.412C495.894 152.036 495.234 152.696 494.394 153.392C493.65 154.016 493.062 154.58 492.63 155.084C492.198 155.564 491.886 156.032 491.694 156.488C491.502 156.92 491.37 157.388 491.298 157.892C491.226 158.252 491.046 158.552 490.758 158.792C490.494 159.032 490.098 159.152 489.57 159.152ZM489.498 167.18C488.538 167.18 487.77 166.892 487.194 166.316C486.642 165.74 486.366 164.996 486.366 164.084C486.366 163.196 486.642 162.476 487.194 161.924C487.77 161.348 488.538 161.06 489.498 161.06C490.458 161.06 491.202 161.348 491.73 161.924C492.282 162.476 492.558 163.196 492.558 164.084C492.558 164.996 492.282 165.74 491.73 166.316C491.202 166.892 490.458 167.18 489.498 167.18Z" fill="#241008"/>
<defs>
<filter id="filter0_d_1731_26469" x="0" y="0" width="629" height="764" filterUnits="userSpaceOnUse" color-interpolation-filters="sRGB">
<feFlood flood-opacity="0" result="BackgroundImageFix"/>
<feColorMatrix in="SourceAlpha" type="matrix" values="0 0 0 0 0 0 0 0 0 0 0 0 0 0 0 0 0 0 127 0" result="hardAlpha"/>
<feOffset/>
<feGaussianBlur stdDeviation="16"/>
<feComposite in2="hardAlpha" operator="out"/>
<feColorMatrix type="matrix" values="0 0 0 0 0 0 0 0 0 0 0 0 0 0 0 0 0 0 0.1 0"/>
<feBlend mode="normal" in2="BackgroundImageFix" result="effect1_dropShadow_1731_26469"/>
<feBlend mode="normal" in="SourceGraphic" in2="effect1_dropShadow_1731_26469" result="shape"/>
</filter>
</defs>
</svg>
