<svg width="629" height="764" viewBox="0 0 629 764" fill="none" xmlns="http://www.w3.org/2000/svg">
<g filter="url(#filter0_d_1731_26343)">
<rect x="32" y="32" width="565" height="700" rx="32" fill="white"/>
</g>
<path d="M215.246 352.382C226.789 342.807 234.132 328.35 234.132 312.19C234.132 283.389 210.781 260 181.942 260C153.141 260 129.752 283.351 129.752 312.19C129.752 340.991 153.103 364.38 181.942 364.38C188.527 364.38 194.81 363.168 200.6 360.936C218.009 374.333 231.369 370.662 231.369 370.662C223.043 364.682 218.085 357.643 215.246 352.382Z" fill="#10002B"/>
<path d="M425.039 333.46L430.846 339.267L436.653 333.46L430.846 327.653L425.039 333.46Z" fill="#FF4A57"/>
<path d="M465.614 295.788L479.958 310.132L494.301 295.788L479.958 281.444L465.614 295.788Z" fill="#FF4A57"/>
<path d="M389.874 278.349L399.615 288.09L409.356 278.349L399.615 268.608L389.874 278.349Z" fill="#FF4A57"/>
<path d="M211.802 424.366L269.858 408.546H321.821L376.092 416.834L379.839 642.51H206.958L211.802 424.366Z" fill="#FF4A57"/>
<path d="M219.712 486.887C237.249 486.887 251.465 472.671 251.465 455.134C251.465 437.598 237.249 423.382 219.712 423.382C202.176 423.382 187.959 437.598 187.959 455.134C187.959 472.671 202.176 486.887 219.712 486.887Z" fill="#FF4A57"/>
<path d="M371.135 479.961C388.671 479.961 402.888 465.745 402.888 448.209C402.888 430.672 388.671 416.456 371.135 416.456C353.598 416.456 339.382 430.672 339.382 448.209C339.382 465.745 353.598 479.961 371.135 479.961Z" fill="#FF4A57"/>
<path d="M401.336 438.369L420.259 486.887H339.382V448.209L401.336 438.369Z" fill="#FF4A57"/>
<path d="M192.047 439.542L148.032 521.819L203.401 550.999L247.681 470.197L192.047 439.542Z" fill="#FF4A57"/>
<path d="M331.396 300.23C331.396 300.23 360.462 321.803 332.531 338.796C327.536 341.861 321.443 342.845 315.803 341.256C312.17 340.234 308.878 338.19 308.386 334.178C305.736 311.963 331.396 300.23 331.396 300.23Z" fill="#10002B"/>
<path d="M321.291 342.921C319.361 342.921 317.431 342.656 315.539 342.126C310.694 340.764 307.894 338.039 307.439 334.254C306.304 324.868 310.051 315.861 318.226 308.178C324.357 302.425 330.715 299.473 330.98 299.36L331.472 299.133L331.926 299.473C332.494 299.89 346.118 310.146 345.55 322.446C345.248 328.956 341.047 334.708 332.986 339.628C329.428 341.785 325.341 342.921 321.291 342.921ZM331.283 301.328C329.655 302.161 324.432 304.961 319.512 309.578C311.716 316.921 308.272 325.171 309.332 334.027C309.672 337.017 311.943 339.136 316.068 340.309C321.329 341.785 327.157 340.953 332.039 337.963C339.495 333.421 343.431 328.161 343.696 322.333C344.15 312.265 333.591 303.182 331.283 301.328Z" fill="#111C3A"/>
<path d="M304.071 458.011L326.438 406.919L326.06 375.847H269.518V408.319L304.071 458.011Z" fill="white"/>
<path d="M304.26 459.941L268.609 408.622V374.901H327.006L327.384 407.108L327.309 407.297L304.26 459.941ZM270.464 408.016L303.882 456.081L325.492 406.729L325.114 376.793H270.464V408.016Z" fill="#111C3A"/>
<path d="M314.025 306.097C314.025 306.097 352.893 353.783 332.872 385.044C312.851 416.304 269.556 385.044 269.556 385.044V306.097C269.518 306.097 284.77 295.689 314.025 306.097Z" fill="white"/>
<path d="M314.025 306.097C314.025 306.097 352.893 353.783 332.872 385.044C312.851 416.304 269.556 385.044 269.556 385.044V306.097C269.518 306.097 284.77 295.689 314.025 306.097Z" fill="white"/>
<path d="M307.477 399.879C302.444 399.879 296.918 398.895 291.014 396.927C290.522 396.776 290.257 396.208 290.409 395.716C290.56 395.224 291.128 394.959 291.62 395.111C304.26 399.311 321.556 400.901 332.077 384.514C342.182 368.732 336.581 348.484 330.109 334.254C323.524 319.835 314.744 308.519 313.457 306.853C287.797 297.808 273.075 305.113 270.464 306.589V388.752C270.464 389.282 270.048 389.699 269.518 389.699C268.988 389.699 268.572 389.282 268.572 388.752V305.605L268.988 305.34C269.139 305.226 273.037 302.615 280.644 301.29C287.57 300.079 299.038 299.776 314.328 305.226L314.592 305.302L314.744 305.491C314.857 305.605 324.622 317.677 331.812 333.459C336.051 342.732 338.549 351.474 339.306 359.46C340.252 369.489 338.322 378.269 333.667 385.573C327.574 395.073 318.68 399.879 307.477 399.879Z" fill="#111C3A"/>
<path d="M283.824 313.06C283.824 313.06 300.703 328.956 320.724 320.289C334.878 314.158 341.955 297.771 335.862 283.616C331.661 273.927 321.859 266.85 299.341 277.258C265.128 293.002 283.824 313.06 283.824 313.06Z" fill="#10002B"/>
<path d="M308.423 323.809C302.898 323.809 298.054 322.37 294.383 320.781C287.57 317.867 283.332 313.893 283.18 313.741L283.142 313.704C282.877 313.401 276.254 306.21 278.109 296.824C279.66 288.914 286.662 282.064 298.924 276.387C310.202 271.202 319.361 269.878 326.173 272.489C330.866 274.268 334.424 277.901 336.732 283.238C342.977 297.695 335.975 314.688 321.102 321.121C316.674 323.052 312.397 323.809 308.423 323.809ZM284.505 312.379C284.845 312.682 288.933 316.391 295.215 319.078C303.882 322.787 312.322 322.9 320.383 319.418C334.272 313.401 340.858 297.506 335.029 283.994C332.91 279.15 329.731 275.858 325.53 274.268C319.21 271.846 310.543 273.133 299.757 278.128C288.062 283.502 281.401 289.936 280.001 297.203C278.336 305.378 284.126 311.963 284.505 312.379Z" fill="#111C3A"/>
<path d="M285.678 307.951C285.678 307.951 292.415 335.73 267.133 353.101C267.133 353.101 236.289 340.65 246.924 311.963C259.526 278.053 285.678 307.951 285.678 307.951Z" fill="#10002B"/>
<path d="M267.285 354.199L266.831 354.01C266.49 353.896 258.845 350.755 252.411 343.98C246.394 337.66 240.414 326.95 246.091 311.66C249.081 303.561 253.168 298.3 258.164 296.067C262.1 294.326 266.528 294.44 271.41 296.37C275.8 298.111 278.752 299.776 280.493 301.404C280.872 301.744 280.872 302.35 280.531 302.728C280.152 303.107 279.585 303.107 279.206 302.766C277.655 301.29 274.854 299.776 270.729 298.111C266.339 296.37 262.403 296.257 258.959 297.77C254.417 299.776 250.708 304.658 247.908 312.265C243.631 323.809 245.637 334.027 253.812 342.618C259.11 348.181 265.393 351.247 267.096 352.004C277.011 345.04 283.029 335.654 284.959 324.111C285.489 320.97 285.413 317.791 284.694 314.65C284.58 314.158 284.883 313.628 285.413 313.514C285.905 313.401 286.435 313.704 286.548 314.233C287.305 317.602 287.419 321.008 286.851 324.414C285.451 332.816 280.985 344.775 267.739 353.858L267.285 354.199Z" fill="#111C3A"/>
<path d="M276.746 361.2C276.633 361.238 276.519 361.314 276.406 361.352C267.89 365.553 257.785 359.46 257.558 349.96C257.445 345.532 258.24 340.915 261.305 338.531C268.307 333.119 276.746 344.927 276.746 344.927V361.2Z" fill="white"/>
<path d="M270.653 363.66C268.117 363.66 265.62 362.979 263.387 361.617C259.261 359.119 256.764 354.767 256.65 349.998C256.499 344.132 257.899 340.007 260.737 337.812C262.441 336.487 264.371 335.957 266.49 336.298C272.281 337.168 277.314 344.132 277.541 344.435C277.844 344.851 277.73 345.456 277.314 345.759C276.898 346.062 276.292 345.948 275.989 345.532C275.952 345.456 271.221 338.909 266.225 338.152C264.636 337.925 263.235 338.304 261.911 339.288C259.564 341.104 258.429 344.7 258.542 349.922C258.618 354.048 260.813 357.794 264.371 359.952C267.928 362.109 272.28 362.298 275.989 360.481C276.103 360.444 276.216 360.368 276.292 360.33C276.746 360.103 277.314 360.292 277.579 360.746C277.806 361.2 277.617 361.768 277.163 362.033C277.049 362.109 276.936 362.147 276.822 362.222C274.892 363.206 272.773 363.66 270.653 363.66Z" fill="#111C3A"/>
<path d="M271.637 354.085C265.014 354.085 263.614 349.241 263.614 349.203C263.462 348.711 263.765 348.181 264.295 348.03C264.787 347.879 265.317 348.181 265.468 348.673C265.506 348.863 266.717 352.647 272.81 352.117C273.34 352.08 273.794 352.458 273.832 352.988C273.87 353.518 273.492 353.972 272.962 354.01C272.47 354.048 272.053 354.085 271.637 354.085Z" fill="#111C3A"/>
<path d="M309.937 354.085C310.278 356.167 309.37 358.021 307.969 358.249C306.569 358.476 305.131 357 304.79 354.918C304.45 352.837 305.358 350.982 306.758 350.755C308.159 350.528 309.597 352.042 309.937 354.085Z" fill="#10002B"/>
<path d="M331.018 351.323C331.358 353.404 330.45 355.259 329.05 355.486C327.611 355.713 326.211 354.237 325.871 352.155C325.53 350.074 326.438 348.219 327.839 347.992C329.239 347.765 330.677 349.279 331.018 351.323Z" fill="#10002B"/>
<path d="M319.285 351.777C320.724 354.842 321.745 358.097 322.389 361.428C322.729 363.093 322.956 364.796 323.07 366.499C323.184 368.088 323.221 369.754 322.578 371.23C322.048 372.441 320.913 373.576 319.512 373.614C318.301 373.652 318.301 375.544 319.512 375.506C321.216 375.431 322.616 374.522 323.6 373.16C324.659 371.722 325 369.867 325 368.088C325 366.196 324.773 364.304 324.47 362.412C324.167 360.519 323.751 358.665 323.184 356.848C322.578 354.767 321.783 352.761 320.875 350.793C320.648 350.339 320.004 350.225 319.588 350.452C319.134 350.755 319.058 351.285 319.285 351.777Z" fill="#111C3A"/>
<path d="M302.482 379.026C306.986 377.55 312.284 379.707 314.441 383.946C315.009 385.043 316.636 384.059 316.069 383C313.533 378.042 307.251 375.468 301.99 377.209C300.817 377.588 301.309 379.404 302.482 379.026Z" fill="#111C3A"/>
<path d="M299.53 346.478C302.065 343.716 305.434 341.899 309.105 341.256C309.597 341.18 309.9 340.537 309.748 340.082C309.597 339.553 309.105 339.325 308.575 339.439C304.601 340.12 300.854 342.164 298.167 345.154C297.372 346.024 298.735 347.387 299.53 346.478Z" fill="#111C3A"/>
<path d="M325.871 339.136C328.255 339.06 330.563 339.742 332.494 341.18C332.91 341.483 333.553 341.256 333.78 340.839C334.045 340.347 333.856 339.855 333.44 339.552C331.245 337.963 328.558 337.168 325.871 337.282C325.379 337.32 324.924 337.698 324.924 338.228C324.924 338.682 325.341 339.136 325.871 339.136Z" fill="#111C3A"/>
<path d="M175.659 536.352L289.424 479.961L297.372 454.415C299.037 449.117 303.503 445.181 308.991 444.235L336.391 439.504L354.482 442.153C357.737 442.645 360.878 443.743 363.641 445.484C367.539 447.944 370.567 451.426 361.067 453.204C359.402 453.507 357.699 453.621 356.034 453.583L331.736 452.864C327.649 452.75 323.978 455.399 322.843 459.373L318.755 473.528V482.384C318.755 489.007 316.03 495.327 311.262 499.906L200.373 605.497C163.548 640.58 106.325 595.998 131.266 551.718L148.107 521.819L175.659 536.352Z" fill="white"/>
<path d="M170.285 619.084C159.764 619.084 149.735 615.148 141.976 609.13C126.687 597.209 117.149 574.69 130.358 551.263L147.653 520.532L175.622 535.292L288.592 479.318L296.426 454.15C298.205 448.474 302.936 444.31 308.764 443.326L336.316 438.558L354.558 441.245C358.04 441.775 361.257 442.91 364.095 444.727C367.198 446.695 368.561 448.474 368.22 450.214C367.88 452.107 365.609 453.356 361.181 454.188C359.516 454.491 357.737 454.642 355.92 454.605L331.623 453.886C327.952 453.772 324.659 456.156 323.675 459.714L319.626 473.755V482.384C319.626 489.234 316.787 495.857 311.83 500.588L200.941 606.178C191.328 615.375 180.579 619.084 170.285 619.084ZM148.41 523.068L132.023 552.172C119.382 574.652 128.503 596.225 143.15 607.616C157.796 619.046 180.958 622.603 199.654 604.816L310.543 499.225C315.122 494.873 317.771 488.704 317.771 482.384V473.49L321.897 459.184C323.146 454.832 327.195 451.88 331.737 451.993L356.034 452.712C357.699 452.75 359.326 452.637 360.878 452.334C365.76 451.426 366.328 450.214 366.404 449.836C366.479 449.533 366.404 448.398 363.111 446.316C360.5 444.651 357.548 443.591 354.293 443.099L336.354 440.45L309.105 445.143C303.958 446.014 299.795 449.685 298.243 454.68L290.182 480.605L289.803 480.794L175.622 537.412L148.41 523.068Z" fill="#111C3A"/>
<path d="M161.618 546.646C161.353 546.646 161.126 546.533 160.937 546.343C160.559 545.965 160.596 545.359 160.975 545.019C161.24 544.754 167.484 538.888 184.212 531.092C184.704 530.864 185.234 531.092 185.461 531.546C185.688 532.038 185.461 532.568 185.007 532.795C168.582 540.44 162.337 546.306 162.3 546.381C162.072 546.533 161.845 546.646 161.618 546.646Z" fill="#111C3A"/>
<path d="M460.073 615.715H328.823C322.805 615.715 317.961 610.833 317.961 604.854V464.899C317.961 458.881 322.843 454.037 328.823 454.037H460.073C466.09 454.037 470.935 458.919 470.935 464.899V604.854C470.935 610.833 466.052 615.715 460.073 615.715Z" fill="white"/>
<path d="M336.727 586.923L343.945 581.323C345.369 580.213 347.155 579.609 348.965 579.609H394.586C401.2 579.609 406.558 574.251 406.558 567.637V542.799C406.558 536.185 401.2 530.827 394.586 530.827H347.758C341.145 530.827 335.786 536.185 335.786 542.799V586.464C335.786 586.947 336.341 587.213 336.727 586.923Z" fill="#FF4A57"/>
<path d="M359.073 555.886C359.579 553.746 358.253 551.6 356.113 551.095C353.972 550.59 351.827 551.915 351.321 554.056C350.816 556.196 352.141 558.342 354.282 558.847C356.423 559.352 358.568 558.027 359.073 555.886Z" fill="white"/>
<path d="M375.094 555.589C375.446 553.417 373.972 551.372 371.801 551.019C369.629 550.667 367.584 552.141 367.231 554.313C366.879 556.484 368.353 558.53 370.525 558.882C372.696 559.234 374.742 557.76 375.094 555.589Z" fill="white"/>
<path d="M389.919 557.765C391.474 556.21 391.474 553.688 389.919 552.133C388.363 550.578 385.842 550.578 384.286 552.133C382.731 553.688 382.731 556.21 384.286 557.765C385.842 559.321 388.363 559.321 389.919 557.765Z" fill="white"/>
<path d="M458.824 454.037H330.071C323.373 454.037 317.961 459.449 317.961 466.148V479.999H470.935V466.148C470.935 459.449 465.523 454.037 458.824 454.037Z" fill="#10002B"/>
<path d="M460.073 616.662H328.823C322.313 616.662 317.015 611.363 317.015 604.854V464.899C317.015 458.389 322.313 453.091 328.823 453.091H460.073C466.582 453.091 471.881 458.389 471.881 464.899V604.854C471.881 611.363 466.582 616.662 460.073 616.662ZM328.823 454.983C323.335 454.983 318.907 459.449 318.907 464.899V604.854C318.907 610.341 323.373 614.769 328.823 614.769H460.073C465.56 614.769 469.988 610.303 469.988 604.854V464.899C469.988 459.411 465.523 454.983 460.073 454.983H328.823Z" fill="#111C3A"/>
<path d="M335.71 469.743C337.215 469.743 338.435 468.523 338.435 467.018C338.435 465.513 337.215 464.293 335.71 464.293C334.205 464.293 332.985 465.513 332.985 467.018C332.985 468.523 334.205 469.743 335.71 469.743Z" fill="white"/>
<path d="M348.464 469.743C349.969 469.743 351.189 468.523 351.189 467.018C351.189 465.513 349.969 464.293 348.464 464.293C346.959 464.293 345.739 465.513 345.739 467.018C345.739 468.523 346.959 469.743 348.464 469.743Z" fill="white"/>
<path d="M361.219 469.743C362.724 469.743 363.944 468.523 363.944 467.018C363.944 465.513 362.724 464.293 361.219 464.293C359.714 464.293 358.494 465.513 358.494 467.018C358.494 468.523 359.714 469.743 361.219 469.743Z" fill="white"/>
<path d="M427.374 591.229C427.374 591.229 421.848 576.885 413.976 590.283C413.976 590.283 405.953 576.166 399.519 591.229C399.519 591.229 395.886 581.086 390.663 586.877C388.884 588.883 387.938 591.494 387.862 594.143L387.787 596.868C387.787 596.868 384.873 589.072 379.347 593.878C377.417 595.543 376.244 597.852 375.865 600.388C375.146 605.421 374.049 615.488 376.357 619.841C379.12 625.063 407.164 635.358 424.687 624.155C428.774 621.544 431.083 616.926 430.78 612.082C430.364 605.27 429.38 594.938 427.374 591.229Z" fill="white"/>
<path d="M405.537 630.097C399.33 630.097 393.842 628.961 390.739 628.129C383.17 626.123 376.925 622.906 375.525 620.257C373.14 615.753 374.124 605.762 374.957 600.236C375.373 597.436 376.698 594.938 378.742 593.159C380.52 591.645 382.261 591.078 383.926 591.494C385.213 591.834 386.197 592.667 386.954 593.575C387.143 590.775 388.203 588.201 389.982 586.233C391.458 584.568 393.047 583.887 394.637 584.19C396.945 584.644 398.611 587.104 399.557 588.92C401.449 585.325 403.644 583.433 406.104 583.281C409.624 583.092 412.576 586.498 413.938 588.466C416.247 585.022 418.631 583.395 421.053 583.584C425.368 583.925 427.941 590.056 428.206 590.775C430.212 594.559 431.234 604.362 431.726 611.969C432.067 617.154 429.569 622.073 425.179 624.874C419.01 628.886 411.857 630.097 405.537 630.097ZM382.829 593.235C381.958 593.235 380.974 593.689 379.99 594.559C378.287 596.035 377.19 598.117 376.849 600.463C375.525 609.509 375.676 616.397 377.228 619.349C378.212 621.203 383.699 624.306 391.231 626.274C397.248 627.864 412.538 630.778 424.233 623.322C428.017 620.9 430.174 616.624 429.909 612.12C429.228 601.637 428.055 594.37 426.579 591.645L426.541 591.532C425.936 589.942 423.703 585.703 420.978 585.476C419.085 585.325 416.966 587.142 414.847 590.699L414.014 592.099L413.219 590.661C412.311 589.11 409.435 585.136 406.483 585.136C406.407 585.136 406.369 585.136 406.293 585.136C404.212 585.249 402.206 587.444 400.465 591.532L399.519 593.765L398.686 591.494C398.194 590.094 396.416 586.422 394.334 586.006C393.426 585.817 392.48 586.309 391.458 587.444C389.868 589.223 388.96 591.57 388.884 594.143L388.657 601.674L386.954 597.171C386.614 596.262 385.327 593.765 383.51 593.31C383.245 593.273 383.056 593.235 382.829 593.235Z" fill="#111C3A"/>
<path d="M415.376 619.954C414.922 619.954 414.506 619.614 414.43 619.159C413.219 611.893 413.03 591.115 413.03 590.245C413.03 589.715 413.446 589.299 413.976 589.299C414.506 589.299 414.922 589.715 414.922 590.245C414.922 590.472 415.149 611.742 416.323 618.857C416.398 619.386 416.058 619.841 415.528 619.954C415.49 619.954 415.414 619.954 415.376 619.954Z" fill="#111C3A"/>
<path d="M400.995 619.954C400.541 619.954 400.125 619.614 400.049 619.159C398.838 611.893 398.649 591.115 398.649 590.245C398.649 589.715 399.065 589.299 399.595 589.299C400.125 589.299 400.541 589.715 400.541 590.245C400.541 590.472 400.768 611.742 401.941 618.857C402.017 619.386 401.676 619.841 401.147 619.954C401.109 619.954 401.071 619.954 400.995 619.954Z" fill="#111C3A"/>
<path d="M389.565 620.484C389.149 620.484 388.733 620.181 388.657 619.727C387.181 612.953 386.916 596.073 386.916 595.354C386.916 594.824 387.332 594.408 387.862 594.408C388.392 594.408 388.808 594.824 388.808 595.354C388.808 595.543 389.073 612.763 390.512 619.349C390.625 619.841 390.284 620.371 389.792 620.484C389.679 620.484 389.641 620.484 389.565 620.484Z" fill="#111C3A"/>
<path d="M148.032 522.765C147.88 522.765 147.729 522.728 147.577 522.652C147.123 522.387 146.934 521.819 147.199 521.365L160.748 496.008C161.013 495.554 161.58 495.365 162.035 495.63C162.489 495.895 162.678 496.462 162.413 496.917L148.864 522.273C148.713 522.576 148.372 522.765 148.032 522.765Z" fill="#111C3A"/>
<path d="M556.543 643.457H73.3993C72.8694 643.457 72.4531 643.04 72.4531 642.51C72.4531 641.981 72.8694 641.564 73.3993 641.564H556.505C557.034 641.564 557.451 641.981 557.451 642.51C557.489 643.04 557.072 643.457 556.543 643.457Z" fill="#111C3A"/>
<path d="M485.03 534.742C505.19 514.582 505.19 481.898 485.03 461.738C464.871 441.579 432.186 441.579 412.026 461.738C391.867 481.898 391.867 514.582 412.026 534.742C432.186 554.901 464.871 554.901 485.03 534.742Z" fill="black"/>
<path d="M472.23 521.941C485.295 508.876 485.295 487.693 472.23 474.628C459.165 461.563 437.982 461.563 424.917 474.628C411.851 487.693 411.851 508.876 424.917 521.941C437.982 535.007 459.165 535.007 472.23 521.941Z" fill="#FF4A57"/>
<path d="M461.694 509.488C461.467 509.488 461.202 509.412 461.013 509.223C457.682 505.893 453.254 504.076 448.561 504.076C443.868 504.076 439.44 505.893 436.11 509.223C435.731 509.601 435.126 509.601 434.785 509.223C434.407 508.845 434.407 508.239 434.785 507.898C438.456 504.227 443.376 502.184 448.599 502.184C453.822 502.184 458.704 504.227 462.413 507.898C462.791 508.277 462.791 508.882 462.413 509.223C462.186 509.412 461.959 509.488 461.694 509.488Z" fill="#111C3A"/>
<path d="M432.779 494.917C434.222 494.917 435.391 493.748 435.391 492.306C435.391 490.864 434.222 489.694 432.779 489.694C431.337 489.694 430.168 490.864 430.168 492.306C430.168 493.748 431.337 494.917 432.779 494.917Z" fill="black"/>
<path d="M466.872 492.361C466.893 490.919 465.741 489.733 464.299 489.712C462.857 489.691 461.67 490.843 461.649 492.285C461.628 493.727 462.78 494.913 464.222 494.934C465.664 494.955 466.851 493.803 466.872 492.361Z" fill="black"/>
<path d="M187.24 303.674C187.24 301.101 184.856 299.549 181.563 299.549C178.082 299.549 175.205 301.29 173.502 304.204L163.889 299.057C167.295 293.342 173.54 289.52 183.002 289.52C192.917 289.52 199.994 293.759 199.994 301.631C199.994 311.66 189.435 313.174 189.435 319.078H177.968C178.006 310.638 187.24 308.519 187.24 303.674ZM176.454 329.296C176.454 325.512 179.406 322.673 183.721 322.673C188.035 322.673 191.063 325.512 191.063 329.296C191.063 333.043 188.035 336.071 183.721 336.071C179.444 336.071 176.454 333.043 176.454 329.296Z" fill="white"/>
<rect x="72" y="162" width="360" height="8" fill="#FF4981"/>
<path d="M86.328 118.396C83.832 118.396 81.636 117.856 79.74 116.776C77.868 115.672 76.404 114.136 75.348 112.168C74.316 110.2 73.8 107.908 73.8 105.292C73.8 103.3 74.088 101.512 74.664 99.928C75.264 98.32 76.116 96.952 77.22 95.824C78.324 94.672 79.644 93.784 81.18 93.16C82.74 92.536 84.456 92.224 86.328 92.224C88.872 92.224 91.08 92.764 92.952 93.844C94.824 94.924 96.276 96.448 97.308 98.416C98.364 100.36 98.892 102.64 98.892 105.256C98.892 107.248 98.592 109.048 97.992 110.656C97.392 112.264 96.54 113.644 95.436 114.796C94.332 115.948 93.012 116.836 91.476 117.46C89.94 118.084 88.224 118.396 86.328 118.396ZM86.328 113.644C87.744 113.644 88.944 113.32 89.928 112.672C90.936 112 91.704 111.04 92.232 109.792C92.784 108.52 93.06 107.02 93.06 105.292C93.06 102.652 92.472 100.612 91.296 99.172C90.12 97.708 88.464 96.976 86.328 96.976C84.936 96.976 83.736 97.3 82.728 97.948C81.72 98.596 80.952 99.544 80.424 100.792C79.896 102.04 79.632 103.54 79.632 105.292C79.632 107.908 80.22 109.96 81.396 111.448C82.572 112.912 84.216 113.644 86.328 113.644ZM105.548 118.324C104.636 118.324 103.94 118.084 103.46 117.604C102.98 117.124 102.74 116.44 102.74 115.552V102.772C102.74 101.884 102.968 101.212 103.424 100.756C103.904 100.276 104.564 100.036 105.404 100.036C106.268 100.036 106.928 100.276 107.384 100.756C107.84 101.212 108.068 101.884 108.068 102.772V104.644H107.708C107.996 103.204 108.632 102.088 109.616 101.296C110.6 100.504 111.872 100.06 113.432 99.964C114.032 99.916 114.488 100.072 114.8 100.432C115.136 100.768 115.316 101.332 115.34 102.124C115.388 102.868 115.232 103.456 114.872 103.888C114.536 104.32 113.96 104.584 113.144 104.68L112.316 104.752C110.948 104.872 109.928 105.268 109.256 105.94C108.608 106.612 108.284 107.584 108.284 108.856V115.552C108.284 116.44 108.044 117.124 107.564 117.604C107.108 118.084 106.436 118.324 105.548 118.324ZM131.735 118.324C130.847 118.324 130.163 118.084 129.683 117.604C129.227 117.124 128.999 116.44 128.999 115.552V104.392H127.703C127.031 104.392 126.503 104.212 126.119 103.852C125.759 103.492 125.579 103 125.579 102.376C125.579 101.704 125.759 101.2 126.119 100.864C126.503 100.504 127.031 100.324 127.703 100.324H130.583L128.999 101.764V100.648C128.999 98.08 129.635 96.16 130.907 94.888C132.203 93.616 134.099 92.848 136.595 92.584L137.747 92.476C138.371 92.428 138.863 92.524 139.223 92.764C139.607 93.004 139.859 93.316 139.979 93.7C140.099 94.084 140.123 94.48 140.051 94.888C139.979 95.272 139.811 95.62 139.547 95.932C139.307 96.22 138.971 96.376 138.539 96.4L138.035 96.436C136.739 96.532 135.815 96.844 135.263 97.372C134.711 97.876 134.435 98.656 134.435 99.712V100.936L133.751 100.324H136.991C137.687 100.324 138.215 100.504 138.575 100.864C138.935 101.2 139.115 101.704 139.115 102.376C139.115 103 138.935 103.492 138.575 103.852C138.215 104.212 137.687 104.392 136.991 104.392H134.435V115.552C134.435 117.4 133.535 118.324 131.735 118.324ZM144.185 118.324C143.273 118.324 142.577 118.084 142.097 117.604C141.617 117.124 141.377 116.44 141.377 115.552V102.772C141.377 101.884 141.605 101.212 142.061 100.756C142.541 100.276 143.201 100.036 144.041 100.036C144.905 100.036 145.565 100.276 146.021 100.756C146.477 101.212 146.705 101.884 146.705 102.772V104.644H146.345C146.633 103.204 147.269 102.088 148.253 101.296C149.237 100.504 150.509 100.06 152.069 99.964C152.669 99.916 153.125 100.072 153.437 100.432C153.773 100.768 153.953 101.332 153.977 102.124C154.025 102.868 153.869 103.456 153.509 103.888C153.173 104.32 152.597 104.584 151.781 104.68L150.953 104.752C149.585 104.872 148.565 105.268 147.893 105.94C147.245 106.612 146.921 107.584 146.921 108.856V115.552C146.921 116.44 146.681 117.124 146.201 117.604C145.745 118.084 145.073 118.324 144.185 118.324ZM162.729 118.396C161.241 118.396 160.005 118.12 159.021 117.568C158.037 117.016 157.305 116.188 156.825 115.084C156.369 113.956 156.141 112.564 156.141 110.908V102.772C156.141 101.86 156.369 101.176 156.825 100.72C157.305 100.264 157.977 100.036 158.841 100.036C159.705 100.036 160.377 100.264 160.857 100.72C161.337 101.176 161.577 101.86 161.577 102.772V111.052C161.577 112.108 161.793 112.9 162.225 113.428C162.657 113.932 163.341 114.184 164.277 114.184C165.309 114.184 166.149 113.824 166.797 113.104C167.469 112.36 167.805 111.388 167.805 110.188V102.772C167.805 101.86 168.033 101.176 168.489 100.72C168.969 100.264 169.641 100.036 170.505 100.036C171.393 100.036 172.065 100.264 172.521 100.72C173.001 101.176 173.241 101.86 173.241 102.772V115.552C173.241 117.4 172.365 118.324 170.613 118.324C169.749 118.324 169.089 118.084 168.633 117.604C168.177 117.124 167.949 116.44 167.949 115.552V113.14L168.489 114.544C167.961 115.768 167.205 116.716 166.221 117.388C165.237 118.06 164.073 118.396 162.729 118.396ZM184.215 118.396C183.159 118.396 182.067 118.3 180.939 118.108C179.835 117.916 178.827 117.592 177.915 117.136C177.435 116.896 177.087 116.596 176.871 116.236C176.679 115.852 176.595 115.468 176.619 115.084C176.643 114.7 176.763 114.352 176.979 114.04C177.219 113.728 177.519 113.524 177.879 113.428C178.263 113.308 178.683 113.344 179.139 113.536C180.123 113.944 181.023 114.232 181.839 114.4C182.655 114.568 183.459 114.652 184.251 114.652C185.283 114.652 186.027 114.496 186.483 114.184C186.963 113.848 187.203 113.416 187.203 112.888C187.203 112.408 187.047 112.048 186.735 111.808C186.423 111.568 185.967 111.4 185.367 111.304L181.587 110.62C180.099 110.356 178.947 109.816 178.131 109C177.339 108.16 176.943 107.092 176.943 105.796C176.943 104.596 177.279 103.564 177.951 102.7C178.623 101.812 179.547 101.14 180.723 100.684C181.923 100.204 183.279 99.964 184.791 99.964C185.871 99.964 186.867 100.06 187.779 100.252C188.691 100.444 189.567 100.756 190.407 101.188C190.839 101.404 191.139 101.692 191.307 102.052C191.499 102.412 191.559 102.784 191.487 103.168C191.439 103.552 191.295 103.9 191.055 104.212C190.815 104.524 190.503 104.728 190.119 104.824C189.759 104.92 189.339 104.872 188.859 104.68C188.091 104.32 187.383 104.068 186.735 103.924C186.087 103.756 185.463 103.672 184.863 103.672C183.783 103.672 183.003 103.852 182.523 104.212C182.043 104.548 181.803 104.98 181.803 105.508C181.803 105.916 181.935 106.264 182.199 106.552C182.487 106.816 182.919 106.996 183.495 107.092L187.275 107.776C188.835 108.04 190.023 108.568 190.839 109.36C191.655 110.128 192.063 111.184 192.063 112.528C192.063 114.352 191.343 115.792 189.903 116.848C188.487 117.88 186.591 118.396 184.215 118.396ZM203.666 118.396C202.01 118.396 200.618 118.12 199.49 117.568C198.386 117.016 197.558 116.212 197.006 115.156C196.478 114.1 196.214 112.768 196.214 111.16V104.392H194.702C194.03 104.392 193.502 104.212 193.118 103.852C192.758 103.492 192.578 103 192.578 102.376C192.578 101.704 192.758 101.2 193.118 100.864C193.502 100.504 194.03 100.324 194.702 100.324H196.214V97.588C196.214 96.676 196.454 95.992 196.934 95.536C197.414 95.056 198.086 94.816 198.95 94.816C199.838 94.816 200.51 95.056 200.966 95.536C201.422 95.992 201.65 96.676 201.65 97.588V100.324H205.07C205.742 100.324 206.258 100.504 206.618 100.864C206.978 101.2 207.158 101.704 207.158 102.376C207.158 103 206.978 103.492 206.618 103.852C206.258 104.212 205.742 104.392 205.07 104.392H201.65V110.944C201.65 111.952 201.878 112.708 202.334 113.212C202.814 113.716 203.57 113.968 204.602 113.968C204.962 113.968 205.298 113.932 205.61 113.86C205.922 113.788 206.21 113.74 206.474 113.716C206.81 113.692 207.086 113.8 207.302 114.04C207.518 114.256 207.626 114.748 207.626 115.516C207.626 116.092 207.53 116.596 207.338 117.028C207.146 117.46 206.81 117.772 206.33 117.964C206.018 118.084 205.586 118.18 205.034 118.252C204.506 118.348 204.05 118.396 203.666 118.396ZM212.353 118.324C211.441 118.324 210.745 118.084 210.265 117.604C209.785 117.124 209.545 116.44 209.545 115.552V102.772C209.545 101.884 209.773 101.212 210.229 100.756C210.709 100.276 211.369 100.036 212.209 100.036C213.073 100.036 213.733 100.276 214.189 100.756C214.645 101.212 214.873 101.884 214.873 102.772V104.644H214.513C214.801 103.204 215.437 102.088 216.421 101.296C217.405 100.504 218.677 100.06 220.237 99.964C220.837 99.916 221.293 100.072 221.605 100.432C221.941 100.768 222.121 101.332 222.145 102.124C222.193 102.868 222.037 103.456 221.677 103.888C221.341 104.32 220.765 104.584 219.949 104.68L219.121 104.752C217.753 104.872 216.733 105.268 216.061 105.94C215.413 106.612 215.089 107.584 215.089 108.856V115.552C215.089 116.44 214.849 117.124 214.369 117.604C213.913 118.084 213.241 118.324 212.353 118.324ZM230.181 118.396C228.885 118.396 227.721 118.144 226.689 117.64C225.657 117.136 224.853 116.452 224.277 115.588C223.701 114.724 223.413 113.752 223.413 112.672C223.413 111.376 223.749 110.356 224.421 109.612C225.093 108.844 226.185 108.304 227.697 107.992C229.209 107.656 231.213 107.488 233.709 107.488H235.617V110.296H233.745C232.521 110.296 231.525 110.368 230.757 110.512C230.013 110.632 229.473 110.848 229.137 111.16C228.825 111.472 228.669 111.904 228.669 112.456C228.669 113.128 228.897 113.68 229.353 114.112C229.833 114.544 230.517 114.76 231.405 114.76C232.101 114.76 232.713 114.604 233.241 114.292C233.793 113.956 234.225 113.512 234.537 112.96C234.849 112.384 235.005 111.736 235.005 111.016V106.876C235.005 105.82 234.765 105.076 234.285 104.644C233.805 104.188 232.989 103.96 231.837 103.96C231.189 103.96 230.481 104.044 229.713 104.212C228.969 104.356 228.141 104.608 227.229 104.968C226.701 105.208 226.233 105.268 225.825 105.148C225.417 105.004 225.105 104.764 224.889 104.428C224.673 104.068 224.565 103.684 224.565 103.276C224.565 102.844 224.685 102.436 224.925 102.052C225.165 101.644 225.561 101.344 226.113 101.152C227.241 100.696 228.297 100.384 229.281 100.216C230.289 100.048 231.213 99.964 232.053 99.964C233.901 99.964 235.413 100.24 236.589 100.792C237.789 101.32 238.689 102.148 239.289 103.276C239.889 104.38 240.189 105.808 240.189 107.56V115.552C240.189 116.44 239.973 117.124 239.541 117.604C239.109 118.084 238.485 118.324 237.669 118.324C236.853 118.324 236.217 118.084 235.761 117.604C235.329 117.124 235.113 116.44 235.113 115.552V114.22L235.365 114.436C235.221 115.252 234.909 115.96 234.429 116.56C233.973 117.136 233.385 117.592 232.665 117.928C231.945 118.24 231.117 118.396 230.181 118.396ZM252.92 118.396C251.264 118.396 249.872 118.12 248.744 117.568C247.64 117.016 246.812 116.212 246.26 115.156C245.732 114.1 245.468 112.768 245.468 111.16V104.392H243.956C243.284 104.392 242.756 104.212 242.372 103.852C242.012 103.492 241.832 103 241.832 102.376C241.832 101.704 242.012 101.2 242.372 100.864C242.756 100.504 243.284 100.324 243.956 100.324H245.468V97.588C245.468 96.676 245.708 95.992 246.188 95.536C246.668 95.056 247.34 94.816 248.204 94.816C249.092 94.816 249.764 95.056 250.22 95.536C250.676 95.992 250.904 96.676 250.904 97.588V100.324H254.324C254.996 100.324 255.512 100.504 255.872 100.864C256.232 101.2 256.412 101.704 256.412 102.376C256.412 103 256.232 103.492 255.872 103.852C255.512 104.212 254.996 104.392 254.324 104.392H250.904V110.944C250.904 111.952 251.132 112.708 251.588 113.212C252.068 113.716 252.824 113.968 253.856 113.968C254.216 113.968 254.552 113.932 254.864 113.86C255.176 113.788 255.464 113.74 255.728 113.716C256.064 113.692 256.34 113.8 256.556 114.04C256.772 114.256 256.88 114.748 256.88 115.516C256.88 116.092 256.784 116.596 256.592 117.028C256.4 117.46 256.064 117.772 255.584 117.964C255.272 118.084 254.84 118.18 254.288 118.252C253.76 118.348 253.304 118.396 252.92 118.396ZM267.803 118.396C265.715 118.396 263.915 118.024 262.403 117.28C260.915 116.512 259.763 115.444 258.947 114.076C258.155 112.684 257.759 111.052 257.759 109.18C257.759 107.356 258.143 105.76 258.911 104.392C259.679 103 260.747 101.92 262.115 101.152C263.507 100.36 265.079 99.964 266.831 99.964C268.103 99.964 269.255 100.18 270.287 100.612C271.319 101.02 272.207 101.62 272.951 102.412C273.695 103.18 274.259 104.128 274.643 105.256C275.027 106.36 275.219 107.596 275.219 108.964C275.219 109.42 275.075 109.768 274.787 110.008C274.499 110.224 274.079 110.332 273.527 110.332H262.223V107.524H271.295L270.719 108.028C270.719 107.044 270.575 106.228 270.287 105.58C269.999 104.908 269.579 104.404 269.027 104.068C268.499 103.732 267.839 103.564 267.047 103.564C266.159 103.564 265.403 103.768 264.779 104.176C264.155 104.584 263.675 105.172 263.339 105.94C263.003 106.708 262.835 107.632 262.835 108.712V109C262.835 110.824 263.255 112.168 264.095 113.032C264.959 113.896 266.231 114.328 267.911 114.328C268.487 114.328 269.147 114.256 269.891 114.112C270.635 113.968 271.331 113.74 271.979 113.428C272.531 113.164 273.023 113.08 273.455 113.176C273.887 113.248 274.223 113.44 274.463 113.752C274.703 114.064 274.835 114.424 274.859 114.832C274.907 115.24 274.823 115.648 274.607 116.056C274.391 116.44 274.031 116.764 273.527 117.028C272.711 117.484 271.787 117.82 270.755 118.036C269.747 118.276 268.763 118.396 267.803 118.396ZM285.257 118.396C283.721 118.396 282.365 118.024 281.189 117.28C280.037 116.536 279.137 115.468 278.489 114.076C277.841 112.684 277.517 111.04 277.517 109.144C277.517 107.248 277.841 105.616 278.489 104.248C279.137 102.88 280.037 101.824 281.189 101.08C282.365 100.336 283.721 99.964 285.257 99.964C286.649 99.964 287.873 100.3 288.929 100.972C290.009 101.644 290.741 102.52 291.125 103.6H290.729V95.068C290.729 94.156 290.957 93.472 291.413 93.016C291.869 92.536 292.541 92.296 293.429 92.296C294.293 92.296 294.965 92.536 295.445 93.016C295.925 93.472 296.165 94.156 296.165 95.068V115.552C296.165 116.44 295.925 117.124 295.445 117.604C294.989 118.084 294.329 118.324 293.465 118.324C292.601 118.324 291.929 118.084 291.449 117.604C290.993 117.124 290.765 116.44 290.765 115.552V113.104L291.161 114.508C290.825 115.684 290.105 116.632 289.001 117.352C287.921 118.048 286.673 118.396 285.257 118.396ZM286.877 114.328C287.669 114.328 288.353 114.136 288.929 113.752C289.505 113.368 289.961 112.804 290.297 112.06C290.633 111.292 290.801 110.32 290.801 109.144C290.801 107.392 290.441 106.108 289.721 105.292C289.001 104.452 288.053 104.032 286.877 104.032C286.109 104.032 285.425 104.212 284.825 104.572C284.249 104.932 283.793 105.496 283.457 106.264C283.145 107.008 282.989 107.968 282.989 109.144C282.989 110.896 283.349 112.204 284.069 113.068C284.789 113.908 285.725 114.328 286.877 114.328ZM319.084 118.396C317.428 118.396 316.036 118.12 314.908 117.568C313.804 117.016 312.976 116.212 312.424 115.156C311.896 114.1 311.632 112.768 311.632 111.16V104.392H310.12C309.448 104.392 308.92 104.212 308.536 103.852C308.176 103.492 307.996 103 307.996 102.376C307.996 101.704 308.176 101.2 308.536 100.864C308.92 100.504 309.448 100.324 310.12 100.324H311.632V97.588C311.632 96.676 311.872 95.992 312.352 95.536C312.832 95.056 313.504 94.816 314.368 94.816C315.256 94.816 315.928 95.056 316.384 95.536C316.84 95.992 317.068 96.676 317.068 97.588V100.324H320.488C321.16 100.324 321.676 100.504 322.036 100.864C322.396 101.2 322.576 101.704 322.576 102.376C322.576 103 322.396 103.492 322.036 103.852C321.676 104.212 321.16 104.392 320.488 104.392H317.068V110.944C317.068 111.952 317.296 112.708 317.752 113.212C318.232 113.716 318.988 113.968 320.02 113.968C320.38 113.968 320.716 113.932 321.028 113.86C321.34 113.788 321.628 113.74 321.892 113.716C322.228 113.692 322.504 113.8 322.72 114.04C322.936 114.256 323.044 114.748 323.044 115.516C323.044 116.092 322.948 116.596 322.756 117.028C322.564 117.46 322.228 117.772 321.748 117.964C321.436 118.084 321.004 118.18 320.452 118.252C319.924 118.348 319.468 118.396 319.084 118.396ZM328.262 118.324C327.374 118.324 326.69 118.084 326.21 117.604C325.754 117.124 325.526 116.44 325.526 115.552V95.068C325.526 94.156 325.754 93.472 326.21 93.016C326.69 92.536 327.374 92.296 328.262 92.296C329.126 92.296 329.786 92.536 330.242 93.016C330.722 93.472 330.962 94.156 330.962 95.068V103.636H330.458C331.01 102.46 331.826 101.56 332.906 100.936C334.01 100.288 335.258 99.964 336.65 99.964C338.066 99.964 339.23 100.24 340.142 100.792C341.054 101.32 341.738 102.136 342.194 103.24C342.65 104.32 342.878 105.7 342.878 107.38V115.552C342.878 116.44 342.638 117.124 342.158 117.604C341.702 118.084 341.03 118.324 340.142 118.324C339.278 118.324 338.606 118.084 338.126 117.604C337.67 117.124 337.442 116.44 337.442 115.552V107.632C337.442 106.408 337.214 105.532 336.758 105.004C336.326 104.452 335.654 104.176 334.742 104.176C333.59 104.176 332.666 104.536 331.97 105.256C331.298 105.976 330.962 106.936 330.962 108.136V115.552C330.962 117.4 330.062 118.324 328.262 118.324ZM352.912 118.396C351.616 118.396 350.452 118.144 349.42 117.64C348.388 117.136 347.584 116.452 347.008 115.588C346.432 114.724 346.144 113.752 346.144 112.672C346.144 111.376 346.48 110.356 347.152 109.612C347.824 108.844 348.916 108.304 350.428 107.992C351.94 107.656 353.944 107.488 356.44 107.488H358.348V110.296H356.476C355.252 110.296 354.256 110.368 353.488 110.512C352.744 110.632 352.204 110.848 351.868 111.16C351.556 111.472 351.4 111.904 351.4 112.456C351.4 113.128 351.628 113.68 352.084 114.112C352.564 114.544 353.248 114.76 354.136 114.76C354.832 114.76 355.444 114.604 355.972 114.292C356.524 113.956 356.956 113.512 357.268 112.96C357.58 112.384 357.736 111.736 357.736 111.016V106.876C357.736 105.82 357.496 105.076 357.016 104.644C356.536 104.188 355.72 103.96 354.568 103.96C353.92 103.96 353.212 104.044 352.444 104.212C351.7 104.356 350.872 104.608 349.96 104.968C349.432 105.208 348.964 105.268 348.556 105.148C348.148 105.004 347.836 104.764 347.62 104.428C347.404 104.068 347.296 103.684 347.296 103.276C347.296 102.844 347.416 102.436 347.656 102.052C347.896 101.644 348.292 101.344 348.844 101.152C349.972 100.696 351.028 100.384 352.012 100.216C353.02 100.048 353.944 99.964 354.784 99.964C356.632 99.964 358.144 100.24 359.32 100.792C360.52 101.32 361.42 102.148 362.02 103.276C362.62 104.38 362.92 105.808 362.92 107.56V115.552C362.92 116.44 362.704 117.124 362.272 117.604C361.84 118.084 361.216 118.324 360.4 118.324C359.584 118.324 358.948 118.084 358.492 117.604C358.06 117.124 357.844 116.44 357.844 115.552V114.22L358.096 114.436C357.952 115.252 357.64 115.96 357.16 116.56C356.704 117.136 356.116 117.592 355.396 117.928C354.676 118.24 353.848 118.396 352.912 118.396ZM375.651 118.396C373.995 118.396 372.603 118.12 371.475 117.568C370.371 117.016 369.543 116.212 368.991 115.156C368.463 114.1 368.199 112.768 368.199 111.16V104.392H366.687C366.015 104.392 365.487 104.212 365.103 103.852C364.743 103.492 364.563 103 364.563 102.376C364.563 101.704 364.743 101.2 365.103 100.864C365.487 100.504 366.015 100.324 366.687 100.324H368.199V97.588C368.199 96.676 368.439 95.992 368.919 95.536C369.399 95.056 370.071 94.816 370.935 94.816C371.823 94.816 372.495 95.056 372.951 95.536C373.407 95.992 373.635 96.676 373.635 97.588V100.324H377.055C377.727 100.324 378.243 100.504 378.603 100.864C378.963 101.2 379.143 101.704 379.143 102.376C379.143 103 378.963 103.492 378.603 103.852C378.243 104.212 377.727 104.392 377.055 104.392H373.635V110.944C373.635 111.952 373.863 112.708 374.319 113.212C374.799 113.716 375.555 113.968 376.587 113.968C376.947 113.968 377.283 113.932 377.595 113.86C377.907 113.788 378.195 113.74 378.459 113.716C378.795 113.692 379.071 113.8 379.287 114.04C379.503 114.256 379.611 114.748 379.611 115.516C379.611 116.092 379.515 116.596 379.323 117.028C379.131 117.46 378.795 117.772 378.315 117.964C378.003 118.084 377.571 118.18 377.019 118.252C376.491 118.348 376.035 118.396 375.651 118.396ZM398.352 118.396C397.296 118.396 396.204 118.3 395.076 118.108C393.972 117.916 392.964 117.592 392.052 117.136C391.572 116.896 391.224 116.596 391.008 116.236C390.816 115.852 390.732 115.468 390.756 115.084C390.78 114.7 390.9 114.352 391.116 114.04C391.356 113.728 391.656 113.524 392.016 113.428C392.4 113.308 392.82 113.344 393.276 113.536C394.26 113.944 395.16 114.232 395.976 114.4C396.792 114.568 397.596 114.652 398.388 114.652C399.42 114.652 400.164 114.496 400.62 114.184C401.1 113.848 401.34 113.416 401.34 112.888C401.34 112.408 401.184 112.048 400.872 111.808C400.56 111.568 400.104 111.4 399.504 111.304L395.724 110.62C394.236 110.356 393.084 109.816 392.268 109C391.476 108.16 391.08 107.092 391.08 105.796C391.08 104.596 391.416 103.564 392.088 102.7C392.76 101.812 393.684 101.14 394.86 100.684C396.06 100.204 397.416 99.964 398.928 99.964C400.008 99.964 401.004 100.06 401.916 100.252C402.828 100.444 403.704 100.756 404.544 101.188C404.976 101.404 405.276 101.692 405.444 102.052C405.636 102.412 405.696 102.784 405.624 103.168C405.576 103.552 405.432 103.9 405.192 104.212C404.952 104.524 404.64 104.728 404.256 104.824C403.896 104.92 403.476 104.872 402.996 104.68C402.228 104.32 401.52 104.068 400.872 103.924C400.224 103.756 399.6 103.672 399 103.672C397.92 103.672 397.14 103.852 396.66 104.212C396.18 104.548 395.94 104.98 395.94 105.508C395.94 105.916 396.072 106.264 396.336 106.552C396.624 106.816 397.056 106.996 397.632 107.092L401.412 107.776C402.972 108.04 404.16 108.568 404.976 109.36C405.792 110.128 406.2 111.184 406.2 112.528C406.2 114.352 405.48 115.792 404.04 116.848C402.624 117.88 400.728 118.396 398.352 118.396ZM417.799 118.396C415.903 118.396 414.247 118.024 412.831 117.28C411.439 116.536 410.359 115.468 409.591 114.076C408.823 112.684 408.439 111.04 408.439 109.144C408.439 107.728 408.655 106.456 409.087 105.328C409.519 104.2 410.143 103.24 410.959 102.448C411.799 101.632 412.795 101.02 413.947 100.612C415.099 100.18 416.383 99.964 417.799 99.964C419.695 99.964 421.339 100.336 422.731 101.08C424.147 101.824 425.239 102.88 426.007 104.248C426.799 105.616 427.195 107.248 427.195 109.144C427.195 110.584 426.967 111.868 426.511 112.996C426.079 114.124 425.455 115.096 424.639 115.912C423.823 116.728 422.827 117.352 421.651 117.784C420.499 118.192 419.215 118.396 417.799 118.396ZM417.799 114.328C418.591 114.328 419.275 114.136 419.851 113.752C420.427 113.368 420.883 112.804 421.219 112.06C421.555 111.292 421.723 110.32 421.723 109.144C421.723 107.392 421.363 106.108 420.643 105.292C419.923 104.452 418.975 104.032 417.799 104.032C417.031 104.032 416.347 104.212 415.747 104.572C415.171 104.932 414.715 105.496 414.379 106.264C414.067 107.008 413.911 107.968 413.911 109.144C413.911 110.896 414.271 112.204 414.991 113.068C415.711 113.908 416.647 114.328 417.799 114.328ZM433.31 118.324C432.422 118.324 431.738 118.084 431.258 117.604C430.802 117.124 430.574 116.44 430.574 115.552V102.772C430.574 101.884 430.802 101.212 431.258 100.756C431.738 100.276 432.398 100.036 433.238 100.036C434.102 100.036 434.762 100.276 435.218 100.756C435.674 101.212 435.902 101.884 435.902 102.772V105.076L435.506 103.636C435.986 102.532 436.73 101.644 437.738 100.972C438.746 100.3 439.934 99.964 441.302 99.964C442.67 99.964 443.81 100.288 444.722 100.936C445.634 101.584 446.282 102.58 446.666 103.924H446.162C446.69 102.7 447.494 101.74 448.574 101.044C449.678 100.324 450.938 99.964 452.354 99.964C453.722 99.964 454.838 100.24 455.702 100.792C456.59 101.32 457.25 102.136 457.682 103.24C458.114 104.32 458.33 105.7 458.33 107.38V115.552C458.33 116.44 458.09 117.124 457.61 117.604C457.154 118.084 456.494 118.324 455.63 118.324C454.742 118.324 454.058 118.084 453.578 117.604C453.122 117.124 452.894 116.44 452.894 115.552V107.56C452.894 106.384 452.702 105.532 452.318 105.004C451.958 104.452 451.334 104.176 450.446 104.176C449.414 104.176 448.61 104.536 448.034 105.256C447.458 105.976 447.17 106.996 447.17 108.316V115.552C447.17 116.44 446.93 117.124 446.45 117.604C445.994 118.084 445.334 118.324 444.47 118.324C443.606 118.324 442.934 118.084 442.454 117.604C441.974 117.124 441.734 116.44 441.734 115.552V107.56C441.734 106.384 441.542 105.532 441.158 105.004C440.798 104.452 440.174 104.176 439.286 104.176C438.254 104.176 437.45 104.536 436.874 105.256C436.298 105.976 436.01 106.996 436.01 108.316V115.552C436.01 117.4 435.11 118.324 433.31 118.324ZM471.674 118.396C469.586 118.396 467.786 118.024 466.274 117.28C464.786 116.512 463.634 115.444 462.818 114.076C462.026 112.684 461.63 111.052 461.63 109.18C461.63 107.356 462.014 105.76 462.782 104.392C463.55 103 464.618 101.92 465.986 101.152C467.378 100.36 468.95 99.964 470.702 99.964C471.974 99.964 473.126 100.18 474.158 100.612C475.19 101.02 476.078 101.62 476.822 102.412C477.566 103.18 478.13 104.128 478.514 105.256C478.898 106.36 479.09 107.596 479.09 108.964C479.09 109.42 478.946 109.768 478.658 110.008C478.37 110.224 477.95 110.332 477.398 110.332H466.094V107.524H475.166L474.59 108.028C474.59 107.044 474.446 106.228 474.158 105.58C473.87 104.908 473.45 104.404 472.898 104.068C472.37 103.732 471.71 103.564 470.918 103.564C470.03 103.564 469.274 103.768 468.65 104.176C468.026 104.584 467.546 105.172 467.21 105.94C466.874 106.708 466.706 107.632 466.706 108.712V109C466.706 110.824 467.126 112.168 467.966 113.032C468.83 113.896 470.102 114.328 471.782 114.328C472.358 114.328 473.018 114.256 473.762 114.112C474.506 113.968 475.202 113.74 475.85 113.428C476.402 113.164 476.894 113.08 477.326 113.176C477.758 113.248 478.094 113.44 478.334 113.752C478.574 114.064 478.706 114.424 478.73 114.832C478.778 115.24 478.694 115.648 478.478 116.056C478.262 116.44 477.902 116.764 477.398 117.028C476.582 117.484 475.658 117.82 474.626 118.036C473.618 118.276 472.634 118.396 471.674 118.396ZM490.748 118.396C488.852 118.396 487.196 118.024 485.78 117.28C484.388 116.536 483.308 115.468 482.54 114.076C481.772 112.684 481.388 111.04 481.388 109.144C481.388 107.728 481.604 106.456 482.036 105.328C482.468 104.2 483.092 103.24 483.908 102.448C484.748 101.632 485.744 101.02 486.896 100.612C488.048 100.18 489.332 99.964 490.748 99.964C492.644 99.964 494.288 100.336 495.68 101.08C497.096 101.824 498.188 102.88 498.956 104.248C499.748 105.616 500.144 107.248 500.144 109.144C500.144 110.584 499.916 111.868 499.46 112.996C499.028 114.124 498.404 115.096 497.588 115.912C496.772 116.728 495.776 117.352 494.6 117.784C493.448 118.192 492.164 118.396 490.748 118.396ZM490.748 114.328C491.54 114.328 492.224 114.136 492.8 113.752C493.376 113.368 493.832 112.804 494.168 112.06C494.504 111.292 494.672 110.32 494.672 109.144C494.672 107.392 494.312 106.108 493.592 105.292C492.872 104.452 491.924 104.032 490.748 104.032C489.98 104.032 489.296 104.212 488.696 104.572C488.12 104.932 487.664 105.496 487.328 106.264C487.016 107.008 486.86 107.968 486.86 109.144C486.86 110.896 487.22 112.204 487.94 113.068C488.66 113.908 489.596 114.328 490.748 114.328ZM506.187 118.324C505.299 118.324 504.615 118.084 504.135 117.604C503.679 117.124 503.451 116.44 503.451 115.552V102.772C503.451 101.884 503.679 101.212 504.135 100.756C504.615 100.276 505.275 100.036 506.115 100.036C506.979 100.036 507.639 100.276 508.095 100.756C508.551 101.212 508.779 101.884 508.779 102.772V104.824L508.383 103.636C508.935 102.46 509.751 101.56 510.831 100.936C511.935 100.288 513.183 99.964 514.575 99.964C515.991 99.964 517.155 100.24 518.067 100.792C518.979 101.32 519.663 102.136 520.119 103.24C520.575 104.32 520.803 105.7 520.803 107.38V115.552C520.803 116.44 520.563 117.124 520.083 117.604C519.627 118.084 518.955 118.324 518.067 118.324C517.203 118.324 516.531 118.084 516.051 117.604C515.595 117.124 515.367 116.44 515.367 115.552V107.632C515.367 106.408 515.139 105.532 514.683 105.004C514.251 104.452 513.579 104.176 512.667 104.176C511.515 104.176 510.591 104.536 509.895 105.256C509.223 105.976 508.887 106.936 508.887 108.136V115.552C508.887 117.4 507.987 118.324 506.187 118.324ZM534.041 118.396C531.953 118.396 530.153 118.024 528.641 117.28C527.153 116.512 526.001 115.444 525.185 114.076C524.393 112.684 523.997 111.052 523.997 109.18C523.997 107.356 524.381 105.76 525.149 104.392C525.917 103 526.985 101.92 528.353 101.152C529.745 100.36 531.317 99.964 533.069 99.964C534.341 99.964 535.493 100.18 536.525 100.612C537.557 101.02 538.445 101.62 539.189 102.412C539.933 103.18 540.497 104.128 540.881 105.256C541.265 106.36 541.457 107.596 541.457 108.964C541.457 109.42 541.313 109.768 541.025 110.008C540.737 110.224 540.317 110.332 539.765 110.332H528.461V107.524H537.533L536.957 108.028C536.957 107.044 536.813 106.228 536.525 105.58C536.237 104.908 535.817 104.404 535.265 104.068C534.737 103.732 534.077 103.564 533.285 103.564C532.397 103.564 531.641 103.768 531.017 104.176C530.393 104.584 529.913 105.172 529.577 105.94C529.241 106.708 529.073 107.632 529.073 108.712V109C529.073 110.824 529.493 112.168 530.333 113.032C531.197 113.896 532.469 114.328 534.149 114.328C534.725 114.328 535.385 114.256 536.129 114.112C536.873 113.968 537.569 113.74 538.217 113.428C538.769 113.164 539.261 113.08 539.693 113.176C540.125 113.248 540.461 113.44 540.701 113.752C540.941 114.064 541.073 114.424 541.097 114.832C541.145 115.24 541.061 115.648 540.845 116.056C540.629 116.44 540.269 116.764 539.765 117.028C538.949 117.484 538.025 117.82 536.993 118.036C535.985 118.276 535.001 118.396 534.041 118.396ZM72.504 173.768C71.856 173.792 71.34 173.684 70.956 173.444C70.572 173.204 70.308 172.892 70.164 172.508C70.02 172.148 69.984 171.776 70.056 171.392C70.104 171.008 70.26 170.672 70.524 170.384C70.788 170.096 71.148 169.928 71.604 169.88C72.54 169.808 73.212 169.544 73.62 169.088C74.052 168.656 74.268 167.984 74.268 167.072V151.772C74.268 150.884 74.508 150.212 74.988 149.756C75.468 149.276 76.14 149.036 77.004 149.036C77.868 149.036 78.528 149.276 78.984 149.756C79.464 150.212 79.704 150.884 79.704 151.772V166.568C79.704 168.152 79.44 169.46 78.912 170.492C78.408 171.524 77.628 172.304 76.572 172.832C75.516 173.384 74.16 173.696 72.504 173.768ZM76.968 146.084C75.984 146.084 75.216 145.856 74.664 145.4C74.136 144.92 73.872 144.248 73.872 143.384C73.872 142.496 74.136 141.824 74.664 141.368C75.216 140.888 75.984 140.648 76.968 140.648C77.976 140.648 78.744 140.888 79.272 141.368C79.8 141.824 80.064 142.496 80.064 143.384C80.064 144.248 79.8 144.92 79.272 145.4C78.744 145.856 77.976 146.084 76.968 146.084ZM90.4478 167.396C88.9598 167.396 87.7238 167.12 86.7398 166.568C85.7558 166.016 85.0238 165.188 84.5438 164.084C84.0878 162.956 83.8598 161.564 83.8598 159.908V151.772C83.8598 150.86 84.0878 150.176 84.5438 149.72C85.0238 149.264 85.6958 149.036 86.5598 149.036C87.4238 149.036 88.0958 149.264 88.5758 149.72C89.0558 150.176 89.2958 150.86 89.2958 151.772V160.052C89.2958 161.108 89.5118 161.9 89.9438 162.428C90.3758 162.932 91.0598 163.184 91.9958 163.184C93.0278 163.184 93.8678 162.824 94.5158 162.104C95.1878 161.36 95.5238 160.388 95.5238 159.188V151.772C95.5238 150.86 95.7518 150.176 96.2078 149.72C96.6878 149.264 97.3598 149.036 98.2238 149.036C99.1118 149.036 99.7838 149.264 100.24 149.72C100.72 150.176 100.96 150.86 100.96 151.772V164.552C100.96 166.4 100.084 167.324 98.3318 167.324C97.4678 167.324 96.8078 167.084 96.3518 166.604C95.8958 166.124 95.6678 165.44 95.6678 164.552V162.14L96.2078 163.544C95.6798 164.768 94.9238 165.716 93.9398 166.388C92.9558 167.06 91.7918 167.396 90.4478 167.396ZM111.934 167.396C110.878 167.396 109.786 167.3 108.658 167.108C107.554 166.916 106.546 166.592 105.634 166.136C105.154 165.896 104.806 165.596 104.59 165.236C104.398 164.852 104.314 164.468 104.338 164.084C104.362 163.7 104.482 163.352 104.698 163.04C104.938 162.728 105.238 162.524 105.598 162.428C105.982 162.308 106.402 162.344 106.858 162.536C107.842 162.944 108.742 163.232 109.558 163.4C110.374 163.568 111.178 163.652 111.97 163.652C113.002 163.652 113.746 163.496 114.202 163.184C114.682 162.848 114.922 162.416 114.922 161.888C114.922 161.408 114.766 161.048 114.454 160.808C114.142 160.568 113.686 160.4 113.086 160.304L109.306 159.62C107.818 159.356 106.666 158.816 105.85 158C105.058 157.16 104.662 156.092 104.662 154.796C104.662 153.596 104.998 152.564 105.67 151.7C106.342 150.812 107.266 150.14 108.442 149.684C109.642 149.204 110.998 148.964 112.51 148.964C113.59 148.964 114.586 149.06 115.498 149.252C116.41 149.444 117.286 149.756 118.126 150.188C118.558 150.404 118.858 150.692 119.026 151.052C119.218 151.412 119.278 151.784 119.206 152.168C119.158 152.552 119.014 152.9 118.774 153.212C118.534 153.524 118.222 153.728 117.838 153.824C117.478 153.92 117.058 153.872 116.578 153.68C115.81 153.32 115.102 153.068 114.454 152.924C113.806 152.756 113.182 152.672 112.582 152.672C111.502 152.672 110.722 152.852 110.242 153.212C109.762 153.548 109.522 153.98 109.522 154.508C109.522 154.916 109.654 155.264 109.918 155.552C110.206 155.816 110.638 155.996 111.214 156.092L114.994 156.776C116.554 157.04 117.742 157.568 118.558 158.36C119.374 159.128 119.782 160.184 119.782 161.528C119.782 163.352 119.062 164.792 117.622 165.848C116.206 166.88 114.31 167.396 111.934 167.396ZM131.385 167.396C129.729 167.396 128.337 167.12 127.209 166.568C126.105 166.016 125.277 165.212 124.725 164.156C124.197 163.1 123.933 161.768 123.933 160.16V153.392H122.421C121.749 153.392 121.221 153.212 120.837 152.852C120.477 152.492 120.297 152 120.297 151.376C120.297 150.704 120.477 150.2 120.837 149.864C121.221 149.504 121.749 149.324 122.421 149.324H123.933V146.588C123.933 145.676 124.173 144.992 124.653 144.536C125.133 144.056 125.805 143.816 126.669 143.816C127.557 143.816 128.229 144.056 128.685 144.536C129.141 144.992 129.369 145.676 129.369 146.588V149.324H132.789C133.461 149.324 133.977 149.504 134.337 149.864C134.697 150.2 134.877 150.704 134.877 151.376C134.877 152 134.697 152.492 134.337 152.852C133.977 153.212 133.461 153.392 132.789 153.392H129.369V159.944C129.369 160.952 129.597 161.708 130.053 162.212C130.533 162.716 131.289 162.968 132.321 162.968C132.681 162.968 133.017 162.932 133.329 162.86C133.641 162.788 133.929 162.74 134.193 162.716C134.529 162.692 134.805 162.8 135.021 163.04C135.237 163.256 135.345 163.748 135.345 164.516C135.345 165.092 135.249 165.596 135.057 166.028C134.865 166.46 134.529 166.772 134.049 166.964C133.737 167.084 133.305 167.18 132.753 167.252C132.225 167.348 131.769 167.396 131.385 167.396ZM154.194 167.396C152.658 167.396 151.302 167.024 150.126 166.28C148.974 165.536 148.074 164.468 147.426 163.076C146.778 161.684 146.454 160.04 146.454 158.144C146.454 156.248 146.778 154.616 147.426 153.248C148.074 151.88 148.974 150.824 150.126 150.08C151.302 149.336 152.658 148.964 154.194 148.964C155.586 148.964 156.81 149.3 157.866 149.972C158.946 150.644 159.678 151.52 160.062 152.6H159.666V144.068C159.666 143.156 159.894 142.472 160.35 142.016C160.806 141.536 161.478 141.296 162.366 141.296C163.23 141.296 163.902 141.536 164.382 142.016C164.862 142.472 165.102 143.156 165.102 144.068V164.552C165.102 165.44 164.862 166.124 164.382 166.604C163.926 167.084 163.266 167.324 162.402 167.324C161.538 167.324 160.866 167.084 160.386 166.604C159.93 166.124 159.702 165.44 159.702 164.552V162.104L160.098 163.508C159.762 164.684 159.042 165.632 157.938 166.352C156.858 167.048 155.61 167.396 154.194 167.396ZM155.814 163.328C156.606 163.328 157.29 163.136 157.866 162.752C158.442 162.368 158.898 161.804 159.234 161.06C159.57 160.292 159.738 159.32 159.738 158.144C159.738 156.392 159.378 155.108 158.658 154.292C157.938 153.452 156.99 153.032 155.814 153.032C155.046 153.032 154.362 153.212 153.762 153.572C153.186 153.932 152.73 154.496 152.394 155.264C152.082 156.008 151.926 156.968 151.926 158.144C151.926 159.896 152.286 161.204 153.006 162.068C153.726 162.908 154.662 163.328 155.814 163.328ZM177.787 167.396C175.891 167.396 174.235 167.024 172.819 166.28C171.427 165.536 170.347 164.468 169.579 163.076C168.811 161.684 168.427 160.04 168.427 158.144C168.427 156.728 168.643 155.456 169.075 154.328C169.507 153.2 170.131 152.24 170.947 151.448C171.787 150.632 172.783 150.02 173.935 149.612C175.087 149.18 176.371 148.964 177.787 148.964C179.683 148.964 181.327 149.336 182.719 150.08C184.135 150.824 185.227 151.88 185.995 153.248C186.787 154.616 187.183 156.248 187.183 158.144C187.183 159.584 186.955 160.868 186.499 161.996C186.067 163.124 185.443 164.096 184.627 164.912C183.811 165.728 182.815 166.352 181.639 166.784C180.487 167.192 179.203 167.396 177.787 167.396ZM177.787 163.328C178.579 163.328 179.263 163.136 179.839 162.752C180.415 162.368 180.871 161.804 181.207 161.06C181.543 160.292 181.711 159.32 181.711 158.144C181.711 156.392 181.351 155.108 180.631 154.292C179.911 153.452 178.963 153.032 177.787 153.032C177.019 153.032 176.335 153.212 175.735 153.572C175.159 153.932 174.703 154.496 174.367 155.264C174.055 156.008 173.899 156.968 173.899 158.144C173.899 159.896 174.259 161.204 174.979 162.068C175.699 162.908 176.635 163.328 177.787 163.328ZM199.67 167.396C197.582 167.396 195.782 167.024 194.27 166.28C192.782 165.512 191.63 164.444 190.814 163.076C190.022 161.684 189.626 160.052 189.626 158.18C189.626 156.356 190.01 154.76 190.778 153.392C191.546 152 192.614 150.92 193.982 150.152C195.374 149.36 196.946 148.964 198.698 148.964C199.97 148.964 201.122 149.18 202.154 149.612C203.186 150.02 204.074 150.62 204.818 151.412C205.562 152.18 206.126 153.128 206.51 154.256C206.894 155.36 207.086 156.596 207.086 157.964C207.086 158.42 206.942 158.768 206.654 159.008C206.366 159.224 205.946 159.332 205.394 159.332H194.09V156.524H203.162L202.586 157.028C202.586 156.044 202.442 155.228 202.154 154.58C201.866 153.908 201.446 153.404 200.894 153.068C200.366 152.732 199.706 152.564 198.914 152.564C198.026 152.564 197.27 152.768 196.646 153.176C196.022 153.584 195.542 154.172 195.206 154.94C194.87 155.708 194.702 156.632 194.702 157.712V158C194.702 159.824 195.122 161.168 195.962 162.032C196.826 162.896 198.098 163.328 199.778 163.328C200.354 163.328 201.014 163.256 201.758 163.112C202.502 162.968 203.198 162.74 203.846 162.428C204.398 162.164 204.89 162.08 205.322 162.176C205.754 162.248 206.09 162.44 206.33 162.752C206.57 163.064 206.702 163.424 206.726 163.832C206.774 164.24 206.69 164.648 206.474 165.056C206.258 165.44 205.898 165.764 205.394 166.028C204.578 166.484 203.654 166.82 202.622 167.036C201.614 167.276 200.63 167.396 199.67 167.396ZM217.016 167.396C215.96 167.396 214.868 167.3 213.74 167.108C212.636 166.916 211.628 166.592 210.716 166.136C210.236 165.896 209.888 165.596 209.672 165.236C209.48 164.852 209.396 164.468 209.42 164.084C209.444 163.7 209.564 163.352 209.78 163.04C210.02 162.728 210.32 162.524 210.68 162.428C211.064 162.308 211.484 162.344 211.94 162.536C212.924 162.944 213.824 163.232 214.64 163.4C215.456 163.568 216.26 163.652 217.052 163.652C218.084 163.652 218.828 163.496 219.284 163.184C219.764 162.848 220.004 162.416 220.004 161.888C220.004 161.408 219.848 161.048 219.536 160.808C219.224 160.568 218.768 160.4 218.168 160.304L214.388 159.62C212.9 159.356 211.748 158.816 210.932 158C210.14 157.16 209.744 156.092 209.744 154.796C209.744 153.596 210.08 152.564 210.752 151.7C211.424 150.812 212.348 150.14 213.524 149.684C214.724 149.204 216.08 148.964 217.592 148.964C218.672 148.964 219.668 149.06 220.58 149.252C221.492 149.444 222.368 149.756 223.208 150.188C223.64 150.404 223.94 150.692 224.108 151.052C224.3 151.412 224.36 151.784 224.288 152.168C224.24 152.552 224.096 152.9 223.856 153.212C223.616 153.524 223.304 153.728 222.92 153.824C222.56 153.92 222.14 153.872 221.66 153.68C220.892 153.32 220.184 153.068 219.536 152.924C218.888 152.756 218.264 152.672 217.664 152.672C216.584 152.672 215.804 152.852 215.324 153.212C214.844 153.548 214.604 153.98 214.604 154.508C214.604 154.916 214.736 155.264 215 155.552C215.288 155.816 215.72 155.996 216.296 156.092L220.076 156.776C221.636 157.04 222.824 157.568 223.64 158.36C224.456 159.128 224.864 160.184 224.864 161.528C224.864 163.352 224.144 164.792 222.704 165.848C221.288 166.88 219.392 167.396 217.016 167.396ZM230.703 167.324C229.815 167.324 229.131 167.084 228.651 166.604C228.195 166.124 227.967 165.44 227.967 164.552V151.772C227.967 150.884 228.195 150.212 228.651 149.756C229.131 149.276 229.791 149.036 230.631 149.036C231.495 149.036 232.155 149.276 232.611 149.756C233.067 150.212 233.295 150.884 233.295 151.772V153.824L232.899 152.636C233.451 151.46 234.267 150.56 235.347 149.936C236.451 149.288 237.699 148.964 239.091 148.964C240.507 148.964 241.671 149.24 242.583 149.792C243.495 150.32 244.179 151.136 244.635 152.24C245.091 153.32 245.319 154.7 245.319 156.38V164.552C245.319 165.44 245.079 166.124 244.599 166.604C244.143 167.084 243.471 167.324 242.583 167.324C241.719 167.324 241.047 167.084 240.567 166.604C240.111 166.124 239.883 165.44 239.883 164.552V156.632C239.883 155.408 239.655 154.532 239.199 154.004C238.767 153.452 238.095 153.176 237.183 153.176C236.031 153.176 235.107 153.536 234.411 154.256C233.739 154.976 233.403 155.936 233.403 157.136V164.552C233.403 166.4 232.503 167.324 230.703 167.324ZM252.127 151.448C251.767 151.904 251.383 152.156 250.975 152.204C250.567 152.252 250.207 152.18 249.895 151.988C249.607 151.772 249.451 151.46 249.427 151.052C249.403 150.644 249.583 150.212 249.967 149.756C250.495 149.108 250.855 148.46 251.047 147.812C251.239 147.164 251.335 146.588 251.335 146.084L251.515 147.56C250.555 147.56 249.775 147.284 249.175 146.732C248.575 146.18 248.275 145.436 248.275 144.5C248.275 143.588 248.551 142.856 249.103 142.304C249.655 141.728 250.411 141.44 251.371 141.44C252.355 141.44 253.123 141.764 253.675 142.412C254.227 143.06 254.503 143.984 254.503 145.184C254.503 145.808 254.443 146.456 254.323 147.128C254.203 147.776 253.975 148.46 253.639 149.18C253.303 149.876 252.799 150.632 252.127 151.448ZM267.053 167.396C265.397 167.396 264.005 167.12 262.877 166.568C261.773 166.016 260.945 165.212 260.393 164.156C259.865 163.1 259.601 161.768 259.601 160.16V153.392H258.089C257.417 153.392 256.889 153.212 256.505 152.852C256.145 152.492 255.965 152 255.965 151.376C255.965 150.704 256.145 150.2 256.505 149.864C256.889 149.504 257.417 149.324 258.089 149.324H259.601V146.588C259.601 145.676 259.841 144.992 260.321 144.536C260.801 144.056 261.473 143.816 262.337 143.816C263.225 143.816 263.897 144.056 264.353 144.536C264.809 144.992 265.037 145.676 265.037 146.588V149.324H268.457C269.129 149.324 269.645 149.504 270.005 149.864C270.365 150.2 270.545 150.704 270.545 151.376C270.545 152 270.365 152.492 270.005 152.852C269.645 153.212 269.129 153.392 268.457 153.392H265.037V159.944C265.037 160.952 265.265 161.708 265.721 162.212C266.201 162.716 266.957 162.968 267.989 162.968C268.349 162.968 268.685 162.932 268.997 162.86C269.309 162.788 269.597 162.74 269.861 162.716C270.197 162.692 270.473 162.8 270.689 163.04C270.905 163.256 271.013 163.748 271.013 164.516C271.013 165.092 270.917 165.596 270.725 166.028C270.533 166.46 270.197 166.772 269.717 166.964C269.405 167.084 268.973 167.18 268.421 167.252C267.893 167.348 267.437 167.396 267.053 167.396ZM285.794 167.324C284.882 167.324 284.186 167.084 283.706 166.604C283.226 166.124 282.986 165.44 282.986 164.552V151.772C282.986 150.884 283.214 150.212 283.67 149.756C284.15 149.276 284.81 149.036 285.65 149.036C286.514 149.036 287.174 149.276 287.63 149.756C288.086 150.212 288.314 150.884 288.314 151.772V153.644H287.954C288.242 152.204 288.878 151.088 289.862 150.296C290.846 149.504 292.118 149.06 293.678 148.964C294.278 148.916 294.734 149.072 295.046 149.432C295.382 149.768 295.562 150.332 295.586 151.124C295.634 151.868 295.478 152.456 295.118 152.888C294.782 153.32 294.206 153.584 293.39 153.68L292.562 153.752C291.194 153.872 290.174 154.268 289.502 154.94C288.854 155.612 288.53 156.584 288.53 157.856V164.552C288.53 165.44 288.29 166.124 287.81 166.604C287.354 167.084 286.682 167.324 285.794 167.324ZM306.686 167.396C304.598 167.396 302.798 167.024 301.286 166.28C299.798 165.512 298.646 164.444 297.83 163.076C297.038 161.684 296.642 160.052 296.642 158.18C296.642 156.356 297.026 154.76 297.794 153.392C298.562 152 299.63 150.92 300.998 150.152C302.39 149.36 303.962 148.964 305.714 148.964C306.986 148.964 308.138 149.18 309.17 149.612C310.202 150.02 311.09 150.62 311.834 151.412C312.578 152.18 313.142 153.128 313.526 154.256C313.91 155.36 314.102 156.596 314.102 157.964C314.102 158.42 313.958 158.768 313.67 159.008C313.382 159.224 312.962 159.332 312.41 159.332H301.106V156.524H310.178L309.602 157.028C309.602 156.044 309.458 155.228 309.17 154.58C308.882 153.908 308.462 153.404 307.91 153.068C307.382 152.732 306.722 152.564 305.93 152.564C305.042 152.564 304.286 152.768 303.662 153.176C303.038 153.584 302.558 154.172 302.222 154.94C301.886 155.708 301.718 156.632 301.718 157.712V158C301.718 159.824 302.138 161.168 302.978 162.032C303.842 162.896 305.114 163.328 306.794 163.328C307.37 163.328 308.03 163.256 308.774 163.112C309.518 162.968 310.214 162.74 310.862 162.428C311.414 162.164 311.906 162.08 312.338 162.176C312.77 162.248 313.106 162.44 313.346 162.752C313.586 163.064 313.718 163.424 313.742 163.832C313.79 164.24 313.706 164.648 313.49 165.056C313.274 165.44 312.914 165.764 312.41 166.028C311.594 166.484 310.67 166.82 309.638 167.036C308.63 167.276 307.646 167.396 306.686 167.396ZM324.032 167.396C322.976 167.396 321.884 167.3 320.756 167.108C319.652 166.916 318.644 166.592 317.732 166.136C317.252 165.896 316.904 165.596 316.688 165.236C316.496 164.852 316.412 164.468 316.436 164.084C316.46 163.7 316.58 163.352 316.796 163.04C317.036 162.728 317.336 162.524 317.696 162.428C318.08 162.308 318.5 162.344 318.956 162.536C319.94 162.944 320.84 163.232 321.656 163.4C322.472 163.568 323.276 163.652 324.068 163.652C325.1 163.652 325.844 163.496 326.3 163.184C326.78 162.848 327.02 162.416 327.02 161.888C327.02 161.408 326.864 161.048 326.552 160.808C326.24 160.568 325.784 160.4 325.184 160.304L321.404 159.62C319.916 159.356 318.764 158.816 317.948 158C317.156 157.16 316.76 156.092 316.76 154.796C316.76 153.596 317.096 152.564 317.768 151.7C318.44 150.812 319.364 150.14 320.54 149.684C321.74 149.204 323.096 148.964 324.608 148.964C325.688 148.964 326.684 149.06 327.596 149.252C328.508 149.444 329.384 149.756 330.224 150.188C330.656 150.404 330.956 150.692 331.124 151.052C331.316 151.412 331.376 151.784 331.304 152.168C331.256 152.552 331.112 152.9 330.872 153.212C330.632 153.524 330.32 153.728 329.936 153.824C329.576 153.92 329.156 153.872 328.676 153.68C327.908 153.32 327.2 153.068 326.552 152.924C325.904 152.756 325.28 152.672 324.68 152.672C323.6 152.672 322.82 152.852 322.34 153.212C321.86 153.548 321.62 153.98 321.62 154.508C321.62 154.916 321.752 155.264 322.016 155.552C322.304 155.816 322.736 155.996 323.312 156.092L327.092 156.776C328.652 157.04 329.84 157.568 330.656 158.36C331.472 159.128 331.88 160.184 331.88 161.528C331.88 163.352 331.16 164.792 329.72 165.848C328.304 166.88 326.408 167.396 324.032 167.396ZM337.719 173.804C336.831 173.804 336.147 173.564 335.667 173.084C335.211 172.628 334.983 171.944 334.983 171.032V151.772C334.983 150.884 335.211 150.212 335.667 149.756C336.147 149.276 336.807 149.036 337.647 149.036C338.535 149.036 339.207 149.276 339.663 149.756C340.119 150.212 340.347 150.884 340.347 151.772V154.22L339.951 152.816C340.311 151.664 341.031 150.74 342.111 150.044C343.215 149.324 344.475 148.964 345.891 148.964C347.427 148.964 348.771 149.336 349.923 150.08C351.099 150.824 352.011 151.88 352.659 153.248C353.307 154.616 353.631 156.248 353.631 158.144C353.631 160.04 353.307 161.684 352.659 163.076C352.011 164.468 351.111 165.536 349.959 166.28C348.807 167.024 347.451 167.396 345.891 167.396C344.499 167.396 343.263 167.06 342.183 166.388C341.103 165.692 340.371 164.792 339.987 163.688H340.419V171.032C340.419 171.944 340.179 172.628 339.699 173.084C339.243 173.564 338.583 173.804 337.719 173.804ZM344.271 163.328C345.039 163.328 345.711 163.136 346.287 162.752C346.887 162.368 347.343 161.804 347.655 161.06C347.991 160.292 348.159 159.32 348.159 158.144C348.159 156.392 347.799 155.108 347.079 154.292C346.359 153.452 345.423 153.032 344.271 153.032C343.503 153.032 342.819 153.212 342.219 153.572C341.643 153.932 341.187 154.496 340.851 155.264C340.515 156.008 340.347 156.968 340.347 158.144C340.347 159.896 340.707 161.204 341.427 162.068C342.147 162.908 343.095 163.328 344.271 163.328ZM365.451 167.396C363.555 167.396 361.899 167.024 360.483 166.28C359.091 165.536 358.011 164.468 357.243 163.076C356.475 161.684 356.091 160.04 356.091 158.144C356.091 156.728 356.307 155.456 356.739 154.328C357.171 153.2 357.795 152.24 358.611 151.448C359.451 150.632 360.447 150.02 361.599 149.612C362.751 149.18 364.035 148.964 365.451 148.964C367.347 148.964 368.991 149.336 370.383 150.08C371.799 150.824 372.891 151.88 373.659 153.248C374.451 154.616 374.847 156.248 374.847 158.144C374.847 159.584 374.619 160.868 374.163 161.996C373.731 163.124 373.107 164.096 372.291 164.912C371.475 165.728 370.479 166.352 369.303 166.784C368.151 167.192 366.867 167.396 365.451 167.396ZM365.451 163.328C366.243 163.328 366.927 163.136 367.503 162.752C368.079 162.368 368.535 161.804 368.871 161.06C369.207 160.292 369.375 159.32 369.375 158.144C369.375 156.392 369.015 155.108 368.295 154.292C367.575 153.452 366.627 153.032 365.451 153.032C364.683 153.032 363.999 153.212 363.399 153.572C362.823 153.932 362.367 154.496 362.031 155.264C361.719 156.008 361.563 156.968 361.563 158.144C361.563 159.896 361.923 161.204 362.643 162.068C363.363 162.908 364.299 163.328 365.451 163.328ZM380.89 167.324C380.002 167.324 379.318 167.084 378.838 166.604C378.382 166.124 378.154 165.44 378.154 164.552V151.772C378.154 150.884 378.382 150.212 378.838 149.756C379.318 149.276 379.978 149.036 380.818 149.036C381.682 149.036 382.342 149.276 382.798 149.756C383.254 150.212 383.482 150.884 383.482 151.772V153.824L383.086 152.636C383.638 151.46 384.454 150.56 385.534 149.936C386.638 149.288 387.886 148.964 389.278 148.964C390.694 148.964 391.858 149.24 392.77 149.792C393.682 150.32 394.366 151.136 394.822 152.24C395.278 153.32 395.506 154.7 395.506 156.38V164.552C395.506 165.44 395.266 166.124 394.786 166.604C394.33 167.084 393.658 167.324 392.77 167.324C391.906 167.324 391.234 167.084 390.754 166.604C390.298 166.124 390.07 165.44 390.07 164.552V156.632C390.07 155.408 389.842 154.532 389.386 154.004C388.954 153.452 388.282 153.176 387.37 153.176C386.218 153.176 385.294 153.536 384.598 154.256C383.926 154.976 383.59 155.936 383.59 157.136V164.552C383.59 166.4 382.69 167.324 380.89 167.324ZM406.441 167.396C404.905 167.396 403.549 167.024 402.373 166.28C401.221 165.536 400.321 164.468 399.673 163.076C399.025 161.684 398.701 160.04 398.701 158.144C398.701 156.248 399.025 154.616 399.673 153.248C400.321 151.88 401.221 150.824 402.373 150.08C403.549 149.336 404.905 148.964 406.441 148.964C407.833 148.964 409.057 149.3 410.113 149.972C411.193 150.644 411.925 151.52 412.309 152.6H411.913V144.068C411.913 143.156 412.141 142.472 412.597 142.016C413.053 141.536 413.725 141.296 414.613 141.296C415.477 141.296 416.149 141.536 416.629 142.016C417.109 142.472 417.349 143.156 417.349 144.068V164.552C417.349 165.44 417.109 166.124 416.629 166.604C416.173 167.084 415.513 167.324 414.649 167.324C413.785 167.324 413.113 167.084 412.633 166.604C412.177 166.124 411.949 165.44 411.949 164.552V162.104L412.345 163.508C412.009 164.684 411.289 165.632 410.185 166.352C409.105 167.048 407.857 167.396 406.441 167.396ZM408.061 163.328C408.853 163.328 409.537 163.136 410.113 162.752C410.689 162.368 411.145 161.804 411.481 161.06C411.817 160.292 411.985 159.32 411.985 158.144C411.985 156.392 411.625 155.108 410.905 154.292C410.185 153.452 409.237 153.032 408.061 153.032C407.293 153.032 406.609 153.212 406.009 153.572C405.433 153.932 404.977 154.496 404.641 155.264C404.329 156.008 404.173 156.968 404.173 158.144C404.173 159.896 404.533 161.204 405.253 162.068C405.973 162.908 406.909 163.328 408.061 163.328ZM427.765 159.152C427.237 159.152 426.817 158.984 426.505 158.648C426.217 158.288 426.073 157.808 426.073 157.208C426.073 156.512 426.157 155.864 426.325 155.264C426.493 154.64 426.757 154.016 427.117 153.392C427.501 152.768 428.005 152.132 428.629 151.484C429.061 150.98 429.409 150.548 429.673 150.188C429.961 149.804 430.153 149.444 430.249 149.108C430.369 148.748 430.429 148.388 430.429 148.028C430.429 147.356 430.177 146.828 429.673 146.444C429.193 146.06 428.497 145.868 427.585 145.868C426.721 145.868 425.917 145.976 425.173 146.192C424.453 146.408 423.745 146.72 423.049 147.128C422.425 147.464 421.861 147.596 421.357 147.524C420.877 147.428 420.493 147.212 420.205 146.876C419.917 146.516 419.749 146.096 419.701 145.616C419.653 145.136 419.761 144.668 420.025 144.212C420.289 143.732 420.733 143.312 421.357 142.952C422.341 142.376 423.433 141.944 424.633 141.656C425.833 141.368 426.949 141.224 427.981 141.224C429.565 141.224 430.957 141.488 432.157 142.016C433.357 142.544 434.281 143.264 434.929 144.176C435.601 145.088 435.937 146.156 435.937 147.38C435.937 148.124 435.829 148.82 435.613 149.468C435.397 150.116 435.049 150.764 434.569 151.412C434.089 152.036 433.429 152.696 432.589 153.392C431.845 154.016 431.257 154.58 430.825 155.084C430.393 155.564 430.081 156.032 429.889 156.488C429.697 156.92 429.565 157.388 429.493 157.892C429.421 158.252 429.241 158.552 428.953 158.792C428.689 159.032 428.293 159.152 427.765 159.152ZM427.693 167.18C426.733 167.18 425.965 166.892 425.389 166.316C424.837 165.74 424.561 164.996 424.561 164.084C424.561 163.196 424.837 162.476 425.389 161.924C425.965 161.348 426.733 161.06 427.693 161.06C428.653 161.06 429.397 161.348 429.925 161.924C430.477 162.476 430.753 163.196 430.753 164.084C430.753 164.996 430.477 165.74 429.925 166.316C429.397 166.892 428.653 167.18 427.693 167.18Z" fill="#241008"/>
<defs>
<filter id="filter0_d_1731_26343" x="0" y="0" width="629" height="764" filterUnits="userSpaceOnUse" color-interpolation-filters="sRGB">
<feFlood flood-opacity="0" result="BackgroundImageFix"/>
<feColorMatrix in="SourceAlpha" type="matrix" values="0 0 0 0 0 0 0 0 0 0 0 0 0 0 0 0 0 0 127 0" result="hardAlpha"/>
<feOffset/>
<feGaussianBlur stdDeviation="16"/>
<feComposite in2="hardAlpha" operator="out"/>
<feColorMatrix type="matrix" values="0 0 0 0 0 0 0 0 0 0 0 0 0 0 0 0 0 0 0.1 0"/>
<feBlend mode="normal" in2="BackgroundImageFix" result="effect1_dropShadow_1731_26343"/>
<feBlend mode="normal" in="SourceGraphic" in2="effect1_dropShadow_1731_26343" result="shape"/>
</filter>
</defs>
</svg>
