<svg width="629" height="764" viewBox="0 0 629 764" fill="none" xmlns="http://www.w3.org/2000/svg">
<g filter="url(#filter0_d_1731_26622)">
<rect x="32" y="32" width="565" height="700" rx="32" fill="white"/>
</g>
<rect x="72" y="162" width="312" height="8" fill="#FF4981"/>
<path d="M83.412 118.324C82.5 118.324 81.804 118.072 81.324 117.568C80.844 117.064 80.604 116.356 80.604 115.444V97.228H74.232C73.488 97.228 72.912 97.024 72.504 96.616C72.096 96.208 71.892 95.644 71.892 94.924C71.892 94.18 72.096 93.616 72.504 93.232C72.912 92.824 73.488 92.62 74.232 92.62H92.556C93.3 92.62 93.876 92.824 94.284 93.232C94.692 93.616 94.896 94.18 94.896 94.924C94.896 95.644 94.692 96.208 94.284 96.616C93.876 97.024 93.3 97.228 92.556 97.228H86.184V115.444C86.184 116.356 85.944 117.064 85.464 117.568C85.008 118.072 84.324 118.324 83.412 118.324ZM101.504 118.324C100.616 118.324 99.9317 118.084 99.4517 117.604C98.9957 117.124 98.7677 116.44 98.7677 115.552V95.068C98.7677 94.156 98.9957 93.472 99.4517 93.016C99.9317 92.536 100.616 92.296 101.504 92.296C102.368 92.296 103.028 92.536 103.484 93.016C103.964 93.472 104.204 94.156 104.204 95.068V103.636H103.7C104.252 102.46 105.068 101.56 106.148 100.936C107.252 100.288 108.5 99.964 109.892 99.964C111.308 99.964 112.472 100.24 113.384 100.792C114.296 101.32 114.98 102.136 115.436 103.24C115.892 104.32 116.12 105.7 116.12 107.38V115.552C116.12 116.44 115.88 117.124 115.4 117.604C114.944 118.084 114.272 118.324 113.384 118.324C112.52 118.324 111.848 118.084 111.368 117.604C110.912 117.124 110.684 116.44 110.684 115.552V107.632C110.684 106.408 110.456 105.532 110 105.004C109.568 104.452 108.896 104.176 107.984 104.176C106.832 104.176 105.908 104.536 105.212 105.256C104.54 105.976 104.204 106.936 104.204 108.136V115.552C104.204 117.4 103.304 118.324 101.504 118.324ZM129.358 118.396C127.27 118.396 125.47 118.024 123.958 117.28C122.47 116.512 121.318 115.444 120.502 114.076C119.71 112.684 119.314 111.052 119.314 109.18C119.314 107.356 119.698 105.76 120.466 104.392C121.234 103 122.302 101.92 123.67 101.152C125.062 100.36 126.634 99.964 128.386 99.964C129.658 99.964 130.81 100.18 131.842 100.612C132.874 101.02 133.762 101.62 134.506 102.412C135.25 103.18 135.814 104.128 136.198 105.256C136.582 106.36 136.774 107.596 136.774 108.964C136.774 109.42 136.63 109.768 136.342 110.008C136.054 110.224 135.634 110.332 135.082 110.332H123.778V107.524H132.85L132.274 108.028C132.274 107.044 132.13 106.228 131.842 105.58C131.554 104.908 131.134 104.404 130.582 104.068C130.054 103.732 129.394 103.564 128.602 103.564C127.714 103.564 126.958 103.768 126.334 104.176C125.71 104.584 125.23 105.172 124.894 105.94C124.558 106.708 124.39 107.632 124.39 108.712V109C124.39 110.824 124.81 112.168 125.65 113.032C126.514 113.896 127.786 114.328 129.466 114.328C130.042 114.328 130.702 114.256 131.446 114.112C132.19 113.968 132.886 113.74 133.534 113.428C134.086 113.164 134.578 113.08 135.01 113.176C135.442 113.248 135.778 113.44 136.018 113.752C136.258 114.064 136.39 114.424 136.414 114.832C136.462 115.24 136.378 115.648 136.162 116.056C135.946 116.44 135.586 116.764 135.082 117.028C134.266 117.484 133.342 117.82 132.31 118.036C131.302 118.276 130.318 118.396 129.358 118.396ZM156.758 118.396C155.702 118.396 154.61 118.3 153.482 118.108C152.378 117.916 151.37 117.592 150.458 117.136C149.978 116.896 149.63 116.596 149.414 116.236C149.222 115.852 149.138 115.468 149.162 115.084C149.186 114.7 149.306 114.352 149.522 114.04C149.762 113.728 150.062 113.524 150.422 113.428C150.806 113.308 151.226 113.344 151.682 113.536C152.666 113.944 153.566 114.232 154.382 114.4C155.198 114.568 156.002 114.652 156.794 114.652C157.826 114.652 158.57 114.496 159.026 114.184C159.506 113.848 159.746 113.416 159.746 112.888C159.746 112.408 159.59 112.048 159.278 111.808C158.966 111.568 158.51 111.4 157.91 111.304L154.13 110.62C152.642 110.356 151.49 109.816 150.674 109C149.882 108.16 149.486 107.092 149.486 105.796C149.486 104.596 149.822 103.564 150.494 102.7C151.166 101.812 152.09 101.14 153.266 100.684C154.466 100.204 155.822 99.964 157.334 99.964C158.414 99.964 159.41 100.06 160.322 100.252C161.234 100.444 162.11 100.756 162.95 101.188C163.382 101.404 163.682 101.692 163.85 102.052C164.042 102.412 164.102 102.784 164.03 103.168C163.982 103.552 163.838 103.9 163.598 104.212C163.358 104.524 163.046 104.728 162.662 104.824C162.302 104.92 161.882 104.872 161.402 104.68C160.634 104.32 159.926 104.068 159.278 103.924C158.63 103.756 158.006 103.672 157.406 103.672C156.326 103.672 155.546 103.852 155.066 104.212C154.586 104.548 154.346 104.98 154.346 105.508C154.346 105.916 154.478 106.264 154.742 106.552C155.03 106.816 155.462 106.996 156.038 107.092L159.818 107.776C161.378 108.04 162.566 108.568 163.382 109.36C164.198 110.128 164.606 111.184 164.606 112.528C164.606 114.352 163.886 115.792 162.446 116.848C161.03 117.88 159.134 118.396 156.758 118.396ZM176.889 118.396C174.801 118.396 173.001 118.024 171.489 117.28C170.001 116.512 168.849 115.444 168.033 114.076C167.241 112.684 166.845 111.052 166.845 109.18C166.845 107.356 167.229 105.76 167.997 104.392C168.765 103 169.833 101.92 171.201 101.152C172.593 100.36 174.165 99.964 175.917 99.964C177.189 99.964 178.341 100.18 179.373 100.612C180.405 101.02 181.293 101.62 182.037 102.412C182.781 103.18 183.345 104.128 183.729 105.256C184.113 106.36 184.305 107.596 184.305 108.964C184.305 109.42 184.161 109.768 183.873 110.008C183.585 110.224 183.165 110.332 182.613 110.332H171.309V107.524H180.381L179.805 108.028C179.805 107.044 179.661 106.228 179.373 105.58C179.085 104.908 178.665 104.404 178.113 104.068C177.585 103.732 176.925 103.564 176.133 103.564C175.245 103.564 174.489 103.768 173.865 104.176C173.241 104.584 172.761 105.172 172.425 105.94C172.089 106.708 171.921 107.632 171.921 108.712V109C171.921 110.824 172.341 112.168 173.181 113.032C174.045 113.896 175.317 114.328 176.997 114.328C177.573 114.328 178.233 114.256 178.977 114.112C179.721 113.968 180.417 113.74 181.065 113.428C181.617 113.164 182.109 113.08 182.541 113.176C182.973 113.248 183.309 113.44 183.549 113.752C183.789 114.064 183.921 114.424 183.945 114.832C183.993 115.24 183.909 115.648 183.693 116.056C183.477 116.44 183.117 116.764 182.613 117.028C181.797 117.484 180.873 117.82 179.841 118.036C178.833 118.276 177.849 118.396 176.889 118.396ZM196.071 118.396C194.151 118.396 192.471 118.024 191.031 117.28C189.615 116.512 188.523 115.432 187.755 114.04C186.987 112.648 186.603 111.004 186.603 109.108C186.603 107.692 186.819 106.42 187.251 105.292C187.683 104.164 188.307 103.204 189.123 102.412C189.963 101.62 190.971 101.02 192.147 100.612C193.323 100.18 194.631 99.964 196.071 99.964C196.815 99.964 197.607 100.06 198.447 100.252C199.287 100.42 200.115 100.72 200.931 101.152C201.411 101.368 201.735 101.68 201.903 102.088C202.095 102.472 202.167 102.88 202.119 103.312C202.071 103.72 201.915 104.092 201.651 104.428C201.411 104.74 201.099 104.956 200.715 105.076C200.331 105.172 199.899 105.1 199.419 104.86C198.963 104.596 198.483 104.404 197.979 104.284C197.499 104.164 197.043 104.104 196.611 104.104C195.891 104.104 195.255 104.224 194.703 104.464C194.151 104.68 193.683 105.004 193.299 105.436C192.939 105.844 192.651 106.36 192.435 106.984C192.243 107.608 192.147 108.328 192.147 109.144C192.147 110.728 192.531 111.976 193.299 112.888C194.091 113.776 195.195 114.22 196.611 114.22C197.043 114.22 197.499 114.172 197.979 114.076C198.459 113.956 198.939 113.764 199.419 113.5C199.899 113.26 200.331 113.2 200.715 113.32C201.099 113.44 201.399 113.668 201.615 114.004C201.855 114.316 201.987 114.688 202.011 115.12C202.059 115.528 201.987 115.936 201.795 116.344C201.627 116.728 201.315 117.028 200.859 117.244C200.043 117.652 199.227 117.94 198.411 118.108C197.595 118.3 196.815 118.396 196.071 118.396ZM207.466 118.324C206.554 118.324 205.858 118.084 205.378 117.604C204.898 117.124 204.658 116.44 204.658 115.552V102.772C204.658 101.884 204.886 101.212 205.342 100.756C205.822 100.276 206.482 100.036 207.322 100.036C208.186 100.036 208.846 100.276 209.302 100.756C209.758 101.212 209.986 101.884 209.986 102.772V104.644H209.626C209.914 103.204 210.55 102.088 211.534 101.296C212.518 100.504 213.79 100.06 215.35 99.964C215.95 99.916 216.406 100.072 216.718 100.432C217.054 100.768 217.234 101.332 217.258 102.124C217.306 102.868 217.15 103.456 216.79 103.888C216.454 104.32 215.878 104.584 215.062 104.68L214.234 104.752C212.866 104.872 211.846 105.268 211.174 105.94C210.526 106.612 210.202 107.584 210.202 108.856V115.552C210.202 116.44 209.962 117.124 209.482 117.604C209.026 118.084 208.354 118.324 207.466 118.324ZM228.358 118.396C226.27 118.396 224.47 118.024 222.958 117.28C221.47 116.512 220.318 115.444 219.502 114.076C218.71 112.684 218.314 111.052 218.314 109.18C218.314 107.356 218.698 105.76 219.466 104.392C220.234 103 221.302 101.92 222.67 101.152C224.062 100.36 225.634 99.964 227.386 99.964C228.658 99.964 229.81 100.18 230.842 100.612C231.874 101.02 232.762 101.62 233.506 102.412C234.25 103.18 234.814 104.128 235.198 105.256C235.582 106.36 235.774 107.596 235.774 108.964C235.774 109.42 235.63 109.768 235.342 110.008C235.054 110.224 234.634 110.332 234.082 110.332H222.778V107.524H231.85L231.274 108.028C231.274 107.044 231.13 106.228 230.842 105.58C230.554 104.908 230.134 104.404 229.582 104.068C229.054 103.732 228.394 103.564 227.602 103.564C226.714 103.564 225.958 103.768 225.334 104.176C224.71 104.584 224.23 105.172 223.894 105.94C223.558 106.708 223.39 107.632 223.39 108.712V109C223.39 110.824 223.81 112.168 224.65 113.032C225.514 113.896 226.786 114.328 228.466 114.328C229.042 114.328 229.702 114.256 230.446 114.112C231.19 113.968 231.886 113.74 232.534 113.428C233.086 113.164 233.578 113.08 234.01 113.176C234.442 113.248 234.778 113.44 235.018 113.752C235.258 114.064 235.39 114.424 235.414 114.832C235.462 115.24 235.378 115.648 235.162 116.056C234.946 116.44 234.586 116.764 234.082 117.028C233.266 117.484 232.342 117.82 231.31 118.036C230.302 118.276 229.318 118.396 228.358 118.396ZM247.506 118.396C245.85 118.396 244.458 118.12 243.33 117.568C242.226 117.016 241.398 116.212 240.846 115.156C240.318 114.1 240.054 112.768 240.054 111.16V104.392H238.542C237.87 104.392 237.342 104.212 236.958 103.852C236.598 103.492 236.418 103 236.418 102.376C236.418 101.704 236.598 101.2 236.958 100.864C237.342 100.504 237.87 100.324 238.542 100.324H240.054V97.588C240.054 96.676 240.294 95.992 240.774 95.536C241.254 95.056 241.926 94.816 242.79 94.816C243.678 94.816 244.35 95.056 244.806 95.536C245.262 95.992 245.49 96.676 245.49 97.588V100.324H248.91C249.582 100.324 250.098 100.504 250.458 100.864C250.818 101.2 250.998 101.704 250.998 102.376C250.998 103 250.818 103.492 250.458 103.852C250.098 104.212 249.582 104.392 248.91 104.392H245.49V110.944C245.49 111.952 245.718 112.708 246.174 113.212C246.654 113.716 247.41 113.968 248.442 113.968C248.802 113.968 249.138 113.932 249.45 113.86C249.762 113.788 250.05 113.74 250.314 113.716C250.65 113.692 250.926 113.8 251.142 114.04C251.358 114.256 251.466 114.748 251.466 115.516C251.466 116.092 251.37 116.596 251.178 117.028C250.986 117.46 250.65 117.772 250.17 117.964C249.858 118.084 249.426 118.18 248.874 118.252C248.346 118.348 247.89 118.396 247.506 118.396ZM272.044 118.396C270.124 118.396 268.444 118.024 267.004 117.28C265.588 116.512 264.496 115.432 263.728 114.04C262.96 112.648 262.576 111.004 262.576 109.108C262.576 107.692 262.792 106.42 263.224 105.292C263.656 104.164 264.28 103.204 265.096 102.412C265.936 101.62 266.944 101.02 268.12 100.612C269.296 100.18 270.604 99.964 272.044 99.964C272.788 99.964 273.58 100.06 274.42 100.252C275.26 100.42 276.088 100.72 276.904 101.152C277.384 101.368 277.708 101.68 277.876 102.088C278.068 102.472 278.14 102.88 278.092 103.312C278.044 103.72 277.888 104.092 277.624 104.428C277.384 104.74 277.072 104.956 276.688 105.076C276.304 105.172 275.872 105.1 275.392 104.86C274.936 104.596 274.456 104.404 273.952 104.284C273.472 104.164 273.016 104.104 272.584 104.104C271.864 104.104 271.228 104.224 270.676 104.464C270.124 104.68 269.656 105.004 269.272 105.436C268.912 105.844 268.624 106.36 268.408 106.984C268.216 107.608 268.12 108.328 268.12 109.144C268.12 110.728 268.504 111.976 269.272 112.888C270.064 113.776 271.168 114.22 272.584 114.22C273.016 114.22 273.472 114.172 273.952 114.076C274.432 113.956 274.912 113.764 275.392 113.5C275.872 113.26 276.304 113.2 276.688 113.32C277.072 113.44 277.372 113.668 277.588 114.004C277.828 114.316 277.96 114.688 277.984 115.12C278.032 115.528 277.96 115.936 277.768 116.344C277.6 116.728 277.288 117.028 276.832 117.244C276.016 117.652 275.2 117.94 274.384 118.108C273.568 118.3 272.788 118.396 272.044 118.396ZM283.439 118.324C282.527 118.324 281.831 118.084 281.351 117.604C280.871 117.124 280.631 116.44 280.631 115.552V102.772C280.631 101.884 280.859 101.212 281.315 100.756C281.795 100.276 282.455 100.036 283.295 100.036C284.159 100.036 284.819 100.276 285.275 100.756C285.731 101.212 285.959 101.884 285.959 102.772V104.644H285.599C285.887 103.204 286.523 102.088 287.507 101.296C288.491 100.504 289.763 100.06 291.323 99.964C291.923 99.916 292.379 100.072 292.691 100.432C293.027 100.768 293.207 101.332 293.231 102.124C293.279 102.868 293.123 103.456 292.763 103.888C292.427 104.32 291.851 104.584 291.035 104.68L290.207 104.752C288.839 104.872 287.819 105.268 287.147 105.94C286.499 106.612 286.175 107.584 286.175 108.856V115.552C286.175 116.44 285.935 117.124 285.455 117.604C284.999 118.084 284.327 118.324 283.439 118.324ZM301.983 118.396C300.495 118.396 299.259 118.12 298.275 117.568C297.291 117.016 296.559 116.188 296.079 115.084C295.623 113.956 295.395 112.564 295.395 110.908V102.772C295.395 101.86 295.623 101.176 296.079 100.72C296.559 100.264 297.231 100.036 298.095 100.036C298.959 100.036 299.631 100.264 300.111 100.72C300.591 101.176 300.831 101.86 300.831 102.772V111.052C300.831 112.108 301.047 112.9 301.479 113.428C301.911 113.932 302.595 114.184 303.531 114.184C304.563 114.184 305.403 113.824 306.051 113.104C306.723 112.36 307.059 111.388 307.059 110.188V102.772C307.059 101.86 307.287 101.176 307.743 100.72C308.223 100.264 308.895 100.036 309.759 100.036C310.647 100.036 311.319 100.264 311.775 100.72C312.255 101.176 312.495 101.86 312.495 102.772V115.552C312.495 117.4 311.619 118.324 309.867 118.324C309.003 118.324 308.343 118.084 307.887 117.604C307.431 117.124 307.203 116.44 307.203 115.552V113.14L307.743 114.544C307.215 115.768 306.459 116.716 305.475 117.388C304.491 118.06 303.327 118.396 301.983 118.396ZM323.469 118.396C322.413 118.396 321.321 118.3 320.193 118.108C319.089 117.916 318.081 117.592 317.169 117.136C316.689 116.896 316.341 116.596 316.125 116.236C315.933 115.852 315.849 115.468 315.873 115.084C315.897 114.7 316.017 114.352 316.233 114.04C316.473 113.728 316.773 113.524 317.133 113.428C317.517 113.308 317.937 113.344 318.393 113.536C319.377 113.944 320.277 114.232 321.093 114.4C321.909 114.568 322.713 114.652 323.505 114.652C324.537 114.652 325.281 114.496 325.737 114.184C326.217 113.848 326.457 113.416 326.457 112.888C326.457 112.408 326.301 112.048 325.989 111.808C325.677 111.568 325.221 111.4 324.621 111.304L320.841 110.62C319.353 110.356 318.201 109.816 317.385 109C316.593 108.16 316.197 107.092 316.197 105.796C316.197 104.596 316.533 103.564 317.205 102.7C317.877 101.812 318.801 101.14 319.977 100.684C321.177 100.204 322.533 99.964 324.045 99.964C325.125 99.964 326.121 100.06 327.033 100.252C327.945 100.444 328.821 100.756 329.661 101.188C330.093 101.404 330.393 101.692 330.561 102.052C330.753 102.412 330.813 102.784 330.741 103.168C330.693 103.552 330.549 103.9 330.309 104.212C330.069 104.524 329.757 104.728 329.373 104.824C329.013 104.92 328.593 104.872 328.113 104.68C327.345 104.32 326.637 104.068 325.989 103.924C325.341 103.756 324.717 103.672 324.117 103.672C323.037 103.672 322.257 103.852 321.777 104.212C321.297 104.548 321.057 104.98 321.057 105.508C321.057 105.916 321.189 106.264 321.453 106.552C321.741 106.816 322.173 106.996 322.749 107.092L326.529 107.776C328.089 108.04 329.277 108.568 330.093 109.36C330.909 110.128 331.317 111.184 331.317 112.528C331.317 114.352 330.597 115.792 329.157 116.848C327.741 117.88 325.845 118.396 323.469 118.396ZM337.156 118.324C336.268 118.324 335.584 118.084 335.104 117.604C334.648 117.124 334.42 116.44 334.42 115.552V95.068C334.42 94.156 334.648 93.472 335.104 93.016C335.584 92.536 336.268 92.296 337.156 92.296C338.02 92.296 338.68 92.536 339.136 93.016C339.616 93.472 339.856 94.156 339.856 95.068V103.636H339.352C339.904 102.46 340.72 101.56 341.8 100.936C342.904 100.288 344.152 99.964 345.544 99.964C346.96 99.964 348.124 100.24 349.036 100.792C349.948 101.32 350.632 102.136 351.088 103.24C351.544 104.32 351.772 105.7 351.772 107.38V115.552C351.772 116.44 351.532 117.124 351.052 117.604C350.596 118.084 349.924 118.324 349.036 118.324C348.172 118.324 347.5 118.084 347.02 117.604C346.564 117.124 346.336 116.44 346.336 115.552V107.632C346.336 106.408 346.108 105.532 345.652 105.004C345.22 104.452 344.548 104.176 343.636 104.176C342.484 104.176 341.56 104.536 340.864 105.256C340.192 105.976 339.856 106.936 339.856 108.136V115.552C339.856 117.4 338.956 118.324 337.156 118.324ZM374.561 118.396C372.905 118.396 371.513 118.12 370.385 117.568C369.281 117.016 368.453 116.212 367.901 115.156C367.373 114.1 367.109 112.768 367.109 111.16V104.392H365.597C364.925 104.392 364.397 104.212 364.013 103.852C363.653 103.492 363.473 103 363.473 102.376C363.473 101.704 363.653 101.2 364.013 100.864C364.397 100.504 364.925 100.324 365.597 100.324H367.109V97.588C367.109 96.676 367.349 95.992 367.829 95.536C368.309 95.056 368.981 94.816 369.845 94.816C370.733 94.816 371.405 95.056 371.861 95.536C372.317 95.992 372.545 96.676 372.545 97.588V100.324H375.965C376.637 100.324 377.153 100.504 377.513 100.864C377.873 101.2 378.053 101.704 378.053 102.376C378.053 103 377.873 103.492 377.513 103.852C377.153 104.212 376.637 104.392 375.965 104.392H372.545V110.944C372.545 111.952 372.773 112.708 373.229 113.212C373.709 113.716 374.465 113.968 375.497 113.968C375.857 113.968 376.193 113.932 376.505 113.86C376.817 113.788 377.105 113.74 377.369 113.716C377.705 113.692 377.981 113.8 378.197 114.04C378.413 114.256 378.521 114.748 378.521 115.516C378.521 116.092 378.425 116.596 378.233 117.028C378.041 117.46 377.705 117.772 377.225 117.964C376.913 118.084 376.481 118.18 375.929 118.252C375.401 118.348 374.945 118.396 374.561 118.396ZM383.738 118.324C382.85 118.324 382.166 118.084 381.686 117.604C381.23 117.124 381.002 116.44 381.002 115.552V95.068C381.002 94.156 381.23 93.472 381.686 93.016C382.166 92.536 382.85 92.296 383.738 92.296C384.602 92.296 385.262 92.536 385.718 93.016C386.198 93.472 386.438 94.156 386.438 95.068V103.636H385.934C386.486 102.46 387.302 101.56 388.382 100.936C389.486 100.288 390.734 99.964 392.126 99.964C393.542 99.964 394.706 100.24 395.618 100.792C396.53 101.32 397.214 102.136 397.67 103.24C398.126 104.32 398.354 105.7 398.354 107.38V115.552C398.354 116.44 398.114 117.124 397.634 117.604C397.178 118.084 396.506 118.324 395.618 118.324C394.754 118.324 394.082 118.084 393.602 117.604C393.146 117.124 392.918 116.44 392.918 115.552V107.632C392.918 106.408 392.69 105.532 392.234 105.004C391.802 104.452 391.13 104.176 390.218 104.176C389.066 104.176 388.142 104.536 387.446 105.256C386.774 105.976 386.438 106.936 386.438 108.136V115.552C386.438 117.4 385.538 118.324 383.738 118.324ZM408.388 118.396C407.092 118.396 405.928 118.144 404.896 117.64C403.864 117.136 403.06 116.452 402.484 115.588C401.908 114.724 401.62 113.752 401.62 112.672C401.62 111.376 401.956 110.356 402.628 109.612C403.3 108.844 404.392 108.304 405.904 107.992C407.416 107.656 409.42 107.488 411.916 107.488H413.824V110.296H411.952C410.728 110.296 409.732 110.368 408.964 110.512C408.22 110.632 407.68 110.848 407.344 111.16C407.032 111.472 406.876 111.904 406.876 112.456C406.876 113.128 407.104 113.68 407.56 114.112C408.04 114.544 408.724 114.76 409.612 114.76C410.308 114.76 410.92 114.604 411.448 114.292C412 113.956 412.432 113.512 412.744 112.96C413.056 112.384 413.212 111.736 413.212 111.016V106.876C413.212 105.82 412.972 105.076 412.492 104.644C412.012 104.188 411.196 103.96 410.044 103.96C409.396 103.96 408.688 104.044 407.92 104.212C407.176 104.356 406.348 104.608 405.436 104.968C404.908 105.208 404.44 105.268 404.032 105.148C403.624 105.004 403.312 104.764 403.096 104.428C402.88 104.068 402.772 103.684 402.772 103.276C402.772 102.844 402.892 102.436 403.132 102.052C403.372 101.644 403.768 101.344 404.32 101.152C405.448 100.696 406.504 100.384 407.488 100.216C408.496 100.048 409.42 99.964 410.26 99.964C412.108 99.964 413.62 100.24 414.796 100.792C415.996 101.32 416.896 102.148 417.496 103.276C418.096 104.38 418.396 105.808 418.396 107.56V115.552C418.396 116.44 418.18 117.124 417.748 117.604C417.316 118.084 416.692 118.324 415.876 118.324C415.06 118.324 414.424 118.084 413.968 117.604C413.536 117.124 413.32 116.44 413.32 115.552V114.22L413.572 114.436C413.428 115.252 413.116 115.96 412.636 116.56C412.18 117.136 411.592 117.592 410.872 117.928C410.152 118.24 409.324 118.396 408.388 118.396ZM431.127 118.396C429.471 118.396 428.079 118.12 426.951 117.568C425.847 117.016 425.019 116.212 424.467 115.156C423.939 114.1 423.675 112.768 423.675 111.16V104.392H422.163C421.491 104.392 420.963 104.212 420.579 103.852C420.219 103.492 420.039 103 420.039 102.376C420.039 101.704 420.219 101.2 420.579 100.864C420.963 100.504 421.491 100.324 422.163 100.324H423.675V97.588C423.675 96.676 423.915 95.992 424.395 95.536C424.875 95.056 425.547 94.816 426.411 94.816C427.299 94.816 427.971 95.056 428.427 95.536C428.883 95.992 429.111 96.676 429.111 97.588V100.324H432.531C433.203 100.324 433.719 100.504 434.079 100.864C434.439 101.2 434.619 101.704 434.619 102.376C434.619 103 434.439 103.492 434.079 103.852C433.719 104.212 433.203 104.392 432.531 104.392H429.111V110.944C429.111 111.952 429.339 112.708 429.795 113.212C430.275 113.716 431.031 113.968 432.063 113.968C432.423 113.968 432.759 113.932 433.071 113.86C433.383 113.788 433.671 113.74 433.935 113.716C434.271 113.692 434.547 113.8 434.763 114.04C434.979 114.256 435.087 114.748 435.087 115.516C435.087 116.092 434.991 116.596 434.799 117.028C434.607 117.46 434.271 117.772 433.791 117.964C433.479 118.084 433.047 118.18 432.495 118.252C431.967 118.348 431.511 118.396 431.127 118.396ZM451.885 124.804C451.261 124.804 450.745 124.636 450.337 124.3C449.929 123.964 449.689 123.52 449.617 122.968C449.545 122.44 449.641 121.876 449.905 121.276L452.317 115.948V118.18L445.945 103.564C445.705 102.94 445.621 102.364 445.693 101.836C445.789 101.284 446.053 100.852 446.485 100.54C446.941 100.204 447.565 100.036 448.357 100.036C449.005 100.036 449.521 100.192 449.905 100.504C450.313 100.792 450.685 101.356 451.021 102.196L455.269 112.996H454.117L458.509 102.16C458.845 101.344 459.217 100.792 459.625 100.504C460.057 100.192 460.633 100.036 461.353 100.036C461.977 100.036 462.469 100.204 462.829 100.54C463.213 100.852 463.441 101.272 463.513 101.8C463.609 102.328 463.513 102.904 463.225 103.528L454.765 122.716C454.405 123.532 453.997 124.084 453.541 124.372C453.109 124.66 452.557 124.804 451.885 124.804ZM474.33 118.396C472.434 118.396 470.778 118.024 469.362 117.28C467.97 116.536 466.89 115.468 466.122 114.076C465.354 112.684 464.97 111.04 464.97 109.144C464.97 107.728 465.186 106.456 465.618 105.328C466.05 104.2 466.674 103.24 467.49 102.448C468.33 101.632 469.326 101.02 470.478 100.612C471.63 100.18 472.914 99.964 474.33 99.964C476.226 99.964 477.87 100.336 479.262 101.08C480.678 101.824 481.77 102.88 482.538 104.248C483.33 105.616 483.726 107.248 483.726 109.144C483.726 110.584 483.498 111.868 483.042 112.996C482.61 114.124 481.986 115.096 481.17 115.912C480.354 116.728 479.358 117.352 478.182 117.784C477.03 118.192 475.746 118.396 474.33 118.396ZM474.33 114.328C475.122 114.328 475.806 114.136 476.382 113.752C476.958 113.368 477.414 112.804 477.75 112.06C478.086 111.292 478.254 110.32 478.254 109.144C478.254 107.392 477.894 106.108 477.174 105.292C476.454 104.452 475.506 104.032 474.33 104.032C473.562 104.032 472.878 104.212 472.278 104.572C471.702 104.932 471.246 105.496 470.91 106.264C470.598 107.008 470.442 107.968 470.442 109.144C470.442 110.896 470.802 112.204 471.522 113.068C472.242 113.908 473.178 114.328 474.33 114.328ZM493.549 118.396C492.061 118.396 490.825 118.12 489.841 117.568C488.857 117.016 488.125 116.188 487.645 115.084C487.189 113.956 486.961 112.564 486.961 110.908V102.772C486.961 101.86 487.189 101.176 487.645 100.72C488.125 100.264 488.797 100.036 489.661 100.036C490.525 100.036 491.197 100.264 491.677 100.72C492.157 101.176 492.397 101.86 492.397 102.772V111.052C492.397 112.108 492.613 112.9 493.045 113.428C493.477 113.932 494.161 114.184 495.097 114.184C496.129 114.184 496.969 113.824 497.617 113.104C498.289 112.36 498.625 111.388 498.625 110.188V102.772C498.625 101.86 498.853 101.176 499.309 100.72C499.789 100.264 500.461 100.036 501.325 100.036C502.213 100.036 502.885 100.264 503.341 100.72C503.821 101.176 504.061 101.86 504.061 102.772V115.552C504.061 117.4 503.185 118.324 501.433 118.324C500.569 118.324 499.909 118.084 499.453 117.604C498.997 117.124 498.769 116.44 498.769 115.552V113.14L499.309 114.544C498.781 115.768 498.025 116.716 497.041 117.388C496.057 118.06 494.893 118.396 493.549 118.396ZM511.616 102.448C511.256 102.904 510.872 103.156 510.464 103.204C510.056 103.252 509.696 103.18 509.384 102.988C509.096 102.772 508.94 102.46 508.916 102.052C508.892 101.644 509.072 101.212 509.456 100.756C509.984 100.108 510.344 99.46 510.536 98.812C510.728 98.164 510.824 97.588 510.824 97.084L511.004 98.56C510.044 98.56 509.264 98.284 508.664 97.732C508.064 97.18 507.764 96.436 507.764 95.5C507.764 94.588 508.04 93.856 508.592 93.304C509.144 92.728 509.9 92.44 510.86 92.44C511.844 92.44 512.612 92.764 513.164 93.412C513.716 94.06 513.992 94.984 513.992 96.184C513.992 96.808 513.932 97.456 513.812 98.128C513.692 98.776 513.464 99.46 513.128 100.18C512.792 100.876 512.288 101.632 511.616 102.448ZM523.3 118.396C521.764 118.396 520.408 118.024 519.232 117.28C518.08 116.536 517.18 115.468 516.532 114.076C515.884 112.684 515.56 111.04 515.56 109.144C515.56 107.248 515.884 105.616 516.532 104.248C517.18 102.88 518.08 101.824 519.232 101.08C520.408 100.336 521.764 99.964 523.3 99.964C524.692 99.964 525.916 100.3 526.972 100.972C528.052 101.644 528.784 102.52 529.168 103.6H528.772V95.068C528.772 94.156 529 93.472 529.456 93.016C529.912 92.536 530.584 92.296 531.472 92.296C532.336 92.296 533.008 92.536 533.488 93.016C533.968 93.472 534.208 94.156 534.208 95.068V115.552C534.208 116.44 533.968 117.124 533.488 117.604C533.032 118.084 532.372 118.324 531.508 118.324C530.644 118.324 529.972 118.084 529.492 117.604C529.036 117.124 528.808 116.44 528.808 115.552V113.104L529.204 114.508C528.868 115.684 528.148 116.632 527.044 117.352C525.964 118.048 524.716 118.396 523.3 118.396ZM524.92 114.328C525.712 114.328 526.396 114.136 526.972 113.752C527.548 113.368 528.004 112.804 528.34 112.06C528.676 111.292 528.844 110.32 528.844 109.144C528.844 107.392 528.484 106.108 527.764 105.292C527.044 104.452 526.096 104.032 524.92 104.032C524.152 104.032 523.468 104.212 522.868 104.572C522.292 104.932 521.836 105.496 521.5 106.264C521.188 107.008 521.032 107.968 521.032 109.144C521.032 110.896 521.392 112.204 522.112 113.068C522.832 113.908 523.768 114.328 524.92 114.328ZM80.46 167.396C78.324 167.396 76.728 166.808 75.672 165.632C74.616 164.432 74.088 162.656 74.088 160.304V144.068C74.088 143.156 74.316 142.472 74.772 142.016C75.252 141.536 75.936 141.296 76.824 141.296C77.688 141.296 78.348 141.536 78.804 142.016C79.284 142.472 79.524 143.156 79.524 144.068V160.088C79.524 161.072 79.728 161.804 80.136 162.284C80.568 162.74 81.132 162.968 81.828 162.968C82.02 162.968 82.2 162.956 82.368 162.932C82.536 162.908 82.716 162.896 82.908 162.896C83.292 162.848 83.556 162.968 83.7 163.256C83.868 163.52 83.952 164.06 83.952 164.876C83.952 165.596 83.808 166.148 83.52 166.532C83.232 166.892 82.788 167.132 82.188 167.252C81.948 167.276 81.672 167.3 81.36 167.324C81.048 167.372 80.748 167.396 80.46 167.396ZM94.3965 167.396C92.5005 167.396 90.8445 167.024 89.4285 166.28C88.0365 165.536 86.9565 164.468 86.1885 163.076C85.4205 161.684 85.0365 160.04 85.0365 158.144C85.0365 156.728 85.2525 155.456 85.6845 154.328C86.1165 153.2 86.7405 152.24 87.5565 151.448C88.3965 150.632 89.3925 150.02 90.5445 149.612C91.6965 149.18 92.9805 148.964 94.3965 148.964C96.2925 148.964 97.9365 149.336 99.3285 150.08C100.745 150.824 101.837 151.88 102.605 153.248C103.397 154.616 103.793 156.248 103.793 158.144C103.793 159.584 103.565 160.868 103.109 161.996C102.677 163.124 102.053 164.096 101.237 164.912C100.421 165.728 99.4245 166.352 98.2485 166.784C97.0965 167.192 95.8125 167.396 94.3965 167.396ZM94.3965 163.328C95.1885 163.328 95.8725 163.136 96.4485 162.752C97.0245 162.368 97.4805 161.804 97.8165 161.06C98.1525 160.292 98.3205 159.32 98.3205 158.144C98.3205 156.392 97.9605 155.108 97.2405 154.292C96.5205 153.452 95.5725 153.032 94.3965 153.032C93.6285 153.032 92.9445 153.212 92.3445 153.572C91.7685 153.932 91.3125 154.496 90.9765 155.264C90.6645 156.008 90.5085 156.968 90.5085 158.144C90.5085 159.896 90.8685 161.204 91.5885 162.068C92.3085 162.908 93.2445 163.328 94.3965 163.328ZM114.166 167.324C113.47 167.324 112.858 167.144 112.33 166.784C111.802 166.4 111.382 165.836 111.07 165.092L105.634 152.564C105.37 151.94 105.274 151.364 105.346 150.836C105.418 150.284 105.67 149.852 106.102 149.54C106.558 149.204 107.182 149.036 107.974 149.036C108.622 149.036 109.15 149.192 109.558 149.504C109.966 149.792 110.326 150.356 110.638 151.196L114.886 161.996H113.734L118.162 151.16C118.498 150.344 118.87 149.792 119.278 149.504C119.686 149.192 120.25 149.036 120.97 149.036C121.594 149.036 122.086 149.204 122.446 149.54C122.83 149.852 123.058 150.272 123.13 150.8C123.226 151.328 123.13 151.904 122.842 152.528L117.298 165.092C116.986 165.86 116.566 166.424 116.038 166.784C115.534 167.144 114.91 167.324 114.166 167.324ZM134.666 167.396C132.578 167.396 130.778 167.024 129.266 166.28C127.778 165.512 126.626 164.444 125.81 163.076C125.018 161.684 124.622 160.052 124.622 158.18C124.622 156.356 125.006 154.76 125.774 153.392C126.542 152 127.61 150.92 128.978 150.152C130.37 149.36 131.942 148.964 133.694 148.964C134.966 148.964 136.118 149.18 137.15 149.612C138.182 150.02 139.07 150.62 139.814 151.412C140.558 152.18 141.122 153.128 141.506 154.256C141.89 155.36 142.082 156.596 142.082 157.964C142.082 158.42 141.938 158.768 141.65 159.008C141.362 159.224 140.942 159.332 140.39 159.332H129.086V156.524H138.158L137.582 157.028C137.582 156.044 137.438 155.228 137.15 154.58C136.862 153.908 136.442 153.404 135.89 153.068C135.362 152.732 134.702 152.564 133.91 152.564C133.022 152.564 132.266 152.768 131.642 153.176C131.018 153.584 130.538 154.172 130.202 154.94C129.866 155.708 129.698 156.632 129.698 157.712V158C129.698 159.824 130.118 161.168 130.958 162.032C131.822 162.896 133.094 163.328 134.774 163.328C135.35 163.328 136.01 163.256 136.754 163.112C137.498 162.968 138.194 162.74 138.842 162.428C139.394 162.164 139.886 162.08 140.318 162.176C140.75 162.248 141.086 162.44 141.326 162.752C141.566 163.064 141.698 163.424 141.722 163.832C141.77 164.24 141.686 164.648 141.47 165.056C141.254 165.44 140.894 165.764 140.39 166.028C139.574 166.484 138.65 166.82 137.618 167.036C136.61 167.276 135.626 167.396 134.666 167.396ZM163.975 167.396C162.319 167.396 160.927 167.12 159.799 166.568C158.695 166.016 157.867 165.212 157.315 164.156C156.787 163.1 156.523 161.768 156.523 160.16V153.392H155.011C154.339 153.392 153.811 153.212 153.427 152.852C153.067 152.492 152.887 152 152.887 151.376C152.887 150.704 153.067 150.2 153.427 149.864C153.811 149.504 154.339 149.324 155.011 149.324H156.523V146.588C156.523 145.676 156.763 144.992 157.243 144.536C157.723 144.056 158.395 143.816 159.259 143.816C160.147 143.816 160.819 144.056 161.275 144.536C161.731 144.992 161.959 145.676 161.959 146.588V149.324H165.379C166.051 149.324 166.567 149.504 166.927 149.864C167.287 150.2 167.467 150.704 167.467 151.376C167.467 152 167.287 152.492 166.927 152.852C166.567 153.212 166.051 153.392 165.379 153.392H161.959V159.944C161.959 160.952 162.187 161.708 162.643 162.212C163.123 162.716 163.879 162.968 164.911 162.968C165.271 162.968 165.607 162.932 165.919 162.86C166.231 162.788 166.519 162.74 166.783 162.716C167.119 162.692 167.395 162.8 167.611 163.04C167.827 163.256 167.935 163.748 167.935 164.516C167.935 165.092 167.839 165.596 167.647 166.028C167.455 166.46 167.119 166.772 166.639 166.964C166.327 167.084 165.895 167.18 165.343 167.252C164.815 167.348 164.359 167.396 163.975 167.396ZM178.174 167.396C176.278 167.396 174.622 167.024 173.206 166.28C171.814 165.536 170.734 164.468 169.966 163.076C169.198 161.684 168.814 160.04 168.814 158.144C168.814 156.728 169.03 155.456 169.462 154.328C169.894 153.2 170.518 152.24 171.334 151.448C172.174 150.632 173.17 150.02 174.322 149.612C175.474 149.18 176.758 148.964 178.174 148.964C180.07 148.964 181.714 149.336 183.106 150.08C184.522 150.824 185.614 151.88 186.382 153.248C187.174 154.616 187.57 156.248 187.57 158.144C187.57 159.584 187.342 160.868 186.886 161.996C186.454 163.124 185.83 164.096 185.014 164.912C184.198 165.728 183.202 166.352 182.026 166.784C180.874 167.192 179.59 167.396 178.174 167.396ZM178.174 163.328C178.966 163.328 179.65 163.136 180.226 162.752C180.802 162.368 181.258 161.804 181.594 161.06C181.93 160.292 182.098 159.32 182.098 158.144C182.098 156.392 181.738 155.108 181.018 154.292C180.298 153.452 179.35 153.032 178.174 153.032C177.406 153.032 176.722 153.212 176.122 153.572C175.546 153.932 175.09 154.496 174.754 155.264C174.442 156.008 174.286 156.968 174.286 158.144C174.286 159.896 174.646 161.204 175.366 162.068C176.086 162.908 177.022 163.328 178.174 163.328ZM209.536 167.396C207.616 167.396 205.936 167.024 204.496 166.28C203.08 165.512 201.988 164.432 201.22 163.04C200.452 161.648 200.068 160.004 200.068 158.108C200.068 156.692 200.284 155.42 200.716 154.292C201.148 153.164 201.772 152.204 202.588 151.412C203.428 150.62 204.436 150.02 205.612 149.612C206.788 149.18 208.096 148.964 209.536 148.964C210.28 148.964 211.072 149.06 211.912 149.252C212.752 149.42 213.58 149.72 214.396 150.152C214.876 150.368 215.2 150.68 215.368 151.088C215.56 151.472 215.632 151.88 215.584 152.312C215.536 152.72 215.38 153.092 215.116 153.428C214.876 153.74 214.564 153.956 214.18 154.076C213.796 154.172 213.364 154.1 212.884 153.86C212.428 153.596 211.948 153.404 211.444 153.284C210.964 153.164 210.508 153.104 210.076 153.104C209.356 153.104 208.72 153.224 208.168 153.464C207.616 153.68 207.148 154.004 206.764 154.436C206.404 154.844 206.116 155.36 205.9 155.984C205.708 156.608 205.612 157.328 205.612 158.144C205.612 159.728 205.996 160.976 206.764 161.888C207.556 162.776 208.66 163.22 210.076 163.22C210.508 163.22 210.964 163.172 211.444 163.076C211.924 162.956 212.404 162.764 212.884 162.5C213.364 162.26 213.796 162.2 214.18 162.32C214.564 162.44 214.864 162.668 215.08 163.004C215.32 163.316 215.452 163.688 215.476 164.12C215.524 164.528 215.452 164.936 215.26 165.344C215.092 165.728 214.78 166.028 214.324 166.244C213.508 166.652 212.692 166.94 211.876 167.108C211.06 167.3 210.28 167.396 209.536 167.396ZM226.268 167.396C224.372 167.396 222.716 167.024 221.3 166.28C219.908 165.536 218.828 164.468 218.06 163.076C217.292 161.684 216.908 160.04 216.908 158.144C216.908 156.728 217.124 155.456 217.556 154.328C217.988 153.2 218.612 152.24 219.428 151.448C220.268 150.632 221.264 150.02 222.416 149.612C223.568 149.18 224.852 148.964 226.268 148.964C228.164 148.964 229.808 149.336 231.2 150.08C232.616 150.824 233.708 151.88 234.476 153.248C235.268 154.616 235.664 156.248 235.664 158.144C235.664 159.584 235.436 160.868 234.98 161.996C234.548 163.124 233.924 164.096 233.108 164.912C232.292 165.728 231.296 166.352 230.12 166.784C228.968 167.192 227.684 167.396 226.268 167.396ZM226.268 163.328C227.06 163.328 227.744 163.136 228.32 162.752C228.896 162.368 229.352 161.804 229.688 161.06C230.024 160.292 230.192 159.32 230.192 158.144C230.192 156.392 229.832 155.108 229.112 154.292C228.392 153.452 227.444 153.032 226.268 153.032C225.5 153.032 224.816 153.212 224.216 153.572C223.64 153.932 223.184 154.496 222.848 155.264C222.536 156.008 222.38 156.968 222.38 158.144C222.38 159.896 222.74 161.204 223.46 162.068C224.18 162.908 225.116 163.328 226.268 163.328ZM241.707 167.324C240.819 167.324 240.135 167.084 239.655 166.604C239.199 166.124 238.971 165.44 238.971 164.552V151.772C238.971 150.884 239.199 150.212 239.655 149.756C240.135 149.276 240.795 149.036 241.635 149.036C242.499 149.036 243.159 149.276 243.615 149.756C244.071 150.212 244.299 150.884 244.299 151.772V153.824L243.903 152.636C244.455 151.46 245.271 150.56 246.351 149.936C247.455 149.288 248.703 148.964 250.095 148.964C251.511 148.964 252.675 149.24 253.587 149.792C254.499 150.32 255.183 151.136 255.639 152.24C256.095 153.32 256.323 154.7 256.323 156.38V164.552C256.323 165.44 256.083 166.124 255.603 166.604C255.147 167.084 254.475 167.324 253.587 167.324C252.723 167.324 252.051 167.084 251.571 166.604C251.115 166.124 250.887 165.44 250.887 164.552V156.632C250.887 155.408 250.659 154.532 250.203 154.004C249.771 153.452 249.099 153.176 248.187 153.176C247.035 153.176 246.111 153.536 245.415 154.256C244.743 154.976 244.407 155.936 244.407 157.136V164.552C244.407 166.4 243.507 167.324 241.707 167.324ZM264.485 167.324C263.597 167.324 262.913 167.084 262.433 166.604C261.977 166.124 261.749 165.44 261.749 164.552V153.392H260.453C259.781 153.392 259.253 153.212 258.869 152.852C258.509 152.492 258.329 152 258.329 151.376C258.329 150.704 258.509 150.2 258.869 149.864C259.253 149.504 259.781 149.324 260.453 149.324H263.333L261.749 150.764V149.648C261.749 147.08 262.385 145.16 263.657 143.888C264.953 142.616 266.849 141.848 269.345 141.584L270.497 141.476C271.121 141.428 271.613 141.524 271.973 141.764C272.357 142.004 272.609 142.316 272.729 142.7C272.849 143.084 272.873 143.48 272.801 143.888C272.729 144.272 272.561 144.62 272.297 144.932C272.057 145.22 271.721 145.376 271.289 145.4L270.785 145.436C269.489 145.532 268.565 145.844 268.013 146.372C267.461 146.876 267.185 147.656 267.185 148.712V149.936L266.501 149.324H269.741C270.437 149.324 270.965 149.504 271.325 149.864C271.685 150.2 271.865 150.704 271.865 151.376C271.865 152 271.685 152.492 271.325 152.852C270.965 153.212 270.437 153.392 269.741 153.392H267.185V164.552C267.185 166.4 266.285 167.324 264.485 167.324ZM282.885 167.396C280.797 167.396 278.997 167.024 277.485 166.28C275.997 165.512 274.845 164.444 274.029 163.076C273.237 161.684 272.841 160.052 272.841 158.18C272.841 156.356 273.225 154.76 273.993 153.392C274.761 152 275.829 150.92 277.197 150.152C278.589 149.36 280.161 148.964 281.913 148.964C283.185 148.964 284.337 149.18 285.369 149.612C286.401 150.02 287.289 150.62 288.033 151.412C288.777 152.18 289.341 153.128 289.725 154.256C290.109 155.36 290.301 156.596 290.301 157.964C290.301 158.42 290.157 158.768 289.869 159.008C289.581 159.224 289.161 159.332 288.609 159.332H277.305V156.524H286.377L285.801 157.028C285.801 156.044 285.657 155.228 285.369 154.58C285.081 153.908 284.661 153.404 284.109 153.068C283.581 152.732 282.921 152.564 282.129 152.564C281.241 152.564 280.485 152.768 279.861 153.176C279.237 153.584 278.757 154.172 278.421 154.94C278.085 155.708 277.917 156.632 277.917 157.712V158C277.917 159.824 278.337 161.168 279.177 162.032C280.041 162.896 281.313 163.328 282.993 163.328C283.569 163.328 284.229 163.256 284.973 163.112C285.717 162.968 286.413 162.74 287.061 162.428C287.613 162.164 288.105 162.08 288.537 162.176C288.969 162.248 289.305 162.44 289.545 162.752C289.785 163.064 289.917 163.424 289.941 163.832C289.989 164.24 289.905 164.648 289.689 165.056C289.473 165.44 289.113 165.764 288.609 166.028C287.793 166.484 286.869 166.82 285.837 167.036C284.829 167.276 283.845 167.396 282.885 167.396ZM300.231 167.396C299.175 167.396 298.083 167.3 296.955 167.108C295.851 166.916 294.843 166.592 293.931 166.136C293.451 165.896 293.103 165.596 292.887 165.236C292.695 164.852 292.611 164.468 292.635 164.084C292.659 163.7 292.779 163.352 292.995 163.04C293.235 162.728 293.535 162.524 293.895 162.428C294.279 162.308 294.699 162.344 295.155 162.536C296.139 162.944 297.039 163.232 297.855 163.4C298.671 163.568 299.475 163.652 300.267 163.652C301.299 163.652 302.043 163.496 302.499 163.184C302.979 162.848 303.219 162.416 303.219 161.888C303.219 161.408 303.063 161.048 302.751 160.808C302.439 160.568 301.983 160.4 301.383 160.304L297.603 159.62C296.115 159.356 294.963 158.816 294.147 158C293.355 157.16 292.959 156.092 292.959 154.796C292.959 153.596 293.295 152.564 293.967 151.7C294.639 150.812 295.563 150.14 296.739 149.684C297.939 149.204 299.295 148.964 300.807 148.964C301.887 148.964 302.883 149.06 303.795 149.252C304.707 149.444 305.583 149.756 306.423 150.188C306.855 150.404 307.155 150.692 307.323 151.052C307.515 151.412 307.575 151.784 307.503 152.168C307.455 152.552 307.311 152.9 307.071 153.212C306.831 153.524 306.519 153.728 306.135 153.824C305.775 153.92 305.355 153.872 304.875 153.68C304.107 153.32 303.399 153.068 302.751 152.924C302.103 152.756 301.479 152.672 300.879 152.672C299.799 152.672 299.019 152.852 298.539 153.212C298.059 153.548 297.819 153.98 297.819 154.508C297.819 154.916 297.951 155.264 298.215 155.552C298.503 155.816 298.935 155.996 299.511 156.092L303.291 156.776C304.851 157.04 306.039 157.568 306.855 158.36C307.671 159.128 308.079 160.184 308.079 161.528C308.079 163.352 307.359 164.792 305.919 165.848C304.503 166.88 302.607 167.396 300.231 167.396ZM317.95 167.396C316.894 167.396 315.802 167.3 314.674 167.108C313.57 166.916 312.562 166.592 311.65 166.136C311.17 165.896 310.822 165.596 310.606 165.236C310.414 164.852 310.33 164.468 310.354 164.084C310.378 163.7 310.498 163.352 310.714 163.04C310.954 162.728 311.254 162.524 311.614 162.428C311.998 162.308 312.418 162.344 312.874 162.536C313.858 162.944 314.758 163.232 315.574 163.4C316.39 163.568 317.194 163.652 317.986 163.652C319.018 163.652 319.762 163.496 320.218 163.184C320.698 162.848 320.938 162.416 320.938 161.888C320.938 161.408 320.782 161.048 320.47 160.808C320.158 160.568 319.702 160.4 319.102 160.304L315.322 159.62C313.834 159.356 312.682 158.816 311.866 158C311.074 157.16 310.678 156.092 310.678 154.796C310.678 153.596 311.014 152.564 311.686 151.7C312.358 150.812 313.282 150.14 314.458 149.684C315.658 149.204 317.014 148.964 318.526 148.964C319.606 148.964 320.602 149.06 321.514 149.252C322.426 149.444 323.302 149.756 324.142 150.188C324.574 150.404 324.874 150.692 325.042 151.052C325.234 151.412 325.294 151.784 325.222 152.168C325.174 152.552 325.03 152.9 324.79 153.212C324.55 153.524 324.238 153.728 323.854 153.824C323.494 153.92 323.074 153.872 322.594 153.68C321.826 153.32 321.118 153.068 320.47 152.924C319.822 152.756 319.198 152.672 318.598 152.672C317.518 152.672 316.738 152.852 316.258 153.212C315.778 153.548 315.538 153.98 315.538 154.508C315.538 154.916 315.67 155.264 315.934 155.552C316.222 155.816 316.654 155.996 317.23 156.092L321.01 156.776C322.57 157.04 323.758 157.568 324.574 158.36C325.39 159.128 325.798 160.184 325.798 161.528C325.798 163.352 325.078 164.792 323.638 165.848C322.222 166.88 320.326 167.396 317.95 167.396ZM347.631 167.396C345.975 167.396 344.583 167.12 343.455 166.568C342.351 166.016 341.523 165.212 340.971 164.156C340.443 163.1 340.179 161.768 340.179 160.16V153.392H338.667C337.995 153.392 337.467 153.212 337.083 152.852C336.723 152.492 336.543 152 336.543 151.376C336.543 150.704 336.723 150.2 337.083 149.864C337.467 149.504 337.995 149.324 338.667 149.324H340.179V146.588C340.179 145.676 340.419 144.992 340.899 144.536C341.379 144.056 342.051 143.816 342.915 143.816C343.803 143.816 344.475 144.056 344.931 144.536C345.387 144.992 345.615 145.676 345.615 146.588V149.324H349.035C349.707 149.324 350.223 149.504 350.583 149.864C350.943 150.2 351.123 150.704 351.123 151.376C351.123 152 350.943 152.492 350.583 152.852C350.223 153.212 349.707 153.392 349.035 153.392H345.615V159.944C345.615 160.952 345.843 161.708 346.299 162.212C346.779 162.716 347.535 162.968 348.567 162.968C348.927 162.968 349.263 162.932 349.575 162.86C349.887 162.788 350.175 162.74 350.439 162.716C350.775 162.692 351.051 162.8 351.267 163.04C351.483 163.256 351.591 163.748 351.591 164.516C351.591 165.092 351.495 165.596 351.303 166.028C351.111 166.46 350.775 166.772 350.295 166.964C349.983 167.084 349.551 167.18 348.999 167.252C348.471 167.348 348.015 167.396 347.631 167.396ZM361.83 167.396C359.934 167.396 358.278 167.024 356.862 166.28C355.47 165.536 354.39 164.468 353.622 163.076C352.854 161.684 352.47 160.04 352.47 158.144C352.47 156.728 352.686 155.456 353.118 154.328C353.55 153.2 354.174 152.24 354.99 151.448C355.83 150.632 356.826 150.02 357.978 149.612C359.13 149.18 360.414 148.964 361.83 148.964C363.726 148.964 365.37 149.336 366.762 150.08C368.178 150.824 369.27 151.88 370.038 153.248C370.83 154.616 371.226 156.248 371.226 158.144C371.226 159.584 370.998 160.868 370.542 161.996C370.11 163.124 369.486 164.096 368.67 164.912C367.854 165.728 366.858 166.352 365.682 166.784C364.53 167.192 363.246 167.396 361.83 167.396ZM361.83 163.328C362.622 163.328 363.306 163.136 363.882 162.752C364.458 162.368 364.914 161.804 365.25 161.06C365.586 160.292 365.754 159.32 365.754 158.144C365.754 156.392 365.394 155.108 364.674 154.292C363.954 153.452 363.006 153.032 361.83 153.032C361.062 153.032 360.378 153.212 359.778 153.572C359.202 153.932 358.746 154.496 358.41 155.264C358.098 156.008 357.942 156.968 357.942 158.144C357.942 159.896 358.302 161.204 359.022 162.068C359.742 162.908 360.678 163.328 361.83 163.328ZM379.882 159.152C379.354 159.152 378.934 158.984 378.622 158.648C378.334 158.288 378.19 157.808 378.19 157.208C378.19 156.512 378.274 155.864 378.442 155.264C378.61 154.64 378.874 154.016 379.234 153.392C379.618 152.768 380.122 152.132 380.746 151.484C381.178 150.98 381.526 150.548 381.79 150.188C382.078 149.804 382.27 149.444 382.366 149.108C382.486 148.748 382.546 148.388 382.546 148.028C382.546 147.356 382.294 146.828 381.79 146.444C381.31 146.06 380.614 145.868 379.702 145.868C378.838 145.868 378.034 145.976 377.29 146.192C376.57 146.408 375.862 146.72 375.166 147.128C374.542 147.464 373.978 147.596 373.474 147.524C372.994 147.428 372.61 147.212 372.322 146.876C372.034 146.516 371.866 146.096 371.818 145.616C371.77 145.136 371.878 144.668 372.142 144.212C372.406 143.732 372.85 143.312 373.474 142.952C374.458 142.376 375.55 141.944 376.75 141.656C377.95 141.368 379.066 141.224 380.098 141.224C381.682 141.224 383.074 141.488 384.274 142.016C385.474 142.544 386.398 143.264 387.046 144.176C387.718 145.088 388.054 146.156 388.054 147.38C388.054 148.124 387.946 148.82 387.73 149.468C387.514 150.116 387.166 150.764 386.686 151.412C386.206 152.036 385.546 152.696 384.706 153.392C383.962 154.016 383.374 154.58 382.942 155.084C382.51 155.564 382.198 156.032 382.006 156.488C381.814 156.92 381.682 157.388 381.61 157.892C381.538 158.252 381.358 158.552 381.07 158.792C380.806 159.032 380.41 159.152 379.882 159.152ZM379.81 167.18C378.85 167.18 378.082 166.892 377.506 166.316C376.954 165.74 376.678 164.996 376.678 164.084C376.678 163.196 376.954 162.476 377.506 161.924C378.082 161.348 378.85 161.06 379.81 161.06C380.77 161.06 381.514 161.348 382.042 161.924C382.594 162.476 382.87 163.196 382.87 164.084C382.87 164.996 382.594 165.74 382.042 166.316C381.514 166.892 380.77 167.18 379.81 167.18Z" fill="#1A0C06"/>
<path d="M174.977 426.429L179.74 431.193L184.504 426.429L179.74 421.666L174.977 426.429Z" fill="#FF4A57"/>
<path d="M332.002 409.184L340.673 417.855L349.343 409.184L340.673 400.514L332.002 409.184Z" fill="#FF4A57"/>
<path d="M108.098 392.428L119.096 403.426L130.095 392.428L119.096 381.429L108.098 392.428Z" fill="#FF4A57"/>
<path d="M152.347 448.643L222.211 436.684L296.578 448.643L308.84 513.663V597.757H145.837L152.347 448.643Z" fill="#FF4A57"/>
<path d="M112.949 599.346H72.9462C72.4163 599.346 72 598.93 72 598.4C72 597.87 72.4163 597.454 72.9462 597.454H112.949C113.479 597.454 113.896 597.87 113.896 598.4C113.896 598.892 113.479 599.346 112.949 599.346Z" fill="#111C3A"/>
<path d="M161.316 518.393C180.901 518.393 196.778 502.516 196.778 482.931C196.778 463.346 180.901 447.47 161.316 447.47C141.731 447.47 125.854 463.346 125.854 482.931C125.854 502.516 141.731 518.393 161.316 518.393Z" fill="#FF4A57"/>
<path d="M290.182 518.961C309.767 518.961 325.644 503.084 325.644 483.499C325.644 463.914 309.767 448.037 290.182 448.037C270.597 448.037 254.721 463.914 254.721 483.499C254.721 503.084 270.597 518.961 290.182 518.961Z" fill="#FF4A57"/>
<path d="M129.791 466.998L97.0159 526.757L153.596 557.791L201.017 484.37L129.791 466.998Z" fill="#FF4A57"/>
<path d="M312.587 456.023L380.748 507.342L335.787 560.327L270.54 513.322L312.587 456.023Z" fill="#FF4A57"/>
<path d="M380.748 507.342L407.089 527.022C437.328 549.654 421.357 597.757 383.549 597.757H284.127L344.34 566.155L335.825 560.365L380.748 507.342Z" fill="white"/>
<path d="M383.549 598.703H280.267L342.486 566.041L334.387 560.516L380.559 506.018L407.619 526.227C414.923 531.677 420.032 538.981 422.379 547.345C424.536 555.066 424.309 563.317 421.698 571.151C419.086 578.985 414.355 585.721 407.959 590.604C401.109 595.94 392.632 598.703 383.549 598.703ZM287.95 596.81H383.549C400.352 596.81 414.62 586.516 419.919 570.583C425.217 554.65 419.957 537.846 406.521 527.779L380.9 508.629L337.225 560.175L346.195 566.269L287.95 596.81Z" fill="#111C3A"/>
<path d="M262.252 408.45V455.72H225.314V392.441L262.252 408.45Z" fill="white"/>
<path d="M263.198 456.666H224.368V390.965L263.198 407.807V456.666ZM226.26 454.774H261.306V409.056L226.26 393.88V454.774Z" fill="#111C3A"/>
<path d="M295.216 372.989C295.216 372.989 298.319 367.879 300.779 369.545C302.407 370.642 304.337 379.612 305.434 385.478C305.926 388.127 303.883 390.587 301.196 390.587H301.12C301.12 390.587 297.941 377.946 295.216 372.989Z" fill="white"/>
<path d="M301.196 391.533H300.363L300.174 390.814C300.136 390.701 296.995 378.249 294.383 373.443L294.118 372.951L294.383 372.497C294.61 372.118 296.654 368.863 299.038 368.333C299.833 368.144 300.628 368.296 301.271 368.75C301.877 369.166 303.504 370.264 306.343 385.289C306.645 386.84 306.229 388.392 305.207 389.603C304.223 390.852 302.747 391.533 301.196 391.533ZM296.313 373.064C298.622 377.606 301.12 386.84 301.839 389.603C302.596 389.452 303.277 389.073 303.807 388.468C304.45 387.711 304.715 386.689 304.526 385.705C301.953 371.891 300.439 370.491 300.287 370.377C300.06 370.226 299.795 370.15 299.493 370.226C298.319 370.453 296.957 372.08 296.313 373.064Z" fill="#111C3A"/>
<path d="M263.69 346.913C272.016 347.556 279.737 351.492 285.149 357.888C293.778 368.106 304.905 386.386 301.271 410.153C295.519 447.621 227.131 430.78 227.131 430.78C227.131 430.78 196.173 359.78 237.387 348.616C237.387 348.616 248.892 345.777 263.69 346.913Z" fill="white"/>
<path d="M259.376 435.51C256.689 435.51 253.85 435.397 250.898 435.208C237.766 434.337 227.017 431.726 226.904 431.688L226.45 431.574L226.26 431.158C226.223 431.044 221.416 420.031 218.161 406.142C213.733 387.446 213.96 372.762 218.918 362.505C222.514 354.974 228.683 350.016 237.16 347.707C237.311 347.67 248.968 344.831 263.766 346.004C272.319 346.686 280.38 350.773 285.868 357.282C295.329 368.447 305.813 386.689 302.217 410.305C301.044 417.95 297.26 423.929 290.939 428.13C283.597 433.012 273 435.51 259.376 435.51ZM227.812 429.947C230.461 430.552 244.351 433.542 259.262 433.542C270.238 433.542 281.781 431.915 289.88 426.503C295.746 422.605 299.266 417.041 300.325 409.964C303.845 387.067 293.626 369.318 284.43 358.456C279.245 352.325 271.638 348.464 263.614 347.821C249.119 346.686 237.728 349.448 237.614 349.486C229.704 351.643 223.952 356.261 220.583 363.262C209.911 385.591 225.92 425.368 227.812 429.947Z" fill="#111C3A"/>
<path d="M308.841 585.721C308.311 585.721 307.894 585.305 307.894 584.775V518.961C307.894 518.431 308.311 518.015 308.841 518.015C309.37 518.015 309.787 518.431 309.787 518.961V584.775C309.787 585.305 309.37 585.721 308.841 585.721Z" fill="#111C3A"/>
<path d="M97.016 527.703C96.8646 527.703 96.7132 527.666 96.5619 527.59C96.1077 527.325 95.9185 526.757 96.1834 526.303L107.802 505.147C108.067 504.693 108.635 504.504 109.089 504.769C109.543 505.034 109.732 505.601 109.467 506.055L97.8486 527.211C97.6594 527.552 97.3188 527.703 97.016 527.703Z" fill="#111C3A"/>
<path d="M335.787 561.273C335.598 561.273 335.409 561.197 335.22 561.084L308.273 541.669C307.857 541.366 307.743 540.76 308.046 540.344C308.349 539.928 308.954 539.814 309.371 540.117L336.317 559.532C336.733 559.835 336.847 560.44 336.544 560.857C336.393 561.159 336.09 561.273 335.787 561.273Z" fill="#111C3A"/>
<path d="M380.71 508.288C380.521 508.288 380.294 508.213 380.143 508.099L370.378 500.757C369.962 500.454 369.886 499.849 370.189 499.432C370.492 499.016 371.097 498.94 371.514 499.243L381.278 506.585C381.694 506.888 381.77 507.494 381.467 507.91C381.316 508.137 381.013 508.288 380.71 508.288Z" fill="#111C3A"/>
<path d="M340.366 569.183C340.026 569.183 339.685 568.994 339.534 568.691C339.307 568.237 339.458 567.669 339.912 567.404L363.68 554.726C364.134 554.461 364.701 554.65 364.966 555.104C365.193 555.558 365.042 556.126 364.588 556.391L340.821 569.069C340.669 569.145 340.518 569.183 340.366 569.183Z" fill="#111C3A"/>
<path d="M278.942 413.825C278.639 413.825 278.337 413.673 278.147 413.408C276.634 411.213 274.893 410.002 272.925 409.813C269.594 409.472 266.642 412.235 266.604 412.235C266.226 412.613 265.62 412.576 265.28 412.197C264.901 411.819 264.939 411.213 265.318 410.873C265.469 410.721 268.875 407.504 273.114 407.921C275.612 408.185 277.845 409.661 279.699 412.311C280.002 412.727 279.888 413.333 279.472 413.635C279.321 413.749 279.131 413.825 278.942 413.825Z" fill="#111C3A"/>
<path d="M262.555 387.408C263.463 389.641 263.047 391.874 261.646 392.441C260.246 393.009 258.392 391.647 257.483 389.452C256.575 387.219 256.991 384.986 258.392 384.418C259.792 383.85 261.646 385.213 262.555 387.408Z" fill="#040A2E"/>
<path d="M286.587 378.893C287.495 381.125 287.079 383.358 285.679 383.926C284.278 384.494 282.424 383.131 281.516 380.936C280.607 378.703 281.024 376.47 282.424 375.903C283.824 375.335 285.679 376.66 286.587 378.893Z" fill="#040A2E"/>
<path d="M247.227 388.165C247.114 388.165 247 388.165 246.887 388.089C246.395 387.9 246.13 387.37 246.319 386.878C249.763 377.379 261.684 373.708 262.214 373.556C262.706 373.405 263.236 373.708 263.387 374.2C263.539 374.692 263.274 375.222 262.744 375.373C262.63 375.411 251.201 378.93 248.098 387.559C247.984 387.938 247.643 388.165 247.227 388.165Z" fill="#111C3A"/>
<path d="M271.751 372.194C271.524 372.194 271.297 372.118 271.146 371.967C270.767 371.626 270.692 371.021 271.032 370.642C274.476 366.668 283.067 366.555 283.446 366.555C283.976 366.555 284.392 366.971 284.392 367.501C284.392 368.031 283.976 368.447 283.446 368.447C283.37 368.447 275.347 368.561 272.471 371.853C272.281 372.08 272.016 372.194 271.751 372.194Z" fill="#111C3A"/>
<path d="M271.714 377.682C273.265 380.974 275.271 384.04 277.693 386.765C278.866 388.127 280.153 389.376 281.137 390.928C282.008 392.29 282.689 393.993 282.386 395.658C282.121 397.134 281.062 398.459 279.548 398.724C279.056 398.8 278.753 399.443 278.904 399.897C279.056 400.427 279.548 400.654 280.078 400.541C281.743 400.276 283.143 398.989 283.824 397.475C284.619 395.734 284.506 393.728 283.824 391.95C283.067 390.019 281.818 388.43 280.456 386.916C279.169 385.478 277.882 384.04 276.747 382.45C275.46 380.634 274.325 378.703 273.379 376.698C273.152 376.243 272.508 376.13 272.092 376.357C271.6 376.66 271.524 377.19 271.714 377.682Z" fill="#111C3A"/>
<path d="M264.674 365.533C269.897 363.414 274.93 360.424 279.358 356.828C283.484 353.46 288.517 349.146 290.902 344.301C295.67 334.613 289.085 324.356 279.094 322.161C269.026 319.928 258.43 322.313 248.968 326.4C239.507 330.487 230.84 336.202 221.757 341.046C217.972 343.052 213.696 345.474 212.863 349.675C209.04 349.638 205.483 352.211 203.515 355.504C197.762 365.041 200.184 380.217 203.25 390.246C206.732 401.487 213.166 411.819 221.984 419.615C223.346 420.826 226.071 423.059 227.585 420.561C228.569 418.972 227.926 414.733 227.888 412.916C227.774 406.558 226.525 400.238 224.217 394.334C224.482 395.015 229.515 393.198 230.045 392.971C231.975 392.101 233.754 390.852 235.23 389.338C240.453 383.926 240.226 375.903 239.469 368.939C243.632 369.355 247.871 369.772 251.996 369.128C256.272 368.409 260.549 367.198 264.674 365.533Z" fill="black"/>
<path d="M264.939 366.441C269.67 364.511 274.098 362.013 278.185 358.948C281.894 356.147 285.527 353.082 288.517 349.524C291.28 346.231 293.324 342.409 293.437 338.057C293.551 334.272 292.15 330.601 289.804 327.687C287.382 324.621 283.9 322.464 280.153 321.442C275.385 320.155 270.238 320.118 265.393 320.723C255.099 322.048 245.638 326.514 236.668 331.547C232.127 334.083 227.623 336.77 223.043 339.268C219.448 341.236 215.247 343.052 213.014 346.686C212.484 347.518 212.106 348.464 211.917 349.41C212.219 349.183 212.522 348.956 212.825 348.729C208.813 348.729 205.256 351.151 203.061 354.368C201.017 357.358 199.957 360.991 199.465 364.549C198.368 372.118 199.503 379.952 201.433 387.294C203.477 395.129 206.845 402.584 211.5 409.207C213.923 412.613 216.61 415.83 219.637 418.707C221.643 420.637 226.033 424.951 228.38 421.015C229.175 419.691 229.099 417.874 229.023 416.398C228.947 414.733 228.834 413.068 228.758 411.402C228.531 406.634 227.699 401.903 226.298 397.361C225.958 396.226 225.541 395.129 225.125 394.031C224.557 394.258 223.99 394.523 223.384 394.75C223.763 395.545 224.822 395.393 225.503 395.28C226.374 395.129 227.207 394.864 228.039 394.599C229.931 393.993 231.672 393.236 233.3 392.101C235.646 390.436 237.576 388.241 238.787 385.629C239.923 383.169 240.453 380.558 240.68 377.871C240.907 374.843 240.68 371.853 240.339 368.863C240.036 369.166 239.696 369.507 239.393 369.809C242.799 370.15 246.243 370.491 249.649 370.226C252.98 369.999 256.272 369.242 259.451 368.296C261.382 367.804 263.16 367.16 264.939 366.441C265.431 366.252 265.734 365.798 265.582 365.268C265.469 364.814 264.901 364.397 264.409 364.625C261.344 365.873 258.202 366.857 254.986 367.539C253.396 367.879 251.806 368.182 250.217 368.334C248.552 368.485 246.849 368.485 245.183 368.409C243.291 368.333 241.361 368.144 239.469 367.955C239.015 367.917 238.485 368.409 238.523 368.901C239.052 373.708 239.355 378.779 237.766 383.396C236.933 385.743 235.571 387.786 233.754 389.452C232.732 390.36 231.597 391.155 230.386 391.76C230.159 391.874 229.78 391.987 229.629 392.139C229.78 392.025 229.856 392.063 229.742 392.101C229.704 392.101 229.667 392.139 229.629 392.139C229.326 392.252 229.061 392.366 228.758 392.441C227.888 392.744 227.017 393.047 226.109 393.274C225.882 393.312 225.693 393.388 225.466 393.425C225.39 393.425 225.314 393.463 225.201 393.463C225.163 393.463 224.822 393.501 225.087 393.501C224.936 393.501 224.784 393.501 224.671 393.501C224.482 393.539 224.898 393.539 224.747 393.501C224.898 393.539 225.125 393.766 225.163 393.804C224.709 392.858 223.043 393.539 223.422 394.523C225.049 398.724 226.185 403.114 226.677 407.618C226.904 409.624 226.942 411.629 227.055 413.635C227.169 415.187 227.32 416.739 227.244 418.29C227.244 418.631 227.207 418.858 227.169 419.161C227.131 419.312 227.093 419.464 227.055 419.615C227.017 419.804 226.979 419.842 226.942 419.918C226.79 420.183 226.639 420.41 226.374 420.599C226.185 420.75 225.958 420.75 225.731 420.75C224.444 420.637 223.195 419.35 222.249 418.517C219.335 415.906 216.685 412.992 214.339 409.851C209.646 403.606 206.126 396.491 203.931 388.997C201.925 382.223 200.676 375.032 201.093 367.955C201.282 364.587 201.888 361.105 203.326 358.002C204.726 354.898 207.072 352.022 210.441 351C211.235 350.735 212.068 350.622 212.939 350.622C213.317 350.622 213.771 350.319 213.847 349.94C214.642 346.156 218.388 344.036 221.53 342.333C225.882 339.987 230.159 337.527 234.435 335.067C242.988 330.185 251.806 325.454 261.533 323.372C266.226 322.351 271.108 321.972 275.877 322.578C279.737 323.07 283.446 324.243 286.398 326.816C289.009 329.087 290.864 332.115 291.431 335.521C292.075 339.268 290.939 342.939 288.858 346.042C286.398 349.713 282.954 352.703 279.548 355.504C275.877 358.531 271.903 361.181 267.588 363.262C266.566 363.754 265.507 364.208 264.447 364.662C263.955 364.852 263.652 365.306 263.804 365.836C263.879 366.252 264.447 366.668 264.939 366.441Z" fill="#111C3A"/>
<path d="M97.016 526.757L85.6244 548.897C69.8047 579.666 92.096 616.566 126.687 616.377C127.217 616.377 127.785 616.377 128.315 616.339C152.158 615.733 174.109 603.055 186.976 582.959L250.709 482.477C250.709 482.477 267.059 456.931 261.344 444.631C255.78 432.672 235.419 427.146 235.835 405.461C235.873 403.871 235.457 402.281 234.549 400.995C233.224 399.065 231.029 397.399 228.72 401.676C228.72 401.676 225.504 388.808 221.719 395.356C221.719 395.356 217.177 387.521 213.393 395.091C213.393 395.091 209.419 391.798 207.527 398.081C207.527 398.081 194.659 434.791 222.627 458.104C222.627 458.104 143.529 507.38 120.102 539.473L97.016 526.757Z" fill="white"/>
<path d="M126.384 617.323C110.035 617.323 95.1993 608.997 86.5704 594.994C77.7901 580.726 77.1467 563.354 84.7538 548.481L96.5618 525.47L119.837 538.225C142.166 508.402 211.462 464.008 221.038 457.953C207.148 445.804 203.893 430.325 203.628 419.35C203.363 407.391 206.391 398.383 206.618 397.778C207.337 395.356 208.51 393.88 210.024 393.425C211.198 393.085 212.295 393.388 213.014 393.766C214.15 391.874 215.512 390.89 217.026 390.852C219.07 390.776 220.773 392.479 221.719 393.69C222.476 392.82 223.346 392.441 224.254 392.555C226.563 392.896 228.228 396.869 229.061 399.481C229.856 398.572 230.688 398.118 231.597 398.043C232.921 397.967 234.17 398.8 235.306 400.465C236.29 401.903 236.782 403.644 236.744 405.498C236.479 418.934 244.237 425.784 251.769 432.445C256.045 436.191 260.057 439.749 262.138 444.253C268.005 456.893 252.109 481.947 251.428 483.007L187.695 583.488C174.487 604.077 152.271 616.717 128.277 617.323C127.709 617.323 127.179 617.361 126.612 617.361C126.612 617.323 126.498 617.323 126.384 617.323ZM97.3944 528.082L86.4569 549.351C79.1147 563.619 79.7581 580.309 88.1978 594.01C96.4482 607.445 110.716 615.431 126.384 615.431C126.46 615.431 126.574 615.431 126.649 615.431C127.179 615.431 127.747 615.431 128.277 615.393C151.666 614.825 173.314 602.487 186.181 582.467L249.914 481.985C250.066 481.72 265.923 456.704 260.473 445.01C258.543 440.884 254.683 437.44 250.558 433.807C243.064 427.184 234.586 419.691 234.889 405.385C234.927 403.909 234.549 402.546 233.792 401.449C233.073 400.389 232.354 399.821 231.748 399.859C231.105 399.897 230.31 400.654 229.591 402.054L228.418 404.212L227.85 401.865C226.979 398.383 225.238 394.561 224.027 394.409C223.649 394.372 223.119 394.864 222.589 395.81L221.757 397.21L220.924 395.81C220.394 394.939 218.729 392.668 217.102 392.706C215.853 392.744 214.869 394.22 214.225 395.469L213.695 396.529L212.787 395.772C212.787 395.772 211.652 394.864 210.592 395.204C209.722 395.469 208.965 396.567 208.435 398.308V398.345C208.397 398.421 205.256 407.542 205.559 419.35C205.937 435.094 211.879 447.848 223.27 457.347L224.292 458.18L223.195 458.861C222.4 459.353 143.983 508.402 120.935 540.003L120.443 540.685L97.3944 528.082Z" fill="#111C3A"/>
<path d="M217.102 434.564C216.799 434.564 216.458 434.413 216.307 434.11C206.353 417.912 211.841 396.226 212.106 395.318C212.219 394.826 212.749 394.523 213.241 394.637C213.733 394.75 214.036 395.28 213.923 395.772C213.885 395.999 208.397 417.609 217.896 433.126C218.161 433.58 218.048 434.148 217.594 434.413C217.442 434.526 217.253 434.564 217.102 434.564Z" fill="#111C3A"/>
<path d="M225.049 432.785C224.747 432.785 224.444 432.634 224.255 432.331C214.187 416.209 220.243 396.075 220.47 395.242C220.621 394.75 221.151 394.447 221.643 394.637C222.135 394.788 222.438 395.318 222.287 395.81C222.211 395.999 216.231 415.982 225.844 431.347C226.109 431.801 225.995 432.369 225.541 432.634C225.39 432.748 225.201 432.785 225.049 432.785Z" fill="#111C3A"/>
<path d="M235.003 430.666C234.662 430.666 234.359 430.477 234.17 430.174C225.125 414.279 227.282 402.433 227.358 401.941C227.471 401.411 227.963 401.108 228.455 401.184C228.985 401.298 229.288 401.789 229.212 402.281C229.175 402.433 227.131 414.014 235.798 429.228C236.063 429.682 235.911 430.25 235.457 430.515C235.343 430.628 235.154 430.666 235.003 430.666Z" fill="#111C3A"/>
<path d="M112.343 559.532C112.305 559.532 112.268 559.532 112.23 559.532C111.7 559.456 111.321 559.002 111.397 558.472C112.911 545.188 124.681 532.245 125.173 531.715C125.514 531.337 126.119 531.299 126.498 531.639C126.876 531.98 126.914 532.586 126.573 532.964C126.46 533.078 114.728 546.021 113.289 558.662C113.214 559.154 112.797 559.532 112.343 559.532Z" fill="#111C3A"/>
<path d="M492.786 598.368H531.313V484.64H492.786V598.368Z" fill="#9F99AA"/>
<path d="M492.773 484.672H324.433V598.4H492.773V484.672Z" fill="black"/>
<path d="M556.089 599.346H175.168C174.638 599.346 174.222 598.93 174.222 598.4C174.222 597.87 174.638 597.454 175.168 597.454H556.051C556.581 597.454 556.997 597.87 556.997 598.4C557.035 598.892 556.619 599.346 556.089 599.346Z" fill="#111C3A"/>
<path d="M371.665 585.116H347.519C343.243 585.116 339.761 581.634 339.761 577.358V553.212C339.761 548.935 343.243 545.453 347.519 545.453H371.665C375.942 545.453 379.423 548.935 379.423 553.212V577.358C379.461 581.634 375.98 585.116 371.665 585.116Z" fill="white"/>
<path d="M450.99 561.878H394.297C392.329 561.878 390.739 560.289 390.739 558.321V551.357C390.739 549.389 392.329 547.8 394.297 547.8H450.99C452.958 547.8 454.548 549.389 454.548 551.357V558.321C454.51 560.289 452.958 561.878 450.99 561.878Z" fill="white"/>
<path d="M422.379 582.277H394.297C392.329 582.277 390.739 580.688 390.739 578.72V571.756C390.739 569.788 392.329 568.199 394.297 568.199H422.379C424.347 568.199 425.936 569.788 425.936 571.756V578.72C425.936 580.688 424.347 582.277 422.379 582.277Z" fill="white"/>
<path d="M485.43 452.882L502.272 484.029L459.316 484.559L485.43 452.882Z" fill="black"/>
<path d="M359.024 484.559H463.858C470.027 484.559 475.553 480.661 477.634 474.832L497.655 418.366C498.79 415.187 496.406 411.857 493.037 411.857H388.204C382.035 411.857 376.509 415.755 374.428 421.583L354.407 478.049C353.272 481.228 355.656 484.559 359.024 484.559Z" fill="#FF4A57"/>
<path d="M354.483 484.559H459.317C465.485 484.559 471.011 480.661 473.093 474.832L493.113 418.366C494.249 415.187 491.864 411.857 488.496 411.857H383.662C377.493 411.857 371.968 415.755 369.886 421.583L349.866 478.049C348.73 481.228 351.077 484.559 354.483 484.559Z" fill="#9F99AA"/>
<path d="M354.483 480.774C353.991 480.774 353.688 480.471 353.574 480.32C353.461 480.131 353.272 479.79 353.423 479.298L373.444 422.832C374.957 418.517 379.083 415.641 383.662 415.641H488.496C488.988 415.641 489.29 415.944 489.404 416.095C489.518 416.284 489.707 416.625 489.555 417.117L469.535 473.583C468.021 477.898 463.896 480.774 459.316 480.774H354.483Z" fill="white"/>
<path d="M430.25 413.824C430.25 414.316 429.872 414.695 429.38 414.695C428.888 414.695 428.51 414.316 428.51 413.824C428.51 413.332 428.888 412.954 429.38 412.954C429.872 412.954 430.25 413.332 430.25 413.824Z" fill="#10002B"/>
<path d="M179.823 350.681C179.407 347.161 176.417 344.398 172.897 344.247C170.74 344.171 168.81 345.004 167.41 346.442C166.085 345.08 164.269 344.247 162.225 344.247C158.213 344.247 154.958 347.502 154.958 351.514C154.958 353.482 155.98 355.071 157.002 356.547C158.743 359.045 164.041 363.889 166.35 365.933C166.956 366.463 167.902 366.463 168.507 365.933C170.892 363.776 176.606 358.515 178.537 355.79C179.483 354.428 180.05 352.649 179.823 350.681Z" fill="#10002B"/>
<path d="M130.623 333.65C130.018 328.768 125.93 324.983 121.048 324.794C118.058 324.681 115.371 325.854 113.479 327.822C111.662 325.967 109.127 324.794 106.288 324.794C100.725 324.794 96.2213 329.298 96.2213 334.861C96.2213 337.586 97.6216 339.781 99.0219 341.825C101.406 345.307 108.748 351.968 111.927 354.806C112.76 355.563 114.047 355.563 114.879 354.806C118.172 351.816 126.044 344.55 128.731 340.803C130.131 338.797 130.926 336.337 130.623 333.65Z" fill="#10002B"/>
<path d="M201.698 286.986C200.979 280.968 195.908 276.238 189.815 276.011C186.144 275.859 182.775 277.335 180.429 279.757C178.158 277.449 175.017 276.011 171.535 276.011C164.647 276.011 159.084 281.574 159.084 288.462C159.084 291.83 160.825 294.517 162.565 297.091C165.555 301.405 174.601 309.694 178.537 313.175C179.596 314.122 181.186 314.122 182.208 313.175C186.295 309.467 196.059 300.459 199.352 295.842C201.093 293.382 202.077 290.316 201.698 286.986Z" fill="#10002B"/>
<path d="M492.083 297.194H376.123C367.229 297.194 360 304.422 360 313.316V355.439C360 364.333 367.229 371.561 376.123 371.561H419.759L429.183 386.056C431.529 389.652 436.828 389.652 439.136 386.019L448.446 371.561H492.045C500.939 371.561 508.168 364.333 508.168 355.439V313.316C508.205 304.422 500.977 297.194 492.083 297.194Z" fill="#10002B"/>
<path d="M405.28 341.736V348.648H388V321.648H396.64V341.736H405.28Z" fill="white"/>
<path d="M406.357 335.184C406.357 332.712 406.561 330.588 406.969 328.812C407.401 327.012 408.109 325.536 409.093 324.384C410.101 323.232 411.421 322.38 413.053 321.828C414.685 321.276 416.701 321 419.101 321C421.525 321 423.541 321.276 425.149 321.828C426.781 322.38 428.089 323.232 429.073 324.384C430.081 325.536 430.789 327.012 431.197 328.812C431.629 330.588 431.845 332.712 431.845 335.184C431.845 337.536 431.653 339.6 431.269 341.376C430.885 343.128 430.201 344.592 429.217 345.768C428.257 346.944 426.949 347.832 425.293 348.432C423.661 349.008 421.597 349.296 419.101 349.296C416.605 349.296 414.529 349.008 412.873 348.432C411.241 347.832 409.933 346.944 408.949 345.768C407.989 344.592 407.317 343.128 406.933 341.376C406.549 339.6 406.357 337.536 406.357 335.184ZM415.645 330.684V341.916H419.245C420.445 341.916 421.297 341.784 421.801 341.52C422.329 341.232 422.593 340.596 422.593 339.612V328.38H418.957C417.805 328.38 416.965 328.524 416.437 328.812C415.909 329.076 415.645 329.7 415.645 330.684Z" fill="white"/>
<path d="M445.879 338.784L449.587 321.648H458.695L451.999 348.648H439.399L432.703 321.648H441.811L445.483 338.784H445.879Z" fill="white"/>
<path d="M478.124 332.196V338.46H469.484V341.736H480.068V348.648H460.844V321.648H479.852L478.772 328.56H469.484V332.196H478.124Z" fill="white"/>
<defs>
<filter id="filter0_d_1731_26622" x="0" y="0" width="629" height="764" filterUnits="userSpaceOnUse" color-interpolation-filters="sRGB">
<feFlood flood-opacity="0" result="BackgroundImageFix"/>
<feColorMatrix in="SourceAlpha" type="matrix" values="0 0 0 0 0 0 0 0 0 0 0 0 0 0 0 0 0 0 127 0" result="hardAlpha"/>
<feOffset/>
<feGaussianBlur stdDeviation="16"/>
<feComposite in2="hardAlpha" operator="out"/>
<feColorMatrix type="matrix" values="0 0 0 0 0 0 0 0 0 0 0 0 0 0 0 0 0 0 0.1 0"/>
<feBlend mode="normal" in2="BackgroundImageFix" result="effect1_dropShadow_1731_26622"/>
<feBlend mode="normal" in="SourceGraphic" in2="effect1_dropShadow_1731_26622" result="shape"/>
</filter>
</defs>
</svg>
