<svg width="629" height="764" viewBox="0 0 629 764" fill="none" xmlns="http://www.w3.org/2000/svg">
<g filter="url(#filter0_d_1731_26733)">
<rect x="32" y="32" width="565" height="700" rx="32" fill="white"/>
</g>
<path d="M502.095 372.19C523.687 372.19 541.19 354.687 541.19 333.095C541.19 311.503 523.687 294 502.095 294C480.503 294 463 311.503 463 333.095C463 354.687 480.503 372.19 502.095 372.19Z" fill="black"/>
<path d="M500.626 349.142L492.565 354.554C489.954 356.295 486.624 353.873 487.457 350.845L490.106 341.498C490.484 340.174 490.03 338.774 488.933 337.941L481.288 331.924C478.829 329.994 480.115 326.059 483.256 325.907L492.944 325.529C494.306 325.491 495.517 324.621 495.971 323.334L499.301 314.214C500.399 311.262 504.524 311.262 505.621 314.214L508.951 323.334C509.405 324.621 510.616 325.491 511.979 325.529L521.666 325.907C524.807 326.021 526.094 329.994 523.634 331.924L515.99 337.941C514.93 338.774 514.476 340.174 514.817 341.498L517.466 350.845C518.336 353.873 514.968 356.295 512.357 354.554L504.297 349.142C503.237 348.386 501.761 348.386 500.626 349.142Z" fill="white"/>
<path d="M404.707 328.359C388.622 328.359 375.527 315.264 375.527 299.179C375.527 283.095 388.622 270 404.707 270C420.791 270 433.886 283.095 433.886 299.179C433.848 315.264 420.753 328.359 404.707 328.359ZM404.707 271.93C389.682 271.93 377.419 284.155 377.419 299.217C377.419 314.242 389.644 326.504 404.707 326.504C419.732 326.504 431.994 314.28 431.994 299.217C431.956 284.155 419.732 271.93 404.707 271.93Z" fill="#111C3A"/>
<path d="M410.308 290.626L402.435 298.498L399.067 295.13C398.575 294.638 397.818 294.638 397.364 295.13L393.996 298.498C393.504 298.99 393.504 299.747 393.996 300.201L401.489 307.695C402.019 308.225 402.852 308.225 403.382 307.695L415.417 295.66C415.909 295.168 415.909 294.411 415.417 293.957L412.048 290.588C411.556 290.172 410.8 290.172 410.308 290.626Z" fill="black"/>
<path d="M418.407 398.753C432.223 398.753 443.423 387.553 443.423 373.737C443.423 359.92 432.223 348.72 418.407 348.72C404.591 348.72 393.391 359.92 393.391 373.737C393.391 387.553 404.591 398.753 418.407 398.753Z" fill="#FF4A57"/>
<path d="M423.403 366.13L416.401 373.131L413.411 370.141C412.995 369.725 412.314 369.725 411.897 370.141L408.908 373.131C408.491 373.547 408.491 374.229 408.908 374.645L415.568 381.306C416.023 381.76 416.78 381.76 417.234 381.306L427.906 370.633C428.323 370.217 428.323 369.536 427.906 369.119L424.917 366.13C424.5 365.713 423.819 365.713 423.403 366.13Z" fill="white"/>
<path d="M239.575 383.029L243.001 386.455L246.426 383.029L243.001 379.604L239.575 383.029Z" fill="#FF4A57"/>
<path d="M163.686 345.759L171.607 353.68L179.529 345.759L171.607 337.837L163.686 345.759Z" fill="#FF4A57"/>
<path d="M214.205 296.252L223.946 305.993L233.687 296.252L223.946 286.511L214.205 296.252Z" fill="#FF4A57"/>
<path d="M324.359 298.574C324.359 298.574 349.11 316.929 325.343 331.387C321.066 333.998 315.919 334.831 311.113 333.468C308.009 332.598 305.209 330.857 304.792 327.451C302.522 308.603 324.359 298.574 324.359 298.574Z" fill="#10002B"/>
<path d="M315.768 335.096C314.103 335.096 312.437 334.869 310.848 334.414C306.647 333.241 304.262 330.857 303.846 327.602C302.9 319.579 306.079 311.858 313.081 305.273C318.303 300.353 323.753 297.855 323.98 297.741L324.472 297.514L324.927 297.855C325.419 298.233 337.075 306.976 336.583 317.535C336.318 323.136 332.723 328.056 325.835 332.257C322.731 334.112 319.212 335.096 315.768 335.096ZM324.245 299.709C321.028 301.337 303.77 310.988 305.738 327.375C306.041 329.873 307.934 331.614 311.378 332.598C315.806 333.847 320.726 333.128 324.889 330.63C331.209 326.769 334.502 322.341 334.729 317.421C335.069 308.982 326.327 301.375 324.245 299.709Z" fill="#111C3A"/>
<path d="M370.758 454.084C388.337 454.084 402.587 439.834 402.587 422.256C402.587 404.677 388.337 390.427 370.758 390.427C353.18 390.427 338.929 404.677 338.929 422.256C338.929 439.834 353.18 454.084 370.758 454.084Z" fill="#FF4A57"/>
<path d="M246.454 456.413C258.883 443.983 258.883 423.831 246.454 411.401C234.024 398.971 213.871 398.971 201.441 411.401C189.012 423.831 189.012 443.983 201.441 456.413C213.871 468.843 234.024 468.843 246.454 456.413Z" fill="#FF4A57"/>
<path d="M398.348 406.322L419.429 446.25L369.623 477.663L344.645 440.422L398.348 406.322Z" fill="#FF4A57"/>
<path d="M201.472 411.394L155.602 445.72L192.124 493.974L239.583 461.654L201.472 411.394Z" fill="#FF4A57"/>
<path d="M419.429 446.25L424.311 457.604C424.311 457.604 457.275 392.319 487.817 381.192C487.817 381.192 500.723 377.635 492.51 392.319C492.51 392.319 531.265 383.842 535.049 387.853C537.963 390.957 537.055 392.584 536.487 393.19C536.412 393.265 536.487 393.417 536.601 393.417L542.089 392.925C543.602 392.811 545.116 393.19 546.29 394.098C548.106 395.536 548.939 400.191 540.65 401.251C540.65 401.251 545.76 407.496 537.736 409.501H533.043C533.043 409.501 539.591 417.033 531.265 417.941C491.602 422.256 482.027 435.313 482.027 435.313L450.766 517.174C441.153 542.342 406.485 544.726 393.504 521.148L369.623 477.663L419.429 446.25Z" fill="white"/>
<path d="M421.169 538.481C409.286 538.481 398.537 532.161 392.709 521.602L368.374 477.322L419.883 444.85L424.424 455.409C426.922 450.678 434.189 437.243 443.877 423.05C460 399.396 474.684 385.015 487.514 380.322L487.59 380.284C487.817 380.208 493.077 378.808 495.31 381.646C496.786 383.539 496.483 386.604 494.288 390.994C497.657 390.275 504.848 388.837 512.228 387.664C533.043 384.371 535.011 386.453 535.768 387.21C537.925 389.481 538.228 391.184 538.001 392.319L542.013 391.978C543.829 391.827 545.532 392.319 546.895 393.341C547.954 394.174 548.825 395.877 548.333 397.693C547.917 399.207 546.516 401.062 542.24 401.932C542.883 403.105 543.564 404.922 542.997 406.701C542.391 408.479 540.726 409.728 538.001 410.41L537.887 410.447H534.973C535.919 411.923 536.979 414.194 536.222 416.124C535.617 417.676 533.989 418.622 531.416 418.887C494.326 422.899 483.843 434.669 482.897 435.804L451.711 517.515C447.132 529.512 436.346 537.497 423.516 538.406C422.721 538.444 421.926 538.481 421.169 538.481ZM370.872 477.965L394.374 520.694C400.203 531.291 411.292 537.346 423.364 536.513C435.437 535.681 445.58 528.149 449.895 516.833L481.194 434.858L481.269 434.745C481.686 434.215 491.563 421.272 531.151 416.995C532.4 416.844 533.989 416.465 534.405 415.405C535.049 413.778 533.081 410.939 532.324 410.107L530.961 408.555H537.585C539.59 408.025 540.764 407.231 541.142 406.133C541.672 404.543 540.385 402.5 539.855 401.856L538.796 400.532L540.499 400.305C543.867 399.888 546.024 398.753 546.441 397.201C546.706 396.255 546.251 395.271 545.684 394.817C544.738 394.06 543.451 393.719 542.126 393.833L536.638 394.325C536.184 394.363 535.768 394.136 535.579 393.719C535.389 393.303 535.465 392.811 535.768 392.508C536.525 391.751 535.995 390.238 534.33 388.497C533.838 388.005 530.886 386.566 512.455 389.518C502.425 391.108 492.737 393.227 492.661 393.227L490.617 393.682L491.639 391.827C494.137 387.399 494.894 384.182 493.759 382.744C492.585 381.23 489.293 381.722 488.082 382.025C458.259 392.962 425.484 457.301 425.143 457.945L424.235 459.761L418.974 447.575L370.872 477.965Z" fill="#111C3A"/>
<path d="M409.854 501.771C409.778 501.771 409.74 501.771 409.664 501.733C409.135 501.619 408.832 501.127 408.945 500.597C414.055 475.808 426.014 452.457 426.128 452.192C426.355 451.738 426.922 451.549 427.414 451.776C427.869 452.003 428.058 452.57 427.831 453.062C427.717 453.29 415.871 476.451 410.838 500.976C410.686 501.468 410.308 501.771 409.854 501.771Z" fill="#111C3A"/>
<path d="M474.003 404.316C473.776 404.316 473.511 404.241 473.322 404.052C472.943 403.673 472.943 403.068 473.322 402.727C481.043 394.893 494.629 390.957 495.197 390.805C495.689 390.654 496.219 390.957 496.37 391.449C496.522 391.941 496.219 392.471 495.727 392.622C495.576 392.66 482.027 396.596 474.684 404.052C474.495 404.241 474.268 404.316 474.003 404.316Z" fill="#111C3A"/>
<path d="M494.515 401.97C494.175 401.97 493.872 401.781 493.683 401.478C493.418 401.024 493.607 400.456 494.061 400.191C510.751 390.843 535.616 392.395 536.638 392.471C537.168 392.508 537.547 392.963 537.509 393.492C537.471 394.022 537.017 394.401 536.487 394.363C536.222 394.363 511.13 392.811 494.932 401.856C494.818 401.932 494.667 401.97 494.515 401.97Z" fill="#111C3A"/>
<path d="M498.755 407.988C498.376 407.988 497.998 407.76 497.884 407.382C497.695 406.89 497.96 406.36 498.452 406.171C515.672 399.661 541.445 400.229 541.71 400.229C542.24 400.229 542.656 400.683 542.618 401.213C542.618 401.743 542.164 402.159 541.634 402.121C541.37 402.121 515.975 401.592 499.095 407.95C498.982 407.95 498.868 407.988 498.755 407.988Z" fill="#111C3A"/>
<path d="M501.972 414.459C501.555 414.459 501.177 414.194 501.063 413.778C500.912 413.286 501.177 412.756 501.707 412.605C519.911 407.041 532.627 408.517 533.157 408.555C533.687 408.631 534.027 409.085 533.99 409.615C533.914 410.145 533.46 410.485 532.93 410.448C532.816 410.448 520.024 408.972 502.236 414.421C502.161 414.421 502.085 414.459 501.972 414.459Z" fill="#111C3A"/>
<path d="M155.602 445.72L149.358 451.057L133.576 378.505C133.576 378.505 128.694 348.796 100.385 336.231C100.385 336.231 93.0047 331.122 91.0367 324.991C90.4312 323.098 88.9173 321.622 86.9871 321.282C85.057 320.941 82.9376 321.584 82.1428 325.52C80.5154 333.43 92.1721 346.26 92.1721 346.26L85.9274 349.212C80.0613 352.013 76.9579 358.56 78.5474 364.843C80.4776 372.298 82.4456 389.216 100.839 393.833L111.02 479.782C112.874 510.135 147.579 526.446 172.141 508.545L192.086 493.974L155.602 445.72Z" fill="white"/>
<path d="M149.585 516.947C143.87 516.947 138.155 515.698 132.668 513.124C119.421 506.88 110.982 494.466 110.073 479.858L99.9684 394.552C83.3917 390.048 80.0234 375.402 78.2068 367.492C78.0176 366.622 77.8283 365.751 77.6391 365.032C75.936 358.371 79.2287 351.332 85.5111 348.304L90.5447 345.882C87.8576 342.703 79.6828 332.371 81.121 325.293C82.1807 320.184 85.2841 319.995 87.0628 320.298C89.2958 320.714 91.1502 322.379 91.8693 324.65C93.6102 330.1 100.044 334.831 100.801 335.361C115.599 341.984 123.963 353.262 128.353 361.588C133.046 370.444 134.333 377.711 134.446 378.278L149.888 449.278L155.716 444.32L193.411 494.126L172.671 509.264C165.745 514.373 157.722 516.947 149.585 516.947ZM86.0788 322.114C84.9434 322.114 83.6567 322.72 83.0511 325.71C81.5373 333.052 92.7398 345.503 92.8533 345.617L93.7238 346.563L86.4194 350.083C80.856 352.656 77.9797 358.787 79.4936 364.578C79.6828 365.335 79.872 366.167 80.0991 367.076C81.9536 375.213 85.0948 388.875 101.104 392.887L101.747 393.038L112.004 479.706C112.874 493.634 120.897 505.48 133.5 511.384C146.103 517.325 160.371 515.963 171.611 507.75L190.799 493.747L155.489 447.083L148.752 452.798L132.63 378.657C132.63 378.581 131.381 371.239 126.726 362.458C122.449 354.397 114.35 343.46 100.006 337.101L99.8549 337.026C99.5521 336.799 92.1721 331.652 90.1284 325.293C89.5985 323.666 88.3496 322.493 86.7979 322.228C86.5708 322.152 86.3059 322.114 86.0788 322.114Z" fill="#111C3A"/>
<path d="M108.484 361.512C108.295 361.512 108.105 361.437 107.916 361.323C107.5 361.02 107.424 360.415 107.727 359.998C109.089 358.182 109.657 356.668 109.354 355.76C109.165 355.192 108.522 354.738 107.538 354.473C106.175 354.094 104.661 354.208 103.148 354.776C100.46 355.835 96.5244 357.236 93.1939 358.144C88.5388 359.393 86.3438 359.317 85.7004 357.841C84.1865 354.359 90.2419 350.802 90.9232 350.423C91.3773 350.158 91.945 350.31 92.2099 350.764C92.4749 351.218 92.3235 351.786 91.8693 352.051C89.7499 353.262 86.9115 355.646 87.4035 357.009C88.1225 357.387 92.0586 356.971 102.428 352.997C104.321 352.278 106.251 352.164 107.992 352.656C110.036 353.224 110.83 354.321 111.095 355.154C111.625 356.744 111.02 358.674 109.203 361.134C109.052 361.399 108.787 361.512 108.484 361.512Z" fill="#111C3A"/>
<path d="M113.858 368.589C113.707 368.589 113.555 368.552 113.442 368.476C112.987 368.249 112.798 367.681 113.025 367.189C113.025 367.151 114.199 364.881 113.479 363.177C113.139 362.383 112.458 361.853 111.398 361.512C107.613 360.301 95.0105 366.129 90.4689 368.438C90.0147 368.665 89.4471 368.476 89.1821 368.022C88.955 367.568 89.1443 367 89.5984 366.735C91.3394 365.827 106.781 358.03 111.966 359.696C113.593 360.225 114.691 361.134 115.22 362.458C116.28 364.956 114.766 367.908 114.691 368.06C114.539 368.4 114.199 368.589 113.858 368.589Z" fill="#111C3A"/>
<path d="M117.188 376.499C117.037 376.499 116.886 376.462 116.772 376.386C116.318 376.159 116.129 375.591 116.356 375.099C116.356 375.061 117.529 372.79 116.81 371.087C116.469 370.293 115.788 369.763 114.728 369.422C110.944 368.211 98.341 374.039 93.7995 376.348C93.3453 376.575 92.7776 376.386 92.5127 375.932C92.2856 375.478 92.4748 374.91 92.929 374.645C94.6699 373.737 110.111 365.94 115.296 367.606C116.924 368.135 118.021 369.044 118.551 370.368C119.611 372.866 118.097 375.818 118.021 375.97C117.87 376.31 117.529 376.499 117.188 376.499Z" fill="#111C3A"/>
<path d="M111.549 390.73C111.171 390.73 110.83 390.692 110.49 390.654C108.673 390.427 107.386 389.027 107.273 387.172C107.159 385.28 108.332 383.652 110.149 383.198L116.886 381.495C117.529 381.344 118.097 380.927 118.437 380.36C118.74 379.868 118.816 379.3 118.664 378.77C118.475 378.089 117.945 377.597 117.075 377.294C114.464 376.462 105.608 380.208 100.65 382.782C100.195 383.009 99.6278 382.82 99.3629 382.366C99.1358 381.911 99.325 381.344 99.7792 381.079C101.18 380.36 113.442 374.153 117.643 375.478C119.573 376.083 120.254 377.332 120.519 378.24C120.784 379.262 120.632 380.36 120.065 381.306C119.459 382.328 118.475 383.047 117.34 383.35L110.603 385.053C109.468 385.355 109.127 386.302 109.165 387.059C109.203 387.778 109.657 388.61 110.717 388.762C111.284 388.837 111.966 388.837 112.76 388.724C113.29 388.648 113.744 389.027 113.82 389.556C113.896 390.086 113.517 390.54 112.988 390.616C112.458 390.692 111.966 390.73 111.549 390.73Z" fill="#111C3A"/>
<path d="M214.908 403.37L277.997 391.714L311.832 390.427H370.758L366.103 565.428H219.6L214.908 403.37Z" fill="#FF4A57"/>
<path d="M366.179 565.428H219.6V616.066H366.179V565.428Z" fill="#10002B"/>
<path d="M301.083 432.928L320.12 389.405L319.817 362.95H271.677V390.616L301.083 432.928Z" fill="white"/>
<path d="M301.273 434.858L270.731 390.919V362.042H320.726L321.066 389.632L320.991 389.821L301.273 434.858ZM272.623 390.313L300.894 430.998L319.174 389.254L318.871 363.934H272.623V390.313Z" fill="#111C3A"/>
<path d="M309.561 303.57C309.561 303.57 342.676 344.179 325.608 370.785C308.539 397.391 271.677 370.785 271.677 370.785V303.57C271.677 303.57 284.658 294.714 309.561 303.57Z" fill="white"/>
<path d="M309.561 303.57C309.561 303.57 342.676 344.179 325.608 370.785C308.539 397.391 271.677 370.785 271.677 370.785V303.57C271.677 303.57 284.658 294.714 309.561 303.57Z" fill="white"/>
<path d="M303.997 383.577C299.683 383.577 294.99 382.744 289.918 381.041C289.426 380.89 289.162 380.322 289.313 379.83C289.464 379.338 290.032 379.073 290.524 379.224C306.117 384.409 317.66 381.419 324.775 370.255C333.366 356.857 328.597 339.637 323.072 327.564C317.508 315.378 310.128 305.84 308.955 304.327C287.421 296.719 274.969 302.737 272.585 304.062V373.964C272.585 374.494 272.169 374.91 271.639 374.91C271.109 374.91 270.693 374.494 270.693 373.964V303.078L271.109 302.813C271.639 302.434 284.771 293.767 309.826 302.699L310.09 302.775L310.242 302.964C310.318 303.078 318.682 313.372 324.775 326.807C332.95 344.746 333.479 360.15 326.327 371.315C321.179 379.451 313.572 383.577 303.997 383.577Z" fill="#111C3A"/>
<path d="M283.863 309.511C283.863 309.511 298.245 323.06 315.275 315.642C327.311 310.42 333.366 296.492 328.143 284.419C324.586 276.169 316.222 270.151 297.034 279.007C267.93 292.443 283.863 309.511 283.863 309.511Z" fill="#10002B"/>
<path d="M304.792 318.784C300.819 318.784 296.807 317.913 292.795 316.21C286.967 313.712 283.371 310.306 283.22 310.193L283.182 310.155C282.955 309.89 277.278 303.721 278.868 295.66C280.192 288.885 286.172 283.019 296.693 278.175C306.306 273.747 314.178 272.611 320.007 274.844C324.018 276.396 327.084 279.499 329.052 284.079C334.388 296.455 328.409 311.025 315.692 316.513C312.172 318.027 308.501 318.784 304.792 318.784ZM284.545 308.83C285.188 309.436 298.964 321.698 314.935 314.772C326.705 309.663 332.269 296.227 327.311 284.798C325.532 280.711 322.845 277.948 319.325 276.585C313.989 274.542 306.647 275.639 297.488 279.878C287.572 284.457 281.971 289.869 280.76 296C279.36 302.851 284.166 308.452 284.545 308.83Z" fill="#111C3A"/>
<path d="M285.453 305.197C285.453 305.197 291.206 328.851 269.671 343.649C269.671 343.649 243.444 333.052 252.451 308.603C263.162 279.689 285.453 305.197 285.453 305.197Z" fill="#10002B"/>
<path d="M269.784 344.709L269.33 344.519C269.065 344.406 262.518 341.719 256.992 335.928C251.845 330.516 246.736 321.357 251.58 308.263C254.154 301.337 257.636 296.833 261.95 294.903C265.319 293.389 269.141 293.503 273.342 295.168C277.089 296.644 279.624 298.082 281.138 299.482C281.517 299.823 281.517 300.428 281.176 300.807C280.835 301.185 280.23 301.185 279.851 300.845C278.527 299.596 276.18 298.309 272.661 296.909C268.99 295.433 265.621 295.357 262.745 296.644C258.923 298.347 255.781 302.472 253.397 308.906C249.802 318.633 251.467 327.261 258.355 334.566C262.783 339.221 268.043 341.832 269.595 342.551C277.959 336.647 283.031 328.7 284.696 318.935C285.15 316.248 285.074 313.561 284.469 310.95C284.355 310.458 284.658 309.928 285.188 309.814C285.68 309.701 286.21 310.004 286.323 310.533C286.967 313.41 287.042 316.324 286.55 319.238C285.339 326.429 281.517 336.609 270.239 344.368L269.784 344.709Z" fill="#111C3A"/>
<path d="M277.846 350.499C277.77 350.537 277.657 350.575 277.581 350.65C270.315 354.208 261.723 349.023 261.534 340.962C261.458 337.177 262.102 333.241 264.713 331.235C270.693 326.618 277.846 336.685 277.846 336.685V350.499Z" fill="white"/>
<path d="M272.661 352.732C270.503 352.732 268.308 352.126 266.378 350.953C262.821 348.796 260.663 345.049 260.55 340.962C260.436 335.89 261.61 332.371 264.107 330.478C265.583 329.343 267.286 328.889 269.103 329.154C274.099 329.911 278.413 335.89 278.602 336.155C278.905 336.572 278.792 337.177 278.375 337.48C277.959 337.783 277.354 337.669 277.051 337.253C277.013 337.215 273.001 331.652 268.838 331.046C267.514 330.857 266.378 331.16 265.281 331.992C262.821 333.884 262.404 337.896 262.48 340.924C262.556 344.406 264.41 347.547 267.4 349.364C270.39 351.18 274.061 351.332 277.164 349.818C277.24 349.78 277.354 349.742 277.429 349.666C277.883 349.439 278.451 349.629 278.716 350.083C278.943 350.537 278.754 351.105 278.3 351.369C278.186 351.407 278.11 351.483 277.997 351.521C276.294 352.316 274.477 352.732 272.661 352.732Z" fill="#111C3A"/>
<path d="M273.494 344.557C268.914 344.557 266.908 341.832 266.492 340.281C266.341 339.789 266.643 339.259 267.173 339.107C267.665 338.956 268.195 339.259 268.346 339.751C268.384 339.902 269.406 343.043 274.44 342.589C274.97 342.551 275.424 342.93 275.462 343.46C275.499 343.989 275.121 344.444 274.591 344.481C274.213 344.557 273.872 344.557 273.494 344.557Z" fill="#111C3A"/>
<path d="M419.429 447.196C419.088 447.196 418.748 447.007 418.596 446.704L411.557 433.382C411.33 432.928 411.481 432.361 411.935 432.096C412.389 431.869 412.957 432.02 413.222 432.474L420.261 445.796C420.489 446.25 420.337 446.818 419.883 447.083C419.732 447.158 419.58 447.196 419.429 447.196Z" fill="#111C3A"/>
<path d="M366.217 566.374C366.179 566.374 366.179 566.374 366.217 566.374C365.687 566.374 365.271 565.92 365.271 565.39L368.147 454.046C368.147 453.517 368.601 453.1 369.131 453.138C369.661 453.138 370.077 453.592 370.039 454.122L367.163 565.466C367.125 565.958 366.709 566.374 366.217 566.374Z" fill="#111C3A"/>
<path d="M192.124 494.92C191.821 494.92 191.518 494.769 191.329 494.504C191.026 494.088 191.14 493.482 191.594 493.179L228.873 468.125C229.289 467.822 229.894 467.936 230.197 468.39C230.5 468.806 230.386 469.412 229.932 469.715L192.654 494.731C192.502 494.845 192.313 494.92 192.124 494.92Z" fill="#111C3A"/>
<path d="M155.602 446.666C155.299 446.666 155.034 446.553 154.845 446.288C154.542 445.872 154.618 445.266 155.034 444.963L179.294 426.797C179.71 426.494 180.316 426.57 180.619 426.986C180.921 427.403 180.846 428.008 180.429 428.311L156.17 446.477C156.018 446.629 155.791 446.666 155.602 446.666Z" fill="#111C3A"/>
<path d="M153.029 468.125C152.612 468.125 152.196 467.822 152.12 467.406L147.654 447.726C147.541 447.234 147.844 446.704 148.373 446.591C148.865 446.477 149.395 446.78 149.509 447.31L153.975 466.99C154.088 467.482 153.785 468.012 153.256 468.125C153.18 468.125 153.104 468.125 153.029 468.125Z" fill="#111C3A"/>
<path d="M305.512 339.334C305.814 341.113 305.057 342.665 303.846 342.892C302.635 343.081 301.424 341.832 301.121 340.053C300.819 338.275 301.576 336.723 302.787 336.496C303.998 336.307 305.209 337.593 305.512 339.334Z" fill="#10002B"/>
<path d="M323.45 336.988C323.753 338.767 322.996 340.318 321.785 340.545C320.574 340.735 319.363 339.486 319.06 337.707C318.757 335.928 319.514 334.376 320.725 334.149C321.974 333.96 323.185 335.247 323.45 336.988Z" fill="#10002B"/>
<path d="M312.059 340.129C313.686 342.4 315.049 344.86 316.108 347.433C316.638 348.758 317.092 350.083 317.471 351.445C317.849 352.808 318.266 354.359 317.963 355.798C317.698 356.933 316.979 358.03 315.806 358.295C314.632 358.56 315.124 360.377 316.298 360.112C317.66 359.809 318.758 358.787 319.325 357.538C320.044 355.987 320.007 354.284 319.704 352.656C319.098 349.553 317.887 346.487 316.449 343.687C315.654 342.097 314.708 340.583 313.686 339.145C313.384 338.729 312.854 338.54 312.4 338.805C311.983 339.069 311.756 339.713 312.059 340.129Z" fill="#111C3A"/>
<path d="M301.462 362.345C303.43 366.735 308.766 369.119 313.384 367.87C314.557 367.568 314.065 365.713 312.892 366.054C309.031 367.114 304.755 364.994 303.127 361.399C302.9 360.945 302.257 360.831 301.84 361.058C301.311 361.323 301.235 361.891 301.462 362.345Z" fill="#111C3A"/>
<path d="M295.936 333.657C298.093 331.311 300.932 329.797 304.035 329.229C304.527 329.154 304.83 328.51 304.679 328.056C304.527 327.526 304.035 327.299 303.505 327.413C300.099 327.981 296.92 329.759 294.574 332.333C293.779 333.241 295.103 334.566 295.936 333.657Z" fill="#111C3A"/>
<path d="M318.227 327.451C320.271 327.375 322.126 327.943 323.791 329.154C324.207 329.457 324.851 329.229 325.078 328.813C325.343 328.321 325.153 327.829 324.737 327.526C322.883 326.164 320.498 325.483 318.19 325.558C317.698 325.596 317.206 325.975 317.243 326.505C317.319 326.997 317.698 327.489 318.227 327.451Z" fill="#111C3A"/>
<path d="M510.033 606.037L540.234 518.65C541.975 513.654 538.228 508.394 532.93 508.394H410.951C409.475 508.394 408.188 509.34 407.772 510.74L375.943 610.654H294.233C292.682 610.654 291.433 611.903 291.433 613.455C291.433 615.007 292.682 616.256 294.233 616.256H495.689C502.161 616.218 507.913 612.13 510.033 606.037Z" fill="#10002B"/>
<path d="M376.322 609.368L407.659 510.702C408.075 509.34 409.324 508.432 410.762 508.432C412.957 508.432 414.547 510.589 413.865 512.67L381.318 612.887C380.674 614.893 378.82 616.218 376.738 616.218H294.233C292.682 616.218 291.433 614.969 291.433 613.417C291.433 611.865 292.682 610.617 294.233 610.617H374.543C375.376 610.654 376.095 610.124 376.322 609.368Z" fill="#9F99AA"/>
<path d="M294.233 617.164C292.19 617.164 290.487 615.499 290.487 613.417C290.487 611.336 292.152 609.67 294.233 609.67H374.543C374.959 609.67 375.3 609.405 375.414 609.027L406.75 510.362C407.318 508.621 408.908 507.448 410.762 507.448C411.292 507.448 411.708 507.864 411.708 508.394C411.708 508.924 411.292 509.34 410.762 509.34C409.74 509.34 408.87 509.983 408.567 510.929L377.23 609.595C376.852 610.768 375.792 611.563 374.543 611.563H294.233C293.211 611.563 292.379 612.395 292.379 613.417C292.379 614.439 293.211 615.272 294.233 615.272C294.763 615.272 295.179 615.688 295.179 616.218C295.179 616.748 294.763 617.164 294.233 617.164Z" fill="#111C3A"/>
<path d="M460.076 566.034L466.396 577.804L477.75 566.034L470.597 553.923L460.076 566.034Z" fill="white"/>
<path d="M261.458 616.218H113.744C99.5521 616.218 88.0468 604.712 88.0468 590.52V519.937C88.0468 505.744 99.5521 494.239 113.744 494.239H261.458C275.651 494.239 287.156 505.744 287.156 519.937V590.52C287.156 604.712 275.651 616.218 261.458 616.218Z" fill="#FF4A57"/>
<path d="M261.458 617.164H113.744C99.0601 617.164 87.1007 605.204 87.1007 590.52V519.937C87.1007 505.252 99.0601 493.293 113.744 493.293H261.458C276.143 493.293 288.102 505.252 288.102 519.937V590.52C288.102 605.204 276.143 617.164 261.458 617.164ZM113.744 495.223C100.12 495.223 88.993 506.312 88.993 519.975V590.558C88.993 604.183 100.082 615.309 113.744 615.309H261.458C275.083 615.309 286.21 604.22 286.21 590.558V519.937C286.21 506.312 275.121 495.185 261.458 495.185H113.744V495.223Z" fill="#111C3A"/>
<path d="M139.329 551.69H122.638C118.021 551.69 114.274 547.943 114.274 543.326V529.436C114.274 524.819 118.021 521.072 122.638 521.072H139.329C143.946 521.072 147.693 524.819 147.693 529.436V543.326C147.693 547.905 143.946 551.69 139.329 551.69Z" fill="white"/>
<path d="M153.143 588.022H118.438C116.129 588.022 114.274 586.168 114.274 583.859V580.112C114.274 577.804 116.129 575.949 118.438 575.949H153.143C155.451 575.949 157.306 577.804 157.306 580.112V583.859C157.268 586.168 155.413 588.022 153.143 588.022Z" fill="white"/>
<path d="M204.954 588.022H170.249C167.94 588.022 166.086 586.168 166.086 583.859V580.112C166.086 577.804 167.94 575.949 170.249 575.949H204.954C207.263 575.949 209.117 577.804 209.117 580.112V583.859C209.117 586.168 207.263 588.022 204.954 588.022Z" fill="white"/>
<path d="M256.803 588.022H222.098C219.79 588.022 217.935 586.168 217.935 583.859V580.112C217.935 577.804 219.79 575.949 222.098 575.949H256.803C259.112 575.949 260.966 577.804 260.966 580.112V583.859C260.929 586.168 259.074 588.022 256.803 588.022Z" fill="white"/>
<path d="M556.092 617.164H72.9462C72.4163 617.164 72 616.748 72 616.218C72 615.688 72.4163 615.272 72.9462 615.272H556.054C556.584 615.272 557 615.688 557 616.218C557 616.748 556.622 617.164 556.092 617.164Z" fill="#111C3A"/>
<rect x="72" y="162" width="450" height="8" fill="#FF4981"/>
<path d="M83.376 118.324C82.464 118.324 81.768 118.072 81.288 117.568C80.808 117.064 80.568 116.344 80.568 115.408V104.968L81.72 108.172L73.224 96.112C72.888 95.608 72.744 95.068 72.792 94.492C72.84 93.892 73.08 93.376 73.512 92.944C73.944 92.512 74.556 92.296 75.348 92.296C75.924 92.296 76.44 92.44 76.896 92.728C77.376 93.016 77.832 93.472 78.264 94.096L84.024 102.412H82.872L88.632 94.096C89.088 93.448 89.532 92.992 89.964 92.728C90.42 92.44 90.948 92.296 91.548 92.296C92.316 92.296 92.916 92.5 93.348 92.908C93.78 93.292 94.008 93.784 94.032 94.384C94.056 94.96 93.852 95.56 93.42 96.184L85.032 108.172L86.148 104.968V115.408C86.148 117.352 85.224 118.324 83.376 118.324ZM102.236 118.396C100.34 118.396 98.6843 118.024 97.2683 117.28C95.8763 116.536 94.7963 115.468 94.0283 114.076C93.2603 112.684 92.8763 111.04 92.8763 109.144C92.8763 107.728 93.0923 106.456 93.5243 105.328C93.9563 104.2 94.5803 103.24 95.3963 102.448C96.2363 101.632 97.2323 101.02 98.3843 100.612C99.5363 100.18 100.82 99.964 102.236 99.964C104.132 99.964 105.776 100.336 107.168 101.08C108.584 101.824 109.676 102.88 110.444 104.248C111.236 105.616 111.632 107.248 111.632 109.144C111.632 110.584 111.404 111.868 110.948 112.996C110.516 114.124 109.892 115.096 109.076 115.912C108.26 116.728 107.264 117.352 106.088 117.784C104.936 118.192 103.652 118.396 102.236 118.396ZM102.236 114.328C103.028 114.328 103.712 114.136 104.288 113.752C104.864 113.368 105.32 112.804 105.656 112.06C105.992 111.292 106.16 110.32 106.16 109.144C106.16 107.392 105.8 106.108 105.08 105.292C104.36 104.452 103.412 104.032 102.236 104.032C101.468 104.032 100.784 104.212 100.184 104.572C99.6083 104.932 99.1523 105.496 98.8163 106.264C98.5043 107.008 98.3483 107.968 98.3483 109.144C98.3483 110.896 98.7083 112.204 99.4283 113.068C100.148 113.908 101.084 114.328 102.236 114.328ZM121.456 118.396C119.968 118.396 118.732 118.12 117.748 117.568C116.764 117.016 116.032 116.188 115.552 115.084C115.096 113.956 114.868 112.564 114.868 110.908V102.772C114.868 101.86 115.096 101.176 115.552 100.72C116.032 100.264 116.704 100.036 117.568 100.036C118.432 100.036 119.104 100.264 119.584 100.72C120.064 101.176 120.304 101.86 120.304 102.772V111.052C120.304 112.108 120.52 112.9 120.952 113.428C121.384 113.932 122.068 114.184 123.004 114.184C124.036 114.184 124.876 113.824 125.524 113.104C126.196 112.36 126.532 111.388 126.532 110.188V102.772C126.532 101.86 126.76 101.176 127.216 100.72C127.696 100.264 128.368 100.036 129.232 100.036C130.12 100.036 130.792 100.264 131.248 100.72C131.728 101.176 131.968 101.86 131.968 102.772V115.552C131.968 117.4 131.092 118.324 129.34 118.324C128.476 118.324 127.816 118.084 127.36 117.604C126.904 117.124 126.676 116.44 126.676 115.552V113.14L127.216 114.544C126.688 115.768 125.932 116.716 124.948 117.388C123.964 118.06 122.8 118.396 121.456 118.396ZM148.965 118.324C148.077 118.324 147.393 118.084 146.913 117.604C146.457 117.124 146.229 116.44 146.229 115.552V95.068C146.229 94.156 146.457 93.472 146.913 93.016C147.393 92.536 148.077 92.296 148.965 92.296C149.829 92.296 150.489 92.536 150.945 93.016C151.425 93.472 151.665 94.156 151.665 95.068V107.632H151.737L156.957 101.836C157.485 101.236 157.965 100.792 158.397 100.504C158.853 100.192 159.453 100.036 160.197 100.036C160.941 100.036 161.505 100.228 161.889 100.612C162.297 100.996 162.501 101.464 162.501 102.016C162.525 102.544 162.297 103.084 161.817 103.636L156.309 109.792V107.74L162.429 114.796C162.885 115.348 163.077 115.9 163.005 116.452C162.957 117.004 162.717 117.46 162.285 117.82C161.853 118.156 161.301 118.324 160.629 118.324C159.813 118.324 159.153 118.168 158.649 117.856C158.169 117.544 157.677 117.064 157.173 116.416L151.737 110.368H151.665V115.552C151.665 117.4 150.765 118.324 148.965 118.324ZM169.039 118.324C168.151 118.324 167.467 118.084 166.987 117.604C166.531 117.124 166.303 116.44 166.303 115.552V102.772C166.303 101.884 166.531 101.212 166.987 100.756C167.467 100.276 168.127 100.036 168.967 100.036C169.831 100.036 170.491 100.276 170.947 100.756C171.403 101.212 171.631 101.884 171.631 102.772V104.824L171.235 103.636C171.787 102.46 172.603 101.56 173.683 100.936C174.787 100.288 176.035 99.964 177.427 99.964C178.843 99.964 180.007 100.24 180.919 100.792C181.831 101.32 182.515 102.136 182.971 103.24C183.427 104.32 183.655 105.7 183.655 107.38V115.552C183.655 116.44 183.415 117.124 182.935 117.604C182.479 118.084 181.807 118.324 180.919 118.324C180.055 118.324 179.383 118.084 178.903 117.604C178.447 117.124 178.219 116.44 178.219 115.552V107.632C178.219 106.408 177.991 105.532 177.535 105.004C177.103 104.452 176.431 104.176 175.519 104.176C174.367 104.176 173.443 104.536 172.747 105.256C172.075 105.976 171.739 106.936 171.739 108.136V115.552C171.739 117.4 170.839 118.324 169.039 118.324ZM196.209 118.396C194.313 118.396 192.657 118.024 191.241 117.28C189.849 116.536 188.769 115.468 188.001 114.076C187.233 112.684 186.849 111.04 186.849 109.144C186.849 107.728 187.065 106.456 187.497 105.328C187.929 104.2 188.553 103.24 189.369 102.448C190.209 101.632 191.205 101.02 192.357 100.612C193.509 100.18 194.793 99.964 196.209 99.964C198.105 99.964 199.749 100.336 201.141 101.08C202.557 101.824 203.649 102.88 204.417 104.248C205.209 105.616 205.605 107.248 205.605 109.144C205.605 110.584 205.377 111.868 204.921 112.996C204.489 114.124 203.865 115.096 203.049 115.912C202.233 116.728 201.237 117.352 200.061 117.784C198.909 118.192 197.625 118.396 196.209 118.396ZM196.209 114.328C197.001 114.328 197.685 114.136 198.261 113.752C198.837 113.368 199.293 112.804 199.629 112.06C199.965 111.292 200.133 110.32 200.133 109.144C200.133 107.392 199.773 106.108 199.053 105.292C198.333 104.452 197.385 104.032 196.209 104.032C195.441 104.032 194.757 104.212 194.157 104.572C193.581 104.932 193.125 105.496 192.789 106.264C192.477 107.008 192.321 107.968 192.321 109.144C192.321 110.896 192.681 112.204 193.401 113.068C194.121 113.908 195.057 114.328 196.209 114.328ZM215.762 118.324C215.042 118.324 214.43 118.156 213.926 117.82C213.422 117.46 213.014 116.896 212.702 116.128L207.626 103.564C207.362 102.892 207.278 102.304 207.374 101.8C207.47 101.272 207.722 100.852 208.13 100.54C208.562 100.204 209.15 100.036 209.894 100.036C210.518 100.036 211.034 100.192 211.442 100.504C211.85 100.792 212.198 101.356 212.486 102.196L216.446 112.744H215.618L219.722 101.728C219.914 101.152 220.19 100.732 220.55 100.468C220.934 100.18 221.426 100.036 222.026 100.036C222.626 100.036 223.106 100.18 223.466 100.468C223.85 100.756 224.15 101.176 224.366 101.728L228.398 112.744H227.714L231.638 102.052C231.926 101.284 232.298 100.756 232.754 100.468C233.21 100.18 233.702 100.036 234.23 100.036C234.902 100.036 235.418 100.204 235.778 100.54C236.162 100.876 236.378 101.308 236.426 101.836C236.498 102.364 236.402 102.94 236.138 103.564L231.098 116.128C230.81 116.872 230.402 117.424 229.874 117.784C229.37 118.144 228.758 118.324 228.038 118.324C227.342 118.324 226.73 118.144 226.202 117.784C225.698 117.424 225.29 116.872 224.978 116.128L220.658 104.896H222.998L218.786 116.092C218.498 116.836 218.102 117.4 217.598 117.784C217.094 118.144 216.482 118.324 215.762 118.324ZM258.229 118.396C256.573 118.396 255.181 118.12 254.053 117.568C252.949 117.016 252.121 116.212 251.569 115.156C251.041 114.1 250.777 112.768 250.777 111.16V104.392H249.265C248.593 104.392 248.065 104.212 247.681 103.852C247.321 103.492 247.141 103 247.141 102.376C247.141 101.704 247.321 101.2 247.681 100.864C248.065 100.504 248.593 100.324 249.265 100.324H250.777V97.588C250.777 96.676 251.017 95.992 251.497 95.536C251.977 95.056 252.649 94.816 253.513 94.816C254.401 94.816 255.073 95.056 255.529 95.536C255.985 95.992 256.213 96.676 256.213 97.588V100.324H259.633C260.305 100.324 260.821 100.504 261.181 100.864C261.541 101.2 261.721 101.704 261.721 102.376C261.721 103 261.541 103.492 261.181 103.852C260.821 104.212 260.305 104.392 259.633 104.392H256.213V110.944C256.213 111.952 256.441 112.708 256.897 113.212C257.377 113.716 258.133 113.968 259.165 113.968C259.525 113.968 259.861 113.932 260.173 113.86C260.485 113.788 260.773 113.74 261.037 113.716C261.373 113.692 261.649 113.8 261.865 114.04C262.081 114.256 262.189 114.748 262.189 115.516C262.189 116.092 262.093 116.596 261.901 117.028C261.709 117.46 261.373 117.772 260.893 117.964C260.581 118.084 260.149 118.18 259.597 118.252C259.069 118.348 258.613 118.396 258.229 118.396ZM267.406 118.324C266.518 118.324 265.834 118.084 265.354 117.604C264.898 117.124 264.67 116.44 264.67 115.552V95.068C264.67 94.156 264.898 93.472 265.354 93.016C265.834 92.536 266.518 92.296 267.406 92.296C268.27 92.296 268.93 92.536 269.386 93.016C269.866 93.472 270.106 94.156 270.106 95.068V103.636H269.602C270.154 102.46 270.97 101.56 272.05 100.936C273.154 100.288 274.402 99.964 275.794 99.964C277.21 99.964 278.374 100.24 279.286 100.792C280.198 101.32 280.882 102.136 281.338 103.24C281.794 104.32 282.022 105.7 282.022 107.38V115.552C282.022 116.44 281.782 117.124 281.302 117.604C280.846 118.084 280.174 118.324 279.286 118.324C278.422 118.324 277.75 118.084 277.27 117.604C276.814 117.124 276.586 116.44 276.586 115.552V107.632C276.586 106.408 276.358 105.532 275.902 105.004C275.47 104.452 274.798 104.176 273.886 104.176C272.734 104.176 271.81 104.536 271.114 105.256C270.442 105.976 270.106 106.936 270.106 108.136V115.552C270.106 117.4 269.206 118.324 267.406 118.324ZM292.056 118.396C290.76 118.396 289.596 118.144 288.564 117.64C287.532 117.136 286.728 116.452 286.152 115.588C285.576 114.724 285.288 113.752 285.288 112.672C285.288 111.376 285.624 110.356 286.296 109.612C286.968 108.844 288.06 108.304 289.572 107.992C291.084 107.656 293.088 107.488 295.584 107.488H297.492V110.296H295.62C294.396 110.296 293.4 110.368 292.632 110.512C291.888 110.632 291.348 110.848 291.012 111.16C290.7 111.472 290.544 111.904 290.544 112.456C290.544 113.128 290.772 113.68 291.228 114.112C291.708 114.544 292.392 114.76 293.28 114.76C293.976 114.76 294.588 114.604 295.116 114.292C295.668 113.956 296.1 113.512 296.412 112.96C296.724 112.384 296.88 111.736 296.88 111.016V106.876C296.88 105.82 296.64 105.076 296.16 104.644C295.68 104.188 294.864 103.96 293.712 103.96C293.064 103.96 292.356 104.044 291.588 104.212C290.844 104.356 290.016 104.608 289.104 104.968C288.576 105.208 288.108 105.268 287.7 105.148C287.292 105.004 286.98 104.764 286.764 104.428C286.548 104.068 286.44 103.684 286.44 103.276C286.44 102.844 286.56 102.436 286.8 102.052C287.04 101.644 287.436 101.344 287.988 101.152C289.116 100.696 290.172 100.384 291.156 100.216C292.164 100.048 293.088 99.964 293.928 99.964C295.776 99.964 297.288 100.24 298.464 100.792C299.664 101.32 300.564 102.148 301.164 103.276C301.764 104.38 302.064 105.808 302.064 107.56V115.552C302.064 116.44 301.848 117.124 301.416 117.604C300.984 118.084 300.36 118.324 299.544 118.324C298.728 118.324 298.092 118.084 297.636 117.604C297.204 117.124 296.988 116.44 296.988 115.552V114.22L297.24 114.436C297.096 115.252 296.784 115.96 296.304 116.56C295.848 117.136 295.26 117.592 294.54 117.928C293.82 118.24 292.992 118.396 292.056 118.396ZM314.795 118.396C313.139 118.396 311.747 118.12 310.619 117.568C309.515 117.016 308.687 116.212 308.135 115.156C307.607 114.1 307.343 112.768 307.343 111.16V104.392H305.831C305.159 104.392 304.631 104.212 304.247 103.852C303.887 103.492 303.707 103 303.707 102.376C303.707 101.704 303.887 101.2 304.247 100.864C304.631 100.504 305.159 100.324 305.831 100.324H307.343V97.588C307.343 96.676 307.583 95.992 308.063 95.536C308.543 95.056 309.215 94.816 310.079 94.816C310.967 94.816 311.639 95.056 312.095 95.536C312.551 95.992 312.779 96.676 312.779 97.588V100.324H316.199C316.871 100.324 317.387 100.504 317.747 100.864C318.107 101.2 318.287 101.704 318.287 102.376C318.287 103 318.107 103.492 317.747 103.852C317.387 104.212 316.871 104.392 316.199 104.392H312.779V110.944C312.779 111.952 313.007 112.708 313.463 113.212C313.943 113.716 314.699 113.968 315.731 113.968C316.091 113.968 316.427 113.932 316.739 113.86C317.051 113.788 317.339 113.74 317.603 113.716C317.939 113.692 318.215 113.8 318.431 114.04C318.647 114.256 318.755 114.748 318.755 115.516C318.755 116.092 318.659 116.596 318.467 117.028C318.275 117.46 317.939 117.772 317.459 117.964C317.147 118.084 316.715 118.18 316.163 118.252C315.635 118.348 315.179 118.396 314.795 118.396ZM341.637 118.396C340.221 118.396 338.961 118.048 337.857 117.352C336.777 116.632 336.057 115.684 335.697 114.508L336.093 113.32V115.552C336.093 116.44 335.865 117.124 335.409 117.604C334.953 118.084 334.293 118.324 333.429 118.324C332.565 118.324 331.893 118.084 331.413 117.604C330.957 117.124 330.729 116.44 330.729 115.552V95.068C330.729 94.156 330.957 93.472 331.413 93.016C331.893 92.536 332.577 92.296 333.465 92.296C334.329 92.296 334.989 92.536 335.445 93.016C335.925 93.472 336.165 94.156 336.165 95.068V103.6H335.733C336.117 102.52 336.849 101.644 337.929 100.972C339.009 100.3 340.245 99.964 341.637 99.964C343.197 99.964 344.553 100.336 345.705 101.08C346.857 101.824 347.757 102.88 348.405 104.248C349.053 105.616 349.377 107.248 349.377 109.144C349.377 111.04 349.053 112.684 348.405 114.076C347.757 115.468 346.845 116.536 345.669 117.28C344.517 118.024 343.173 118.396 341.637 118.396ZM340.017 114.328C340.785 114.328 341.457 114.136 342.033 113.752C342.633 113.368 343.089 112.804 343.401 112.06C343.737 111.292 343.905 110.32 343.905 109.144C343.905 107.392 343.545 106.108 342.825 105.292C342.105 104.452 341.169 104.032 340.017 104.032C339.249 104.032 338.565 104.212 337.965 104.572C337.389 104.932 336.933 105.496 336.597 106.264C336.261 107.008 336.093 107.968 336.093 109.144C336.093 110.896 336.453 112.204 337.173 113.068C337.893 113.908 338.841 114.328 340.017 114.328ZM361.197 118.396C359.301 118.396 357.645 118.024 356.229 117.28C354.837 116.536 353.757 115.468 352.989 114.076C352.221 112.684 351.837 111.04 351.837 109.144C351.837 107.728 352.053 106.456 352.485 105.328C352.917 104.2 353.541 103.24 354.357 102.448C355.197 101.632 356.193 101.02 357.345 100.612C358.497 100.18 359.781 99.964 361.197 99.964C363.093 99.964 364.737 100.336 366.129 101.08C367.545 101.824 368.637 102.88 369.405 104.248C370.197 105.616 370.593 107.248 370.593 109.144C370.593 110.584 370.365 111.868 369.909 112.996C369.477 114.124 368.853 115.096 368.037 115.912C367.221 116.728 366.225 117.352 365.049 117.784C363.897 118.192 362.613 118.396 361.197 118.396ZM361.197 114.328C361.989 114.328 362.673 114.136 363.249 113.752C363.825 113.368 364.281 112.804 364.617 112.06C364.953 111.292 365.121 110.32 365.121 109.144C365.121 107.392 364.761 106.108 364.041 105.292C363.321 104.452 362.373 104.032 361.197 104.032C360.429 104.032 359.745 104.212 359.145 104.572C358.569 104.932 358.113 105.496 357.777 106.264C357.465 107.008 357.309 107.968 357.309 109.144C357.309 110.896 357.669 112.204 358.389 113.068C359.109 113.908 360.045 114.328 361.197 114.328ZM380.669 118.396C379.613 118.396 378.521 118.3 377.393 118.108C376.289 117.916 375.281 117.592 374.369 117.136C373.889 116.896 373.541 116.596 373.325 116.236C373.133 115.852 373.049 115.468 373.073 115.084C373.097 114.7 373.217 114.352 373.433 114.04C373.673 113.728 373.973 113.524 374.333 113.428C374.717 113.308 375.137 113.344 375.593 113.536C376.577 113.944 377.477 114.232 378.293 114.4C379.109 114.568 379.913 114.652 380.705 114.652C381.737 114.652 382.481 114.496 382.937 114.184C383.417 113.848 383.657 113.416 383.657 112.888C383.657 112.408 383.501 112.048 383.189 111.808C382.877 111.568 382.421 111.4 381.821 111.304L378.041 110.62C376.553 110.356 375.401 109.816 374.585 109C373.793 108.16 373.397 107.092 373.397 105.796C373.397 104.596 373.733 103.564 374.405 102.7C375.077 101.812 376.001 101.14 377.177 100.684C378.377 100.204 379.733 99.964 381.245 99.964C382.325 99.964 383.321 100.06 384.233 100.252C385.145 100.444 386.021 100.756 386.861 101.188C387.293 101.404 387.593 101.692 387.761 102.052C387.953 102.412 388.013 102.784 387.941 103.168C387.893 103.552 387.749 103.9 387.509 104.212C387.269 104.524 386.957 104.728 386.573 104.824C386.213 104.92 385.793 104.872 385.313 104.68C384.545 104.32 383.837 104.068 383.189 103.924C382.541 103.756 381.917 103.672 381.316 103.672C380.237 103.672 379.457 103.852 378.977 104.212C378.497 104.548 378.257 104.98 378.257 105.508C378.257 105.916 378.389 106.264 378.653 106.552C378.941 106.816 379.373 106.996 379.949 107.092L383.729 107.776C385.289 108.04 386.477 108.568 387.293 109.36C388.109 110.128 388.517 111.184 388.517 112.528C388.517 114.352 387.797 115.792 386.357 116.848C384.941 117.88 383.045 118.396 380.669 118.396ZM398.387 118.396C397.331 118.396 396.239 118.3 395.111 118.108C394.007 117.916 392.999 117.592 392.087 117.136C391.607 116.896 391.259 116.596 391.043 116.236C390.851 115.852 390.767 115.468 390.791 115.084C390.815 114.7 390.935 114.352 391.151 114.04C391.391 113.728 391.691 113.524 392.051 113.428C392.435 113.308 392.855 113.344 393.311 113.536C394.295 113.944 395.195 114.232 396.011 114.4C396.827 114.568 397.631 114.652 398.423 114.652C399.455 114.652 400.199 114.496 400.655 114.184C401.135 113.848 401.375 113.416 401.375 112.888C401.375 112.408 401.219 112.048 400.907 111.808C400.595 111.568 400.139 111.4 399.539 111.304L395.759 110.62C394.271 110.356 393.119 109.816 392.303 109C391.511 108.16 391.115 107.092 391.115 105.796C391.115 104.596 391.451 103.564 392.123 102.7C392.795 101.812 393.719 101.14 394.895 100.684C396.095 100.204 397.451 99.964 398.963 99.964C400.043 99.964 401.039 100.06 401.951 100.252C402.863 100.444 403.739 100.756 404.579 101.188C405.011 101.404 405.311 101.692 405.479 102.052C405.671 102.412 405.731 102.784 405.659 103.168C405.611 103.552 405.467 103.9 405.227 104.212C404.987 104.524 404.675 104.728 404.291 104.824C403.931 104.92 403.511 104.872 403.031 104.68C402.263 104.32 401.555 104.068 400.907 103.924C400.259 103.756 399.635 103.672 399.035 103.672C397.955 103.672 397.175 103.852 396.695 104.212C396.215 104.548 395.975 104.98 395.975 105.508C395.975 105.916 396.107 106.264 396.371 106.552C396.659 106.816 397.091 106.996 397.667 107.092L401.447 107.776C403.007 108.04 404.195 108.568 405.011 109.36C405.827 110.128 406.235 111.184 406.235 112.528C406.235 114.352 405.515 115.792 404.075 116.848C402.659 117.88 400.763 118.396 398.387 118.396ZM428.069 118.396C426.413 118.396 425.021 118.12 423.893 117.568C422.789 117.016 421.961 116.212 421.409 115.156C420.881 114.1 420.617 112.768 420.617 111.16V104.392H419.105C418.433 104.392 417.905 104.212 417.521 103.852C417.161 103.492 416.981 103 416.981 102.376C416.981 101.704 417.161 101.2 417.521 100.864C417.905 100.504 418.433 100.324 419.105 100.324H420.617V97.588C420.617 96.676 420.857 95.992 421.337 95.536C421.817 95.056 422.489 94.816 423.353 94.816C424.241 94.816 424.913 95.056 425.369 95.536C425.825 95.992 426.053 96.676 426.053 97.588V100.324H429.473C430.145 100.324 430.661 100.504 431.021 100.864C431.381 101.2 431.561 101.704 431.561 102.376C431.561 103 431.381 103.492 431.021 103.852C430.661 104.212 430.145 104.392 429.473 104.392H426.053V110.944C426.053 111.952 426.281 112.708 426.737 113.212C427.217 113.716 427.973 113.968 429.005 113.968C429.365 113.968 429.701 113.932 430.013 113.86C430.325 113.788 430.613 113.74 430.877 113.716C431.213 113.692 431.489 113.8 431.705 114.04C431.921 114.256 432.029 114.748 432.029 115.516C432.029 116.092 431.933 116.596 431.741 117.028C431.549 117.46 431.213 117.772 430.733 117.964C430.421 118.084 429.989 118.18 429.437 118.252C428.909 118.348 428.453 118.396 428.069 118.396ZM437.246 118.324C436.358 118.324 435.674 118.084 435.194 117.604C434.738 117.124 434.51 116.44 434.51 115.552V95.068C434.51 94.156 434.738 93.472 435.194 93.016C435.674 92.536 436.358 92.296 437.246 92.296C438.11 92.296 438.77 92.536 439.226 93.016C439.706 93.472 439.946 94.156 439.946 95.068V103.636H439.442C439.994 102.46 440.81 101.56 441.89 100.936C442.994 100.288 444.242 99.964 445.634 99.964C447.05 99.964 448.214 100.24 449.126 100.792C450.038 101.32 450.722 102.136 451.178 103.24C451.634 104.32 451.862 105.7 451.862 107.38V115.552C451.862 116.44 451.622 117.124 451.142 117.604C450.686 118.084 450.014 118.324 449.126 118.324C448.262 118.324 447.59 118.084 447.11 117.604C446.654 117.124 446.426 116.44 446.426 115.552V107.632C446.426 106.408 446.198 105.532 445.742 105.004C445.31 104.452 444.638 104.176 443.726 104.176C442.574 104.176 441.65 104.536 440.954 105.256C440.282 105.976 439.946 106.936 439.946 108.136V115.552C439.946 117.4 439.046 118.324 437.246 118.324ZM461.896 118.396C460.6 118.396 459.436 118.144 458.404 117.64C457.372 117.136 456.568 116.452 455.992 115.588C455.416 114.724 455.128 113.752 455.128 112.672C455.128 111.376 455.464 110.356 456.136 109.612C456.808 108.844 457.9 108.304 459.412 107.992C460.924 107.656 462.928 107.488 465.424 107.488H467.332V110.296H465.46C464.236 110.296 463.24 110.368 462.472 110.512C461.728 110.632 461.188 110.848 460.852 111.16C460.54 111.472 460.384 111.904 460.384 112.456C460.384 113.128 460.612 113.68 461.068 114.112C461.548 114.544 462.232 114.76 463.12 114.76C463.816 114.76 464.428 114.604 464.956 114.292C465.508 113.956 465.94 113.512 466.252 112.96C466.564 112.384 466.72 111.736 466.72 111.016V106.876C466.72 105.82 466.48 105.076 466 104.644C465.52 104.188 464.704 103.96 463.552 103.96C462.904 103.96 462.196 104.044 461.428 104.212C460.684 104.356 459.856 104.608 458.944 104.968C458.416 105.208 457.948 105.268 457.54 105.148C457.132 105.004 456.82 104.764 456.604 104.428C456.388 104.068 456.28 103.684 456.28 103.276C456.28 102.844 456.4 102.436 456.64 102.052C456.88 101.644 457.276 101.344 457.828 101.152C458.956 100.696 460.012 100.384 460.996 100.216C462.004 100.048 462.928 99.964 463.768 99.964C465.616 99.964 467.128 100.24 468.304 100.792C469.504 101.32 470.404 102.148 471.004 103.276C471.604 104.38 471.904 105.808 471.904 107.56V115.552C471.904 116.44 471.688 117.124 471.256 117.604C470.824 118.084 470.2 118.324 469.384 118.324C468.568 118.324 467.932 118.084 467.476 117.604C467.044 117.124 466.828 116.44 466.828 115.552V114.22L467.08 114.436C466.936 115.252 466.624 115.96 466.144 116.56C465.688 117.136 465.1 117.592 464.38 117.928C463.66 118.24 462.832 118.396 461.896 118.396ZM484.635 118.396C482.979 118.396 481.587 118.12 480.459 117.568C479.355 117.016 478.527 116.212 477.975 115.156C477.447 114.1 477.183 112.768 477.183 111.16V104.392H475.671C474.999 104.392 474.471 104.212 474.087 103.852C473.727 103.492 473.547 103 473.547 102.376C473.547 101.704 473.727 101.2 474.087 100.864C474.471 100.504 474.999 100.324 475.671 100.324H477.183V97.588C477.183 96.676 477.423 95.992 477.903 95.536C478.383 95.056 479.055 94.816 479.919 94.816C480.807 94.816 481.479 95.056 481.935 95.536C482.391 95.992 482.619 96.676 482.619 97.588V100.324H486.039C486.711 100.324 487.227 100.504 487.587 100.864C487.947 101.2 488.127 101.704 488.127 102.376C488.127 103 487.947 103.492 487.587 103.852C487.227 104.212 486.711 104.392 486.039 104.392H482.619V110.944C482.619 111.952 482.847 112.708 483.303 113.212C483.783 113.716 484.539 113.968 485.571 113.968C485.931 113.968 486.267 113.932 486.579 113.86C486.891 113.788 487.179 113.74 487.443 113.716C487.779 113.692 488.055 113.8 488.271 114.04C488.487 114.256 488.595 114.748 488.595 115.516C488.595 116.092 488.499 116.596 488.307 117.028C488.115 117.46 487.779 117.772 487.299 117.964C486.987 118.084 486.555 118.18 486.003 118.252C485.475 118.348 485.019 118.396 484.635 118.396ZM78.912 173.804C78.288 173.804 77.772 173.636 77.364 173.3C76.956 172.964 76.716 172.52 76.644 171.968C76.572 171.44 76.668 170.876 76.932 170.276L79.344 164.948V167.18L72.972 152.564C72.732 151.94 72.648 151.364 72.72 150.836C72.816 150.284 73.08 149.852 73.512 149.54C73.968 149.204 74.592 149.036 75.384 149.036C76.032 149.036 76.548 149.192 76.932 149.504C77.34 149.792 77.712 150.356 78.048 151.196L82.296 161.996H81.144L85.536 151.16C85.872 150.344 86.244 149.792 86.652 149.504C87.084 149.192 87.66 149.036 88.38 149.036C89.004 149.036 89.496 149.204 89.856 149.54C90.24 149.852 90.468 150.272 90.54 150.8C90.636 151.328 90.54 151.904 90.252 152.528L81.792 171.716C81.432 172.532 81.024 173.084 80.568 173.372C80.136 173.66 79.584 173.804 78.912 173.804ZM101.357 167.396C99.4614 167.396 97.8054 167.024 96.3894 166.28C94.9974 165.536 93.9174 164.468 93.1494 163.076C92.3814 161.684 91.9974 160.04 91.9974 158.144C91.9974 156.728 92.2134 155.456 92.6454 154.328C93.0774 153.2 93.7014 152.24 94.5174 151.448C95.3574 150.632 96.3534 150.02 97.5054 149.612C98.6574 149.18 99.9414 148.964 101.357 148.964C103.253 148.964 104.897 149.336 106.289 150.08C107.705 150.824 108.797 151.88 109.565 153.248C110.357 154.616 110.753 156.248 110.753 158.144C110.753 159.584 110.525 160.868 110.069 161.996C109.637 163.124 109.013 164.096 108.197 164.912C107.381 165.728 106.385 166.352 105.209 166.784C104.057 167.192 102.773 167.396 101.357 167.396ZM101.357 163.328C102.149 163.328 102.833 163.136 103.409 162.752C103.985 162.368 104.441 161.804 104.777 161.06C105.113 160.292 105.281 159.32 105.281 158.144C105.281 156.392 104.921 155.108 104.201 154.292C103.481 153.452 102.533 153.032 101.357 153.032C100.589 153.032 99.9054 153.212 99.3054 153.572C98.7294 153.932 98.2734 154.496 97.9374 155.264C97.6254 156.008 97.4694 156.968 97.4694 158.144C97.4694 159.896 97.8294 161.204 98.5494 162.068C99.2694 162.908 100.205 163.328 101.357 163.328ZM120.577 167.396C119.089 167.396 117.853 167.12 116.869 166.568C115.885 166.016 115.153 165.188 114.673 164.084C114.217 162.956 113.989 161.564 113.989 159.908V151.772C113.989 150.86 114.217 150.176 114.673 149.72C115.153 149.264 115.825 149.036 116.689 149.036C117.553 149.036 118.225 149.264 118.705 149.72C119.185 150.176 119.425 150.86 119.425 151.772V160.052C119.425 161.108 119.641 161.9 120.073 162.428C120.505 162.932 121.189 163.184 122.125 163.184C123.157 163.184 123.997 162.824 124.645 162.104C125.317 161.36 125.653 160.388 125.653 159.188V151.772C125.653 150.86 125.881 150.176 126.337 149.72C126.817 149.264 127.489 149.036 128.353 149.036C129.241 149.036 129.913 149.264 130.369 149.72C130.849 150.176 131.089 150.86 131.089 151.772V164.552C131.089 166.4 130.213 167.324 128.461 167.324C127.597 167.324 126.937 167.084 126.481 166.604C126.025 166.124 125.797 165.44 125.797 164.552V162.14L126.337 163.544C125.809 164.768 125.053 165.716 124.069 166.388C123.085 167.06 121.921 167.396 120.577 167.396ZM152.622 167.324C151.902 167.324 151.29 167.156 150.786 166.82C150.282 166.46 149.874 165.896 149.562 165.128L144.486 152.564C144.222 151.892 144.138 151.304 144.234 150.8C144.33 150.272 144.582 149.852 144.99 149.54C145.422 149.204 146.01 149.036 146.754 149.036C147.378 149.036 147.894 149.192 148.302 149.504C148.71 149.792 149.058 150.356 149.346 151.196L153.306 161.744H152.478L156.582 150.728C156.774 150.152 157.05 149.732 157.41 149.468C157.794 149.18 158.286 149.036 158.886 149.036C159.486 149.036 159.966 149.18 160.326 149.468C160.71 149.756 161.01 150.176 161.226 150.728L165.258 161.744H164.574L168.498 151.052C168.786 150.284 169.158 149.756 169.614 149.468C170.07 149.18 170.562 149.036 171.09 149.036C171.762 149.036 172.278 149.204 172.638 149.54C173.022 149.876 173.238 150.308 173.286 150.836C173.358 151.364 173.262 151.94 172.998 152.564L167.958 165.128C167.67 165.872 167.262 166.424 166.734 166.784C166.23 167.144 165.618 167.324 164.898 167.324C164.202 167.324 163.59 167.144 163.062 166.784C162.558 166.424 162.15 165.872 161.838 165.128L157.518 153.896H159.858L155.646 165.092C155.358 165.836 154.962 166.4 154.458 166.784C153.954 167.144 153.342 167.324 152.622 167.324ZM181.982 167.396C180.686 167.396 179.522 167.144 178.49 166.64C177.458 166.136 176.654 165.452 176.078 164.588C175.502 163.724 175.214 162.752 175.214 161.672C175.214 160.376 175.55 159.356 176.222 158.612C176.894 157.844 177.986 157.304 179.498 156.992C181.01 156.656 183.014 156.488 185.51 156.488H187.418V159.296H185.546C184.322 159.296 183.326 159.368 182.558 159.512C181.814 159.632 181.274 159.848 180.938 160.16C180.626 160.472 180.47 160.904 180.47 161.456C180.47 162.128 180.698 162.68 181.154 163.112C181.634 163.544 182.318 163.76 183.206 163.76C183.902 163.76 184.514 163.604 185.042 163.292C185.594 162.956 186.026 162.512 186.338 161.96C186.65 161.384 186.806 160.736 186.806 160.016V155.876C186.806 154.82 186.566 154.076 186.086 153.644C185.606 153.188 184.79 152.96 183.638 152.96C182.99 152.96 182.282 153.044 181.514 153.212C180.77 153.356 179.942 153.608 179.03 153.968C178.502 154.208 178.034 154.268 177.626 154.148C177.218 154.004 176.906 153.764 176.69 153.428C176.474 153.068 176.366 152.684 176.366 152.276C176.366 151.844 176.486 151.436 176.726 151.052C176.966 150.644 177.362 150.344 177.914 150.152C179.042 149.696 180.098 149.384 181.082 149.216C182.09 149.048 183.014 148.964 183.854 148.964C185.702 148.964 187.214 149.24 188.39 149.792C189.59 150.32 190.49 151.148 191.09 152.276C191.69 153.38 191.99 154.808 191.99 156.56V164.552C191.99 165.44 191.774 166.124 191.342 166.604C190.91 167.084 190.286 167.324 189.47 167.324C188.654 167.324 188.018 167.084 187.562 166.604C187.13 166.124 186.914 165.44 186.914 164.552V163.22L187.166 163.436C187.022 164.252 186.71 164.96 186.23 165.56C185.774 166.136 185.186 166.592 184.466 166.928C183.746 167.24 182.918 167.396 181.982 167.396ZM198.781 167.324C197.893 167.324 197.209 167.084 196.729 166.604C196.273 166.124 196.045 165.44 196.045 164.552V151.772C196.045 150.884 196.273 150.212 196.729 149.756C197.209 149.276 197.869 149.036 198.709 149.036C199.573 149.036 200.233 149.276 200.689 149.756C201.145 150.212 201.373 150.884 201.373 151.772V153.824L200.977 152.636C201.529 151.46 202.345 150.56 203.425 149.936C204.529 149.288 205.777 148.964 207.169 148.964C208.585 148.964 209.749 149.24 210.661 149.792C211.573 150.32 212.257 151.136 212.713 152.24C213.169 153.32 213.397 154.7 213.397 156.38V164.552C213.397 165.44 213.157 166.124 212.677 166.604C212.221 167.084 211.549 167.324 210.661 167.324C209.797 167.324 209.125 167.084 208.645 166.604C208.189 166.124 207.961 165.44 207.961 164.552V156.632C207.961 155.408 207.733 154.532 207.277 154.004C206.845 153.452 206.173 153.176 205.261 153.176C204.109 153.176 203.185 153.536 202.489 154.256C201.817 154.976 201.481 155.936 201.481 157.136V164.552C201.481 166.4 200.581 167.324 198.781 167.324ZM226.131 167.396C224.475 167.396 223.083 167.12 221.955 166.568C220.851 166.016 220.023 165.212 219.471 164.156C218.943 163.1 218.679 161.768 218.679 160.16V153.392H217.167C216.495 153.392 215.967 153.212 215.583 152.852C215.223 152.492 215.043 152 215.043 151.376C215.043 150.704 215.223 150.2 215.583 149.864C215.967 149.504 216.495 149.324 217.167 149.324H218.679V146.588C218.679 145.676 218.919 144.992 219.399 144.536C219.879 144.056 220.551 143.816 221.415 143.816C222.303 143.816 222.975 144.056 223.431 144.536C223.887 144.992 224.115 145.676 224.115 146.588V149.324H227.535C228.207 149.324 228.723 149.504 229.083 149.864C229.443 150.2 229.623 150.704 229.623 151.376C229.623 152 229.443 152.492 229.083 152.852C228.723 153.212 228.207 153.392 227.535 153.392H224.115V159.944C224.115 160.952 224.343 161.708 224.799 162.212C225.279 162.716 226.035 162.968 227.067 162.968C227.427 162.968 227.763 162.932 228.075 162.86C228.387 162.788 228.675 162.74 228.939 162.716C229.275 162.692 229.551 162.8 229.767 163.04C229.983 163.256 230.091 163.748 230.091 164.516C230.091 165.092 229.995 165.596 229.803 166.028C229.611 166.46 229.275 166.772 228.795 166.964C228.483 167.084 228.051 167.18 227.499 167.252C226.971 167.348 226.515 167.396 226.131 167.396ZM241.014 167.396C238.926 167.396 237.126 167.024 235.614 166.28C234.126 165.512 232.974 164.444 232.158 163.076C231.366 161.684 230.97 160.052 230.97 158.18C230.97 156.356 231.354 154.76 232.122 153.392C232.89 152 233.958 150.92 235.326 150.152C236.718 149.36 238.29 148.964 240.042 148.964C241.314 148.964 242.466 149.18 243.498 149.612C244.53 150.02 245.418 150.62 246.162 151.412C246.906 152.18 247.47 153.128 247.854 154.256C248.238 155.36 248.43 156.596 248.43 157.964C248.43 158.42 248.286 158.768 247.998 159.008C247.71 159.224 247.29 159.332 246.738 159.332H235.434V156.524H244.506L243.93 157.028C243.93 156.044 243.786 155.228 243.498 154.58C243.21 153.908 242.79 153.404 242.238 153.068C241.71 152.732 241.05 152.564 240.258 152.564C239.37 152.564 238.614 152.768 237.99 153.176C237.366 153.584 236.886 154.172 236.55 154.94C236.214 155.708 236.046 156.632 236.046 157.712V158C236.046 159.824 236.466 161.168 237.306 162.032C238.17 162.896 239.442 163.328 241.122 163.328C241.698 163.328 242.358 163.256 243.102 163.112C243.846 162.968 244.542 162.74 245.19 162.428C245.742 162.164 246.234 162.08 246.666 162.176C247.098 162.248 247.434 162.44 247.674 162.752C247.914 163.064 248.046 163.424 248.07 163.832C248.118 164.24 248.034 164.648 247.818 165.056C247.602 165.44 247.242 165.764 246.738 166.028C245.922 166.484 244.998 166.82 243.966 167.036C242.958 167.276 241.974 167.396 241.014 167.396ZM258.468 167.396C256.932 167.396 255.576 167.024 254.4 166.28C253.248 165.536 252.348 164.468 251.7 163.076C251.052 161.684 250.728 160.04 250.728 158.144C250.728 156.248 251.052 154.616 251.7 153.248C252.348 151.88 253.248 150.824 254.4 150.08C255.576 149.336 256.932 148.964 258.468 148.964C259.86 148.964 261.084 149.3 262.14 149.972C263.22 150.644 263.952 151.52 264.336 152.6H263.94V144.068C263.94 143.156 264.168 142.472 264.624 142.016C265.08 141.536 265.752 141.296 266.64 141.296C267.504 141.296 268.176 141.536 268.656 142.016C269.136 142.472 269.376 143.156 269.376 144.068V164.552C269.376 165.44 269.136 166.124 268.656 166.604C268.2 167.084 267.54 167.324 266.676 167.324C265.812 167.324 265.14 167.084 264.66 166.604C264.204 166.124 263.976 165.44 263.976 164.552V162.104L264.372 163.508C264.036 164.684 263.316 165.632 262.212 166.352C261.132 167.048 259.884 167.396 258.468 167.396ZM260.088 163.328C260.88 163.328 261.564 163.136 262.14 162.752C262.716 162.368 263.172 161.804 263.508 161.06C263.844 160.292 264.012 159.32 264.012 158.144C264.012 156.392 263.652 155.108 262.932 154.292C262.212 153.452 261.264 153.032 260.088 153.032C259.32 153.032 258.636 153.212 258.036 153.572C257.46 153.932 257.004 154.496 256.668 155.264C256.356 156.008 256.2 156.968 256.2 158.144C256.2 159.896 256.56 161.204 257.28 162.068C258 162.908 258.936 163.328 260.088 163.328ZM292.295 167.396C290.639 167.396 289.247 167.12 288.119 166.568C287.015 166.016 286.187 165.212 285.635 164.156C285.107 163.1 284.843 161.768 284.843 160.16V153.392H283.331C282.659 153.392 282.131 153.212 281.747 152.852C281.387 152.492 281.207 152 281.207 151.376C281.207 150.704 281.387 150.2 281.747 149.864C282.131 149.504 282.659 149.324 283.331 149.324H284.843V146.588C284.843 145.676 285.083 144.992 285.563 144.536C286.043 144.056 286.715 143.816 287.579 143.816C288.467 143.816 289.139 144.056 289.595 144.536C290.051 144.992 290.279 145.676 290.279 146.588V149.324H293.699C294.371 149.324 294.887 149.504 295.247 149.864C295.607 150.2 295.787 150.704 295.787 151.376C295.787 152 295.607 152.492 295.247 152.852C294.887 153.212 294.371 153.392 293.699 153.392H290.279V159.944C290.279 160.952 290.507 161.708 290.963 162.212C291.443 162.716 292.199 162.968 293.231 162.968C293.591 162.968 293.927 162.932 294.239 162.86C294.551 162.788 294.839 162.74 295.103 162.716C295.439 162.692 295.715 162.8 295.931 163.04C296.147 163.256 296.255 163.748 296.255 164.516C296.255 165.092 296.159 165.596 295.967 166.028C295.775 166.46 295.439 166.772 294.959 166.964C294.647 167.084 294.215 167.18 293.663 167.252C293.135 167.348 292.679 167.396 292.295 167.396ZM306.494 167.396C304.598 167.396 302.942 167.024 301.526 166.28C300.134 165.536 299.054 164.468 298.286 163.076C297.518 161.684 297.134 160.04 297.134 158.144C297.134 156.728 297.35 155.456 297.782 154.328C298.214 153.2 298.838 152.24 299.654 151.448C300.494 150.632 301.49 150.02 302.642 149.612C303.794 149.18 305.078 148.964 306.494 148.964C308.39 148.964 310.034 149.336 311.426 150.08C312.842 150.824 313.934 151.88 314.702 153.248C315.494 154.616 315.89 156.248 315.89 158.144C315.89 159.584 315.662 160.868 315.206 161.996C314.774 163.124 314.15 164.096 313.334 164.912C312.518 165.728 311.522 166.352 310.346 166.784C309.194 167.192 307.91 167.396 306.494 167.396ZM306.494 163.328C307.286 163.328 307.97 163.136 308.546 162.752C309.122 162.368 309.578 161.804 309.914 161.06C310.25 160.292 310.418 159.32 310.418 158.144C310.418 156.392 310.058 155.108 309.338 154.292C308.618 153.452 307.67 153.032 306.494 153.032C305.726 153.032 305.042 153.212 304.442 153.572C303.866 153.932 303.41 154.496 303.074 155.264C302.762 156.008 302.606 156.968 302.606 158.144C302.606 159.896 302.966 161.204 303.686 162.068C304.406 162.908 305.342 163.328 306.494 163.328ZM336.02 167.396C334.964 167.396 333.872 167.3 332.744 167.108C331.64 166.916 330.632 166.592 329.72 166.136C329.24 165.896 328.892 165.596 328.676 165.236C328.484 164.852 328.4 164.468 328.424 164.084C328.448 163.7 328.568 163.352 328.784 163.04C329.024 162.728 329.324 162.524 329.684 162.428C330.068 162.308 330.488 162.344 330.944 162.536C331.928 162.944 332.828 163.232 333.644 163.4C334.46 163.568 335.264 163.652 336.056 163.652C337.088 163.652 337.832 163.496 338.288 163.184C338.768 162.848 339.008 162.416 339.008 161.888C339.008 161.408 338.852 161.048 338.54 160.808C338.228 160.568 337.772 160.4 337.172 160.304L333.392 159.62C331.904 159.356 330.752 158.816 329.936 158C329.144 157.16 328.748 156.092 328.748 154.796C328.748 153.596 329.084 152.564 329.756 151.7C330.428 150.812 331.352 150.14 332.528 149.684C333.728 149.204 335.084 148.964 336.596 148.964C337.676 148.964 338.672 149.06 339.584 149.252C340.496 149.444 341.372 149.756 342.212 150.188C342.644 150.404 342.944 150.692 343.112 151.052C343.304 151.412 343.364 151.784 343.292 152.168C343.244 152.552 343.1 152.9 342.86 153.212C342.62 153.524 342.308 153.728 341.924 153.824C341.564 153.92 341.144 153.872 340.664 153.68C339.896 153.32 339.188 153.068 338.54 152.924C337.892 152.756 337.268 152.672 336.668 152.672C335.588 152.672 334.808 152.852 334.328 153.212C333.848 153.548 333.608 153.98 333.608 154.508C333.608 154.916 333.74 155.264 334.004 155.552C334.292 155.816 334.724 155.996 335.3 156.092L339.08 156.776C340.64 157.04 341.828 157.568 342.644 158.36C343.46 159.128 343.868 160.184 343.868 161.528C343.868 163.352 343.148 164.792 341.708 165.848C340.292 166.88 338.396 167.396 336.02 167.396ZM352.947 167.396C351.651 167.396 350.487 167.144 349.455 166.64C348.423 166.136 347.619 165.452 347.043 164.588C346.467 163.724 346.179 162.752 346.179 161.672C346.179 160.376 346.515 159.356 347.187 158.612C347.859 157.844 348.951 157.304 350.463 156.992C351.975 156.656 353.979 156.488 356.475 156.488H358.383V159.296H356.511C355.287 159.296 354.291 159.368 353.523 159.512C352.779 159.632 352.239 159.848 351.903 160.16C351.591 160.472 351.435 160.904 351.435 161.456C351.435 162.128 351.663 162.68 352.119 163.112C352.599 163.544 353.283 163.76 354.171 163.76C354.867 163.76 355.479 163.604 356.007 163.292C356.559 162.956 356.991 162.512 357.303 161.96C357.615 161.384 357.771 160.736 357.771 160.016V155.876C357.771 154.82 357.531 154.076 357.051 153.644C356.571 153.188 355.755 152.96 354.603 152.96C353.955 152.96 353.247 153.044 352.479 153.212C351.735 153.356 350.907 153.608 349.995 153.968C349.467 154.208 348.999 154.268 348.591 154.148C348.183 154.004 347.871 153.764 347.655 153.428C347.439 153.068 347.331 152.684 347.331 152.276C347.331 151.844 347.451 151.436 347.691 151.052C347.931 150.644 348.327 150.344 348.879 150.152C350.007 149.696 351.063 149.384 352.047 149.216C353.055 149.048 353.979 148.964 354.819 148.964C356.667 148.964 358.179 149.24 359.355 149.792C360.555 150.32 361.455 151.148 362.055 152.276C362.655 153.38 362.955 154.808 362.955 156.56V164.552C362.955 165.44 362.739 166.124 362.307 166.604C361.875 167.084 361.251 167.324 360.435 167.324C359.619 167.324 358.983 167.084 358.527 166.604C358.095 166.124 357.879 165.44 357.879 164.552V163.22L358.131 163.436C357.987 164.252 357.675 164.96 357.195 165.56C356.739 166.136 356.151 166.592 355.431 166.928C354.711 167.24 353.883 167.396 352.947 167.396ZM371.658 173.804C371.034 173.804 370.518 173.636 370.11 173.3C369.702 172.964 369.462 172.52 369.39 171.968C369.318 171.44 369.414 170.876 369.678 170.276L372.09 164.948V167.18L365.718 152.564C365.478 151.94 365.394 151.364 365.466 150.836C365.562 150.284 365.826 149.852 366.258 149.54C366.714 149.204 367.338 149.036 368.13 149.036C368.778 149.036 369.294 149.192 369.678 149.504C370.086 149.792 370.458 150.356 370.794 151.196L375.042 161.996H373.89L378.282 151.16C378.618 150.344 378.99 149.792 379.398 149.504C379.83 149.192 380.406 149.036 381.126 149.036C381.75 149.036 382.242 149.204 382.602 149.54C382.986 149.852 383.214 150.272 383.286 150.8C383.382 151.328 383.286 151.904 382.998 152.528L374.538 171.716C374.178 172.532 373.77 173.084 373.314 173.372C372.882 173.66 372.33 173.804 371.658 173.804ZM398.496 154.328C397.992 154.016 397.692 153.632 397.596 153.176C397.524 152.696 397.668 152.192 398.028 151.664L400.188 148.424L400.98 149.54L397.056 149.792C396.432 149.84 395.928 149.72 395.544 149.432C395.16 149.12 394.968 148.676 394.968 148.1C394.968 147.524 395.16 147.092 395.544 146.804C395.928 146.492 396.432 146.36 397.056 146.408L400.98 146.696L400.224 147.848L398.064 144.536C397.704 143.984 397.56 143.48 397.632 143.024C397.728 142.544 398.028 142.172 398.532 141.908C399.036 141.596 399.516 141.548 399.972 141.764C400.428 141.956 400.788 142.352 401.052 142.952L402.492 146.12H401.844L403.32 142.952C403.56 142.352 403.908 141.956 404.364 141.764C404.844 141.548 405.336 141.596 405.84 141.908C406.368 142.22 406.668 142.616 406.74 143.096C406.812 143.552 406.656 144.044 406.272 144.572L404.112 147.812L403.356 146.696L407.28 146.408C407.904 146.36 408.408 146.492 408.792 146.804C409.176 147.092 409.368 147.524 409.368 148.1C409.368 148.676 409.176 149.12 408.792 149.432C408.408 149.72 407.904 149.84 407.28 149.792L403.356 149.54L404.112 148.424L406.272 151.664C406.656 152.192 406.812 152.684 406.74 153.14C406.668 153.596 406.368 153.98 405.84 154.292C405.312 154.604 404.82 154.664 404.364 154.472C403.932 154.256 403.584 153.86 403.32 153.284L401.844 150.044H402.492L400.98 153.284C400.716 153.86 400.356 154.256 399.9 154.472C399.468 154.664 399 154.616 398.496 154.328ZM414.844 154.328C414.34 154.016 414.04 153.632 413.944 153.176C413.872 152.696 414.016 152.192 414.376 151.664L416.536 148.424L417.328 149.54L413.404 149.792C412.78 149.84 412.276 149.72 411.892 149.432C411.508 149.12 411.316 148.676 411.316 148.1C411.316 147.524 411.508 147.092 411.892 146.804C412.276 146.492 412.78 146.36 413.404 146.408L417.328 146.696L416.572 147.848L414.412 144.536C414.052 143.984 413.908 143.48 413.98 143.024C414.076 142.544 414.376 142.172 414.88 141.908C415.384 141.596 415.864 141.548 416.32 141.764C416.776 141.956 417.136 142.352 417.4 142.952L418.84 146.12H418.192L419.668 142.952C419.908 142.352 420.256 141.956 420.712 141.764C421.192 141.548 421.684 141.596 422.188 141.908C422.716 142.22 423.016 142.616 423.088 143.096C423.16 143.552 423.004 144.044 422.62 144.572L420.46 147.812L419.704 146.696L423.628 146.408C424.252 146.36 424.756 146.492 425.14 146.804C425.524 147.092 425.716 147.524 425.716 148.1C425.716 148.676 425.524 149.12 425.14 149.432C424.756 149.72 424.252 149.84 423.628 149.792L419.704 149.54L420.46 148.424L422.62 151.664C423.004 152.192 423.16 152.684 423.088 153.14C423.016 153.596 422.716 153.98 422.188 154.292C421.66 154.604 421.168 154.664 420.712 154.472C420.28 154.256 419.932 153.86 419.668 153.284L418.192 150.044H418.84L417.328 153.284C417.064 153.86 416.704 154.256 416.248 154.472C415.816 154.664 415.348 154.616 414.844 154.328ZM431.191 154.328C430.687 154.016 430.387 153.632 430.291 153.176C430.219 152.696 430.363 152.192 430.723 151.664L432.883 148.424L433.675 149.54L429.751 149.792C429.127 149.84 428.623 149.72 428.239 149.432C427.855 149.12 427.663 148.676 427.663 148.1C427.663 147.524 427.855 147.092 428.239 146.804C428.623 146.492 429.127 146.36 429.751 146.408L433.675 146.696L432.919 147.848L430.759 144.536C430.399 143.984 430.255 143.48 430.327 143.024C430.423 142.544 430.723 142.172 431.227 141.908C431.731 141.596 432.211 141.548 432.667 141.764C433.123 141.956 433.483 142.352 433.747 142.952L435.187 146.12H434.539L436.015 142.952C436.255 142.352 436.603 141.956 437.059 141.764C437.539 141.548 438.031 141.596 438.535 141.908C439.063 142.22 439.363 142.616 439.435 143.096C439.507 143.552 439.351 144.044 438.967 144.572L436.807 147.812L436.051 146.696L439.975 146.408C440.599 146.36 441.103 146.492 441.487 146.804C441.871 147.092 442.063 147.524 442.063 148.1C442.063 148.676 441.871 149.12 441.487 149.432C441.103 149.72 440.599 149.84 439.975 149.792L436.051 149.54L436.807 148.424L438.967 151.664C439.351 152.192 439.507 152.684 439.435 153.14C439.363 153.596 439.063 153.98 438.535 154.292C438.007 154.604 437.515 154.664 437.059 154.472C436.627 154.256 436.279 153.86 436.015 153.284L434.539 150.044H435.187L433.675 153.284C433.411 153.86 433.051 154.256 432.595 154.472C432.163 154.664 431.695 154.616 431.191 154.328ZM447.539 154.328C447.035 154.016 446.735 153.632 446.639 153.176C446.567 152.696 446.711 152.192 447.071 151.664L449.231 148.424L450.023 149.54L446.099 149.792C445.475 149.84 444.971 149.72 444.587 149.432C444.203 149.12 444.011 148.676 444.011 148.1C444.011 147.524 444.203 147.092 444.587 146.804C444.971 146.492 445.475 146.36 446.099 146.408L450.023 146.696L449.267 147.848L447.107 144.536C446.747 143.984 446.603 143.48 446.675 143.024C446.771 142.544 447.071 142.172 447.575 141.908C448.079 141.596 448.559 141.548 449.015 141.764C449.471 141.956 449.831 142.352 450.095 142.952L451.535 146.12H450.887L452.363 142.952C452.603 142.352 452.951 141.956 453.407 141.764C453.887 141.548 454.379 141.596 454.883 141.908C455.411 142.22 455.711 142.616 455.783 143.096C455.855 143.552 455.699 144.044 455.315 144.572L453.155 147.812L452.399 146.696L456.323 146.408C456.947 146.36 457.451 146.492 457.835 146.804C458.219 147.092 458.411 147.524 458.411 148.1C458.411 148.676 458.219 149.12 457.835 149.432C457.451 149.72 456.947 149.84 456.323 149.792L452.399 149.54L453.155 148.424L455.315 151.664C455.699 152.192 455.855 152.684 455.783 153.14C455.711 153.596 455.411 153.98 454.883 154.292C454.355 154.604 453.863 154.664 453.407 154.472C452.975 154.256 452.627 153.86 452.363 153.284L450.887 150.044H451.535L450.023 153.284C449.759 153.86 449.399 154.256 448.943 154.472C448.511 154.664 448.043 154.616 447.539 154.328ZM480.205 167.396C478.549 167.396 477.157 167.12 476.029 166.568C474.925 166.016 474.097 165.212 473.545 164.156C473.017 163.1 472.753 161.768 472.753 160.16V153.392H471.241C470.569 153.392 470.041 153.212 469.657 152.852C469.297 152.492 469.117 152 469.117 151.376C469.117 150.704 469.297 150.2 469.657 149.864C470.041 149.504 470.569 149.324 471.241 149.324H472.753V146.588C472.753 145.676 472.993 144.992 473.473 144.536C473.953 144.056 474.625 143.816 475.489 143.816C476.377 143.816 477.049 144.056 477.505 144.536C477.961 144.992 478.189 145.676 478.189 146.588V149.324H481.609C482.281 149.324 482.797 149.504 483.157 149.864C483.517 150.2 483.697 150.704 483.697 151.376C483.697 152 483.517 152.492 483.157 152.852C482.797 153.212 482.281 153.392 481.609 153.392H478.189V159.944C478.189 160.952 478.417 161.708 478.873 162.212C479.353 162.716 480.109 162.968 481.141 162.968C481.501 162.968 481.837 162.932 482.149 162.86C482.461 162.788 482.749 162.74 483.013 162.716C483.349 162.692 483.625 162.8 483.841 163.04C484.057 163.256 484.165 163.748 484.165 164.516C484.165 165.092 484.069 165.596 483.877 166.028C483.685 166.46 483.349 166.772 482.869 166.964C482.557 167.084 482.125 167.18 481.573 167.252C481.045 167.348 480.589 167.396 480.205 167.396ZM494.404 167.396C492.508 167.396 490.852 167.024 489.436 166.28C488.044 165.536 486.964 164.468 486.196 163.076C485.428 161.684 485.044 160.04 485.044 158.144C485.044 156.728 485.26 155.456 485.692 154.328C486.124 153.2 486.748 152.24 487.564 151.448C488.404 150.632 489.4 150.02 490.552 149.612C491.704 149.18 492.988 148.964 494.404 148.964C496.3 148.964 497.944 149.336 499.336 150.08C500.752 150.824 501.844 151.88 502.612 153.248C503.404 154.616 503.8 156.248 503.8 158.144C503.8 159.584 503.572 160.868 503.116 161.996C502.684 163.124 502.06 164.096 501.244 164.912C500.428 165.728 499.432 166.352 498.256 166.784C497.104 167.192 495.82 167.396 494.404 167.396ZM494.404 163.328C495.196 163.328 495.88 163.136 496.456 162.752C497.032 162.368 497.488 161.804 497.824 161.06C498.16 160.292 498.328 159.32 498.328 158.144C498.328 156.392 497.968 155.108 497.248 154.292C496.528 153.452 495.58 153.032 494.404 153.032C493.636 153.032 492.952 153.212 492.352 153.572C491.776 153.932 491.32 154.496 490.984 155.264C490.672 156.008 490.516 156.968 490.516 158.144C490.516 159.896 490.876 161.204 491.596 162.068C492.316 162.908 493.252 163.328 494.404 163.328ZM512.457 159.152C511.929 159.152 511.509 158.984 511.197 158.648C510.909 158.288 510.765 157.808 510.765 157.208C510.765 156.512 510.849 155.864 511.017 155.264C511.185 154.64 511.449 154.016 511.809 153.392C512.193 152.768 512.697 152.132 513.321 151.484C513.753 150.98 514.101 150.548 514.365 150.188C514.653 149.804 514.845 149.444 514.941 149.108C515.061 148.748 515.121 148.388 515.121 148.028C515.121 147.356 514.869 146.828 514.365 146.444C513.885 146.06 513.189 145.868 512.277 145.868C511.413 145.868 510.609 145.976 509.865 146.192C509.145 146.408 508.437 146.72 507.741 147.128C507.117 147.464 506.553 147.596 506.049 147.524C505.569 147.428 505.185 147.212 504.897 146.876C504.609 146.516 504.441 146.096 504.393 145.616C504.345 145.136 504.453 144.668 504.717 144.212C504.981 143.732 505.425 143.312 506.049 142.952C507.033 142.376 508.125 141.944 509.325 141.656C510.525 141.368 511.641 141.224 512.673 141.224C514.257 141.224 515.649 141.488 516.849 142.016C518.049 142.544 518.973 143.264 519.621 144.176C520.293 145.088 520.629 146.156 520.629 147.38C520.629 148.124 520.521 148.82 520.305 149.468C520.089 150.116 519.741 150.764 519.261 151.412C518.781 152.036 518.121 152.696 517.281 153.392C516.537 154.016 515.949 154.58 515.517 155.084C515.085 155.564 514.773 156.032 514.581 156.488C514.389 156.92 514.257 157.388 514.185 157.892C514.113 158.252 513.933 158.552 513.645 158.792C513.381 159.032 512.985 159.152 512.457 159.152ZM512.385 167.18C511.425 167.18 510.657 166.892 510.081 166.316C509.529 165.74 509.253 164.996 509.253 164.084C509.253 163.196 509.529 162.476 510.081 161.924C510.657 161.348 511.425 161.06 512.385 161.06C513.345 161.06 514.089 161.348 514.617 161.924C515.169 162.476 515.445 163.196 515.445 164.084C515.445 164.996 515.169 165.74 514.617 166.316C514.089 166.892 513.345 167.18 512.385 167.18Z" fill="#1A0C06"/>
<defs>
<filter id="filter0_d_1731_26733" x="0" y="0" width="629" height="764" filterUnits="userSpaceOnUse" color-interpolation-filters="sRGB">
<feFlood flood-opacity="0" result="BackgroundImageFix"/>
<feColorMatrix in="SourceAlpha" type="matrix" values="0 0 0 0 0 0 0 0 0 0 0 0 0 0 0 0 0 0 127 0" result="hardAlpha"/>
<feOffset/>
<feGaussianBlur stdDeviation="16"/>
<feComposite in2="hardAlpha" operator="out"/>
<feColorMatrix type="matrix" values="0 0 0 0 0 0 0 0 0 0 0 0 0 0 0 0 0 0 0.1 0"/>
<feBlend mode="normal" in2="BackgroundImageFix" result="effect1_dropShadow_1731_26733"/>
<feBlend mode="normal" in="SourceGraphic" in2="effect1_dropShadow_1731_26733" result="shape"/>
</filter>
</defs>
</svg>
