<svg width="155" height="37" viewBox="0 0 155 37" fill="none" xmlns="http://www.w3.org/2000/svg">
<path d="M54.172 27.252C53.4627 27.252 52.9213 27.056 52.548 26.664C52.1747 26.272 51.988 25.7213 51.988 25.012V9.472C51.988 8.744 52.1747 8.19333 52.548 7.82C52.94 7.44667 53.4907 7.26 54.2 7.26H61.004C63.2067 7.26 64.9053 7.82 66.1 8.94C67.2947 10.0413 67.892 11.5813 67.892 13.56C67.892 15.5387 67.2947 17.088 66.1 18.208C64.9053 19.328 63.2067 19.888 61.004 19.888H56.328V25.012C56.328 25.7213 56.1413 26.272 55.768 26.664C55.4133 27.056 54.8813 27.252 54.172 27.252ZM56.328 16.528H60.276C61.396 16.528 62.2453 16.276 62.824 15.772C63.4213 15.268 63.72 14.5307 63.72 13.56C63.72 12.5893 63.4213 11.8613 62.824 11.376C62.2453 10.8907 61.396 10.648 60.276 10.648H56.328V16.528ZM74.2368 27.308C73.2288 27.308 72.3235 27.112 71.5208 26.72C70.7182 26.328 70.0928 25.796 69.6448 25.124C69.1968 24.452 68.9728 23.696 68.9728 22.856C68.9728 21.848 69.2342 21.0547 69.7568 20.476C70.2795 19.8787 71.1288 19.4587 72.3048 19.216C73.4808 18.9547 75.0395 18.824 76.9808 18.824H78.4648V21.008H77.0088C76.0568 21.008 75.2822 21.064 74.6848 21.176C74.1062 21.2693 73.6862 21.4373 73.4248 21.68C73.1822 21.9227 73.0608 22.2587 73.0608 22.688C73.0608 23.2107 73.2382 23.64 73.5928 23.976C73.9662 24.312 74.4982 24.48 75.1888 24.48C75.7302 24.48 76.2062 24.3587 76.6168 24.116C77.0462 23.8547 77.3822 23.5093 77.6248 23.08C77.8675 22.632 77.9888 22.128 77.9888 21.568V18.348C77.9888 17.5267 77.8022 16.948 77.4288 16.612C77.0555 16.2573 76.4208 16.08 75.5248 16.08C75.0208 16.08 74.4702 16.1453 73.8728 16.276C73.2942 16.388 72.6502 16.584 71.9408 16.864C71.5302 17.0507 71.1662 17.0973 70.8488 17.004C70.5315 16.892 70.2888 16.7053 70.1208 16.444C69.9528 16.164 69.8688 15.8653 69.8688 15.548C69.8688 15.212 69.9622 14.8947 70.1488 14.596C70.3355 14.2787 70.6435 14.0453 71.0728 13.896C71.9502 13.5413 72.7715 13.2987 73.5368 13.168C74.3208 13.0373 75.0395 12.972 75.6928 12.972C77.1302 12.972 78.3062 13.1867 79.2208 13.616C80.1542 14.0267 80.8542 14.6707 81.3208 15.548C81.7875 16.4067 82.0208 17.5173 82.0208 18.88V25.096C82.0208 25.7867 81.8528 26.3187 81.5168 26.692C81.1808 27.0653 80.6955 27.252 80.0608 27.252C79.4262 27.252 78.9315 27.0653 78.5768 26.692C78.2408 26.3187 78.0728 25.7867 78.0728 25.096V24.06L78.2688 24.228C78.1568 24.8627 77.9142 25.4133 77.5408 25.88C77.1862 26.328 76.7288 26.6827 76.1688 26.944C75.6088 27.1867 74.9648 27.308 74.2368 27.308ZM90.1308 27.308C88.4694 27.308 87.2281 26.8507 86.4068 25.936C85.5854 25.0027 85.1748 23.6213 85.1748 21.792V9.164C85.1748 8.45467 85.3521 7.92267 85.7068 7.568C86.0801 7.19467 86.6121 7.008 87.3028 7.008C87.9748 7.008 88.4881 7.19467 88.8428 7.568C89.2161 7.92267 89.4028 8.45467 89.4028 9.164V21.624C89.4028 22.3893 89.5614 22.9587 89.8788 23.332C90.2148 23.6867 90.6534 23.864 91.1948 23.864C91.3441 23.864 91.4841 23.8547 91.6148 23.836C91.7454 23.8173 91.8854 23.808 92.0348 23.808C92.3334 23.7707 92.5388 23.864 92.6508 24.088C92.7814 24.2933 92.8468 24.7133 92.8468 25.348C92.8468 25.908 92.7348 26.3373 92.5108 26.636C92.2868 26.916 91.9414 27.1027 91.4748 27.196C91.2881 27.2147 91.0734 27.2333 90.8308 27.252C90.5881 27.2893 90.3548 27.308 90.1308 27.308ZM100.97 27.308C99.4956 27.308 98.2076 27.0187 97.1063 26.44C96.0236 25.8613 95.1836 25.0307 94.5863 23.948C93.9889 22.8653 93.6903 21.5867 93.6903 20.112C93.6903 19.0107 93.8583 18.0213 94.1943 17.144C94.5303 16.2667 95.0156 15.52 95.6503 14.904C96.3036 14.2693 97.0783 13.7933 97.9743 13.476C98.8703 13.14 99.8689 12.972 100.97 12.972C102.445 12.972 103.724 13.2613 104.806 13.84C105.908 14.4187 106.757 15.24 107.354 16.304C107.97 17.368 108.278 18.6373 108.278 20.112C108.278 21.232 108.101 22.2307 107.746 23.108C107.41 23.9853 106.925 24.7413 106.29 25.376C105.656 26.0107 104.881 26.496 103.966 26.832C103.07 27.1493 102.072 27.308 100.97 27.308ZM100.97 24.144C101.586 24.144 102.118 23.9947 102.566 23.696C103.014 23.3973 103.369 22.9587 103.63 22.38C103.892 21.7827 104.022 21.0267 104.022 20.112C104.022 18.7493 103.742 17.7507 103.182 17.116C102.622 16.4627 101.885 16.136 100.97 16.136C100.373 16.136 99.8409 16.276 99.3743 16.556C98.9263 16.836 98.5716 17.2747 98.3103 17.872C98.0676 18.4507 97.9463 19.1973 97.9463 20.112C97.9463 21.4747 98.2263 22.492 98.7863 23.164C99.3463 23.8173 100.074 24.144 100.97 24.144ZM117.459 27.308C115.984 27.308 114.696 27.0187 113.595 26.44C112.512 25.8613 111.672 25.0307 111.075 23.948C110.477 22.8653 110.179 21.5867 110.179 20.112C110.179 19.0107 110.347 18.0213 110.683 17.144C111.019 16.2667 111.504 15.52 112.139 14.904C112.792 14.2693 113.567 13.7933 114.463 13.476C115.359 13.14 116.357 12.972 117.459 12.972C118.933 12.972 120.212 13.2613 121.295 13.84C122.396 14.4187 123.245 15.24 123.843 16.304C124.459 17.368 124.767 18.6373 124.767 20.112C124.767 21.232 124.589 22.2307 124.235 23.108C123.899 23.9853 123.413 24.7413 122.779 25.376C122.144 26.0107 121.369 26.496 120.455 26.832C119.559 27.1493 118.56 27.308 117.459 27.308ZM117.459 24.144C118.075 24.144 118.607 23.9947 119.055 23.696C119.503 23.3973 119.857 22.9587 120.119 22.38C120.38 21.7827 120.511 21.0267 120.511 20.112C120.511 18.7493 120.231 17.7507 119.671 17.116C119.111 16.4627 118.373 16.136 117.459 16.136C116.861 16.136 116.329 16.276 115.863 16.556C115.415 16.836 115.06 17.2747 114.799 17.872C114.556 18.4507 114.435 19.1973 114.435 20.112C114.435 21.4747 114.715 22.492 115.275 23.164C115.835 23.8173 116.563 24.144 117.459 24.144ZM128.269 27C127.858 27 127.513 26.8973 127.233 26.692C126.953 26.468 126.766 26.188 126.673 25.852C126.579 25.516 126.579 25.152 126.673 24.76C126.785 24.368 126.999 24.004 127.317 23.668L134.177 15.436V16.416H128.101C127.597 16.416 127.205 16.276 126.925 15.996C126.645 15.716 126.505 15.3333 126.505 14.848C126.505 14.3253 126.645 13.9333 126.925 13.672C127.205 13.392 127.597 13.252 128.101 13.252H136.193C136.697 13.252 137.098 13.364 137.397 13.588C137.695 13.812 137.891 14.092 137.985 14.428C138.097 14.7453 138.106 15.1 138.013 15.492C137.938 15.8653 137.742 16.22 137.425 16.556L130.397 24.956V23.864H136.893C137.957 23.864 138.489 24.3867 138.489 25.432C138.489 25.936 138.349 26.328 138.069 26.608C137.789 26.8693 137.397 27 136.893 27H128.269ZM145.057 27.308C144.049 27.308 143.144 27.112 142.341 26.72C141.538 26.328 140.913 25.796 140.465 25.124C140.017 24.452 139.793 23.696 139.793 22.856C139.793 21.848 140.054 21.0547 140.577 20.476C141.1 19.8787 141.949 19.4587 143.125 19.216C144.301 18.9547 145.86 18.824 147.801 18.824H149.285V21.008H147.829C146.877 21.008 146.102 21.064 145.505 21.176C144.926 21.2693 144.506 21.4373 144.245 21.68C144.002 21.9227 143.881 22.2587 143.881 22.688C143.881 23.2107 144.058 23.64 144.413 23.976C144.786 24.312 145.318 24.48 146.009 24.48C146.55 24.48 147.026 24.3587 147.437 24.116C147.866 23.8547 148.202 23.5093 148.445 23.08C148.688 22.632 148.809 22.128 148.809 21.568V18.348C148.809 17.5267 148.622 16.948 148.249 16.612C147.876 16.2573 147.241 16.08 146.345 16.08C145.841 16.08 145.29 16.1453 144.693 16.276C144.114 16.388 143.47 16.584 142.761 16.864C142.35 17.0507 141.986 17.0973 141.669 17.004C141.352 16.892 141.109 16.7053 140.941 16.444C140.773 16.164 140.689 15.8653 140.689 15.548C140.689 15.212 140.782 14.8947 140.969 14.596C141.156 14.2787 141.464 14.0453 141.893 13.896C142.77 13.5413 143.592 13.2987 144.357 13.168C145.141 13.0373 145.86 12.972 146.513 12.972C147.95 12.972 149.126 13.1867 150.041 13.616C150.974 14.0267 151.674 14.6707 152.141 15.548C152.608 16.4067 152.841 17.5173 152.841 18.88V25.096C152.841 25.7867 152.673 26.3187 152.337 26.692C152.001 27.0653 151.516 27.252 150.881 27.252C150.246 27.252 149.752 27.0653 149.397 26.692C149.061 26.3187 148.893 25.7867 148.893 25.096V24.06L149.089 24.228C148.977 24.8627 148.734 25.4133 148.361 25.88C148.006 26.328 147.549 26.6827 146.989 26.944C146.429 27.1867 145.785 27.308 145.057 27.308Z" fill="white"/>
<path fill-rule="evenodd" clip-rule="evenodd" d="M21.6579 4.95694C25.0507 3.95773 27.3774 2.267 27.6852 0.320395C28.4033 1.4838 28.8 2.76142 28.8 4.10201C28.8 6.316 27.7179 8.35825 25.8935 9.99787C26.6421 11.6095 27.06 13.4059 27.06 15.3C27.06 22.2588 21.4188 27.9 14.46 27.9C7.50123 27.9 1.86002 22.2588 1.86002 15.3C1.86002 13.4356 2.26496 11.6657 2.99168 10.0736C1.11582 8.42135 0 6.35023 0 4.10201C0 2.63721 0.473669 1.24758 1.3226 0C1.41155 2.06437 3.76703 3.87466 7.29804 4.93198C9.33171 3.5245 11.7996 2.69996 14.46 2.69996C17.1361 2.69996 19.6174 3.53426 21.6579 4.95694Z" fill="white"/>
<ellipse cx="14.46" cy="15.2999" rx="10.2" ry="10.2" fill="#E76060"/>
<path d="M4.26001 15.2999C4.26001 9.66656 8.8267 5.09985 14.46 5.09985C20.0933 5.09985 24.66 9.66656 24.66 15.2999C24.66 20.9332 20.0933 25.4999 14.46 25.4999C8.8267 25.4999 4.26001 20.9332 4.26001 15.2999Z" fill="url(#paint0_radial_1731_25705)"/>
<path d="M4.26001 15.2999C4.26001 9.66656 8.8267 5.09985 14.46 5.09985C20.0933 5.09985 24.66 9.66656 24.66 15.2999C24.66 20.9332 20.0933 25.4999 14.46 25.4999C8.8267 25.4999 4.26001 20.9332 4.26001 15.2999Z" fill="white" fill-opacity="0.1"/>
<path fill-rule="evenodd" clip-rule="evenodd" d="M18.9601 16.6199C19.7885 16.6199 20.4601 15.9483 20.4601 15.1199C20.4601 14.2914 19.7885 13.6199 18.9601 13.6199C18.1316 13.6199 17.4601 14.2914 17.4601 15.1199C17.4601 15.9483 18.1316 16.6199 18.9601 16.6199ZM16.02 15.1199C16.02 15.9483 15.3485 16.6199 14.52 16.6199C13.6916 16.6199 13.02 15.9483 13.02 15.1199C13.02 14.2915 13.6916 13.6199 14.52 13.6199C15.3485 13.6199 16.02 14.2915 16.02 15.1199ZM11.58 15.1201C11.58 15.9485 10.9085 16.6201 10.08 16.6201C9.25161 16.6201 8.58003 15.9485 8.58003 15.1201C8.58003 14.2916 9.25161 13.6201 10.08 13.6201C10.9085 13.6201 11.58 14.2916 11.58 15.1201Z" fill="black"/>
<path d="M39.6 23.8627C39.6 30.8215 33.9588 36.4627 27 36.4627C20.0412 36.4627 14.4 30.8215 14.4 23.8627C14.4 16.9039 20.0412 11.2627 27 11.2627C33.9588 11.2627 39.6 16.9039 39.6 23.8627Z" fill="white"/>
<ellipse cx="27" cy="23.8626" rx="10.2" ry="10.2" fill="#E76060"/>
<path opacity="0.4" d="M37.2 23.8626C37.2 18.2293 32.6333 13.6626 27 13.6626C21.3667 13.6626 16.8 18.2293 16.8 23.8626C16.8 29.4959 21.3667 34.0626 27 34.0626H32.808C35.2337 34.0626 37.2 32.0962 37.2 29.6706V23.8626Z" fill="white"/>
<path d="M16.8 23.8626C16.8 18.2293 21.3667 13.6626 27 13.6626C32.6333 13.6626 37.2 18.2293 37.2 23.8626C37.2 29.4959 32.6333 34.0626 27 34.0626C21.3667 34.0626 16.8 29.4959 16.8 23.8626Z" fill="url(#paint1_radial_1731_25705)"/>
<path d="M16.8 23.8626C16.8 18.2293 21.3667 13.6626 27 13.6626C32.6333 13.6626 37.2 18.2293 37.2 23.8626C37.2 29.4959 32.6333 34.0626 27 34.0626C21.3667 34.0626 16.8 29.4959 16.8 23.8626Z" fill="white" fill-opacity="0.1"/>
<path fill-rule="evenodd" clip-rule="evenodd" d="M24.12 23.6826C24.12 24.511 23.4484 25.1826 22.62 25.1826C21.7916 25.1826 21.12 24.511 21.12 23.6826C21.12 22.8542 21.7916 22.1826 22.62 22.1826C23.4484 22.1826 24.12 22.8542 24.12 23.6826ZM28.56 23.6826C28.56 24.511 27.8884 25.1826 27.06 25.1826C26.2316 25.1826 25.56 24.511 25.56 23.6826C25.56 22.8542 26.2316 22.1826 27.06 22.1826C27.8884 22.1826 28.56 22.8542 28.56 23.6826ZM31.5 25.1826C32.3284 25.1826 33 24.511 33 23.6826C33 22.8542 32.3284 22.1826 31.5 22.1826C30.6716 22.1826 30 22.8542 30 23.6826C30 24.511 30.6716 25.1826 31.5 25.1826Z" fill="black"/>
<ellipse cx="39.1755" cy="11.8578" rx="6.264" ry="1.99357" transform="rotate(38 39.1755 11.8578)" stroke="black" stroke-width="2"/>
<defs>
<radialGradient id="paint0_radial_1731_25705" cx="0" cy="0" r="1" gradientUnits="userSpaceOnUse" gradientTransform="translate(4.26001 5.09985) rotate(45) scale(28.85 22.921)">
<stop offset="0.234375" stop-color="#FF9255"/>
<stop offset="0.604167" stop-color="#FF355B"/>
<stop offset="0.953125" stop-color="#FF0C57"/>
</radialGradient>
<radialGradient id="paint1_radial_1731_25705" cx="0" cy="0" r="1" gradientUnits="userSpaceOnUse" gradientTransform="translate(16.8 13.6626) rotate(45) scale(28.85 22.921)">
<stop offset="0.234375" stop-color="#E2FF95"/>
<stop offset="0.604167" stop-color="#AFFFC1"/>
<stop offset="0.953125" stop-color="#72FFF4"/>
</radialGradient>
</defs>
</svg>
