<svg width="219" height="261" viewBox="0 0 219 261" fill="none" xmlns="http://www.w3.org/2000/svg">
<path d="M208.11 191.935C202.8 183.257 196.293 175.789 187.773 170.158C186.617 169.395 186.405 168.431 186.475 167.183C186.705 163.133 186.189 159.152 185.414 155.184C183.081 143.225 178.124 132.422 171.231 122.444C161.3 108.073 149.863 95.113 135.712 84.7174C134.285 83.6668 133.705 82.4898 133.621 80.6994C133.338 74.6764 131.577 69.1267 127.987 64.1861C121.969 55.8995 115.095 48.3988 107.528 41.5177C94.3402 29.5286 78.9949 21.5585 61.7674 17.162C50.3035 14.2371 38.6304 12.3139 26.9681 10.3582C23.7283 9.81664 20.4807 9.31356 17.2394 8.79199C17.235 8.58244 17.229 8.3698 17.2215 8.16179C18.9109 7.62211 20.5941 7.06239 22.2927 6.54889C23.4312 6.20347 24.4636 5.67627 25.2772 4.81167C26.6236 3.37684 26.1873 1.66201 24.3234 1.03379C23.275 0.679651 22.1968 0.821663 21.1278 0.966754C16.5975 1.5857 12.1362 2.58984 7.66105 3.4969C6.3452 3.76532 5.04161 4.11231 3.75957 4.50245C1.78636 5.10692 0.53575 6.43232 0.226721 8.49248C-0.068346 10.4725 1.12573 11.6356 2.6408 12.6075C6.93478 15.3676 10.9291 18.5392 14.9806 21.6322C16.7575 22.9893 18.5313 24.3556 20.3174 25.7003C21.1403 26.321 22.0683 26.7815 23.016 26.0463C24.0394 25.2541 23.8755 24.1463 23.4586 23.1032C23.2648 22.6148 22.9136 22.182 22.6118 21.7398C21.3921 19.962 19.8915 18.4246 18.4048 16.8764C17.6899 16.1324 16.7312 15.5872 16.1832 14.5441C16.8529 14.1942 17.3647 14.3929 17.8659 14.5006C32.8397 17.6973 47.8973 20.5289 62.6233 24.8043C70.9168 27.2106 78.8361 30.4814 86.2886 34.8556C100.656 43.2913 112.106 54.8741 122.046 68.0504C124.016 70.6585 125.519 73.5965 126.082 77.4038C124.764 76.5567 123.793 75.9637 122.858 75.326C115.832 70.5388 108.153 67.1631 99.9764 64.9293C91.601 62.637 83.3727 62.8393 75.2874 66.4313C67.2053 70.0218 65.9855 78.8279 68.7586 84.7733C70.5714 88.6573 73.1422 91.9433 76.5094 94.5773C85.2964 101.446 95.2716 104.818 106.46 104.573C116.094 104.361 123.924 100.443 130.113 93.1316C131.741 91.2098 131.853 91.2113 133.947 92.8949C142.488 99.7635 150.193 107.446 156.945 116.093C161.854 122.377 166.536 128.808 170.439 135.757C175.005 143.879 177.641 152.676 179.056 161.856C179.171 162.611 179.462 163.432 178.934 164.181C178.122 164.44 177.543 163.921 176.943 163.593C174.031 162.002 171.013 160.638 167.944 159.395C162.465 157.173 156.764 156.136 150.852 156.744C140.382 157.816 135.379 164.377 136.655 174.82C138.132 186.941 150.995 195.747 161.973 193.028C167.482 191.666 172.441 189.428 176.641 185.57C179.374 183.066 181.681 180.227 183.529 177.025C184.187 175.88 184.861 175.77 185.874 176.562C188.136 178.319 190.36 180.115 192.455 182.072C196.948 186.265 200.367 191.279 203.585 196.456C208.809 204.854 212.392 213.871 213.313 223.76C214.724 238.921 205.279 253.911 189.13 257.531C187.721 257.846 186.33 258.133 184.896 257.64C184.197 257.4 183.42 257.234 183.12 258.192C182.849 259.048 183.478 259.519 184.096 259.899C185.634 260.848 187.345 260.821 189.052 260.635C194.237 260.074 199.066 258.347 203.282 255.355C215.143 246.932 220.277 235.308 218.707 220.931C217.567 210.443 213.608 200.92 208.11 191.935ZM125.238 88.5981C123.695 91.0283 120.009 94.0631 116.108 96.0116C114.28 97.086 111.948 97.6967 109.531 97.9839C98.7844 99.2669 89.1124 96.5866 80.5981 89.9477C77.593 87.6063 75.2255 84.6886 74.193 80.9307C73.1174 77.025 74.371 74.2466 78.0834 72.6232C83.9575 70.0548 90.0528 69.9054 96.2282 71.3678C104.787 73.395 112.521 77.2129 119.729 82.1634C121.425 83.3263 123.128 84.4815 124.764 85.7199C126.168 86.7782 126.177 87.1202 125.238 88.5981ZM177.397 173.766C174.809 178.527 171.039 182.128 166.199 184.892C164.007 185.69 161.682 186.601 159.195 187.035C152.855 188.138 144.241 182.573 143.077 174.446C142.071 167.437 144.436 164.149 151.453 163.243C155.155 162.765 158.766 163.263 162.322 164.29C167.337 165.739 171.942 168.124 176.503 170.593C178.317 171.577 178.395 171.927 177.397 173.766Z" fill="#FF0C57"/>
</svg>
