<svg width="177" height="50" viewBox="0 0 177 50" fill="none" xmlns="http://www.w3.org/2000/svg">
<path d="M55.066 36.306C54.2047 36.306 53.5473 36.068 53.094 35.592C52.6407 35.116 52.414 34.4473 52.414 33.586V14.716C52.414 13.832 52.6407 13.1633 53.094 12.71C53.57 12.2567 54.2387 12.03 55.1 12.03H63.362C66.0367 12.03 68.0993 12.71 69.55 14.07C71.0007 15.4073 71.726 17.2773 71.726 19.68C71.726 22.0827 71.0007 23.964 69.55 25.324C68.0993 26.684 66.0367 27.364 63.362 27.364H57.684V33.586C57.684 34.4473 57.4573 35.116 57.004 35.592C56.5733 36.068 55.9273 36.306 55.066 36.306ZM57.684 23.284H62.478C63.838 23.284 64.8693 22.978 65.572 22.366C66.2973 21.754 66.66 20.8587 66.66 19.68C66.66 18.5013 66.2973 17.6173 65.572 17.028C64.8693 16.4387 63.838 16.144 62.478 16.144H57.684V23.284ZM79.4305 36.374C78.2065 36.374 77.1071 36.136 76.1325 35.66C75.1578 35.184 74.3985 34.538 73.8545 33.722C73.3105 32.906 73.0385 31.988 73.0385 30.968C73.0385 29.744 73.3558 28.7807 73.9905 28.078C74.6251 27.3527 75.6565 26.8427 77.0845 26.548C78.5125 26.2307 80.4051 26.072 82.7625 26.072H84.5645V28.724H82.7965C81.6405 28.724 80.6998 28.792 79.9745 28.928C79.2718 29.0413 78.7618 29.2453 78.4445 29.54C78.1498 29.8347 78.0025 30.2427 78.0025 30.764C78.0025 31.3987 78.2178 31.92 78.6485 32.328C79.1018 32.736 79.7478 32.94 80.5865 32.94C81.2438 32.94 81.8218 32.7927 82.3205 32.498C82.8418 32.1807 83.2498 31.7613 83.5445 31.24C83.8391 30.696 83.9865 30.084 83.9865 29.404V25.494C83.9865 24.4967 83.7598 23.794 83.3065 23.386C82.8531 22.9553 82.0825 22.74 80.9945 22.74C80.3825 22.74 79.7138 22.8193 78.9885 22.978C78.2858 23.114 77.5038 23.352 76.6425 23.692C76.1438 23.9187 75.7018 23.9753 75.3165 23.862C74.9311 23.726 74.6365 23.4993 74.4325 23.182C74.2285 22.842 74.1265 22.4793 74.1265 22.094C74.1265 21.686 74.2398 21.3007 74.4665 20.938C74.6931 20.5527 75.0671 20.2693 75.5885 20.088C76.6538 19.6573 77.6511 19.3627 78.5805 19.204C79.5325 19.0453 80.4051 18.966 81.1985 18.966C82.9438 18.966 84.3718 19.2267 85.4825 19.748C86.6158 20.2467 87.4658 21.0287 88.0325 22.094C88.5991 23.1367 88.8825 24.4853 88.8825 26.14V33.688C88.8825 34.5267 88.6785 35.1727 88.2705 35.626C87.8625 36.0793 87.2731 36.306 86.5025 36.306C85.7318 36.306 85.1311 36.0793 84.7005 35.626C84.2925 35.1727 84.0885 34.5267 84.0885 33.688V32.43L84.3265 32.634C84.1905 33.4047 83.8958 34.0733 83.4425 34.64C83.0118 35.184 82.4565 35.6147 81.7765 35.932C81.0965 36.2267 80.3145 36.374 79.4305 36.374ZM98.7302 36.374C96.7129 36.374 95.2056 35.8187 94.2082 34.708C93.2109 33.5747 92.7122 31.8973 92.7122 29.676V14.342C92.7122 13.4807 92.9276 12.8347 93.3582 12.404C93.8116 11.9507 94.4576 11.724 95.2962 11.724C96.1122 11.724 96.7356 11.9507 97.1662 12.404C97.6196 12.8347 97.8462 13.4807 97.8462 14.342V29.472C97.8462 30.4013 98.0389 31.0927 98.4242 31.546C98.8322 31.9767 99.3649 32.192 100.022 32.192C100.204 32.192 100.374 32.1807 100.532 32.158C100.691 32.1353 100.861 32.124 101.042 32.124C101.405 32.0787 101.654 32.192 101.79 32.464C101.949 32.7133 102.028 33.2233 102.028 33.994C102.028 34.674 101.892 35.1953 101.62 35.558C101.348 35.898 100.929 36.1247 100.362 36.238C100.136 36.2607 99.8749 36.2833 99.5802 36.306C99.2856 36.3513 99.0022 36.374 98.7302 36.374ZM111.892 36.374C110.102 36.374 108.538 36.0227 107.2 35.32C105.886 34.6173 104.866 33.6087 104.14 32.294C103.415 30.9793 103.052 29.4267 103.052 27.636C103.052 26.2987 103.256 25.0973 103.664 24.032C104.072 22.9667 104.662 22.06 105.432 21.312C106.226 20.5413 107.166 19.9633 108.254 19.578C109.342 19.17 110.555 18.966 111.892 18.966C113.683 18.966 115.236 19.3173 116.55 20.02C117.888 20.7227 118.919 21.72 119.644 23.012C120.392 24.304 120.766 25.8453 120.766 27.636C120.766 28.996 120.551 30.2087 120.12 31.274C119.712 32.3393 119.123 33.2573 118.352 34.028C117.582 34.7987 116.641 35.388 115.53 35.796C114.442 36.1813 113.23 36.374 111.892 36.374ZM111.892 32.532C112.64 32.532 113.286 32.3507 113.83 31.988C114.374 31.6253 114.805 31.0927 115.122 30.39C115.44 29.6647 115.598 28.7467 115.598 27.636C115.598 25.9813 115.258 24.7687 114.578 23.998C113.898 23.2047 113.003 22.808 111.892 22.808C111.167 22.808 110.521 22.978 109.954 23.318C109.41 23.658 108.98 24.1907 108.662 24.916C108.368 25.6187 108.22 26.5253 108.22 27.636C108.22 29.2907 108.56 30.526 109.24 31.342C109.92 32.1353 110.804 32.532 111.892 32.532ZM131.914 36.374C130.123 36.374 128.559 36.0227 127.222 35.32C125.907 34.6173 124.887 33.6087 124.162 32.294C123.437 30.9793 123.074 29.4267 123.074 27.636C123.074 26.2987 123.278 25.0973 123.686 24.032C124.094 22.9667 124.683 22.06 125.454 21.312C126.247 20.5413 127.188 19.9633 128.276 19.578C129.364 19.17 130.577 18.966 131.914 18.966C133.705 18.966 135.257 19.3173 136.572 20.02C137.909 20.7227 138.941 21.72 139.666 23.012C140.414 24.304 140.788 25.8453 140.788 27.636C140.788 28.996 140.573 30.2087 140.142 31.274C139.734 32.3393 139.145 33.2573 138.374 34.028C137.603 34.7987 136.663 35.388 135.552 35.796C134.464 36.1813 133.251 36.374 131.914 36.374ZM131.914 32.532C132.662 32.532 133.308 32.3507 133.852 31.988C134.396 31.6253 134.827 31.0927 135.144 30.39C135.461 29.6647 135.62 28.7467 135.62 27.636C135.62 25.9813 135.28 24.7687 134.6 23.998C133.92 23.2047 133.025 22.808 131.914 22.808C131.189 22.808 130.543 22.978 129.976 23.318C129.432 23.658 129.001 24.1907 128.684 24.916C128.389 25.6187 128.242 26.5253 128.242 27.636C128.242 29.2907 128.582 30.526 129.262 31.342C129.942 32.1353 130.826 32.532 131.914 32.532ZM145.041 36C144.542 36 144.123 35.8753 143.783 35.626C143.443 35.354 143.216 35.014 143.103 34.606C142.989 34.198 142.989 33.756 143.103 33.28C143.239 32.804 143.499 32.362 143.885 31.954L152.215 21.958V23.148H144.837C144.225 23.148 143.749 22.978 143.409 22.638C143.069 22.298 142.899 21.8333 142.899 21.244C142.899 20.6093 143.069 20.1333 143.409 19.816C143.749 19.476 144.225 19.306 144.837 19.306H154.663C155.275 19.306 155.762 19.442 156.125 19.714C156.487 19.986 156.725 20.326 156.839 20.734C156.975 21.1193 156.986 21.55 156.873 22.026C156.782 22.4793 156.544 22.91 156.159 23.318L147.625 33.518V32.192H155.513C156.805 32.192 157.451 32.8267 157.451 34.096C157.451 34.708 157.281 35.184 156.941 35.524C156.601 35.8413 156.125 36 155.513 36H145.041ZM165.427 36.374C164.203 36.374 163.103 36.136 162.129 35.66C161.154 35.184 160.395 34.538 159.851 33.722C159.307 32.906 159.035 31.988 159.035 30.968C159.035 29.744 159.352 28.7807 159.987 28.078C160.621 27.3527 161.653 26.8427 163.081 26.548C164.509 26.2307 166.401 26.072 168.759 26.072H170.561V28.724H168.793C167.637 28.724 166.696 28.792 165.971 28.928C165.268 29.0413 164.758 29.2453 164.441 29.54C164.146 29.8347 163.999 30.2427 163.999 30.764C163.999 31.3987 164.214 31.92 164.645 32.328C165.098 32.736 165.744 32.94 166.583 32.94C167.24 32.94 167.818 32.7927 168.317 32.498C168.838 32.1807 169.246 31.7613 169.541 31.24C169.835 30.696 169.983 30.084 169.983 29.404V25.494C169.983 24.4967 169.756 23.794 169.303 23.386C168.849 22.9553 168.079 22.74 166.991 22.74C166.379 22.74 165.71 22.8193 164.985 22.978C164.282 23.114 163.5 23.352 162.639 23.692C162.14 23.9187 161.698 23.9753 161.313 23.862C160.927 23.726 160.633 23.4993 160.429 23.182C160.225 22.842 160.123 22.4793 160.123 22.094C160.123 21.686 160.236 21.3007 160.463 20.938C160.689 20.5527 161.063 20.2693 161.585 20.088C162.65 19.6573 163.647 19.3627 164.577 19.204C165.529 19.0453 166.401 18.966 167.195 18.966C168.94 18.966 170.368 19.2267 171.479 19.748C172.612 20.2467 173.462 21.0287 174.029 22.094C174.595 23.1367 174.879 24.4853 174.879 26.14V33.688C174.879 34.5267 174.675 35.1727 174.267 35.626C173.859 36.0793 173.269 36.306 172.499 36.306C171.728 36.306 171.127 36.0793 170.697 35.626C170.289 35.1727 170.085 34.5267 170.085 33.688V32.43L170.323 32.634C170.187 33.4047 169.892 34.0733 169.439 34.64C169.008 35.184 168.453 35.6147 167.773 35.932C167.093 36.2267 166.311 36.374 165.427 36.374Z" fill="black"/>
<path fill-rule="evenodd" clip-rule="evenodd" d="M21.6579 11.9569C25.0507 10.9577 27.3774 9.267 27.6852 7.32039C28.4033 8.4838 28.8 9.76142 28.8 11.102C28.8 13.316 27.7179 15.3582 25.8935 16.9979C26.6421 18.6095 27.06 20.4059 27.06 22.3C27.06 29.2588 21.4188 34.9 14.46 34.9C7.50123 34.9 1.86002 29.2588 1.86002 22.3C1.86002 20.4356 2.26496 18.6657 2.99168 17.0736C1.11582 15.4214 0 13.3502 0 11.102C0 9.63721 0.473669 8.24758 1.3226 7C1.41155 9.06437 3.76703 10.8747 7.29804 11.932C9.33171 10.5245 11.7996 9.69996 14.46 9.69996C17.1361 9.69996 19.6174 10.5343 21.6579 11.9569Z" fill="black"/>
<ellipse cx="14.46" cy="22.2999" rx="10.2" ry="10.2" fill="#E76060"/>
<path opacity="0.4" d="M4.26004 22.2999C4.26004 16.6665 8.82673 12.0999 14.46 12.0999V12.0999C20.0933 12.0999 24.66 16.6666 24.66 22.2999V22.2999C24.66 27.9332 20.0933 32.4999 14.46 32.4999H4.26004V22.2999Z" fill="white"/>
<path d="M4.26001 22.2999C4.26001 16.6666 8.8267 12.0999 14.46 12.0999V12.0999C20.0933 12.0999 24.66 16.6666 24.66 22.2999V22.2999C24.66 27.9332 20.0933 32.4999 14.46 32.4999V32.4999C8.8267 32.4999 4.26001 27.9332 4.26001 22.2999V22.2999Z" fill="url(#paint0_radial_1731_26296)"/>
<path d="M4.26001 22.2999C4.26001 16.6666 8.8267 12.0999 14.46 12.0999V12.0999C20.0933 12.0999 24.66 16.6666 24.66 22.2999V22.2999C24.66 27.9332 20.0933 32.4999 14.46 32.4999V32.4999C8.8267 32.4999 4.26001 27.9332 4.26001 22.2999V22.2999Z" fill="white" fill-opacity="0.1"/>
<path fill-rule="evenodd" clip-rule="evenodd" d="M18.96 23.6199C19.7885 23.6199 20.46 22.9483 20.46 22.1199C20.46 21.2914 19.7885 20.6199 18.96 20.6199C18.1316 20.6199 17.46 21.2914 17.46 22.1199C17.46 22.9483 18.1316 23.6199 18.96 23.6199ZM16.02 22.1199C16.02 22.9483 15.3484 23.6199 14.52 23.6199C13.6916 23.6199 13.02 22.9483 13.02 22.1199C13.02 21.2915 13.6916 20.6199 14.52 20.6199C15.3484 20.6199 16.02 21.2915 16.02 22.1199ZM11.58 22.1201C11.58 22.9485 10.9084 23.6201 10.08 23.6201C9.25159 23.6201 8.58002 22.9485 8.58002 22.1201C8.58002 21.2916 9.25159 20.6201 10.08 20.6201C10.9084 20.6201 11.58 21.2916 11.58 22.1201Z" fill="black"/>
<path d="M39.6 30.8627C39.6 37.8215 33.9588 43.4627 27 43.4627C20.0412 43.4627 14.4 37.8215 14.4 30.8627C14.4 23.9039 20.0412 18.2627 27 18.2627C33.9588 18.2627 39.6 23.9039 39.6 30.8627Z" fill="black"/>
<ellipse cx="27" cy="30.8626" rx="10.2" ry="10.2" fill="#E76060"/>
<path opacity="0.4" d="M37.2 30.8626C37.2 25.2293 32.6333 20.6626 27 20.6626V20.6626C21.3667 20.6626 16.8 25.2293 16.8 30.8626V30.8626C16.8 36.4959 21.3667 41.0626 27 41.0626H32.808C35.2337 41.0626 37.2 39.0962 37.2 36.6706V30.8626Z" fill="white"/>
<path d="M16.8 30.8626C16.8 25.2293 21.3667 20.6626 27 20.6626V20.6626C32.6333 20.6626 37.2 25.2293 37.2 30.8626V30.8626C37.2 36.4959 32.6333 41.0626 27 41.0626V41.0626C21.3667 41.0626 16.8 36.4959 16.8 30.8626V30.8626Z" fill="url(#paint1_radial_1731_26296)"/>
<path d="M16.8 30.8626C16.8 25.2293 21.3667 20.6626 27 20.6626V20.6626C32.6333 20.6626 37.2 25.2293 37.2 30.8626V30.8626C37.2 36.4959 32.6333 41.0626 27 41.0626V41.0626C21.3667 41.0626 16.8 36.4959 16.8 30.8626V30.8626Z" fill="white" fill-opacity="0.1"/>
<path fill-rule="evenodd" clip-rule="evenodd" d="M24.12 30.6826C24.12 31.511 23.4484 32.1826 22.62 32.1826C21.7916 32.1826 21.12 31.511 21.12 30.6826C21.12 29.8542 21.7916 29.1826 22.62 29.1826C23.4484 29.1826 24.12 29.8542 24.12 30.6826ZM28.56 30.6826C28.56 31.511 27.8884 32.1826 27.06 32.1826C26.2316 32.1826 25.56 31.511 25.56 30.6826C25.56 29.8542 26.2316 29.1826 27.06 29.1826C27.8884 29.1826 28.56 29.8542 28.56 30.6826ZM31.5 32.1826C32.3284 32.1826 33 31.511 33 30.6826C33 29.8542 32.3284 29.1826 31.5 29.1826C30.6716 29.1826 30 29.8542 30 30.6826C30 31.511 30.6716 32.1826 31.5 32.1826Z" fill="black"/>
<ellipse cx="39.1754" cy="18.8578" rx="6.264" ry="1.99357" transform="rotate(38 39.1754 18.8578)" stroke="black" stroke-width="2"/>
<defs>
<radialGradient id="paint0_radial_1731_26296" cx="0" cy="0" r="1" gradientUnits="userSpaceOnUse" gradientTransform="translate(4.26001 12.0999) rotate(45) scale(28.85 22.921)">
<stop offset="0.234375" stop-color="#FF9255"/>
<stop offset="0.604167" stop-color="#FF355B"/>
<stop offset="0.953125" stop-color="#FF0C57"/>
</radialGradient>
<radialGradient id="paint1_radial_1731_26296" cx="0" cy="0" r="1" gradientUnits="userSpaceOnUse" gradientTransform="translate(16.8 20.6626) rotate(45) scale(28.85 22.921)">
<stop offset="0.234375" stop-color="#E2FF95"/>
<stop offset="0.604167" stop-color="#AFFFC1"/>
<stop offset="0.953125" stop-color="#72FFF4"/>
</radialGradient>
</defs>
</svg>
