<svg width="374" height="230" viewBox="0 0 374 230" fill="none" xmlns="http://www.w3.org/2000/svg">
<path d="M238.728 149.192C217.483 158.846 195.144 161.22 172.708 153.961C148.444 146.108 129.506 127.351 105.075 120.503C94.6579 117.585 82.959 117.614 73.5709 122.985C63.3157 128.85 57.1344 140.604 56.5661 152.413C55.9977 164.221 60.5736 175.914 67.7671 185.29C87.2776 210.742 121.005 219.914 151.302 224.044C193.194 229.756 240.528 224.733 278.496 205.122C288.585 199.908 297.89 192.666 303.843 182.991C311.638 170.323 312.601 154.04 303.213 141.966C298.55 135.968 291.406 131.871 283.868 130.908C274.957 129.767 267.278 134.117 259.744 138.317C252.895 142.14 245.901 145.93 238.728 149.192Z" fill="#FF0C57" fill-opacity="0.5"/>
<path d="M56.9602 84.7121C54.2346 84.7121 52.0151 82.4915 52.0151 79.7646C52.0151 77.0376 54.2346 74.817 56.9602 74.817C59.6858 74.817 61.9052 77.0376 61.9052 79.7646C61.9094 82.4915 59.6899 84.7121 56.9602 84.7121ZM56.9602 75.3483C54.5291 75.3483 52.5503 77.3281 52.5503 79.7604C52.5503 82.1927 54.5291 84.1767 56.9602 84.1767C59.3954 84.1767 61.3742 82.1968 61.3742 79.7604C61.3742 77.3281 59.3954 75.3483 56.9602 75.3483Z" fill="#FFC04D"/>
<path d="M8.19114 9.89484C5.46556 9.89484 3.24609 7.67426 3.24609 4.9473C3.24609 2.22034 5.46556 -0.000244141 8.19114 -0.000244141C10.9167 -0.000244141 13.1362 2.22034 13.1362 4.9473C13.1403 7.67426 10.9209 9.89484 8.19114 9.89484ZM8.19114 0.531035C5.7601 0.531035 3.78125 2.51088 3.78125 4.94315C3.78125 7.37541 5.7601 9.35941 8.19114 9.35941C10.6263 9.35941 12.6052 7.37956 12.6052 4.94315C12.6052 2.51088 10.6263 0.531035 8.19114 0.531035Z" fill="#FFC04D"/>
<path d="M307.444 94.0718C304.718 94.0718 302.499 91.8513 302.499 89.1243C302.499 86.3973 304.718 84.1768 307.444 84.1768C310.17 84.1768 312.389 86.3973 312.389 89.1243C312.389 91.8513 310.17 94.0718 307.444 94.0718ZM307.444 84.7122C305.013 84.7122 303.034 86.692 303.034 89.1243C303.034 91.5566 305.013 93.5406 307.444 93.5406C309.879 93.5406 311.858 91.5607 311.858 89.1243C311.854 86.692 309.875 84.7122 307.444 84.7122Z" fill="#FF4A57"/>
<path d="M75.4997 201.681C75.4997 202.777 74.6119 203.665 73.5167 203.665C72.4215 203.665 71.5337 202.777 71.5337 201.681C71.5337 200.585 72.4215 199.697 73.5167 199.697C74.616 199.701 75.4997 200.585 75.4997 201.681Z" fill="#0082FF"/>
<path d="M96.0934 225.302C96.0934 226.398 95.2056 227.286 94.1104 227.286C93.0152 227.286 92.1274 226.398 92.1274 225.302C92.1274 224.206 93.0152 223.318 94.1104 223.318C95.2056 223.318 96.0934 224.206 96.0934 225.302Z" stroke="#FF4A57" stroke-width="0.325159" stroke-miterlimit="10"/>
<path d="M212.252 109.886C212.252 110.898 211.431 111.72 210.419 111.72C209.406 111.72 208.585 110.898 208.585 109.886C208.585 108.873 209.406 108.051 210.419 108.051C211.431 108.047 212.252 108.869 212.252 109.886Z" fill="#FF4A57"/>
<path d="M280.014 221.786C280.014 222.882 279.127 223.77 278.031 223.77C276.936 223.77 276.048 222.882 276.048 221.786C276.048 220.691 276.936 219.802 278.031 219.802C279.127 219.807 280.014 220.691 280.014 221.786Z" fill="#FF4A57"/>
<path d="M266.569 74.4061C266.569 75.5019 265.681 76.3901 264.586 76.3901C263.49 76.3901 262.603 75.5019 262.603 74.4061C262.603 73.3104 263.49 72.4221 264.586 72.4221C265.681 72.4221 266.569 73.3104 266.569 74.4061Z" fill="#FFC04D"/>
<path d="M49.7624 148.183C49.7624 149.279 48.8746 150.167 47.7794 150.167C46.6842 150.167 45.7964 149.279 45.7964 148.183C45.7964 147.088 46.6842 146.199 47.7794 146.199C48.8746 146.199 49.7624 147.088 49.7624 148.183Z" fill="#FF4A57"/>
<path d="M200.649 130.78C200.649 131.328 200.205 131.772 199.657 131.772C199.109 131.772 198.666 131.328 198.666 130.78C198.666 130.232 199.109 129.788 199.657 129.788C200.209 129.788 200.649 130.232 200.649 130.78Z" fill="#FFC04D"/>
<path d="M306.453 125.803C306.453 126.351 306.009 126.795 305.461 126.795C304.914 126.795 304.47 126.351 304.47 125.803C304.47 125.256 304.914 124.811 305.461 124.811C306.009 124.811 306.453 125.256 306.453 125.803Z" fill="#FFC965"/>
<path d="M129.311 108.047C129.311 108.595 128.867 109.039 128.319 109.039C127.772 109.039 127.328 108.595 127.328 108.047C127.328 107.499 127.772 107.055 128.319 107.055C128.867 107.059 129.311 107.503 129.311 108.047Z" fill="#FF4A57"/>
<path d="M307.444 177.205C307.444 177.753 307 178.197 306.453 178.197C305.905 178.197 305.461 177.753 305.461 177.205C305.461 176.657 305.905 176.213 306.453 176.213C307 176.213 307.444 176.657 307.444 177.205Z" stroke="#00B0AA" stroke-width="0.288156" stroke-miterlimit="10"/>
<path d="M97.0808 89.1242C97.0808 89.6721 96.6369 90.1162 96.0892 90.1162C95.5416 90.1162 95.0977 89.6721 95.0977 89.1242C95.0977 88.5763 95.5416 88.1322 96.0892 88.1322C96.6369 88.1322 97.0808 88.5763 97.0808 89.1242Z" stroke="#00B0AA" stroke-width="0.288156" stroke-miterlimit="10"/>
<path d="M77.1888 92.6855C77.1888 93.2334 76.7448 93.6775 76.1972 93.6775C75.6495 93.6775 75.2056 93.2334 75.2056 92.6855C75.2056 92.1376 75.6495 91.6935 76.1972 91.6935C76.7448 91.6935 77.1888 92.1417 77.1888 92.6855Z" fill="#0082FF"/>
<path d="M320.412 139.92C320.96 139.92 321.404 139.475 321.404 138.928C321.404 138.38 320.96 137.936 320.412 137.936C319.865 137.936 319.421 138.38 319.421 138.928C319.421 139.475 319.865 139.92 320.412 139.92Z" fill="#0082FF"/>
<path d="M288.863 64.2496C288.863 64.7974 288.419 65.2416 287.871 65.2416C287.324 65.2416 286.88 64.7974 286.88 64.2496C286.88 63.7017 287.324 63.2576 287.871 63.2576C288.419 63.2617 288.863 63.7017 288.863 64.2496Z" fill="#0082FF"/>
<path d="M255.26 99.1729C252.779 99.1729 250.759 97.1515 250.759 94.6694C250.759 92.1874 252.779 90.166 255.26 90.166C257.741 90.166 259.761 92.1874 259.761 94.6694C259.761 97.1515 257.741 99.1729 255.26 99.1729ZM255.26 90.6973C253.074 90.6973 251.29 92.4779 251.29 94.6694C251.29 96.8568 253.07 98.6416 255.26 98.6416C257.446 98.6416 259.23 96.861 259.23 94.6694C259.226 92.4821 257.446 90.6973 255.26 90.6973Z" fill="#00B0AA"/>
<path d="M333.291 17.8497C330.81 17.8497 328.79 15.8284 328.79 13.3463C328.79 10.8642 330.81 8.8429 333.291 8.8429C335.772 8.8429 337.792 10.8642 337.792 13.3463C337.792 15.8284 335.772 17.8497 333.291 17.8497ZM333.291 9.37417C331.104 9.37417 329.321 11.1548 329.321 13.3463C329.321 15.5337 331.1 17.3185 333.291 17.3185C335.477 17.3185 337.261 15.5378 337.261 13.3463C337.257 11.1589 335.477 9.37417 333.291 9.37417Z" fill="#00B0AA"/>
<path d="M68.1568 156.842C66.0825 156.842 64.394 155.152 64.394 153.077C64.394 151.002 66.0825 149.312 68.1568 149.312C70.231 149.312 71.9195 151.002 71.9195 153.077C71.9195 155.152 70.2269 156.842 68.1568 156.842ZM68.1568 149.848C66.377 149.848 64.9292 151.296 64.9292 153.077C64.9292 154.858 66.377 156.306 68.1568 156.306C69.9365 156.306 71.3843 154.858 71.3843 153.077C71.3843 151.296 69.9365 149.848 68.1568 149.848Z" fill="#00B0AA"/>
<path d="M301.894 158.211C300.238 158.211 298.89 156.862 298.89 155.206C298.89 153.55 300.238 152.201 301.894 152.201C303.549 152.201 304.897 153.55 304.897 155.206C304.901 156.862 303.553 158.211 301.894 158.211ZM301.894 152.732C300.533 152.732 299.421 153.841 299.421 155.206C299.421 156.572 300.529 157.68 301.894 157.68C303.254 157.68 304.366 156.572 304.366 155.206C304.366 153.841 303.259 152.732 301.894 152.732Z" fill="#FFB5D6"/>
<path d="M284.283 107.316C282.628 107.316 281.279 105.967 281.279 104.311C281.279 102.655 282.628 101.306 284.283 101.306C285.938 101.306 287.286 102.655 287.286 104.311C287.286 105.967 285.938 107.316 284.283 107.316ZM284.283 101.838C282.922 101.838 281.81 102.946 281.81 104.311C281.81 105.677 282.918 106.785 284.283 106.785C285.644 106.785 286.755 105.677 286.755 104.311C286.755 102.946 285.644 101.838 284.283 101.838Z" fill="#0082FF"/>
<path d="M308.597 205.906C306.942 205.906 305.594 204.557 305.594 202.901C305.594 201.245 306.942 199.896 308.597 199.896C310.253 199.896 311.601 201.245 311.601 202.901C311.601 204.557 310.253 205.906 308.597 205.906ZM308.597 200.427C307.237 200.427 306.125 201.536 306.125 202.901C306.125 204.262 307.232 205.375 308.597 205.375C309.958 205.375 311.07 204.267 311.07 202.901C311.066 201.54 309.958 200.427 308.597 200.427Z" fill="#FFC04D"/>
<path d="M160.321 121.81C158.317 121.81 156.687 120.179 156.687 118.174C156.687 116.17 158.317 114.538 160.321 114.538C162.324 114.538 163.955 116.17 163.955 118.174C163.955 120.179 162.324 121.81 160.321 121.81ZM160.321 115.007C158.574 115.007 157.155 116.427 157.155 118.174C157.155 119.922 158.574 121.341 160.321 121.341C162.067 121.341 163.486 119.922 163.486 118.174C163.486 116.427 162.067 115.007 160.321 115.007Z" fill="#0082FF"/>
<path d="M54.8567 224.497C53.3632 224.497 52.1519 223.281 52.1519 221.791C52.1519 220.296 53.3674 219.084 54.8567 219.084C56.3502 219.084 57.5615 220.3 57.5615 221.791C57.5615 223.281 56.3502 224.497 54.8567 224.497ZM54.8567 219.616C53.6578 219.616 52.6829 220.591 52.6829 221.791C52.6829 222.99 53.6578 223.965 54.8567 223.965C56.0556 223.965 57.0305 222.99 57.0305 221.791C57.0305 220.591 56.0556 219.616 54.8567 219.616Z" fill="#FFB5D6"/>
<path d="M281.417 114.96C281.417 117.271 282.102 119.531 283.386 121.454C284.67 123.376 286.495 124.875 288.631 125.76C290.767 126.645 293.117 126.877 295.384 126.426C297.652 125.976 299.735 124.863 301.37 123.228C303.004 121.594 304.118 119.511 304.569 117.244C305.02 114.976 304.789 112.626 303.904 110.49C303.02 108.354 301.522 106.529 299.6 105.244C297.677 103.96 295.417 103.274 293.106 103.274C290.006 103.274 287.034 104.505 284.842 106.697C282.65 108.888 281.418 111.86 281.417 114.96Z" fill="#F9F1CF"/>
<path d="M213.02 123.783C212.971 123.775 212.925 123.756 212.883 123.729C212.841 123.703 212.805 123.668 212.776 123.627C212.748 123.586 212.728 123.54 212.717 123.492C212.707 123.443 212.706 123.393 212.714 123.344L213.462 119.177L212.761 119.789C212.723 119.822 212.68 119.847 212.633 119.863C212.586 119.879 212.536 119.885 212.486 119.882C212.437 119.878 212.388 119.865 212.344 119.843C212.299 119.821 212.259 119.79 212.227 119.753C212.194 119.716 212.169 119.672 212.153 119.625C212.137 119.578 212.131 119.528 212.134 119.479C212.138 119.429 212.151 119.381 212.173 119.336C212.195 119.291 212.225 119.252 212.263 119.219L213.777 117.898C213.836 117.847 213.91 117.815 213.988 117.807C214.066 117.799 214.145 117.815 214.213 117.854C214.281 117.893 214.336 117.952 214.369 118.023C214.402 118.095 214.412 118.174 214.398 118.252L213.46 123.479C213.442 123.577 213.386 123.665 213.303 123.722C213.221 123.779 213.119 123.801 213.02 123.783Z" fill="#FC5F4F"/>
<path d="M256.335 187.566L258.655 194.809L264.987 192.55L261.816 183.226L256.335 187.566Z" fill="#FFC7C1"/>
<path d="M254.334 202.939C253.991 203.057 253.616 203.04 253.285 202.89C252.954 202.741 252.693 202.47 252.556 202.134C251.622 199.835 252.627 198.181 255.043 196.996C256.679 196.193 257.36 194.141 257.58 193.089C257.611 192.94 257.698 192.81 257.823 192.723C257.947 192.637 258.1 192.601 258.25 192.623C260.789 192.967 262.776 192.218 264.349 190.651C264.416 190.584 264.498 190.534 264.588 190.504C264.677 190.475 264.773 190.468 264.866 190.483C264.96 190.498 265.048 190.535 265.125 190.59C265.201 190.646 265.263 190.72 265.305 190.804C266.053 192.304 267.325 194.606 268.302 196.343C268.404 196.524 268.465 196.726 268.481 196.933C268.496 197.14 268.466 197.348 268.392 197.542C268.318 197.737 268.203 197.912 268.054 198.057C267.905 198.202 267.725 198.312 267.529 198.38L254.334 202.939Z" fill="#7655FF"/>
<path d="M252.966 129.986C252.966 129.986 242.172 143.719 243.851 156.909C245.093 166.668 251.375 181.789 254.143 188.109C254.503 188.933 255.142 189.603 255.947 190.002C256.753 190.401 257.673 190.504 258.546 190.292L263.598 189.064C263.92 188.986 264.202 188.791 264.388 188.517C264.575 188.244 264.653 187.91 264.608 187.582C263.376 178.668 259.924 163.209 257.326 157.431C257.326 157.431 269.202 142.972 268.146 130.214" fill="#FFA766"/>
<path d="M222.633 115.379C222.633 115.379 215.328 117.16 216.081 112.621C216.641 109.237 220.503 110.934 220.503 110.934C220.503 110.934 219.425 109.484 219.925 108.925C220.784 107.962 222.417 109.751 223.112 111.247L222.633 115.379Z" fill="#FFC7C1"/>
<path d="M285.506 82.8232C285.506 82.8232 290.246 77.3133 285.86 75.9256C282.589 74.8912 282.351 79.1025 282.351 79.1025C282.351 79.1025 281.548 77.4846 280.822 77.6759C279.574 78.0054 280.428 80.2719 281.447 81.5696L285.506 82.8232Z" fill="#FFC7C1"/>
<path d="M296.262 175.077L302.935 178.726L305.965 172.725L297.241 168.154L296.262 175.077Z" fill="#FFC7C1"/>
<path d="M305.406 187.594C305.24 187.917 304.956 188.163 304.613 188.283C304.271 188.402 303.896 188.386 303.565 188.238C301.303 187.215 300.892 185.324 301.824 182.8C302.456 181.091 301.535 179.135 300.968 178.221C300.89 178.092 300.863 177.937 300.893 177.789C300.924 177.64 301.01 177.509 301.133 177.421C303.21 175.92 304.133 174.009 304.194 171.789C304.196 171.694 304.22 171.602 304.265 171.519C304.31 171.435 304.374 171.364 304.452 171.311C304.53 171.257 304.62 171.223 304.714 171.211C304.807 171.199 304.903 171.209 304.992 171.241C306.568 171.813 309.075 172.604 310.981 173.189C311.18 173.25 311.362 173.354 311.516 173.493C311.67 173.633 311.792 173.804 311.872 173.996C311.953 174.187 311.99 174.394 311.982 174.602C311.974 174.81 311.92 175.013 311.824 175.197L305.406 187.594Z" fill="#7655FF"/>
<path d="M263.712 134.36C263.712 134.36 260.799 154.161 269.836 163.916C276.153 170.735 288.72 175.287 295.003 177.237C296.063 177.567 297.203 177.533 298.242 177.14C299.28 176.747 300.158 176.018 300.735 175.07L302.859 171.578C303.099 171.186 303.198 170.724 303.139 170.268C303.08 169.812 302.867 169.39 302.535 169.072C296.45 163.323 286.477 159.635 281.102 156.504C281.102 156.504 284.9 138.528 276.621 128.763" fill="#FFA766"/>
<path d="M263.186 148.124C263.155 148.124 263.125 148.113 263.101 148.092C263.078 148.072 263.063 148.043 263.06 148.012C262.569 143.465 262.604 138.878 263.162 134.339C263.167 134.306 263.185 134.276 263.212 134.256C263.239 134.236 263.272 134.228 263.305 134.232C263.338 134.237 263.368 134.255 263.388 134.282C263.408 134.309 263.417 134.342 263.412 134.375C262.856 138.893 262.823 143.459 263.311 147.984C263.315 148.017 263.305 148.05 263.284 148.076C263.263 148.102 263.233 148.119 263.2 148.123C263.195 148.124 263.191 148.124 263.186 148.124Z" fill="#16165C"/>
<path d="M249.764 132.713C248.629 131.994 253.066 125.73 250.937 123.057C247.956 119.316 246.586 110.99 254.943 107.736C263.3 104.481 272.449 103.249 274.032 114.685C275.616 126.121 280.68 132.08 276.367 131.813C266.883 131.224 259.312 138.76 249.764 132.713Z" fill="#7655FF"/>
<path d="M266.193 105.569C266.193 105.569 273.353 99.9577 274.849 97.3819C276.996 93.6865 277.959 84.6231 280.67 81.3098C280.969 80.6429 286.131 82.1901 286.215 83.0205C286.215 83.0205 284.819 96.25 283.385 100.398C281.668 105.368 275.626 114.918 270.521 117.04" fill="#7655FF"/>
<path d="M255.072 107.685C255.072 107.685 243.828 113.669 239.697 113.741C235.52 113.814 227.194 109.313 223.291 110.57C222.7 110.491 221.99 115.539 222.589 115.823C222.589 115.823 234.026 122.017 238.362 122.695C243.558 123.506 253.147 121 257.415 117.484" fill="#7655FF"/>
<path d="M261.535 106.17C261.524 108.883 256.681 108.834 256.696 106.12L256.711 105.751L256.713 105.654L256.73 104.878H256.739C257.966 104.827 259.146 104.394 260.115 103.64C260.526 103.337 260.899 102.986 261.229 102.596L261.535 106.17Z" fill="#FFC7C1"/>
<path d="M260.115 103.641C259.214 104.644 258.026 105.347 256.713 105.655L256.73 104.879H256.739C257.966 104.828 259.146 104.395 260.115 103.641Z" fill="#16165C"/>
<path d="M253.636 97.3939C253.691 100.965 253.324 103.758 255.269 104.594C257.624 105.605 260.835 103.787 261.966 101.487C263.096 99.1873 261.663 97.3942 259.363 96.2647C257.063 95.1351 253.596 94.8312 253.636 97.3939Z" fill="#FFC7C1"/>
<path d="M253.655 97.1328C253.655 97.1328 255.15 99.9874 259.737 98.8411C262.603 98.1248 258.574 100.764 260.69 102.114C262.077 102.999 263.331 100.027 263.573 98.9153C265.062 92.0777 252.863 90.3844 253.045 96.263C253.07 97.0941 253.03 97.9571 253.635 98.9507L253.655 97.1328Z" fill="#16165C"/>
<path d="M261.804 99.5728C261.804 99.8212 261.731 100.064 261.593 100.271C261.455 100.477 261.259 100.638 261.029 100.734C260.8 100.829 260.547 100.854 260.303 100.805C260.06 100.757 259.836 100.637 259.66 100.461C259.485 100.286 259.365 100.062 259.317 99.8182C259.268 99.5745 259.293 99.3219 259.388 99.0924C259.483 98.8629 259.645 98.6668 259.851 98.5289C260.058 98.391 260.301 98.3175 260.549 98.3177C260.882 98.318 261.201 98.4503 261.436 98.6856C261.672 98.9209 261.804 99.24 261.804 99.5728Z" fill="#16165C"/>
<path d="M261.598 102.12C261.462 102.276 261.284 102.389 261.086 102.445C260.887 102.501 260.677 102.499 260.479 102.438C260.282 102.376 260.107 102.259 259.976 102.1C259.844 101.941 259.761 101.747 259.738 101.542C259.714 101.337 259.751 101.129 259.843 100.945C259.936 100.76 260.08 100.606 260.258 100.502C260.436 100.398 260.641 100.348 260.847 100.358C261.053 100.368 261.252 100.437 261.419 100.558C261.649 100.742 261.798 101.01 261.831 101.302C261.865 101.595 261.781 101.889 261.598 102.12Z" fill="#FFC7C1"/>
<path d="M255.119 101.505C254.956 101.22 255.416 100.694 255.622 100.481C255.633 100.468 255.647 100.458 255.662 100.45C255.678 100.443 255.695 100.439 255.712 100.438C255.729 100.437 255.746 100.44 255.762 100.446C255.778 100.452 255.793 100.461 255.805 100.473C255.817 100.485 255.827 100.499 255.834 100.515C255.84 100.531 255.844 100.548 255.843 100.565C255.843 100.582 255.84 100.599 255.833 100.615C255.826 100.631 255.816 100.645 255.803 100.656C255.504 100.967 255.299 101.312 255.338 101.379C255.338 101.379 255.401 101.438 255.737 101.355C255.753 101.351 255.77 101.35 255.786 101.353C255.802 101.355 255.818 101.361 255.832 101.37C255.846 101.378 255.858 101.39 255.868 101.403C255.878 101.416 255.885 101.432 255.888 101.448C255.896 101.48 255.891 101.514 255.873 101.542C255.856 101.571 255.828 101.591 255.796 101.599C255.565 101.657 255.238 101.711 255.119 101.505Z" fill="#16165C"/>
<path d="M254.714 102.582C254.7 102.552 254.699 102.517 254.711 102.486C254.722 102.454 254.746 102.429 254.776 102.415C254.807 102.401 254.842 102.4 254.873 102.412C254.904 102.423 254.93 102.447 254.944 102.477C255.149 102.93 255.546 102.816 255.875 102.503C255.899 102.479 255.932 102.467 255.965 102.468C255.999 102.468 256.03 102.482 256.054 102.507C256.077 102.531 256.089 102.563 256.088 102.597C256.088 102.63 256.074 102.662 256.05 102.685C255.581 103.136 254.99 103.19 254.714 102.582Z" fill="#16165C"/>
<path d="M257.425 101.065C257.425 101.121 257.408 101.176 257.377 101.222C257.346 101.268 257.302 101.305 257.25 101.326C257.198 101.347 257.141 101.353 257.086 101.342C257.032 101.331 256.981 101.304 256.942 101.264C256.902 101.225 256.875 101.174 256.864 101.12C256.853 101.065 256.859 101.008 256.88 100.956C256.902 100.905 256.938 100.86 256.984 100.829C257.03 100.798 257.085 100.781 257.141 100.781C257.178 100.781 257.215 100.788 257.25 100.803C257.284 100.817 257.316 100.838 257.342 100.864C257.368 100.89 257.389 100.922 257.404 100.956C257.418 100.991 257.425 101.028 257.425 101.065Z" fill="#16165C"/>
<path d="M257.861 100.535C257.757 100.393 257.614 100.283 257.448 100.22C257.283 100.157 257.103 100.143 256.93 100.18C256.914 100.184 256.897 100.185 256.88 100.183C256.864 100.18 256.848 100.174 256.834 100.166C256.819 100.157 256.807 100.145 256.797 100.131C256.787 100.118 256.78 100.102 256.777 100.086C256.773 100.07 256.772 100.053 256.775 100.036C256.778 100.019 256.784 100.004 256.794 99.9895C256.803 99.9754 256.815 99.9633 256.829 99.9538C256.842 99.9444 256.858 99.9378 256.875 99.9345C257.098 99.8846 257.331 99.9022 257.545 99.9851C257.759 100.068 257.943 100.212 258.074 100.4C258.092 100.428 258.098 100.462 258.091 100.495C258.084 100.528 258.064 100.556 258.036 100.574C258.007 100.592 257.973 100.598 257.94 100.591C257.908 100.584 257.879 100.564 257.861 100.535Z" fill="#16165C"/>
<path d="M254.542 100.516C254.552 100.571 254.546 100.628 254.524 100.679C254.501 100.731 254.465 100.774 254.418 100.805C254.371 100.835 254.316 100.851 254.26 100.851C254.204 100.85 254.15 100.833 254.103 100.801C254.057 100.769 254.021 100.725 254 100.673C253.98 100.621 253.975 100.564 253.986 100.509C253.997 100.455 254.025 100.405 254.065 100.365C254.104 100.326 254.155 100.299 254.21 100.289C254.247 100.282 254.284 100.282 254.321 100.29C254.358 100.297 254.392 100.312 254.423 100.333C254.454 100.354 254.481 100.381 254.501 100.413C254.521 100.444 254.535 100.479 254.542 100.516Z" fill="#16165C"/>
<path d="M254.891 99.9482C254.762 99.826 254.601 99.7442 254.427 99.7129C254.252 99.6815 254.072 99.7019 253.91 99.7716C253.879 99.785 253.844 99.7856 253.813 99.7733C253.782 99.7611 253.757 99.737 253.743 99.7063C253.73 99.6756 253.729 99.6409 253.742 99.6097C253.754 99.5786 253.778 99.5536 253.809 99.5403C254.019 99.4496 254.252 99.4234 254.477 99.4651C254.702 99.5068 254.91 99.6144 255.074 99.7743C255.097 99.7987 255.109 99.8313 255.108 99.8648C255.107 99.8982 255.093 99.9298 255.068 99.9527C255.044 99.9756 255.012 99.988 254.978 99.987C254.945 99.9859 254.913 99.9716 254.89 99.9472L254.891 99.9482Z" fill="#16165C"/>
<path d="M273.883 114.538C273.763 113.689 273.579 112.849 273.334 112.026C273.329 112.011 273.328 111.994 273.329 111.977C273.331 111.961 273.336 111.945 273.343 111.93C273.351 111.916 273.362 111.903 273.375 111.892C273.387 111.882 273.402 111.874 273.418 111.869C273.434 111.864 273.451 111.863 273.467 111.864C273.484 111.866 273.5 111.87 273.514 111.878C273.529 111.886 273.542 111.897 273.552 111.91C273.563 111.922 273.571 111.937 273.575 111.953C273.824 112.787 274.011 113.639 274.133 114.501C274.138 114.534 274.13 114.568 274.11 114.595C274.09 114.622 274.06 114.64 274.027 114.645C273.993 114.649 273.96 114.641 273.933 114.621C273.906 114.601 273.888 114.571 273.883 114.538V114.538Z" fill="#16165C"/>
<path d="M249.693 121.308C249.306 120.52 249.009 119.69 248.807 118.836C248.801 118.804 248.807 118.771 248.825 118.744C248.843 118.716 248.87 118.697 248.902 118.69C248.933 118.682 248.967 118.687 248.995 118.704C249.022 118.72 249.043 118.746 249.052 118.777C249.25 119.614 249.541 120.425 249.919 121.197C249.927 121.212 249.931 121.228 249.932 121.245C249.933 121.261 249.931 121.278 249.925 121.294C249.92 121.309 249.912 121.324 249.901 121.336C249.89 121.349 249.876 121.359 249.861 121.366C249.846 121.373 249.83 121.378 249.814 121.379C249.797 121.38 249.781 121.378 249.765 121.372C249.749 121.367 249.735 121.358 249.722 121.347C249.71 121.336 249.699 121.323 249.692 121.308H249.693Z" fill="#16165C"/>
<path d="M304.294 104.181C305.345 104.181 306.198 103.329 306.198 102.277C306.198 101.225 305.345 100.372 304.294 100.372C303.242 100.372 302.389 101.225 302.389 102.277C302.389 103.329 303.242 104.181 304.294 104.181Z" fill="#FC5F4F"/>
<path d="M289.854 98.6856C290.52 98.6856 291.06 98.1457 291.06 97.4796C291.06 96.8135 290.52 96.2736 289.854 96.2736C289.188 96.2736 288.648 96.8135 288.648 97.4796C288.648 98.1457 289.188 98.6856 289.854 98.6856Z" fill="#16165C"/>
<path d="M234.003 111.731C233.973 111.717 233.95 111.692 233.939 111.661C233.927 111.63 233.928 111.596 233.941 111.566C233.954 111.536 233.979 111.512 234.009 111.5C234.039 111.487 234.073 111.487 234.104 111.5C239.273 113.768 241.754 112.296 241.779 112.282C241.807 112.265 241.841 112.26 241.873 112.268C241.905 112.276 241.932 112.297 241.949 112.324C241.967 112.352 241.972 112.386 241.965 112.418C241.958 112.45 241.939 112.478 241.911 112.496C239.999 113.679 236.276 112.728 234.003 111.731Z" fill="#16165C"/>
<path d="M290.335 177.022C280.73 175.27 271.307 168.054 271.212 167.982C271.199 167.972 271.187 167.959 271.178 167.945C271.17 167.93 271.164 167.914 271.161 167.897C271.159 167.881 271.16 167.864 271.164 167.847C271.169 167.831 271.176 167.816 271.186 167.802C271.197 167.789 271.21 167.778 271.224 167.769C271.239 167.761 271.255 167.756 271.272 167.754C271.289 167.752 271.306 167.754 271.322 167.758C271.338 167.763 271.354 167.771 271.367 167.782C271.46 167.854 280.836 175.033 290.381 176.774C290.413 176.78 290.443 176.799 290.462 176.826C290.481 176.854 290.488 176.888 290.482 176.921C290.476 176.954 290.457 176.983 290.43 177.002C290.402 177.021 290.368 177.028 290.335 177.022Z" fill="#16165C"/>
<path d="M219.568 92.8014C219.568 93.4781 219.769 94.1394 220.144 94.702C220.52 95.2646 221.055 95.7031 221.68 95.9621C222.305 96.221 222.993 96.2887 223.656 96.1567C224.32 96.0247 224.93 95.6989 225.408 95.2204C225.886 94.742 226.212 94.1324 226.344 93.4688C226.476 92.8052 226.409 92.1173 226.15 91.4922C225.891 90.8671 225.452 90.3328 224.89 89.9569C224.327 89.581 223.666 89.3804 222.989 89.3804C222.082 89.3807 221.212 89.7412 220.57 90.3827C219.929 91.0242 219.568 91.8942 219.568 92.8014Z" fill="#F9F1CF"/>
<path d="M238.692 105.655C238.692 105.936 238.609 106.211 238.452 106.445C238.296 106.679 238.074 106.862 237.814 106.969C237.555 107.077 237.269 107.106 236.993 107.051C236.717 106.996 236.463 106.861 236.264 106.662C236.065 106.463 235.93 106.21 235.875 105.934C235.82 105.658 235.848 105.372 235.955 105.112C236.063 104.852 236.245 104.63 236.478 104.474C236.712 104.317 236.987 104.234 237.268 104.234C237.646 104.233 238.007 104.383 238.274 104.65C238.541 104.916 238.691 105.278 238.692 105.655Z" fill="#16165C"/>
<path d="M210.205 115.788H209.445C209.404 115.788 209.365 115.772 209.336 115.743C209.307 115.714 209.291 115.674 209.291 115.633C209.291 115.592 209.307 115.552 209.336 115.523C209.365 115.494 209.404 115.478 209.445 115.478H210.205C210.246 115.478 210.285 115.494 210.314 115.523C210.343 115.552 210.36 115.592 210.36 115.633C210.36 115.674 210.343 115.714 210.314 115.743C210.285 115.772 210.246 115.788 210.205 115.788Z" fill="#16165C"/>
<path d="M196.042 118.886C196.024 118.875 196.01 118.861 195.998 118.844C195.987 118.827 195.978 118.809 195.974 118.789C195.97 118.769 195.97 118.748 195.973 118.728C195.977 118.708 195.984 118.689 195.995 118.672C196.625 117.692 197.491 116.885 198.514 116.327C199.537 115.769 200.683 115.477 201.849 115.478H208.065C208.106 115.478 208.146 115.494 208.175 115.524C208.204 115.553 208.22 115.592 208.22 115.633C208.22 115.674 208.204 115.714 208.175 115.743C208.146 115.772 208.106 115.788 208.065 115.788H201.849C200.735 115.787 199.639 116.066 198.662 116.599C197.685 117.133 196.857 117.903 196.256 118.84C196.233 118.875 196.198 118.899 196.158 118.907C196.118 118.916 196.076 118.909 196.042 118.886Z" fill="#16165C"/>
<path d="M201.576 127.872L199.572 130.533L205.087 127.885H212.198C213.639 127.877 215.019 127.298 216.035 126.275C217.051 125.253 217.622 123.87 217.622 122.428C217.622 120.986 217.051 119.603 216.035 118.581C215.019 117.558 213.639 116.979 212.198 116.971H201.977C200.564 116.97 199.206 117.518 198.188 118.498C197.171 119.479 196.573 120.816 196.521 122.228C196.469 123.64 196.967 125.017 197.91 126.07C198.852 127.122 200.166 127.768 201.576 127.872Z" fill="#FF79A2"/>
<path d="M213.222 121.509H200.953C200.926 121.509 200.9 121.498 200.88 121.479C200.861 121.459 200.85 121.433 200.85 121.406C200.85 121.378 200.861 121.352 200.88 121.333C200.9 121.313 200.926 121.302 200.953 121.302H213.222C213.249 121.302 213.275 121.313 213.295 121.333C213.314 121.352 213.325 121.378 213.325 121.406C213.325 121.433 213.314 121.459 213.295 121.479C213.275 121.498 213.249 121.509 213.222 121.509Z" fill="white"/>
<path d="M207.63 123.102H200.953C200.925 123.102 200.899 123.091 200.88 123.072C200.86 123.052 200.85 123.026 200.85 122.999C200.85 122.971 200.86 122.945 200.88 122.926C200.899 122.906 200.925 122.895 200.953 122.895H207.63C207.658 122.895 207.684 122.906 207.703 122.926C207.723 122.945 207.734 122.971 207.734 122.999C207.734 123.026 207.723 123.052 207.703 123.072C207.684 123.091 207.658 123.102 207.63 123.102Z" fill="white"/>
<path d="M222.855 152.184C223.013 152.89 222.933 154.166 224.69 154.129C227.236 154.075 229.448 153.2 228.882 150.839C228.349 148.61 227.332 147.906 226.356 147.767C225.228 147.607 222.625 147.785 222.599 150.344C222.631 150.963 222.717 151.579 222.855 152.184Z" fill="#FFC7C1"/>
<path d="M222.334 150.183C222.334 150.183 222.631 148.891 223.066 148.384C223.65 147.701 225.526 146.427 226.265 146.616C226.569 146.694 226.643 147.62 226.376 148.045C226.121 148.451 225.17 149.105 225.17 149.105C225.17 149.105 225.79 150.546 223.933 151.325" fill="#FFC7C1"/>
<path d="M194.929 141.405C194.929 141.405 200.89 153.909 208.716 153.121C217.293 152.259 221.48 148.974 221.48 148.974C222.764 147.7 225.616 154.361 224.056 155.561C224.056 155.561 203.824 170.556 190.518 155.293" fill="#FFB448"/>
<path d="M160.007 205.253L153.095 211.335L148.135 206.058L155.613 200.358L160.007 205.253Z" fill="#FFC7C1"/>
<path d="M155.747 208.848C153.029 208.373 150.998 205.94 150.413 204.39C150.394 204.336 150.363 204.287 150.322 204.246C150.282 204.205 150.234 204.173 150.18 204.153C150.126 204.132 150.069 204.124 150.012 204.127C149.955 204.131 149.899 204.147 149.848 204.174C148.472 204.943 147.189 205.868 146.025 206.932C145.851 207.095 145.712 207.292 145.617 207.511C145.523 207.729 145.474 207.965 145.475 208.204C145.476 208.442 145.526 208.678 145.623 208.896C145.719 209.114 145.86 209.31 146.035 209.471L155.637 218.335C155.961 218.636 156.387 218.801 156.829 218.797C157.271 218.793 157.694 218.62 158.013 218.314C158.948 217.4 159.233 216.234 157.432 212.563L156.056 209.093C156.03 209.029 155.988 208.973 155.934 208.93C155.879 208.887 155.815 208.859 155.747 208.848Z" fill="#FC5F4F"/>
<path d="M197.469 206.747L196.936 215.938L189.696 215.755L190.9 206.431L197.469 206.747Z" fill="#FFC7C1"/>
<path d="M197.032 212.304C194.784 213.904 191.626 213.637 190.111 212.963C190.059 212.939 190.003 212.926 189.945 212.926C189.888 212.926 189.831 212.938 189.779 212.962C189.727 212.986 189.681 213.02 189.643 213.064C189.605 213.107 189.578 213.158 189.561 213.213C189.14 214.732 188.896 216.295 188.835 217.871C188.828 218.109 188.87 218.346 188.96 218.567C189.049 218.789 189.182 218.989 189.353 219.156C189.523 219.323 189.726 219.453 189.949 219.537C190.172 219.622 190.41 219.66 190.648 219.648L203.701 219.051C204.142 219.032 204.559 218.845 204.867 218.529C205.175 218.212 205.35 217.789 205.355 217.348C205.364 216.04 204.734 215.018 200.858 213.718L197.423 212.257C197.359 212.231 197.29 212.221 197.221 212.23C197.153 212.238 197.088 212.263 197.032 212.304Z" fill="#FC5F4F"/>
<path d="M157.437 121.761C156.726 121.898 155.581 121.965 154.915 120.338C153.949 117.982 154.807 117.181 156.811 115.968C158.771 114.781 159.576 115.949 160.092 116.789C160.688 117.759 161.563 120.217 159.227 121.262C158.646 121.479 158.047 121.646 157.437 121.761Z" fill="#FFC7C1"/>
<path d="M159.896 120.954C159.896 120.954 160.972 119.905 160.986 119.237C161.005 118.338 160.331 116.345 159.655 115.994C159.376 115.849 158.863 116.35 158.779 116.844C158.698 117.317 158.999 118.26 158.999 118.26C158.999 118.26 157.816 118.667 158.578 120.371" fill="#FFC7C1"/>
<path d="M173.245 167.187C173.245 167.187 166.766 178.21 192.976 180.968C192.976 180.968 187.888 198.251 189.024 207.981C189.076 208.428 189.279 208.844 189.6 209.159C189.92 209.475 190.339 209.671 190.787 209.716L195.278 210.165C196.079 210.245 196.884 210.061 197.571 209.642C198.259 209.223 198.79 208.591 199.086 207.842C201.625 201.419 207.159 182.549 204.231 175.991C199.728 165.903 181.397 160.478 181.397 160.478L173.245 167.187Z" fill="#BCA9FF"/>
<path d="M168.831 159.695C168.831 159.695 157.23 162.802 174.608 182.616C174.608 182.616 158.56 193.467 153.039 201.621C152.919 201.798 152.861 202.009 152.871 202.222C152.882 202.435 152.961 202.639 153.097 202.803L155.307 205.484C156.111 206.459 157.22 207.136 158.455 207.404C159.69 207.673 160.979 207.518 162.116 206.965C169.631 203.302 185.751 192.527 187.098 185.867C189.333 174.815 179.998 160.754 179.998 160.754L168.831 159.695Z" fill="#BCA9FF"/>
<path d="M187.352 180.297C187.326 180.297 187.301 180.287 187.282 180.27C187.263 180.253 187.251 180.229 187.249 180.203C186.402 170.682 179.978 160.909 179.913 160.811C179.905 160.8 179.9 160.787 179.897 160.773C179.894 160.76 179.893 160.746 179.896 160.732C179.898 160.718 179.903 160.705 179.911 160.694C179.919 160.682 179.929 160.672 179.94 160.665C179.952 160.657 179.965 160.652 179.979 160.649C179.992 160.647 180.006 160.647 180.02 160.65C180.033 160.653 180.046 160.659 180.057 160.667C180.069 160.675 180.078 160.685 180.085 160.697C180.151 160.795 186.603 170.611 187.454 180.184C187.455 180.198 187.454 180.212 187.45 180.225C187.446 180.237 187.439 180.25 187.431 180.26C187.422 180.27 187.411 180.279 187.399 180.285C187.387 180.292 187.374 180.295 187.36 180.297L187.352 180.297Z" fill="#16165C"/>
<path d="M166.943 161.517C162.755 162.873 164.786 138.477 180.257 136.786C195.728 135.096 197.383 146.208 197.383 147.769C197.383 147.769 192.472 149.694 190.952 163.168C190.526 166.945 176.563 158.403 166.943 161.517Z" fill="#FFB448"/>
<path d="M192.059 156.941C192.032 156.934 192.009 156.916 191.996 156.893C191.982 156.869 191.978 156.841 191.985 156.814C192.406 155.126 193.002 153.486 193.761 151.92C193.767 151.907 193.775 151.896 193.785 151.886C193.796 151.877 193.808 151.87 193.821 151.865C193.834 151.861 193.847 151.859 193.861 151.86C193.875 151.861 193.889 151.864 193.901 151.871C193.913 151.877 193.924 151.885 193.933 151.896C193.942 151.906 193.949 151.919 193.953 151.932C193.957 151.945 193.959 151.959 193.958 151.973C193.956 151.986 193.952 152 193.946 152.012C193.193 153.565 192.603 155.192 192.185 156.867C192.178 156.894 192.16 156.916 192.137 156.93C192.113 156.944 192.085 156.948 192.059 156.941Z" fill="#16165C"/>
<path d="M180.541 136.756C175.933 137.259 166.323 137.692 163.759 132.992C159.795 125.727 160.899 120.901 160.899 120.901C161.246 119.825 154.542 120.684 154.604 122.082C154.604 122.082 152.711 145.315 169.906 146.681" fill="#FFB448"/>
<path d="M191.557 126.262C191.557 126.805 191.395 127.336 191.093 127.787C190.792 128.238 190.363 128.59 189.861 128.797C189.36 129.005 188.808 129.059 188.275 128.953C187.743 128.846 187.254 128.585 186.87 128.201C186.487 127.817 186.225 127.328 186.12 126.795C186.014 126.263 186.068 125.711 186.276 125.21C186.484 124.708 186.836 124.279 187.287 123.978C187.738 123.676 188.269 123.515 188.812 123.515C189.173 123.515 189.53 123.587 189.863 123.725C190.196 123.863 190.499 124.065 190.754 124.32C191.009 124.575 191.211 124.878 191.349 125.211C191.486 125.545 191.557 125.902 191.557 126.262Z" fill="#16165C"/>
<path d="M184.734 132.948C184.734 133.511 184.567 134.06 184.254 134.528C183.941 134.996 183.497 135.36 182.977 135.575C182.457 135.79 181.885 135.846 181.333 135.737C180.782 135.627 180.275 135.356 179.877 134.958C179.479 134.56 179.209 134.053 179.099 133.501C178.989 132.949 179.046 132.377 179.261 131.858C179.476 131.338 179.841 130.894 180.309 130.581C180.777 130.268 181.327 130.102 181.889 130.102C182.263 130.102 182.633 130.175 182.978 130.318C183.323 130.461 183.637 130.671 183.901 130.935C184.165 131.2 184.375 131.514 184.518 131.859C184.661 132.204 184.734 132.574 184.734 132.948Z" fill="#16165C"/>
<path d="M184.409 133.248L179.749 129.593C179.738 129.584 179.729 129.574 179.722 129.562C179.716 129.55 179.711 129.537 179.71 129.524C179.708 129.51 179.709 129.497 179.713 129.484C179.716 129.471 179.723 129.458 179.731 129.448C179.739 129.437 179.75 129.428 179.762 129.421C179.773 129.415 179.786 129.41 179.8 129.409C179.813 129.407 179.827 129.408 179.84 129.412C179.853 129.416 179.865 129.422 179.876 129.43L184.537 133.086C184.547 133.094 184.556 133.105 184.563 133.116C184.57 133.128 184.574 133.141 184.575 133.155C184.577 133.168 184.576 133.182 184.572 133.195C184.569 133.208 184.563 133.22 184.554 133.231C184.546 133.241 184.535 133.25 184.524 133.257C184.512 133.264 184.499 133.268 184.485 133.27C184.472 133.271 184.458 133.27 184.445 133.267C184.432 133.263 184.42 133.257 184.409 133.248Z" fill="#16165C"/>
<path d="M188.37 134.882L188.14 136.052L188.136 136.07L188.113 136.167L188.019 136.61C187.222 139.862 181.721 139.919 182.522 136.669L183.594 132.667C183.637 132.749 183.683 132.832 183.729 132.915C184.572 134.45 186.591 135.13 188.37 134.882Z" fill="#FFC7C1"/>
<path d="M190.099 125.691C191.106 129.61 192.384 132.607 190.465 134.046C188.392 135.6 184.894 135.039 183.729 132.914C182.263 130.238 181.328 128.09 183.504 126.167C185.679 124.245 189.377 122.879 190.099 125.691Z" fill="#FFC7C1"/>
<path d="M189.942 124.309C190.747 125.594 189.343 127.923 186.807 129.513C184.271 131.102 181.561 131.348 180.757 130.064C179.953 128.779 180.341 124.354 183.005 122.99C186.65 121.125 189.136 123.023 189.942 124.309Z" fill="#16165C"/>
<path d="M188.37 134.882L188.14 136.052L188.136 136.07C186.805 135.91 185.563 135.251 184.932 134.175C185.96 134.805 187.176 135.055 188.37 134.882Z" fill="#16165C"/>
<path d="M184.896 130.465C184.954 130.677 184.947 130.902 184.878 131.11C184.808 131.319 184.678 131.502 184.504 131.636C184.33 131.771 184.12 131.851 183.901 131.866C183.682 131.881 183.463 131.831 183.272 131.722C183.081 131.613 182.927 131.45 182.829 131.253C182.731 131.056 182.694 130.835 182.721 130.617C182.749 130.399 182.841 130.194 182.985 130.028C183.129 129.862 183.32 129.743 183.532 129.685C183.673 129.646 183.82 129.636 183.964 129.655C184.109 129.673 184.249 129.72 184.376 129.792C184.502 129.865 184.613 129.962 184.703 130.077C184.792 130.192 184.858 130.324 184.896 130.465Z" fill="#FFC7C1"/>
<path d="M190.724 131.65C190.766 132.097 190.734 132.754 190.302 132.886C189.849 133.028 189.38 132.609 189.083 132.24C189.075 132.23 189.07 132.218 189.068 132.205C189.067 132.192 189.069 132.179 189.075 132.168C189.081 132.156 189.091 132.147 189.102 132.141C189.114 132.135 189.126 132.132 189.139 132.133C189.462 132.165 190.21 132.172 190.605 131.62C190.612 131.609 190.623 131.601 190.635 131.596C190.648 131.591 190.661 131.59 190.674 131.594C190.687 131.597 190.699 131.604 190.708 131.614C190.717 131.624 190.722 131.637 190.724 131.65Z" fill="#16165C"/>
<path d="M190.462 132.478C190.447 132.534 190.419 132.584 190.38 132.626C190.341 132.668 190.292 132.7 190.238 132.718C190.177 132.735 190.113 132.739 190.05 132.731C189.988 132.722 189.927 132.702 189.873 132.67C189.888 132.614 189.917 132.564 189.956 132.522C189.996 132.48 190.044 132.449 190.098 132.429C190.159 132.413 190.223 132.409 190.285 132.417C190.348 132.425 190.408 132.446 190.462 132.478Z" fill="#FC5F4F"/>
<path d="M188.281 129.992C188.283 130.041 188.271 130.09 188.247 130.132C188.222 130.174 188.186 130.209 188.143 130.232C188.1 130.255 188.051 130.265 188.002 130.262C187.953 130.258 187.906 130.241 187.867 130.212C187.827 130.183 187.796 130.144 187.778 130.098C187.76 130.053 187.755 130.003 187.764 129.955C187.773 129.907 187.795 129.862 187.828 129.826C187.861 129.79 187.904 129.763 187.951 129.75C188.027 129.739 188.104 129.759 188.165 129.804C188.227 129.849 188.269 129.917 188.281 129.992Z" fill="#16165C"/>
<path d="M190.723 129.375C190.725 129.424 190.713 129.472 190.689 129.514C190.665 129.556 190.629 129.591 190.586 129.614C190.543 129.636 190.495 129.647 190.446 129.643C190.398 129.64 190.351 129.623 190.312 129.594C190.273 129.565 190.242 129.526 190.224 129.481C190.206 129.435 190.202 129.386 190.21 129.338C190.219 129.29 190.241 129.246 190.274 129.21C190.307 129.174 190.35 129.148 190.396 129.136C190.472 129.125 190.548 129.144 190.609 129.188C190.67 129.233 190.711 129.3 190.723 129.375Z" fill="#16165C"/>
<path d="M189.408 131.136C189.382 131.136 189.357 131.127 189.338 131.109C189.319 131.092 189.308 131.068 189.305 131.043C189.303 131.017 189.31 130.992 189.326 130.971C189.341 130.951 189.363 130.937 189.389 130.932C189.622 130.888 189.755 130.808 189.783 130.694C189.851 130.411 189.337 129.884 188.998 129.618C188.987 129.609 188.977 129.599 188.97 129.587C188.963 129.575 188.958 129.562 188.957 129.548C188.955 129.535 188.956 129.521 188.959 129.507C188.963 129.494 188.969 129.482 188.977 129.471C188.986 129.46 188.997 129.451 189.009 129.444C189.021 129.437 189.034 129.433 189.048 129.432C189.061 129.43 189.075 129.431 189.089 129.435C189.102 129.439 189.114 129.446 189.125 129.455C189.226 129.534 190.106 130.24 189.984 130.743C189.935 130.942 189.748 131.074 189.426 131.135C189.42 131.136 189.414 131.137 189.408 131.136Z" fill="#16165C"/>
<path d="M187.111 129.704C187.085 129.695 187.063 129.676 187.051 129.652C187.039 129.627 187.038 129.599 187.047 129.573C187.136 129.313 187.326 129.099 187.573 128.978C187.821 128.857 188.106 128.84 188.366 128.929C188.379 128.933 188.392 128.94 188.402 128.949C188.413 128.958 188.422 128.969 188.428 128.981C188.434 128.993 188.438 129.007 188.439 129.021C188.44 129.034 188.438 129.048 188.434 129.062C188.429 129.075 188.422 129.087 188.413 129.097C188.404 129.107 188.392 129.116 188.38 129.122C188.367 129.127 188.354 129.131 188.34 129.131C188.326 129.132 188.312 129.129 188.299 129.124C188.09 129.053 187.862 129.067 187.664 129.164C187.465 129.261 187.314 129.432 187.242 129.641C187.233 129.666 187.214 129.688 187.189 129.7C187.165 129.711 187.136 129.713 187.111 129.704Z" fill="#16165C"/>
<path d="M189.589 128.936C189.577 128.929 189.566 128.921 189.558 128.911C189.549 128.901 189.542 128.889 189.538 128.876C189.533 128.863 189.532 128.849 189.532 128.836C189.533 128.822 189.537 128.809 189.543 128.797C189.592 128.7 189.659 128.613 189.741 128.541C189.823 128.47 189.918 128.415 190.021 128.381C190.125 128.346 190.234 128.332 190.342 128.34C190.451 128.348 190.557 128.377 190.654 128.425C190.666 128.431 190.677 128.44 190.686 128.45C190.695 128.46 190.702 128.472 190.706 128.485C190.71 128.498 190.712 128.511 190.711 128.525C190.71 128.539 190.707 128.552 190.701 128.564C190.695 128.576 190.686 128.587 190.676 128.596C190.666 128.605 190.654 128.612 190.641 128.616C190.615 128.625 190.586 128.623 190.562 128.611C190.489 128.575 190.409 128.553 190.328 128.547C190.246 128.541 190.164 128.552 190.087 128.578C190.009 128.604 189.938 128.645 189.876 128.698C189.815 128.752 189.764 128.817 189.728 128.89C189.716 128.915 189.694 128.933 189.668 128.942C189.642 128.95 189.614 128.948 189.589 128.936Z" fill="#16165C"/>
<path d="M183.911 130.887C183.888 130.887 183.866 130.88 183.848 130.866L183.637 130.7C183.616 130.683 183.602 130.659 183.599 130.632C183.596 130.605 183.604 130.578 183.62 130.557C183.637 130.535 183.661 130.521 183.688 130.518C183.715 130.514 183.742 130.521 183.764 130.537L183.975 130.703C183.992 130.716 184.005 130.734 184.012 130.755C184.018 130.776 184.018 130.798 184.011 130.819C184.004 130.839 183.99 130.857 183.972 130.87C183.955 130.882 183.933 130.889 183.911 130.888V130.887Z" fill="#16165C"/>
<path d="M167.779 146.412C167.754 146.4 167.736 146.378 167.727 146.352C167.718 146.326 167.72 146.298 167.733 146.273C168.127 145.485 168.567 144.719 169.049 143.981C169.057 143.969 169.066 143.959 169.077 143.951C169.089 143.943 169.101 143.937 169.115 143.934C169.128 143.931 169.142 143.931 169.156 143.933C169.169 143.936 169.182 143.941 169.194 143.949C169.205 143.956 169.215 143.966 169.223 143.978C169.231 143.989 169.236 144.002 169.239 144.015C169.241 144.029 169.241 144.043 169.238 144.056C169.235 144.07 169.23 144.083 169.222 144.094C168.744 144.826 168.308 145.584 167.917 146.366C167.905 146.39 167.884 146.409 167.858 146.418C167.832 146.426 167.803 146.424 167.779 146.412Z" fill="#16165C"/>
<path d="M170.478 135.893C161.91 133.671 162.15 124.182 162.155 124.086C162.155 124.072 162.158 124.059 162.164 124.047C162.17 124.034 162.178 124.023 162.188 124.014C162.198 124.005 162.209 123.998 162.222 123.993C162.235 123.988 162.248 123.986 162.262 123.986C162.275 123.987 162.289 123.99 162.301 123.996C162.313 124.001 162.324 124.009 162.334 124.019C162.343 124.029 162.35 124.041 162.355 124.054C162.36 124.066 162.362 124.08 162.361 124.093C162.358 124.187 162.125 133.513 170.531 135.693C170.557 135.701 170.578 135.718 170.591 135.741C170.604 135.764 170.608 135.792 170.601 135.818C170.594 135.843 170.578 135.865 170.555 135.879C170.533 135.893 170.505 135.898 170.479 135.893H170.478Z" fill="#16165C"/>
<path d="M92.8855 76.5191C92.3893 76.2731 91.9772 75.8856 91.7013 75.4054C91.4254 74.9251 91.2981 74.3737 91.3355 73.8211C91.3729 73.2685 91.5732 72.7395 91.9113 72.3008C92.2493 71.8621 92.7099 71.5335 93.2348 71.3565C93.7596 71.1795 94.3251 71.1622 94.8598 71.3066C95.3945 71.451 95.8744 71.7507 96.2388 72.1678C96.6031 72.5849 96.8356 73.1007 96.9068 73.65C96.9781 74.1992 96.8848 74.7573 96.6389 75.2536C96.3086 75.9187 95.7278 76.4256 95.0241 76.6629C94.3203 76.9002 93.5512 76.8484 92.8855 76.5191ZM92.646 73.2743C92.5005 73.5678 92.4453 73.898 92.4873 74.2229C92.5294 74.5478 92.6669 74.8528 92.8824 75.0996C93.0979 75.3463 93.3817 75.5235 93.698 75.6089C94.0142 75.6944 94.3487 75.6842 94.6591 75.5795C94.9695 75.4748 95.242 75.2803 95.4419 75.0208C95.6418 74.7612 95.7603 74.4482 95.7823 74.1214C95.8043 73.7945 95.7289 73.4685 95.5656 73.1845C95.4023 72.9005 95.1584 72.6714 94.8648 72.526C94.4712 72.3315 94.0166 72.3011 93.6006 72.4414C93.1847 72.5817 92.8414 72.8812 92.646 73.2743Z" fill="#FC5F4F"/>
<path d="M60.8161 90.1939C60.7932 90.4808 60.8559 90.7682 60.9963 91.0195C61.1366 91.2708 61.3484 91.475 61.6047 91.606C61.8611 91.737 62.1505 91.789 62.4364 91.7555C62.7223 91.7221 62.9919 91.6044 63.211 91.4177C63.4302 91.231 63.589 90.9836 63.6675 90.7066C63.746 90.4296 63.7406 90.1357 63.652 89.8618C63.5633 89.5879 63.3954 89.3463 63.1696 89.1678C62.9437 88.9893 62.67 88.8818 62.3831 88.8588C61.9983 88.8283 61.6171 88.9517 61.3233 89.2021C61.0295 89.4524 60.8471 89.8091 60.8161 90.1939Z" fill="#FFB448"/>
<path d="M107.404 183.703L103.426 191.751L96.4307 188.004L101.767 177.675L107.404 183.703Z" fill="#FFC7C1"/>
<path d="M107.046 202C107.425 202.199 107.866 202.245 108.279 202.128C108.691 202.011 109.043 201.741 109.262 201.373C110.755 198.852 109.873 196.745 107.26 194.938C105.491 193.714 105.056 191.2 104.984 189.932C104.973 189.753 104.894 189.586 104.764 189.463C104.634 189.34 104.462 189.271 104.283 189.271C101.258 189.227 99.0709 188.004 97.5089 185.899C97.4428 185.809 97.3561 185.736 97.2562 185.686C97.1562 185.635 97.0457 185.61 96.9338 185.611C96.822 185.612 96.712 185.64 96.613 185.692C96.514 185.744 96.4289 185.819 96.3646 185.91C95.2283 187.531 93.3397 189.994 91.894 191.851C91.7434 192.045 91.6371 192.269 91.5827 192.508C91.5283 192.747 91.5271 192.995 91.5792 193.235C91.6313 193.475 91.7354 193.7 91.8841 193.895C92.0328 194.09 92.2226 194.25 92.4399 194.364L107.046 202Z" fill="#FF8429"/>
<path d="M54.337 172.177L45.3645 172.499L45.3394 164.565L56.9636 164.355L54.337 172.177Z" fill="#FFC7C1"/>
<path d="M38.066 180.553C38.0716 180.981 38.241 181.391 38.5395 181.699C38.8381 182.006 39.243 182.188 39.6711 182.206C42.5986 182.32 44.0332 180.544 44.3823 177.387C44.6191 175.248 46.6247 173.671 47.7061 173.006C47.8579 172.911 47.9681 172.762 48.0144 172.589C48.0606 172.416 48.0395 172.232 47.9552 172.074C46.5568 169.392 46.5935 166.887 47.7034 164.512C47.7512 164.411 47.7743 164.3 47.7709 164.189C47.7674 164.077 47.7375 163.968 47.6835 163.87C47.6296 163.773 47.5531 163.689 47.4606 163.627C47.368 163.564 47.262 163.525 47.1511 163.512C45.1852 163.283 42.1203 162.79 39.7996 162.4C39.5577 162.36 39.3098 162.373 39.0735 162.438C38.8372 162.504 38.6182 162.621 38.432 162.78C38.2458 162.94 38.097 163.139 37.9961 163.362C37.8951 163.586 37.8445 163.829 37.8478 164.074L38.066 180.553Z" fill="#FF8429"/>
<path d="M76.3513 89.9495C78.5276 89.9495 80.2919 88.1852 80.2919 86.0089C80.2919 83.8325 78.5276 82.0682 76.3513 82.0682C74.1749 82.0682 72.4106 83.8325 72.4106 86.0089C72.4106 88.1852 74.1749 89.9495 76.3513 89.9495Z" fill="#16165C"/>
<path d="M86.1147 110.936C86.1147 110.936 96.3479 127.41 108.017 124.636C119.307 121.951 125.453 104.022 125.453 104.022C126.142 101.918 122.069 98.342 119.922 99.3685C113.771 103.004 110.971 107.829 106.886 112.587C100.554 106.582 94.3443 103.17 87.4483 104.32" fill="#7655FF"/>
<path d="M69.4846 148.248C69.4846 148.248 61.831 116.011 74.1121 107.56C82.8581 101.542 99.792 103.417 100.828 111.814C101.976 121.272 101.995 130.833 100.884 140.296C91.1235 147.408 76.9844 142.552 69.4846 148.248Z" fill="#7655FF"/>
<path d="M101.268 118.631C101.121 116.308 100.909 114.022 100.64 111.837C100.633 111.787 100.647 111.736 100.678 111.696C100.709 111.657 100.755 111.631 100.805 111.624C100.83 111.621 100.855 111.622 100.88 111.628C100.904 111.635 100.927 111.646 100.947 111.662C100.967 111.677 100.983 111.697 100.996 111.719C101.008 111.741 101.015 111.765 101.018 111.79C101.289 113.983 101.5 116.276 101.648 118.607C101.652 118.657 101.635 118.707 101.601 118.745C101.568 118.783 101.52 118.806 101.47 118.809C101.419 118.812 101.369 118.795 101.331 118.762C101.293 118.728 101.27 118.681 101.267 118.631H101.268Z" fill="#16165C"/>
<path d="M101.568 132.383H101.559C101.509 132.381 101.461 132.358 101.427 132.321C101.393 132.283 101.376 132.234 101.378 132.184C101.465 130.381 101.511 128.532 101.515 126.691C101.515 126.64 101.535 126.592 101.571 126.556C101.607 126.52 101.655 126.5 101.706 126.5C101.756 126.5 101.805 126.52 101.841 126.556C101.876 126.592 101.896 126.64 101.896 126.691C101.893 128.539 101.846 130.394 101.759 132.202C101.756 132.251 101.735 132.297 101.7 132.331C101.664 132.364 101.617 132.383 101.568 132.383Z" fill="#16165C"/>
<path d="M80.595 104.569L79.7505 94.6267H79.7555C79.9615 95.5698 80.3574 96.461 80.9192 97.2459C81.481 98.0309 82.197 98.6932 83.0233 99.1922C83.0233 99.1957 83.0267 99.1986 83.0298 99.1971C84.2484 99.9729 85.632 100.452 87.0695 100.596L87.0078 101.637L86.8933 103.621C86.7514 105.743 81.0539 106.439 80.595 104.569Z" fill="#FFC7C1"/>
<path d="M87.0092 101.639C85.5025 101.165 84.1361 100.327 83.0312 99.1978C84.2499 99.9736 85.6336 100.453 87.0711 100.597L87.0092 101.639Z" fill="#16165C"/>
<path d="M93.0947 92.4273C93.6203 96.1273 91.4652 100.716 87.726 100.635C83.9868 100.555 80.2284 98.0288 79.7028 94.3308C79.1772 90.6327 81.9736 88.7968 85.6716 88.2712C89.3696 87.7456 92.5691 88.7308 93.0947 92.4273Z" fill="#FFC7C1"/>
<path d="M93.162 93.1938C93.1265 90.97 92.0612 89.8145 89.9396 89.9408C89.9396 89.9408 89.8251 95.3271 84.6086 94.7698C84.6086 94.7698 84.6799 100.547 80.2743 100.097C78.295 99.8957 74.1988 91.3498 77.8763 86.2378C82.1957 80.2328 96.1291 81.6987 94.2334 91.7129C94.0792 92.3256 93.6957 92.8557 93.162 93.1938Z" fill="#16165C"/>
<path d="M86.0202 95.8812C85.9037 96.2369 85.6845 96.5501 85.3901 96.7811C85.0956 97.0122 84.7393 97.1509 84.3661 97.1795C83.993 97.2082 83.6197 97.1255 83.2934 96.9421C82.9672 96.7586 82.7026 96.4826 82.5332 96.1488C82.3638 95.8151 82.2971 95.4387 82.3415 95.0671C82.386 94.6955 82.5396 94.3453 82.7829 94.061C83.0263 93.7766 83.3486 93.5708 83.7089 93.4695C84.0692 93.3682 84.4514 93.3759 84.8073 93.4918C85.2849 93.6479 85.6809 93.9873 85.9084 94.4353C86.1358 94.8834 86.176 95.4035 86.0202 95.8812Z" fill="#FFC7C1"/>
<path d="M91.0395 96.2014C91.0152 96.1957 90.9922 96.1852 90.9718 96.1705C90.9515 96.1559 90.9343 96.1375 90.9211 96.1161C90.9079 96.0948 90.899 96.071 90.895 96.0463C90.891 96.0215 90.892 95.9962 90.8977 95.9718C90.9035 95.9474 90.914 95.9245 90.9286 95.9042C90.9433 95.8838 90.9618 95.8665 90.9831 95.8533C91.0044 95.8402 91.0281 95.8313 91.0529 95.8273C91.0776 95.8232 91.103 95.8243 91.1274 95.8301C91.2452 95.8579 91.3241 95.8734 91.376 95.8822C91.3497 95.3742 91.2743 94.8699 91.1509 94.3764C91.1453 94.3519 91.1445 94.3266 91.1487 94.3019C91.1528 94.2771 91.1619 94.2533 91.1752 94.232C91.1886 94.2108 91.2059 94.1924 91.2264 94.1778C91.2468 94.1633 91.27 94.1531 91.2944 94.1475C91.3189 94.1415 91.3442 94.1403 91.3691 94.1443C91.394 94.1483 91.4178 94.1574 91.4391 94.1708C91.4605 94.1841 91.479 94.2015 91.4934 94.2222C91.5079 94.2428 91.518 94.2663 91.5232 94.2909C91.9215 96.0386 91.7049 96.1783 91.6125 96.2363C91.489 96.3175 91.2627 96.2537 91.0395 96.2014Z" fill="#16165C"/>
<path d="M90.1986 97.0181C90.3926 97.1489 90.6113 97.2387 90.8413 97.2819C91.0713 97.325 91.3076 97.3207 91.5358 97.2692C91.5483 97.2659 91.5614 97.2662 91.5737 97.27C91.586 97.2737 91.5971 97.2808 91.6056 97.2904C91.6141 97.3001 91.6197 97.3118 91.6219 97.3245C91.6241 97.3372 91.6227 97.3502 91.6179 97.3621C91.5682 97.5464 91.4526 97.7061 91.2931 97.8108C91.1336 97.9156 90.9412 97.9582 90.7524 97.9306C90.5705 97.8715 90.4102 97.7598 90.292 97.6095C90.1737 97.4592 90.1029 97.2772 90.0883 97.0865C90.0861 97.0728 90.088 97.0587 90.0937 97.0461C90.0995 97.0335 90.1088 97.0228 90.1206 97.0155C90.1324 97.0082 90.1462 97.0044 90.16 97.0049C90.1739 97.0054 90.1873 97.01 90.1986 97.0181Z" fill="#16165C"/>
<path d="M90.4985 94.1181C90.4943 94.315 90.3841 94.4721 90.2475 94.469C90.111 94.466 90.0076 94.3047 90.0118 94.1079C90.016 93.9111 90.1263 93.7536 90.2628 93.7566C90.3994 93.7597 90.5027 93.9213 90.4985 94.1181Z" fill="#16165C"/>
<path d="M92.6601 94.5869C92.6559 94.7841 92.5457 94.9412 92.4092 94.9382C92.2726 94.9351 92.1693 94.7735 92.1735 94.5766C92.1777 94.3798 92.2879 94.2227 92.4244 94.2258C92.561 94.2288 92.6643 94.3901 92.6601 94.5869Z" fill="#16165C"/>
<path d="M89.4451 93.6309C89.427 93.6137 89.4124 93.5929 89.4022 93.57C89.392 93.5471 89.3864 93.5224 89.3858 93.4974C89.3852 93.4723 89.3895 93.4476 89.3985 93.4242C89.4075 93.4008 89.4211 93.3794 89.4383 93.3612C89.6149 93.1565 89.8628 93.0268 90.1316 92.9984C90.4005 92.9701 90.6701 93.0453 90.8855 93.2087C90.9054 93.2239 90.9221 93.2429 90.9346 93.2646C90.9472 93.2862 90.9554 93.3101 90.9588 93.335C90.9621 93.3598 90.9605 93.3849 90.9541 93.4091C90.9477 93.4333 90.9365 93.456 90.9213 93.476C90.9061 93.4959 90.8871 93.5127 90.8655 93.5253C90.8438 93.5379 90.8199 93.546 90.7951 93.5493C90.7702 93.5527 90.745 93.5511 90.7207 93.5447C90.6965 93.5383 90.6738 93.5271 90.6539 93.5119C90.513 93.4061 90.3368 93.3587 90.1618 93.3797C89.9869 93.4006 89.8267 93.4883 89.7148 93.6244C89.6975 93.6425 89.6769 93.6571 89.654 93.6672C89.6311 93.6774 89.6064 93.6828 89.5814 93.6834C89.5563 93.684 89.5313 93.6798 89.508 93.6708C89.4846 93.6617 89.4633 93.6482 89.4451 93.6309Z" fill="#16165C"/>
<path d="M92.9981 94.085C92.9685 94.085 92.9393 94.0781 92.9129 94.0648C92.8864 94.0516 92.8633 94.0323 92.8455 94.0086C92.7379 93.8691 92.5806 93.7765 92.4064 93.7501C92.2321 93.7236 92.0545 93.7653 91.9103 93.8667C91.8669 93.8928 91.815 93.9007 91.7659 93.8885C91.7167 93.8763 91.6745 93.845 91.6484 93.8017C91.6223 93.7583 91.6145 93.7064 91.6267 93.6573C91.6389 93.6082 91.6701 93.5659 91.7134 93.5398C91.9383 93.3896 92.2119 93.3307 92.4786 93.375C92.7454 93.4193 92.9853 93.5634 93.1496 93.7782C93.1708 93.8065 93.1837 93.8403 93.1869 93.8756C93.1901 93.9109 93.1834 93.9464 93.1676 93.978C93.1517 94.0097 93.1274 94.0363 93.0973 94.055C93.0671 94.0736 93.0324 94.0835 92.997 94.0835L92.9981 94.085Z" fill="#16165C"/>
<path d="M84.203 135.789C91.8161 143.42 102.252 164.996 95.175 177.486C88.2504 189.707 64.1237 180.851 53.9638 176.424C52.6253 175.841 51.5003 174.859 50.7432 173.61C49.9862 172.362 49.6342 170.91 49.7359 169.454L50.0922 164.34C50.1027 164.191 50.1428 164.045 50.21 163.912C50.2773 163.778 50.3704 163.659 50.484 163.562C50.5975 163.465 50.7293 163.391 50.8716 163.345C51.0138 163.299 51.1638 163.282 51.3128 163.294C61.8561 164.184 70.2256 165.309 78.8392 169.505C78.8392 169.505 62.7357 141.477 70.2569 136.632C77.865 131.732 82.3061 133.887 84.203 135.789Z" fill="#BCA9FF"/>
<path d="M82.9482 142.859C92.7512 138.378 116.611 136.103 125.858 147.084C134.905 157.829 118.206 177.365 110.52 185.35C109.508 186.402 108.195 187.114 106.761 187.39C105.328 187.665 103.844 187.49 102.514 186.888L97.8438 184.774C97.7076 184.712 97.5851 184.624 97.4833 184.515C97.3815 184.405 97.3024 184.276 97.2507 184.136C97.1991 183.996 97.1758 183.846 97.1823 183.697C97.1887 183.548 97.2248 183.401 97.2884 183.266C101.792 173.692 103.915 166.517 110.845 159.902C110.845 159.902 80.5295 163.502 78.6056 154.764C76.6595 145.927 80.5055 143.976 82.9482 142.859Z" fill="#BCA9FF"/>
<path d="M75.0122 91.729C74.9915 91.7149 74.9737 91.6969 74.96 91.6759C74.9463 91.6549 74.9367 91.6316 74.9321 91.607C74.9274 91.5824 74.9276 91.557 74.9327 91.5325C74.9378 91.508 74.9477 91.4847 74.9619 91.464L81.2239 82.264C81.2375 82.2421 81.2553 82.2233 81.2763 82.2085C81.2974 82.1937 81.3212 82.1833 81.3464 82.178C81.3716 82.1726 81.3976 82.1723 81.4228 82.1772C81.4481 82.1822 81.4721 82.1923 81.4934 82.2068C81.5147 82.2213 81.5328 82.2399 81.5467 82.2616C81.5606 82.2833 81.5699 82.3075 81.5742 82.3329C81.5784 82.3583 81.5775 82.3843 81.5715 82.4093C81.5654 82.4343 81.5543 82.4577 81.539 82.4784L75.2769 91.6787C75.2484 91.7204 75.2046 91.7492 75.155 91.7586C75.1054 91.768 75.054 91.7574 75.0122 91.729Z" fill="#16165C"/>
<path d="M100.169 141.783C99.9517 141.199 99.852 140.577 99.8755 139.954C99.899 139.33 100.045 138.718 100.306 138.151C100.567 137.585 100.937 137.075 101.395 136.652C101.853 136.229 102.39 135.901 102.976 135.686C105.416 134.806 107.52 133.184 108.99 131.047C109.601 130.17 110.088 129.213 110.437 128.203C110.974 126.584 110.969 124.835 110.423 123.219C109.877 121.604 108.819 120.211 107.41 119.25L100.065 114.177C98.6673 113.2 96.9892 112.704 95.2849 112.766C93.5805 112.828 91.9428 113.444 90.6198 114.52C89.7991 115.204 89.0768 115.999 88.4735 116.88C87.0073 118.997 86.236 121.517 86.2664 124.092C86.2866 125.353 85.8066 126.57 84.9313 127.477C84.056 128.384 82.8569 128.908 81.5965 128.932C78.4704 128.964 75.3977 129.747 72.6375 131.215C69.8772 132.683 67.5102 134.793 65.7359 137.367C65.5185 137.682 65.3117 138 65.1154 138.323C60.5881 145.761 62.8054 155.462 69.9696 160.408L74.8462 163.775C81.9116 168.653 91.6374 167.419 97.0214 160.731C97.1499 160.571 97.2764 160.409 97.401 160.244C99.3686 157.643 100.653 154.591 101.137 151.366C101.62 148.141 101.287 144.846 100.169 141.783Z" fill="#8873FF"/>
<path d="M95.2353 137.18C97.5628 135.671 98.2266 132.562 96.7178 130.234C95.2091 127.906 92.0991 127.243 89.7715 128.751C87.444 130.26 86.7802 133.37 88.289 135.698C89.7978 138.025 92.9077 138.689 95.2353 137.18Z" fill="white"/>
<path d="M89.5475 137.26C88.6983 136.675 88.0415 135.852 87.6602 134.894C87.2789 133.936 87.1901 132.886 87.4053 131.878C87.6205 130.87 88.1298 129.948 88.8689 129.229C89.6081 128.51 90.5438 128.026 91.5577 127.839C92.5717 127.652 93.6183 127.77 94.5653 128.178C95.5123 128.586 96.3171 129.265 96.878 130.13C97.4389 130.995 97.7305 132.007 97.7162 133.038C97.7019 134.069 97.3822 135.073 96.7975 135.922C96.4097 136.486 95.9144 136.969 95.34 137.341C94.7655 137.714 94.1233 137.97 93.4499 138.094C92.7765 138.218 92.0852 138.209 91.4156 138.066C90.746 137.922 90.1112 137.649 89.5475 137.26ZM88.5241 130.226C87.9822 131.013 87.6859 131.943 87.6727 132.898C87.6594 133.854 87.9297 134.792 88.4495 135.594C88.9693 136.396 89.7152 137.025 90.5929 137.403C91.4706 137.781 92.4406 137.89 93.3803 137.717C94.3201 137.544 95.1874 137.096 95.8724 136.429C96.5575 135.763 97.0296 134.909 97.2291 133.974C97.4285 133.04 97.3464 132.067 96.993 131.179C96.6397 130.291 96.031 129.528 95.2439 128.986C94.7215 128.626 94.1331 128.372 93.5125 128.239C92.8918 128.107 92.2511 128.097 91.627 128.213C91.0029 128.328 90.4076 128.565 89.8751 128.91C89.3427 129.256 88.8836 129.703 88.5241 130.226Z" fill="#16165C"/>
<path d="M75.2459 143.759L73.2794 146.615C73.1197 146.847 73.1783 147.165 73.4103 147.325L85.9027 155.926C86.1347 156.086 86.4522 156.027 86.6119 155.795L88.5784 152.939C88.7382 152.707 88.6796 152.389 88.4476 152.23L75.9552 143.629C75.7232 143.469 75.4057 143.527 75.2459 143.759Z" fill="white"/>
<path d="M81.8393 142.857C81.819 142.842 81.8018 142.823 81.7887 142.802C81.7756 142.781 81.7669 142.757 81.763 142.732C81.7591 142.707 81.7602 142.682 81.7662 142.657C81.7721 142.633 81.7828 142.61 81.7977 142.59L117.954 93.1727C117.985 93.1333 118.029 93.1074 118.079 93.1004C118.128 93.0934 118.178 93.1059 118.218 93.1352C118.258 93.1646 118.285 93.2084 118.294 93.2574C118.302 93.3065 118.291 93.3568 118.262 93.3977L82.1055 142.815C82.0757 142.856 82.0309 142.883 81.981 142.891C81.9311 142.899 81.8801 142.887 81.8393 142.857Z" fill="#16165C"/>
<path d="M83.5828 144.057C83.5621 144.043 83.5445 144.024 83.5309 144.003C83.5174 143.982 83.5081 143.958 83.5038 143.933C83.4995 143.909 83.5001 143.883 83.5057 143.859C83.5112 143.834 83.5216 143.811 83.5362 143.79L118.728 93.7073C118.743 93.6864 118.761 93.6686 118.782 93.6548C118.803 93.641 118.827 93.6316 118.852 93.627C118.877 93.6225 118.902 93.6229 118.927 93.6283C118.952 93.6337 118.975 93.6439 118.996 93.6585C119.017 93.673 119.034 93.6916 119.048 93.7131C119.061 93.7345 119.07 93.7583 119.074 93.7833C119.078 93.8082 119.078 93.8337 119.072 93.8583C119.066 93.883 119.055 93.9062 119.04 93.9267L83.8483 144.009C83.834 144.03 83.8157 144.048 83.7946 144.061C83.7736 144.075 83.75 144.084 83.7254 144.088C83.7007 144.093 83.6754 144.092 83.6509 144.087C83.6265 144.082 83.6033 144.071 83.5828 144.057Z" fill="#16165C"/>
<path d="M85.3258 145.258C85.2838 145.229 85.2549 145.186 85.2452 145.136C85.2356 145.086 85.246 145.035 85.2743 144.993L119.502 94.2472C119.516 94.2256 119.534 94.2071 119.555 94.1926C119.576 94.1781 119.599 94.168 119.624 94.1628C119.649 94.1576 119.675 94.1575 119.7 94.1624C119.725 94.1674 119.749 94.1772 119.77 94.1915C119.791 94.2058 119.809 94.2243 119.823 94.2457C119.837 94.2671 119.846 94.291 119.851 94.3161C119.855 94.3412 119.855 94.3668 119.849 94.3917C119.844 94.4166 119.833 94.4401 119.818 94.4608L85.5905 145.207C85.5622 145.248 85.5183 145.277 85.4687 145.287C85.4191 145.296 85.3677 145.286 85.3258 145.258Z" fill="#16165C"/>
<path d="M87.0694 146.458C87.027 146.431 86.9972 146.388 86.9866 146.338C86.9761 146.289 86.9856 146.237 87.013 146.195L120.274 94.7849C120.302 94.7424 120.345 94.7126 120.394 94.702C120.444 94.6914 120.496 94.7008 120.538 94.7283C120.581 94.7557 120.61 94.7989 120.621 94.8484C120.632 94.8979 120.622 94.9495 120.595 94.992L87.3334 146.402C87.3198 146.423 87.3022 146.441 87.2816 146.455C87.2609 146.469 87.2376 146.48 87.2131 146.485C87.1886 146.49 87.1633 146.49 87.1386 146.486C87.114 146.481 87.0905 146.472 87.0694 146.458Z" fill="#16165C"/>
<path d="M129.891 88.0133L122.465 95.1923C122.279 95.3724 122.036 95.4826 121.777 95.5041C121.519 95.5255 121.261 95.4568 121.048 95.3098L117.495 92.864C117.282 92.7169 117.126 92.5007 117.054 92.2518C116.982 92.0028 116.998 91.7364 117.099 91.498L121.156 82.0003C121.222 81.8474 121.32 81.711 121.445 81.6008C121.569 81.4906 121.717 81.4094 121.876 81.3631C122.036 81.3168 122.204 81.3066 122.368 81.3331C122.532 81.3597 122.689 81.4223 122.826 81.5166L129.747 86.2819C129.884 86.3762 129.998 86.4998 130.081 86.6436C130.165 86.7875 130.215 86.9479 130.229 87.1135C130.242 87.2792 130.219 87.4459 130.161 87.6015C130.102 87.7571 130.01 87.8977 129.891 88.0133Z" fill="#8873FF"/>
<path d="M129.934 90.0041L128.737 89.1803C128.715 89.1667 128.696 89.1487 128.682 89.1276C128.667 89.1065 128.656 89.0827 128.651 89.0574C128.646 89.0321 128.646 89.006 128.651 88.9806C128.656 88.9553 128.666 88.9313 128.681 88.9101C128.695 88.8888 128.714 88.8706 128.736 88.8568C128.758 88.843 128.782 88.8339 128.808 88.8298C128.833 88.8257 128.859 88.8269 128.884 88.8331C128.909 88.8394 128.933 88.8507 128.953 88.8663L130.15 89.6899C130.191 89.7186 130.22 89.7627 130.229 89.8124C130.238 89.8622 130.227 89.9134 130.199 89.9551C130.17 89.9968 130.126 90.0254 130.076 90.0346C130.027 90.0438 129.975 90.0328 129.934 90.0041Z" fill="#16165C"/>
<path d="M129.392 90.7904C129.371 90.7763 129.353 90.7581 129.34 90.737C129.326 90.7158 129.316 90.6922 129.312 90.6673C129.307 90.6425 129.308 90.617 129.313 90.5923C129.318 90.5676 129.329 90.5443 129.343 90.5236L130.327 89.0947C130.356 89.053 130.4 89.0243 130.45 89.0151C130.499 89.0059 130.551 89.017 130.592 89.0457C130.634 89.0743 130.663 89.1185 130.672 89.1682C130.681 89.218 130.67 89.2692 130.641 89.3109L129.657 90.7402C129.643 90.7609 129.625 90.7786 129.604 90.7923C129.583 90.8061 129.56 90.8156 129.535 90.8202C129.511 90.8249 129.485 90.8248 129.461 90.8197C129.436 90.8146 129.413 90.8046 129.392 90.7904Z" fill="#16165C"/>
<path d="M128.265 92.8943L126.298 91.5399C126.277 91.5262 126.258 91.5082 126.244 91.4871C126.229 91.4659 126.219 91.4421 126.214 91.417C126.209 91.3919 126.209 91.3659 126.214 91.3408C126.219 91.3158 126.23 91.2921 126.244 91.271C126.259 91.2499 126.277 91.232 126.299 91.2183C126.32 91.2046 126.345 91.1953 126.37 91.1911C126.395 91.1869 126.421 91.1877 126.446 91.1937C126.471 91.1997 126.494 91.2107 126.515 91.2259L128.481 92.5801C128.523 92.6088 128.552 92.6528 128.561 92.7025C128.57 92.7523 128.559 92.8037 128.53 92.8454C128.502 92.887 128.458 92.9155 128.408 92.9247C128.358 92.9339 128.307 92.923 128.265 92.8943Z" fill="#16165C"/>
<path d="M127.724 93.6815C127.682 93.6529 127.654 93.6089 127.644 93.5592C127.635 93.5095 127.646 93.4582 127.675 93.4165L128.658 91.9876C128.687 91.9459 128.731 91.9173 128.781 91.9081C128.831 91.8989 128.882 91.9099 128.924 91.9386C128.965 91.9673 128.994 92.0112 129.003 92.061C129.012 92.1107 129.001 92.1622 128.973 92.2038L127.989 93.6327C127.96 93.6743 127.916 93.7029 127.866 93.7121C127.817 93.7212 127.765 93.7102 127.724 93.6815Z" fill="#16165C"/>
<path d="M125.509 95.0357L123.858 93.8987C123.836 93.8851 123.817 93.8671 123.802 93.846C123.787 93.8248 123.777 93.8008 123.772 93.7756C123.766 93.7503 123.766 93.7243 123.771 93.699C123.776 93.6737 123.787 93.6497 123.801 93.6284C123.816 93.6072 123.835 93.589 123.856 93.5752C123.878 93.5614 123.903 93.5523 123.928 93.5482C123.954 93.5441 123.98 93.5452 124.005 93.5515C124.03 93.5578 124.053 93.569 124.074 93.5847L125.725 94.7217C125.747 94.7353 125.766 94.7533 125.781 94.7744C125.796 94.7956 125.806 94.8194 125.811 94.8446C125.817 94.8699 125.817 94.8961 125.812 94.9214C125.807 94.9467 125.796 94.9707 125.782 94.992C125.767 95.0132 125.748 95.0313 125.727 95.0451C125.705 95.0588 125.68 95.0682 125.655 95.0722C125.629 95.0763 125.603 95.0752 125.578 95.0689C125.553 95.0626 125.53 95.0514 125.509 95.0357Z" fill="#16165C"/>
<path d="M124.967 95.8231C124.946 95.8089 124.928 95.7906 124.914 95.7694C124.9 95.7483 124.891 95.7246 124.886 95.6998C124.882 95.6749 124.882 95.6494 124.888 95.6247C124.893 95.6 124.903 95.5767 124.918 95.556L125.901 94.1271C125.93 94.0854 125.974 94.0569 126.024 94.0477C126.074 94.0385 126.125 94.0494 126.167 94.0781C126.208 94.1068 126.237 94.1509 126.246 94.2007C126.255 94.2504 126.244 94.3016 126.216 94.3433L125.232 95.7722C125.218 95.793 125.2 95.8108 125.179 95.8246C125.158 95.8383 125.135 95.848 125.11 95.8527C125.085 95.8574 125.06 95.8572 125.035 95.8521C125.011 95.847 124.988 95.8372 124.967 95.8231Z" fill="#16165C"/>
<path d="M120.464 83.4832L119.268 82.6596C119.247 82.6458 119.228 82.6278 119.214 82.6067C119.2 82.5857 119.19 82.5619 119.185 82.5369C119.18 82.5119 119.18 82.4862 119.185 82.4613C119.19 82.4363 119.2 82.4128 119.215 82.3918C119.229 82.3708 119.248 82.3528 119.269 82.3391C119.29 82.3254 119.314 82.316 119.34 82.3117C119.365 82.3074 119.39 82.3082 119.415 82.3139C119.44 82.3197 119.463 82.3305 119.484 82.3454L120.68 83.1692C120.702 83.183 120.72 83.201 120.735 83.2221C120.749 83.2432 120.759 83.267 120.764 83.2921C120.769 83.3172 120.769 83.343 120.764 83.3681C120.759 83.3932 120.749 83.4171 120.734 83.4381C120.72 83.4592 120.701 83.4771 120.68 83.4909C120.658 83.5046 120.634 83.5138 120.609 83.518C120.583 83.5222 120.558 83.5214 120.533 83.5154C120.508 83.5094 120.484 83.4985 120.464 83.4832Z" fill="#16165C"/>
<path d="M118.726 83.4469C118.684 83.4182 118.655 83.3742 118.646 83.3245C118.637 83.2748 118.648 83.2235 118.677 83.1818L119.66 81.7529C119.689 81.7113 119.733 81.6828 119.783 81.6736C119.833 81.6644 119.884 81.6753 119.926 81.704C119.967 81.7326 119.996 81.7768 120.005 81.8265C120.014 81.8763 120.003 81.9275 119.975 81.9692L118.991 83.3981C118.962 83.4397 118.918 83.4683 118.868 83.4774C118.819 83.4866 118.767 83.4755 118.726 83.4469Z" fill="#16165C"/>
<path d="M119.131 86.6045L117.163 85.2503C117.142 85.2365 117.124 85.2185 117.109 85.1974C117.095 85.1764 117.085 85.1526 117.08 85.1276C117.075 85.1026 117.075 85.0769 117.081 85.052C117.086 85.027 117.096 85.0035 117.11 84.9825C117.125 84.9615 117.143 84.9435 117.164 84.9298C117.186 84.9161 117.21 84.9067 117.235 84.9024C117.26 84.8981 117.286 84.8989 117.311 84.9046C117.335 84.9104 117.359 84.9212 117.379 84.9361L119.347 86.2905C119.368 86.3043 119.387 86.3223 119.401 86.3434C119.416 86.3645 119.426 86.3884 119.431 86.4134C119.436 86.4385 119.436 86.4644 119.431 86.4894C119.426 86.5145 119.416 86.5384 119.401 86.5595C119.387 86.5805 119.368 86.5984 119.346 86.6122C119.325 86.6259 119.301 86.6352 119.275 86.6394C119.25 86.6436 119.224 86.6426 119.199 86.6366C119.175 86.6306 119.151 86.6198 119.131 86.6045Z" fill="#16165C"/>
<path d="M116.621 86.0377C116.58 86.0091 116.551 85.965 116.542 85.9153C116.533 85.8656 116.543 85.8143 116.572 85.7727L117.556 84.3438C117.584 84.3021 117.629 84.2736 117.678 84.2644C117.728 84.2552 117.779 84.2661 117.821 84.2948C117.863 84.3235 117.891 84.3676 117.901 84.4173C117.91 84.4671 117.899 84.5183 117.87 84.56L116.886 85.9889C116.858 86.0305 116.814 86.0591 116.764 86.0682C116.714 86.0774 116.663 86.0663 116.621 86.0377Z" fill="#16165C"/>
<path d="M117.797 89.726L116.146 88.5889C116.125 88.5751 116.106 88.5571 116.092 88.5361C116.078 88.515 116.068 88.4912 116.063 88.4662C116.058 88.4412 116.058 88.4155 116.063 88.3906C116.068 88.3657 116.078 88.3421 116.093 88.3211C116.107 88.3001 116.125 88.2821 116.147 88.2684C116.168 88.2547 116.192 88.2454 116.217 88.241C116.243 88.2367 116.268 88.2375 116.293 88.2433C116.318 88.249 116.341 88.2598 116.362 88.2747L118.013 89.4118C118.034 89.4257 118.053 89.4436 118.067 89.4647C118.081 89.4858 118.091 89.5096 118.096 89.5345C118.101 89.5595 118.101 89.5852 118.096 89.6101C118.091 89.6351 118.081 89.6586 118.066 89.6796C118.052 89.7006 118.033 89.7186 118.012 89.7323C117.991 89.7461 117.967 89.7554 117.942 89.7597C117.916 89.764 117.891 89.7632 117.866 89.7575C117.841 89.7517 117.818 89.7409 117.797 89.726Z" fill="#16165C"/>
<path d="M115.604 89.3764C115.562 89.3477 115.533 89.3037 115.524 89.254C115.515 89.2043 115.526 89.153 115.554 89.1113L116.538 87.6821C116.567 87.6403 116.611 87.6117 116.661 87.6025C116.711 87.5933 116.762 87.6043 116.804 87.6331C116.846 87.6618 116.874 87.706 116.883 87.7558C116.893 87.8056 116.882 87.8569 116.853 87.8987L115.869 89.3276C115.84 89.3692 115.796 89.3978 115.746 89.4069C115.697 89.4161 115.645 89.405 115.604 89.3764Z" fill="#16165C"/>
<path d="M119.806 105.885C117.934 106.16 112.984 102.795 115.594 99.5911C118.526 95.993 121.399 100.385 121.399 100.385C121.399 100.385 120.507 98.0501 121.58 97.753C122.814 97.4097 124.841 100.204 124.203 102.049C123.726 103.429 121.249 105.672 119.806 105.885Z" fill="#FFC7C1"/>
<path d="M83.5576 145.835C83.5576 145.835 90.039 151.987 91.9165 146.638C93.2439 142.856 88.1581 142.771 88.1581 142.771C88.1581 142.771 90.5063 142.428 90.4109 141.509C90.2915 140.358 87.1733 140.151 85.3909 141.128L83.5576 145.835Z" fill="#FFC7C1"/>
<path d="M75.066 106.954C75.066 106.954 54.4638 119.013 59.4751 134.041C62.9664 144.509 82.8461 146.828 82.8461 146.828C85.0363 147.147 87.1801 142.131 85.8008 140.192C81.1663 134.753 75.143 132.067 69.7564 128.855C74.5896 121.59 78.6286 116.823 76.3171 110.225" fill="#7655FF"/>
<path d="M84.606 146.023C84.5677 145.99 84.5442 145.943 84.5404 145.892C84.5367 145.842 84.5531 145.792 84.5862 145.754C85.809 144.329 86.5544 141.578 85.6455 140.299C81.0602 134.921 75.0888 132.251 69.6591 129.017C69.6369 129.004 69.6176 128.986 69.6024 128.965C69.5872 128.944 69.5763 128.92 69.5706 128.895C69.5649 128.87 69.5644 128.844 69.5691 128.818C69.5738 128.793 69.5836 128.769 69.598 128.747C70.6729 127.13 71.8672 125.409 72.8311 123.938C72.8444 123.916 72.862 123.897 72.8828 123.882C72.9035 123.868 72.9271 123.857 72.9519 123.851C72.9768 123.846 73.0026 123.845 73.0277 123.85C73.0527 123.854 73.0767 123.864 73.0981 123.878C73.1194 123.892 73.1377 123.91 73.1519 123.931C73.1661 123.952 73.1759 123.976 73.1808 124.001C73.1856 124.026 73.1853 124.052 73.18 124.077C73.1747 124.102 73.1645 124.126 73.1499 124.147C72.223 125.562 71.0974 127.186 70.0267 128.791C75.3749 131.96 81.336 134.656 85.9461 140.065C86.9759 141.515 86.213 144.444 84.8753 146.003C84.8589 146.022 84.839 146.038 84.8166 146.049C84.7942 146.06 84.7698 146.067 84.7448 146.069C84.7197 146.07 84.6946 146.067 84.6708 146.06C84.647 146.052 84.625 146.039 84.606 146.023Z" fill="#16165C"/>
<path d="M121.053 176.233C121.025 176.208 121.002 176.178 120.985 176.144C120.969 176.11 120.959 176.074 120.956 176.036C120.954 175.999 120.959 175.961 120.971 175.925C120.983 175.89 121.002 175.857 121.026 175.829C133.118 161.986 129.901 151.564 129.867 151.46C129.855 151.424 129.849 151.386 129.851 151.348C129.854 151.31 129.863 151.272 129.88 151.238C129.897 151.204 129.921 151.173 129.949 151.148C129.978 151.123 130.012 151.104 130.048 151.092C130.084 151.08 130.122 151.076 130.16 151.079C130.198 151.082 130.235 151.093 130.269 151.111C130.303 151.128 130.333 151.152 130.357 151.182C130.382 151.211 130.4 151.245 130.411 151.282C130.446 151.389 133.762 162.12 121.457 176.205C121.407 176.262 121.337 176.297 121.261 176.302C121.185 176.308 121.111 176.282 121.053 176.233Z" fill="#16165C"/>
<path d="M84.2205 95.601C84.1866 95.601 84.1534 95.5921 84.1242 95.575C84.095 95.5579 84.0708 95.5331 84.0542 95.5036L83.7872 95.0315C83.7738 95.0096 83.765 94.9853 83.7613 94.96C83.7576 94.9346 83.759 94.9088 83.7655 94.884C83.772 94.8592 83.7834 94.8359 83.799 94.8156C83.8147 94.7953 83.8341 94.7785 83.8565 94.7659C83.8788 94.7533 83.9035 94.7454 83.9289 94.7426C83.9544 94.7398 83.9801 94.7422 84.0046 94.7495C84.0292 94.7568 84.0521 94.7689 84.0718 94.7853C84.0915 94.8016 84.1077 94.8219 84.1195 94.8447L84.3864 95.3168C84.4027 95.3458 84.4112 95.3785 84.4109 95.4118C84.4107 95.4451 84.4016 95.4777 84.3849 95.5064C84.3681 95.5351 84.3441 95.5589 84.3153 95.5755C84.2865 95.5921 84.2538 95.601 84.2205 95.601Z" fill="#16165C"/>
<path d="M7.2958 223.829L7.426 222.854C8.01681 222.855 8.61713 222.73 9.22559 222.489L9.37822 223.406C8.68107 223.685 7.97952 223.82 7.2958 223.829ZM5.31186 223.384C4.72059 223.094 4.19981 222.66 3.73847 222.1L4.40718 221.376C4.79628 221.859 5.25176 222.226 5.74866 222.477L5.31186 223.384ZM11.343 222.287L10.9645 221.496C11.4854 221.11 12.0283 220.628 12.5558 220.079L13.0672 220.754C12.5009 221.343 11.9193 221.863 11.343 222.287ZM46.8081 222.193C46.1604 222.183 45.5072 222.153 44.8663 222.095L45.0631 221.121C45.6887 221.169 46.3253 221.199 46.955 221.218L46.8081 222.193ZM48.7664 222.175L48.8716 221.2C49.5081 221.171 50.1557 221.124 50.7978 221.056L50.7341 222.031C50.0755 222.098 49.4196 222.146 48.7664 222.175ZM42.9493 221.882C42.314 221.785 41.6883 221.678 41.0668 221.543L41.3524 220.588C41.9573 220.723 42.5746 220.83 43.1947 220.917L42.9493 221.882ZM52.7114 221.762L52.7237 220.797C53.3712 220.691 54.0131 220.566 54.6578 220.422L54.6885 221.377C54.0355 221.522 53.3769 221.647 52.7114 221.762ZM39.2104 221.079C38.6027 220.904 37.9977 220.711 37.4038 220.498L37.7781 219.563C38.3554 219.775 38.9451 219.959 39.5445 220.133L39.2104 221.079ZM56.6764 220.857L56.6028 219.912C57.2446 219.729 57.8906 219.517 58.5212 219.295L58.6475 220.222C57.9891 220.462 57.3349 220.674 56.6764 220.857ZM2.70925 220.266C2.45576 219.59 2.28539 218.857 2.21067 218.094L3.05623 217.825C3.12528 218.51 3.27471 219.156 3.50589 219.755L2.70925 220.266ZM35.6482 219.793C35.0765 219.542 34.5004 219.262 33.9438 218.962L34.4042 218.065C34.9456 218.355 35.5063 218.625 36.0615 218.877L35.6482 219.793ZM60.6005 219.48L60.4298 218.573C61.0577 218.312 61.6896 218.023 62.3146 217.725L62.5379 218.612C61.8866 218.921 61.2463 219.21 60.6005 219.48ZM14.5858 218.97L13.9844 218.4C14.4134 217.841 14.8507 217.224 15.2698 216.558L15.9238 217.051C15.4936 217.735 15.0356 218.382 14.5858 218.97ZM32.2989 218.006C31.9865 217.803 31.6658 217.6 31.3631 217.388C31.1507 217.243 30.9396 217.088 30.7286 216.934L31.2653 216.085C31.4681 216.24 31.6722 216.385 31.8846 216.529C32.1873 216.742 32.4927 216.935 32.7967 217.138L32.2989 218.006ZM64.4267 217.62L64.1576 216.761C64.7631 216.423 65.3728 216.057 65.9755 215.681L66.2889 216.521C65.6779 216.897 65.0502 217.273 64.4267 217.62ZM29.2219 215.766C28.729 215.37 28.2457 214.964 27.7638 214.549L28.3367 213.739C28.8199 214.144 29.2949 214.55 29.7879 214.946L29.2219 215.766ZM2.25269 215.75C2.36652 214.949 2.57746 214.167 2.88003 213.444L3.66123 213.685C3.37247 214.37 3.19325 215.046 3.09314 215.75L2.25269 215.75ZM17.1425 215.035L16.4469 214.6C16.8245 213.934 17.1937 213.269 17.5574 212.584L18.264 212.999C17.9003 213.684 17.5214 214.359 17.1425 215.035ZM26.325 213.313C25.8514 212.898 25.3681 212.492 24.8835 212.096L25.4494 211.276C25.9327 211.682 26.4146 212.097 26.8979 212.503L26.325 213.313ZM4.71224 211.795L4.08036 211.264C4.53006 210.618 5.04917 210.01 5.62662 209.46L6.10899 210.165C5.58833 210.666 5.11906 211.216 4.71224 211.795ZM19.3327 210.925L18.6123 210.549C18.951 209.864 19.2897 209.179 19.6131 208.484C19.3022 208.33 18.9899 208.185 18.6832 208.059L19.0881 207.143C19.653 207.384 20.229 207.664 20.7995 207.983L20.3321 208.871C20.0018 209.556 19.67 210.25 19.3327 210.925ZM23.4198 210.918C23.2171 210.764 23.0144 210.609 22.8103 210.464C22.5159 210.252 22.2132 210.039 21.9092 209.837L22.4223 208.978C22.7333 209.191 23.0443 209.403 23.3456 209.625C23.5567 209.78 23.7594 209.934 23.9622 210.089L23.4198 210.918ZM7.75311 208.844L7.42033 208.024C8.03546 207.619 8.68534 207.262 9.3589 206.973L9.54619 207.88C8.92667 208.14 8.32251 208.468 7.75311 208.844ZM16.9556 207.45C16.3562 207.276 15.7485 207.16 15.1521 207.083L15.3807 206.118C16.0105 206.195 16.6487 206.331 17.2814 206.505L16.9556 207.45ZM11.4175 207.244L11.3785 206.289C11.9122 206.164 12.4405 206.077 12.9619 206.039C13.1131 206.03 13.2559 206.02 13.407 206.01L13.2935 206.985C13.159 206.994 13.0175 206.994 12.8816 207.014C12.4018 207.052 11.9082 207.129 11.4175 207.244ZM21.305 206.71L20.5515 206.391C20.8596 205.687 21.1511 204.983 21.4426 204.278L22.2086 204.568C21.9158 205.282 21.6146 205.996 21.305 206.71ZM23.0595 202.388L22.2893 202.127C22.5573 201.413 22.8182 200.69 23.0709 199.966L23.8548 200.188C23.5897 200.941 23.3288 201.664 23.0595 202.388ZM24.5891 198.008L23.7941 197.805C24.0301 197.081 24.2509 196.348 24.4633 195.615L25.2721 195.78C25.0486 196.532 24.8196 197.265 24.5891 198.008ZM25.8871 193.561L25.0742 193.425C25.2699 192.692 25.4574 191.959 25.6295 191.216L26.4466 191.322C26.273 192.075 26.0842 192.818 25.8871 193.561ZM26.9575 189.074L26.128 188.997C26.2836 188.254 26.4294 187.52 26.5683 186.778L27.4019 186.826C27.27 187.579 27.1214 188.331 26.9575 189.074ZM27.7977 184.569L26.96 184.549C27.041 184.037 27.1234 183.516 27.1961 183.005L27.2934 182.32L28.1353 182.311L28.0365 183.006C27.9625 183.527 27.8801 184.048 27.7977 184.569ZM27.559 180.101C27.6396 179.358 27.7119 178.615 27.7662 177.882L28.6163 177.815C28.5509 178.567 28.4855 179.32 28.4035 180.072L27.559 180.101ZM27.9249 175.653C27.9626 174.919 27.9933 174.177 28.0143 173.443L28.8643 173.318C28.8419 174.061 28.8098 174.814 28.7708 175.557L27.9249 175.653ZM28.0441 171.243C28.0485 170.51 28.0362 169.776 28.0142 169.053L28.8641 168.87C28.8833 169.613 28.8956 170.346 28.8898 171.089L28.0441 171.243ZM27.9331 166.872C27.8945 166.148 27.8476 165.425 27.7826 164.71L28.6338 164.46C28.6973 165.184 28.7429 165.917 28.7884 166.651L27.9331 166.872ZM27.5712 162.568C27.4896 161.854 27.3983 161.15 27.2987 160.445L28.1414 160.137C28.2397 160.851 28.3379 161.565 28.4181 162.289L27.5712 162.568ZM26.9653 158.341C26.8393 157.647 26.7134 156.952 26.5695 156.267L27.4038 155.9C27.5464 156.595 27.6792 157.3 27.8038 158.004L26.9653 158.341Z" fill="#FF0C57" fill-opacity="0.4"/>
<path d="M18.232 160.889L18.9758 161.247L21.1698 156.765L24.6661 158.868L25.1653 157.988L20.9053 155.429L18.232 160.889Z" fill="#FF0C57" fill-opacity="0.8"/>
<path d="M364.009 225.705L363.554 224.664C363.122 224.674 362.637 224.551 362.104 224.303L362.33 225.287C362.943 225.575 363.505 225.707 364.009 225.705ZM365.295 225.195C365.621 224.875 365.841 224.401 365.972 223.793L365.217 223.03C365.11 223.554 364.912 223.954 364.641 224.232L365.295 225.195ZM360.481 224.123L360.466 223.27C359.943 222.865 359.368 222.358 358.78 221.779L358.655 222.511C359.286 223.131 359.903 223.679 360.481 224.123ZM334.515 224.622C334.984 224.601 335.451 224.558 335.898 224.485L335.395 223.445C334.956 223.508 334.501 223.55 334.048 223.582L334.515 224.622ZM333.076 224.636L332.64 223.595C332.164 223.575 331.673 223.534 331.179 223.473L331.584 224.516C332.091 224.576 332.588 224.617 333.076 224.636ZM337.221 224.224C337.65 224.11 338.068 223.985 338.473 223.829L337.912 222.812C337.52 222.967 337.108 223.091 336.686 223.195L337.221 224.224ZM330.039 224.261L329.675 223.228C329.162 223.126 328.647 223.003 328.122 222.859L328.452 223.883C328.983 224.026 329.51 224.149 330.039 224.261ZM339.659 223.301C340.039 223.104 340.41 222.887 340.766 222.649L340.148 221.654C339.804 221.891 339.44 222.098 339.066 222.294L339.659 223.301ZM326.807 223.36L326.512 222.346C325.975 222.161 325.425 221.945 324.882 221.718L325.131 222.712C325.701 222.959 326.258 223.175 326.807 223.36ZM366.049 221.813C365.985 221.085 365.839 220.297 365.613 219.479L364.895 219.205C365.097 219.94 365.226 220.634 365.278 221.279L366.049 221.813ZM341.79 221.864C342.115 221.586 342.433 221.276 342.73 220.946L342.063 219.993C341.774 220.313 341.463 220.612 341.15 220.89L341.79 221.864ZM323.43 221.951L323.22 220.977C322.665 220.709 322.097 220.41 321.529 220.101L321.693 221.056C322.283 221.375 322.858 221.673 323.43 221.951ZM356.887 220.626L357.117 220.006C356.597 219.415 356.05 218.761 355.498 218.056L355.201 218.594C355.768 219.32 356.341 220.004 356.887 220.626ZM343.58 219.894C343.734 219.672 343.894 219.449 344.037 219.217C344.138 219.058 344.236 218.889 344.333 218.72L343.628 217.82C343.537 217.989 343.441 218.148 343.339 218.306C343.196 218.539 343.044 218.751 342.896 218.973L343.58 219.894ZM319.946 220.025L319.827 219.1C319.259 218.75 318.679 218.368 318.099 217.975L318.18 218.88C318.765 219.272 319.363 219.664 319.946 220.025ZM345.004 217.443C345.219 217.011 345.422 216.569 345.622 216.116L344.904 215.258C344.7 215.701 344.503 216.143 344.288 216.575L345.004 217.443ZM364.718 216.97C364.339 216.114 363.897 215.281 363.409 214.512L362.927 214.784C363.391 215.512 363.771 216.232 364.103 216.984L364.718 216.97ZM353.567 216.456L353.915 215.979C353.394 215.273 352.879 214.567 352.36 213.84L351.997 214.296C352.515 215.023 353.041 215.74 353.567 216.456ZM346.218 214.768C346.411 214.316 346.615 213.874 346.824 213.441L346.108 212.573C345.904 213.016 345.705 213.468 345.501 213.911L346.218 214.768ZM361.462 212.777L361.728 212.198C361.161 211.514 360.557 210.872 359.932 210.293L359.839 211.056C360.405 211.584 360.951 212.164 361.462 212.777ZM350.451 212.094L350.839 211.678C350.339 210.951 349.838 210.223 349.346 209.485C349.516 209.314 349.691 209.154 349.869 209.014L349.235 208.04C348.911 208.308 348.593 208.618 348.294 208.969L348.963 209.911C349.457 210.639 349.955 211.377 350.451 212.094ZM347.46 212.155C347.551 211.986 347.642 211.818 347.738 211.659C347.875 211.427 348.018 211.194 348.166 210.972L347.474 210.061C347.325 210.294 347.176 210.527 347.037 210.77C346.94 210.939 346.849 211.108 346.757 211.276L347.46 212.155ZM358.15 209.669L358.091 208.785C357.492 208.362 356.886 207.991 356.287 207.693L356.484 208.668C357.033 208.936 357.595 209.276 358.15 209.669ZM350.908 208.333C351.282 208.137 351.683 208.002 352.091 207.909L351.568 206.88C351.136 206.973 350.72 207.129 350.321 207.326L350.908 208.333ZM354.881 208.019L354.558 206.995C354.121 206.87 353.703 206.787 353.308 206.755C353.194 206.747 353.086 206.739 352.972 206.731L353.414 207.773C353.516 207.781 353.619 207.778 353.726 207.797C354.091 207.829 354.48 207.903 354.881 208.019ZM347.455 207.614L347.888 207.26C347.403 206.511 346.931 205.762 346.458 205.013L346.005 205.336C346.482 206.096 346.965 206.855 347.455 207.614ZM344.579 203.016L345.046 202.724C344.587 201.964 344.129 201.194 343.678 200.424L343.186 200.675C343.658 201.476 344.115 202.246 344.579 203.016ZM341.846 198.353L342.352 198.122C341.913 197.352 341.481 196.57 341.056 195.789L340.525 195.979C340.966 196.781 341.403 197.562 341.846 198.353ZM339.257 193.613L339.802 193.454C339.388 192.673 338.981 191.891 338.581 191.098L338.023 191.226C338.427 192.029 338.839 192.821 339.257 193.613ZM336.821 188.828L337.399 188.731C337.011 187.938 336.634 187.156 336.259 186.363L335.667 186.429C336.041 187.232 336.427 188.036 336.821 188.828ZM334.546 184.019L335.151 183.983C334.903 183.437 334.651 182.881 334.409 182.334L334.085 181.603L333.467 181.607L333.795 182.349C334.041 182.906 334.293 183.462 334.546 184.019ZM333.073 179.231C332.74 178.437 332.414 177.643 332.104 176.859L331.457 176.801C331.783 177.606 332.108 178.411 332.445 179.215L333.073 179.231ZM331.166 174.475C330.868 173.691 330.572 172.896 330.286 172.111L329.619 171.991C329.909 172.786 330.21 173.592 330.512 174.387L331.166 174.475ZM329.453 169.756C329.18 168.971 328.919 168.185 328.668 167.41L327.979 167.229C328.239 168.025 328.5 168.81 328.778 169.605L329.453 169.756ZM327.923 165.074C327.685 164.299 327.452 163.523 327.237 162.757L326.522 162.504C326.742 163.28 326.979 164.065 327.216 164.851L327.923 165.074ZM326.601 160.46C326.398 159.694 326.205 158.938 326.018 158.182L325.288 157.867C325.48 158.633 325.671 159.399 325.879 160.175L326.601 160.46ZM325.486 155.924C325.322 155.178 325.158 154.432 325.011 153.696L324.266 153.318C324.418 154.065 324.58 154.821 324.749 155.578L325.486 155.924Z" fill="#FF0C57" fill-opacity="0.4"/>
<path d="M346.209 159.796L345.786 160.197L342.403 155.379L340.574 157.715L339.858 156.769L342.087 153.928L346.209 159.796Z" fill="#FF0C57" fill-opacity="0.8"/>
<path d="M358.022 118.006C357.35 114.766 356.18 111.764 354.191 109.103C353.921 108.743 353.962 108.424 354.121 108.05C354.636 106.835 354.916 105.56 355.114 104.26C355.714 100.342 355.384 96.4897 354.371 92.6772C352.91 87.1859 350.834 81.961 347.646 77.223C347.325 76.7445 347.277 76.3203 347.447 75.7629C348.023 73.8879 348.093 71.9951 347.537 70.0879C346.606 66.8895 345.327 63.8376 343.767 60.8992C341.049 55.7791 337.228 51.6524 332.44 48.4129C329.253 46.2574 325.892 44.3856 322.538 42.5051C321.606 41.9832 320.668 41.4722 319.733 40.9563C319.755 40.8917 319.776 40.8259 319.797 40.7614C320.373 40.7818 320.95 40.7955 321.526 40.8249C321.912 40.8443 322.286 40.7964 322.63 40.6211C323.2 40.3298 323.254 39.7568 322.753 39.3596C322.471 39.136 322.126 39.0609 321.783 38.9879C320.328 38.6795 318.853 38.4965 317.384 38.2824C316.952 38.22 316.515 38.1829 316.079 38.1615C315.409 38.1297 314.881 38.398 314.56 38.9948C314.252 39.5686 314.49 40.0559 314.847 40.5199C315.857 41.8369 316.731 43.247 317.631 44.6392C318.026 45.25 318.419 45.8633 318.818 46.4713C319.001 46.7518 319.235 46.9948 319.605 46.8738C320.005 46.7438 320.077 46.3866 320.064 46.0214C320.058 45.8506 319.998 45.6795 319.955 45.5109C319.777 44.8326 319.486 44.1969 319.202 43.5595C319.065 43.2532 318.831 42.9809 318.778 42.6013C319.021 42.5678 319.156 42.6849 319.298 42.7729C323.529 45.3974 327.825 47.9193 331.862 50.8467C334.135 52.495 336.199 54.3668 337.999 56.5251C341.469 60.6868 343.701 65.4915 345.295 70.6182C345.611 71.6332 345.748 72.6978 345.503 73.9254C345.192 73.5212 344.96 73.2329 344.744 72.9349C343.12 70.6969 341.141 68.8195 338.884 67.2369C336.573 65.6146 334.033 64.7721 331.164 64.9832C328.297 65.1942 326.956 67.7563 327.152 69.8813C327.28 71.2697 327.705 72.5583 328.446 73.7348C330.381 76.8034 333.063 78.9322 336.513 80.0869C339.485 81.081 342.311 80.7418 345.008 79.1837C345.717 78.7742 345.752 78.787 346.208 79.5326C348.067 82.5742 349.58 85.773 350.697 89.1626C351.509 91.626 352.235 94.1098 352.666 96.666C353.171 99.6545 353.011 102.638 352.436 105.604C352.388 105.848 352.387 106.131 352.143 106.302C351.866 106.292 351.746 106.07 351.598 105.903C350.882 105.096 350.108 104.347 349.306 103.629C347.873 102.346 346.243 101.402 344.366 100.939C341.045 100.116 338.793 101.575 338.036 104.913C337.157 108.786 340.126 112.896 343.784 113.27C345.619 113.458 347.383 113.318 349.092 112.599C350.203 112.132 351.221 111.517 352.138 110.739C352.465 110.461 352.684 110.502 352.906 110.855C353.406 111.642 353.889 112.436 354.315 113.266C355.229 115.043 355.725 116.954 356.141 118.893C356.817 122.038 356.923 125.193 356.118 128.322C354.885 133.118 350.348 136.67 345.008 136.003C344.543 135.945 344.085 135.88 343.701 135.571C343.513 135.421 343.294 135.285 343.097 135.545C342.92 135.777 343.06 135.99 343.208 136.175C343.574 136.634 344.101 136.814 344.644 136.945C346.292 137.343 347.959 137.345 349.578 136.892C354.133 135.617 356.981 132.623 358.079 128.048C358.883 124.712 358.718 121.361 358.022 118.006ZM344.015 77.2599C343.275 77.8343 341.814 78.3583 340.406 78.5261C339.729 78.6542 338.948 78.5848 338.177 78.4071C334.748 77.6188 332.082 75.7351 330.206 72.7668C329.544 71.7196 329.14 70.5661 329.237 69.3021C329.337 67.9881 330.025 67.2753 331.34 67.1863C333.419 67.0455 335.301 67.6697 337.03 68.7962C339.427 70.3576 341.374 72.3764 343.036 74.6843C343.427 75.2267 343.821 75.7676 344.186 76.3266C344.499 76.8049 344.464 76.9106 344.015 77.2599ZM350.62 109.068C349.305 110.241 347.755 110.929 345.971 111.243C345.212 111.247 344.401 111.27 343.592 111.13C341.531 110.771 339.506 108.12 340.043 105.504C340.505 103.247 341.59 102.501 343.836 102.995C345.022 103.255 346.072 103.805 347.047 104.51C348.423 105.504 349.57 106.741 350.695 107.998C351.142 108.499 351.127 108.615 350.62 109.068Z" fill="#FF0C57"/>
<path d="M9.90121 118.006C10.5729 114.766 11.7437 111.764 13.7323 109.103C14.0022 108.743 13.9611 108.424 13.8024 108.05C13.2874 106.835 13.0078 105.56 12.809 104.26C12.2094 100.342 12.5394 96.4897 13.5525 92.6772C15.013 87.1859 17.089 81.961 20.2772 77.223C20.5985 76.7445 20.6468 76.3203 20.4759 75.7629C19.9007 73.8879 19.8301 71.9951 20.386 70.0879C21.317 66.8895 22.5965 63.8376 24.1562 60.8992C26.8748 55.7791 30.6951 51.6524 35.4838 48.4129C38.6706 46.2574 42.0314 44.3856 45.3853 42.5051C46.3172 41.9832 47.2557 41.4722 48.1903 40.9563C48.1686 40.8917 48.1471 40.8259 48.1265 40.7614C47.5503 40.7818 46.9737 40.7955 46.3975 40.8249C46.0112 40.8443 45.6374 40.7964 45.2934 40.6211C44.7238 40.3298 44.6689 39.7568 45.1703 39.3596C45.4522 39.136 45.7977 39.0609 46.1408 38.9879C47.5951 38.6795 49.0706 38.4965 50.5397 38.2824C50.9718 38.22 51.4088 38.1829 51.844 38.1615C52.5142 38.1297 53.0425 38.398 53.3634 38.9948C53.6712 39.5686 53.4336 40.0559 53.0767 40.5199C52.0659 41.8369 51.192 43.247 50.292 44.6392C49.8974 45.25 49.5047 45.8633 49.1058 46.4713C48.9222 46.7518 48.6888 46.9948 48.318 46.8738C47.9178 46.7438 47.8463 46.3866 47.8593 46.0214C47.865 45.8506 47.9249 45.6795 47.9687 45.5109C48.1466 44.8326 48.4369 44.1969 48.7218 43.5595C48.8588 43.2532 49.0923 42.9809 49.1454 42.6013C48.902 42.5678 48.7672 42.6849 48.6257 42.7729C44.3947 45.3974 40.0981 47.9193 36.0615 50.8467C33.7879 52.495 31.7238 54.3668 29.9238 56.5251C26.4541 60.6868 24.2226 65.4915 22.6282 70.6182C22.3119 71.6332 22.175 72.6978 22.4207 73.9254C22.7309 73.5212 22.9629 73.2329 23.1791 72.9349C24.8034 70.6969 26.7823 68.8195 29.039 67.2369C31.3501 65.6146 33.8902 64.7721 36.759 64.9832C39.6266 65.1942 40.9672 67.7563 40.7718 69.8813C40.6437 71.2697 40.218 72.5583 39.477 73.7348C37.5426 76.8034 34.8605 78.9322 31.41 80.0869C28.4384 81.081 25.612 80.7418 22.915 79.1837C22.2058 78.7742 22.1716 78.787 21.7157 79.5326C19.8568 82.5742 18.3429 85.773 17.2265 89.1626C16.4146 91.626 15.6885 94.1098 15.2575 96.666C14.7525 99.6545 14.9123 102.638 15.4875 105.604C15.5353 105.848 15.5366 106.131 15.7805 106.302C16.0573 106.292 16.1776 106.07 16.325 105.903C17.0413 105.096 17.815 104.347 18.6178 103.629C20.0503 102.346 21.6808 101.402 23.5569 100.939C26.8785 100.116 29.1299 101.575 29.8869 104.913C30.7663 108.786 27.7975 112.896 24.1396 113.27C22.3042 113.458 20.5407 113.318 18.8316 112.599C17.7203 112.132 16.7025 111.517 15.7852 110.739C15.458 110.461 15.2397 110.502 15.0169 110.855C14.5177 111.642 14.0345 112.436 13.6082 113.266C12.6939 115.043 12.1986 116.954 11.7825 118.893C11.1063 122.038 11.0006 125.193 11.8049 128.322C13.0387 133.118 17.5756 136.67 22.9153 136.003C23.3808 135.945 23.8381 135.88 24.2228 135.571C24.4101 135.421 24.6296 135.285 24.8268 135.545C25.0036 135.777 24.863 135.99 24.7156 136.175C24.3492 136.634 23.8228 136.814 23.2798 136.945C21.6318 137.343 19.9644 137.345 18.3454 136.892C13.7904 135.617 10.9426 132.623 9.84384 128.048C9.04047 124.712 9.20569 121.361 9.90121 118.006ZM23.9088 77.2599C24.648 77.8343 26.1094 78.3583 27.5171 78.5261C28.1943 78.6542 28.9752 78.5848 29.7464 78.4071C33.1758 77.6188 35.8411 75.7351 37.7172 72.7668C38.3796 71.7196 38.7835 70.5661 38.6867 69.3021C38.5868 67.9881 37.8979 67.2753 36.5836 67.1863C34.5039 67.0455 32.6223 67.6697 30.8932 68.7962C28.4967 70.3576 26.5496 72.3764 24.8876 74.6843C24.4966 75.2267 24.1024 75.7676 23.7376 76.3266C23.4242 76.8049 23.4591 76.9106 23.9088 77.2599ZM17.3036 109.068C18.6187 110.241 20.1679 110.929 21.9524 111.243C22.711 111.247 23.5226 111.27 24.3312 111.13C26.3924 110.771 28.4171 108.12 27.8804 105.504C27.4183 103.247 26.3336 102.501 24.0869 102.995C22.9015 103.255 21.8511 103.805 20.8759 104.51C19.5002 105.504 18.3533 106.741 17.2288 107.998C16.7817 108.499 16.7962 108.615 17.3036 109.068Z" fill="#FF0C57"/>
</svg>
