<svg width="1139" height="703" viewBox="0 0 1139 703" fill="none" xmlns="http://www.w3.org/2000/svg">
<path d="M731.79 458.829C666.454 488.52 597.75 495.821 528.752 473.495C454.128 449.344 395.885 391.66 320.751 370.598C288.714 361.624 252.735 361.713 223.863 378.231C192.324 396.268 173.314 432.418 171.566 468.734C169.818 505.05 183.891 541.009 206.014 569.845C266.017 648.119 369.743 676.33 462.918 689.031C591.753 706.595 737.327 691.15 854.093 630.835C885.121 614.803 913.739 592.528 932.047 562.773C956.02 523.815 958.98 473.738 930.108 436.605C915.767 418.16 893.797 405.561 870.615 402.599C843.21 399.089 819.594 412.466 796.425 425.385C775.36 437.141 753.85 448.795 731.79 458.829Z" fill="#FF0C57" fill-opacity="0.5"/>
<path d="M172.778 260.526C164.396 260.526 157.57 253.697 157.57 245.31C157.57 236.924 164.396 230.094 172.778 230.094C181.161 230.094 187.986 236.924 187.986 245.31C187.999 253.697 181.173 260.526 172.778 260.526ZM172.778 231.728C165.302 231.728 159.216 237.817 159.216 245.297C159.216 252.778 165.302 258.879 172.778 258.879C180.268 258.879 186.353 252.79 186.353 245.297C186.353 237.817 180.268 231.728 172.778 231.728Z" fill="#FFC04D"/>
<path d="M22.793 30.4315C14.4107 30.4315 7.58493 23.6023 7.58493 15.2158C7.58493 6.82922 14.4107 0 22.793 0C31.1753 0 38.0011 6.82922 38.0011 15.2158C38.0139 23.6023 31.1881 30.4315 22.793 30.4315ZM22.793 1.63391C15.3166 1.63391 9.23077 7.72276 9.23077 15.203C9.23077 22.6832 15.3166 28.7848 22.793 28.7848C30.2822 28.7848 36.368 22.696 36.368 15.203C36.368 7.72276 30.2822 1.63391 22.793 1.63391Z" fill="#FFC04D"/>
<path d="M943.122 289.311C934.739 289.311 927.914 282.482 927.914 274.095C927.914 265.708 934.739 258.879 943.122 258.879C951.504 258.879 958.33 265.708 958.33 274.095C958.33 282.482 951.504 289.311 943.122 289.311ZM943.122 260.526C935.645 260.526 929.559 266.615 929.559 274.095C929.559 281.575 935.645 287.677 943.122 287.677C950.611 287.677 956.697 281.588 956.697 274.095C956.684 266.615 950.598 260.526 943.122 260.526Z" fill="#FF4A57"/>
<path d="M229.796 620.253C229.796 623.623 227.065 626.355 223.697 626.355C220.329 626.355 217.599 623.623 217.599 620.253C217.599 616.884 220.329 614.152 223.697 614.152C227.078 614.165 229.796 616.884 229.796 620.253Z" fill="#0082FF"/>
<path d="M293.129 692.898C293.129 696.268 290.399 699 287.03 699C283.662 699 280.932 696.268 280.932 692.898C280.932 689.528 283.662 686.797 287.03 686.797C290.399 686.797 293.129 689.528 293.129 692.898Z" stroke="#FF4A57" stroke-miterlimit="10"/>
<path d="M650.366 337.945C650.366 341.06 647.84 343.587 644.727 343.587C641.614 343.587 639.087 341.06 639.087 337.945C639.087 334.83 641.614 332.303 644.727 332.303C647.84 332.29 650.366 334.818 650.366 337.945Z" fill="#FF4A57"/>
<path d="M858.763 682.087C858.763 685.457 856.032 688.188 852.664 688.188C849.296 688.188 846.566 685.457 846.566 682.087C846.566 678.717 849.296 675.985 852.664 675.985C856.032 675.998 858.763 678.717 858.763 682.087Z" fill="#FF4A57"/>
<path d="M817.412 228.831C817.412 232.201 814.682 234.932 811.314 234.932C807.946 234.932 805.215 232.201 805.215 228.831C805.215 225.461 807.946 222.729 811.314 222.729C814.682 222.729 817.412 225.461 817.412 228.831Z" fill="#FFC04D"/>
<path d="M150.642 455.727C150.642 459.097 147.912 461.828 144.544 461.828C141.176 461.828 138.445 459.097 138.445 455.727C138.445 452.357 141.176 449.625 144.544 449.625C147.912 449.625 150.642 452.357 150.642 455.727Z" fill="#FF4A57"/>
<path d="M614.681 402.204C614.681 403.888 613.316 405.254 611.632 405.254C609.947 405.254 608.582 403.888 608.582 402.204C608.582 400.519 609.947 399.153 611.632 399.153C613.329 399.153 614.681 400.519 614.681 402.204Z" fill="#FFC04D"/>
<path d="M940.073 386.898C940.073 388.583 938.708 389.949 937.023 389.949C935.339 389.949 933.974 388.583 933.974 386.898C933.974 385.213 935.339 383.848 937.023 383.848C938.708 383.848 940.073 385.213 940.073 386.898Z" fill="#FFC965"/>
<path d="M395.286 332.29C395.286 333.975 393.921 335.341 392.237 335.341C390.553 335.341 389.187 333.975 389.187 332.29C389.187 330.605 390.553 329.239 392.237 329.239C393.921 329.252 395.286 330.618 395.286 332.29Z" fill="#FF4A57"/>
<path d="M943.122 544.979C943.122 546.664 941.757 548.03 940.073 548.03C938.388 548.03 937.023 546.664 937.023 544.979C937.023 543.294 938.388 541.928 940.073 541.928C941.757 541.928 943.122 543.294 943.122 544.979Z" stroke="#00B0AA" stroke-width="0.8862" stroke-miterlimit="10"/>
<path d="M296.166 274.095C296.166 275.78 294.801 277.146 293.116 277.146C291.432 277.146 290.067 275.78 290.067 274.095C290.067 272.41 291.432 271.044 293.116 271.044C294.801 271.044 296.166 272.41 296.166 274.095Z" stroke="#00B0AA" stroke-width="0.8862" stroke-miterlimit="10"/>
<path d="M234.989 285.047C234.989 286.732 233.624 288.098 231.94 288.098C230.255 288.098 228.89 286.732 228.89 285.047C228.89 283.362 230.255 281.996 231.94 281.996C233.624 281.996 234.989 283.375 234.989 285.047Z" fill="#0082FF"/>
<path d="M983.005 430.312C984.689 430.312 986.054 428.946 986.054 427.261C986.054 425.576 984.689 424.21 983.005 424.21C981.32 424.21 979.955 425.576 979.955 427.261C979.955 428.946 981.32 430.312 983.005 430.312Z" fill="#0082FF"/>
<path d="M885.977 197.595C885.977 199.28 884.612 200.646 882.928 200.646C881.243 200.646 879.878 199.28 879.878 197.595C879.878 195.91 881.243 194.544 882.928 194.544C884.612 194.557 885.977 195.91 885.977 197.595Z" fill="#0082FF"/>
<path d="M782.633 304.999C775.003 304.999 768.79 298.782 768.79 291.149C768.79 283.515 775.003 277.299 782.633 277.299C790.262 277.299 796.476 283.515 796.476 291.149C796.476 298.782 790.262 304.999 782.633 304.999ZM782.633 278.933C775.909 278.933 770.423 284.409 770.423 291.149C770.423 297.876 775.896 303.365 782.633 303.365C789.356 303.365 794.843 297.889 794.843 291.149C794.83 284.422 789.356 278.933 782.633 278.933Z" fill="#00B0AA"/>
<path d="M1022.61 54.8962C1014.98 54.8962 1008.77 48.6797 1008.77 41.0463C1008.77 33.4129 1014.98 27.1964 1022.61 27.1964C1030.24 27.1964 1036.45 33.4129 1036.45 41.0463C1036.45 48.6797 1030.24 54.8962 1022.61 54.8962ZM1022.61 28.8303C1015.89 28.8303 1010.4 34.3065 1010.4 41.0463C1010.4 47.7734 1015.87 53.2623 1022.61 53.2623C1029.33 53.2623 1034.82 47.7862 1034.82 41.0463C1034.81 34.3192 1029.33 28.8303 1022.61 28.8303Z" fill="#00B0AA"/>
<path d="M207.213 482.354C200.834 482.354 195.642 477.159 195.642 470.776C195.642 464.394 200.834 459.199 207.213 459.199C213.593 459.199 218.785 464.394 218.785 470.776C218.785 477.159 213.58 482.354 207.213 482.354ZM207.213 460.845C201.74 460.845 197.287 465.3 197.287 470.776C197.287 476.253 201.74 480.708 207.213 480.708C212.687 480.708 217.14 476.253 217.14 470.776C217.14 465.3 212.687 460.845 207.213 460.845Z" fill="#00B0AA"/>
<path d="M926.051 486.567C920.96 486.567 916.814 482.418 916.814 477.325C916.814 472.232 920.96 468.083 926.051 468.083C931.141 468.083 935.288 472.232 935.288 477.325C935.301 482.418 931.154 486.567 926.051 486.567ZM926.051 469.717C921.866 469.717 918.447 473.125 918.447 477.325C918.447 481.525 921.853 484.933 926.051 484.933C930.235 484.933 933.655 481.525 933.655 477.325C933.655 473.125 930.248 469.717 926.051 469.717Z" fill="#FFB5D6"/>
<path d="M871.891 330.044C866.8 330.044 862.654 325.895 862.654 320.802C862.654 315.709 866.8 311.56 871.891 311.56C876.982 311.56 881.128 315.709 881.128 320.802C881.128 325.895 876.982 330.044 871.891 330.044ZM871.891 313.194C867.706 313.194 864.287 316.602 864.287 320.802C864.287 325.001 867.694 328.41 871.891 328.41C876.076 328.41 879.495 325.001 879.495 320.802C879.495 316.602 876.076 313.194 871.891 313.194Z" fill="#0082FF"/>
<path d="M946.668 633.248C941.578 633.248 937.431 629.099 937.431 624.006C937.431 618.913 941.578 614.764 946.668 614.764C951.759 614.764 955.905 618.913 955.905 624.006C955.905 629.099 951.759 633.248 946.668 633.248ZM946.668 616.398C942.483 616.398 939.064 619.807 939.064 624.006C939.064 628.193 942.471 631.614 946.668 631.614C950.853 631.614 954.272 628.206 954.272 624.006C954.26 619.819 950.853 616.398 946.668 616.398Z" fill="#FFC04D"/>
<path d="M490.655 374.618C484.493 374.618 479.479 369.602 479.479 363.436C479.479 357.271 484.493 352.254 490.655 352.254C496.818 352.254 501.832 357.271 501.832 363.436C501.832 369.602 496.818 374.618 490.655 374.618ZM490.655 353.697C485.284 353.697 480.921 358.062 480.921 363.436C480.921 368.81 485.284 373.176 490.655 373.176C496.027 373.176 500.39 368.81 500.39 363.436C500.39 358.062 496.027 353.697 490.655 353.697Z" fill="#0082FF"/>
<path d="M166.31 690.422C161.717 690.422 157.991 686.682 157.991 682.099C157.991 677.504 161.73 673.777 166.31 673.777C170.903 673.777 174.628 677.517 174.628 682.099C174.628 686.682 170.903 690.422 166.31 690.422ZM166.31 675.411C162.623 675.411 159.624 678.41 159.624 682.099C159.624 685.788 162.623 688.788 166.31 688.788C169.997 688.788 172.995 685.788 172.995 682.099C172.995 678.41 169.997 675.411 166.31 675.411Z" fill="#FFB5D6"/>
<path d="M863.078 353.549C863.076 360.659 865.183 367.61 869.132 373.522C873.081 379.434 878.694 384.043 885.262 386.765C891.83 389.487 899.058 390.2 906.032 388.814C913.005 387.428 919.411 384.005 924.439 378.978C929.467 373.951 932.891 367.547 934.279 360.574C935.667 353.601 934.955 346.372 932.235 339.804C929.514 333.235 924.907 327.62 918.996 323.67C913.084 319.72 906.134 317.612 899.024 317.612C889.492 317.612 880.351 321.398 873.61 328.137C866.869 334.876 863.08 344.017 863.078 353.549Z" fill="#F9F1CF"/>
<path d="M652.728 380.686C652.577 380.659 652.434 380.602 652.305 380.52C652.176 380.437 652.065 380.33 651.978 380.205C651.89 380.08 651.829 379.938 651.796 379.789C651.763 379.64 651.76 379.485 651.787 379.335L654.086 366.519L651.929 368.402C651.814 368.503 651.68 368.58 651.535 368.629C651.391 368.677 651.238 368.697 651.085 368.687C650.933 368.677 650.784 368.636 650.647 368.568C650.51 368.5 650.388 368.406 650.287 368.291C650.187 368.176 650.11 368.042 650.061 367.897C650.012 367.752 649.992 367.599 650.003 367.447C650.013 367.294 650.053 367.145 650.121 367.008C650.189 366.872 650.283 366.749 650.398 366.649L655.054 362.587C655.236 362.428 655.463 362.33 655.703 362.305C655.944 362.281 656.186 362.332 656.396 362.452C656.606 362.571 656.773 362.753 656.875 362.972C656.978 363.191 657.009 363.436 656.965 363.674L654.081 379.749C654.026 380.053 653.852 380.322 653.598 380.497C653.345 380.673 653.031 380.741 652.728 380.686V380.686Z" fill="#FC5F4F"/>
<path d="M785.941 576.845L793.076 599.12L812.548 592.172L802.796 563.496L785.941 576.845Z" fill="#FFC7C1"/>
<path d="M779.785 624.122C778.73 624.486 777.575 624.433 776.558 623.973C775.541 623.513 774.739 622.681 774.316 621.648C771.445 614.577 774.536 609.489 781.965 605.845C786.998 603.375 789.092 597.066 789.766 593.829C789.864 593.373 790.131 592.971 790.514 592.705C790.897 592.439 791.367 592.328 791.829 592.396C799.638 593.453 805.747 591.15 810.586 586.332C810.791 586.125 811.042 585.971 811.319 585.881C811.595 585.791 811.889 585.768 812.177 585.814C812.464 585.86 812.736 585.974 812.97 586.146C813.205 586.318 813.395 586.543 813.526 586.803C815.826 591.416 819.738 598.494 822.743 603.838C823.057 604.395 823.244 605.014 823.291 605.651C823.339 606.288 823.246 606.928 823.019 607.526C822.792 608.123 822.437 608.663 821.978 609.108C821.52 609.553 820.969 609.892 820.365 610.101L779.785 624.122Z" fill="#7655FF"/>
<path d="M775.576 399.762C775.576 399.762 742.382 441.995 747.545 482.561C751.364 512.574 770.683 559.078 779.197 578.515C780.305 581.047 782.27 583.108 784.746 584.336C787.223 585.563 790.052 585.878 792.738 585.226L808.276 581.452C809.266 581.211 810.131 580.612 810.705 579.77C811.278 578.928 811.519 577.903 811.38 576.894C807.591 549.479 796.975 501.937 788.986 484.168C788.986 484.168 825.51 439.7 822.261 400.462" fill="#FFA766"/>
<path d="M682.291 354.838C682.291 354.838 659.827 360.315 662.141 346.357C663.865 335.95 675.74 341.169 675.74 341.169C675.74 341.169 672.426 336.711 673.962 334.989C676.606 332.027 681.627 337.53 683.763 342.132L682.291 354.838Z" fill="#FFC7C1"/>
<path d="M875.654 254.716C875.654 254.716 890.231 237.771 876.74 233.503C866.683 230.322 865.95 243.273 865.95 243.273C865.95 243.273 863.479 238.298 861.248 238.886C857.409 239.899 860.037 246.87 863.169 250.86L875.654 254.716Z" fill="#FFC7C1"/>
<path d="M908.732 538.434L929.255 549.657L938.574 531.202L911.742 517.144L908.732 538.434Z" fill="#FFC7C1"/>
<path d="M936.856 576.931C936.343 577.922 935.47 578.68 934.417 579.048C933.364 579.415 932.209 579.366 931.191 578.91C924.237 575.764 922.971 569.948 925.837 562.187C927.782 556.93 924.95 550.915 923.207 548.105C922.965 547.707 922.882 547.232 922.976 546.775C923.07 546.318 923.334 545.914 923.714 545.644C930.102 541.029 932.94 535.149 933.126 528.323C933.132 528.032 933.208 527.747 933.346 527.491C933.485 527.235 933.682 527.016 933.922 526.852C934.162 526.687 934.437 526.582 934.726 526.545C935.014 526.508 935.307 526.54 935.581 526.638C940.427 528.396 948.14 530.828 954 532.628C954.611 532.815 955.173 533.135 955.647 533.564C956.12 533.993 956.494 534.521 956.742 535.11C956.989 535.699 957.104 536.335 957.078 536.974C957.052 537.613 956.887 538.238 956.593 538.805L936.856 576.931Z" fill="#7655FF"/>
<path d="M808.626 413.212C808.626 413.212 799.668 474.11 827.46 504.109C846.89 525.082 885.538 539.08 904.859 545.079C908.12 546.093 911.626 545.987 914.82 544.779C918.014 543.571 920.713 541.33 922.488 538.413L929.019 527.674C929.759 526.469 930.064 525.047 929.882 523.644C929.701 522.242 929.045 520.944 928.023 519.966C909.311 502.285 878.639 490.946 862.109 481.316C862.109 481.316 873.789 426.031 848.327 396" fill="#FFA766"/>
<path d="M807.008 455.544C806.912 455.544 806.819 455.509 806.748 455.446C806.676 455.382 806.631 455.294 806.62 455.199C805.111 441.216 805.217 427.107 806.934 413.148C806.951 413.047 807.006 412.956 807.088 412.895C807.17 412.833 807.273 412.807 807.375 412.821C807.477 412.836 807.568 412.89 807.63 412.973C807.691 413.055 807.717 413.159 807.702 413.261C805.994 427.153 805.89 441.196 807.392 455.112C807.404 455.214 807.374 455.316 807.31 455.397C807.246 455.477 807.153 455.529 807.051 455.541C807.036 455.543 807.022 455.544 807.008 455.544V455.544Z" fill="#16165C"/>
<path d="M765.731 408.148C762.239 405.937 775.886 386.673 769.336 378.453C760.168 366.948 755.956 341.342 781.658 331.332C807.36 321.323 835.495 317.534 840.365 352.705C845.235 387.876 860.811 406.202 847.546 405.379C818.378 403.568 795.094 426.745 765.731 408.148Z" fill="#7655FF"/>
<path d="M816.258 324.668C816.258 324.668 838.278 307.412 842.878 299.49C849.479 288.125 852.442 260.251 860.778 250.062C861.699 248.011 877.575 252.769 877.834 255.323C877.834 255.323 873.538 296.009 869.13 308.765C863.848 324.051 845.266 353.42 829.566 359.948" fill="#7655FF"/>
<path d="M782.056 331.178C782.056 331.178 747.474 349.58 734.77 349.8C721.925 350.025 696.318 336.185 684.315 340.049C682.498 339.806 680.313 355.33 682.154 356.205C682.154 356.205 717.33 375.255 730.665 377.338C746.644 379.832 776.136 372.125 789.26 361.313" fill="#7655FF"/>
<path d="M801.931 326.518C801.896 334.862 787.001 334.71 787.048 326.363L787.094 325.228L787.1 324.931L787.153 322.544H787.182C790.955 322.386 794.585 321.055 797.564 318.735C798.827 317.803 799.975 316.726 800.988 315.527L801.931 326.518Z" fill="#FFC7C1"/>
<path d="M797.565 318.738C794.792 321.825 791.14 323.987 787.101 324.934L787.153 322.547H787.182C790.955 322.389 794.585 321.058 797.565 318.738V318.738Z" fill="#16165C"/>
<path d="M777.637 299.527C777.807 310.509 776.677 319.099 782.66 321.669C789.903 324.778 799.778 319.189 803.255 312.116C806.732 305.042 802.323 299.528 795.25 296.054C788.176 292.58 777.515 291.645 777.637 299.527Z" fill="#FFC7C1"/>
<path d="M777.694 298.723C777.694 298.723 782.294 307.503 796.401 303.977C805.214 301.774 792.822 309.891 799.33 314.044C803.598 316.765 807.454 307.625 808.198 304.206C812.776 283.177 775.26 277.97 775.82 296.049C775.897 298.605 775.772 301.259 777.635 304.314L777.694 298.723Z" fill="#16165C"/>
<path d="M802.757 306.228C802.757 306.992 802.531 307.739 802.107 308.374C801.683 309.01 801.079 309.505 800.374 309.798C799.668 310.09 798.891 310.167 798.142 310.018C797.392 309.869 796.704 309.501 796.164 308.961C795.624 308.42 795.256 307.732 795.107 306.982C794.958 306.233 795.035 305.456 795.328 304.75C795.62 304.045 796.116 303.442 796.751 303.017C797.387 302.593 798.134 302.367 798.898 302.368C799.921 302.369 800.903 302.776 801.626 303.499C802.35 304.223 802.756 305.204 802.757 306.228V306.228Z" fill="#16165C"/>
<path d="M802.123 314.062C801.705 314.54 801.158 314.887 800.548 315.061C799.937 315.234 799.289 315.226 798.683 315.037C798.076 314.849 797.538 314.488 797.133 313.999C796.728 313.51 796.474 312.914 796.402 312.283C796.33 311.653 796.442 311.014 796.726 310.447C797.01 309.879 797.453 309.406 798.001 309.085C798.549 308.765 799.178 308.61 799.812 308.641C800.446 308.671 801.058 308.886 801.572 309.258C802.281 309.823 802.736 310.646 802.84 311.546C802.943 312.446 802.685 313.351 802.123 314.062V314.062Z" fill="#FFC7C1"/>
<path d="M782.199 312.169C781.697 311.294 783.112 309.676 783.745 309.021C783.78 308.981 783.822 308.949 783.869 308.926C783.917 308.903 783.968 308.89 784.021 308.888C784.074 308.886 784.126 308.894 784.175 308.913C784.225 308.932 784.27 308.96 784.308 308.997C784.346 309.033 784.376 309.077 784.396 309.126C784.416 309.174 784.426 309.227 784.426 309.279C784.425 309.332 784.414 309.384 784.393 309.432C784.372 309.48 784.341 309.524 784.302 309.56C783.383 310.514 782.75 311.577 782.873 311.782C782.873 311.782 783.066 311.963 784.099 311.709C784.148 311.697 784.199 311.694 784.249 311.702C784.299 311.71 784.348 311.727 784.391 311.754C784.434 311.78 784.472 311.815 784.502 311.856C784.531 311.897 784.553 311.944 784.564 311.993C784.588 312.093 784.571 312.197 784.518 312.284C784.465 312.371 784.379 312.434 784.28 312.458C783.57 312.638 782.564 312.802 782.199 312.169Z" fill="#16165C"/>
<path d="M780.953 315.482C780.91 315.389 780.907 315.282 780.943 315.186C780.979 315.089 781.051 315.011 781.145 314.968C781.239 314.926 781.346 314.922 781.442 314.958C781.538 314.994 781.617 315.067 781.659 315.16C782.292 316.551 783.511 316.202 784.524 315.238C784.598 315.167 784.698 315.128 784.801 315.131C784.904 315.133 785.001 315.176 785.073 315.25C785.144 315.325 785.182 315.424 785.18 315.527C785.178 315.63 785.135 315.728 785.06 315.799C783.62 317.185 781.802 317.351 780.953 315.482Z" fill="#16165C"/>
<path d="M789.291 310.817C789.291 310.989 789.239 311.157 789.143 311.3C789.047 311.443 788.911 311.554 788.752 311.619C788.594 311.685 788.419 311.702 788.25 311.668C788.081 311.634 787.927 311.551 787.805 311.43C787.683 311.308 787.601 311.154 787.567 310.985C787.533 310.816 787.55 310.642 787.616 310.483C787.681 310.324 787.792 310.187 787.935 310.092C788.078 309.996 788.246 309.944 788.418 309.944C788.532 309.943 788.646 309.966 788.752 310.01C788.858 310.054 788.955 310.118 789.036 310.199C789.117 310.28 789.182 310.376 789.225 310.483C789.269 310.589 789.292 310.703 789.291 310.817V310.817Z" fill="#16165C"/>
<path d="M790.632 309.188C790.311 308.749 789.87 308.412 789.362 308.218C788.854 308.025 788.301 307.982 787.769 308.096C787.719 308.109 787.666 308.111 787.615 308.103C787.564 308.095 787.515 308.078 787.471 308.051C787.427 308.024 787.389 307.988 787.359 307.946C787.329 307.904 787.307 307.856 787.296 307.806C787.285 307.755 787.283 307.703 787.292 307.652C787.301 307.601 787.32 307.553 787.348 307.509C787.377 307.466 787.413 307.428 787.456 307.399C787.499 307.37 787.547 307.35 787.597 307.34C788.285 307.187 789.003 307.241 789.659 307.496C790.316 307.75 790.883 308.194 791.287 308.771C791.342 308.858 791.361 308.963 791.338 309.064C791.316 309.164 791.255 309.252 791.168 309.307C791.081 309.362 790.976 309.381 790.875 309.359C790.775 309.336 790.687 309.275 790.632 309.188V309.188Z" fill="#16165C"/>
<path d="M780.424 309.128C780.455 309.297 780.435 309.472 780.367 309.63C780.299 309.788 780.186 309.923 780.041 310.016C779.897 310.11 779.728 310.159 779.556 310.157C779.384 310.155 779.217 310.102 779.075 310.005C778.933 309.908 778.822 309.771 778.758 309.611C778.694 309.452 778.678 309.277 778.714 309.108C778.749 308.94 778.833 308.785 778.955 308.665C779.078 308.544 779.234 308.462 779.403 308.43C779.515 308.408 779.632 308.409 779.744 308.433C779.857 308.456 779.964 308.501 780.059 308.566C780.154 308.631 780.235 308.714 780.297 308.811C780.36 308.907 780.403 309.015 780.424 309.128V309.128Z" fill="#16165C"/>
<path d="M781.496 307.382C781.101 307.007 780.605 306.755 780.068 306.658C779.532 306.562 778.979 306.625 778.478 306.839C778.384 306.88 778.277 306.882 778.181 306.844C778.085 306.807 778.008 306.733 777.967 306.638C777.926 306.544 777.924 306.437 777.962 306.341C777.999 306.245 778.073 306.169 778.168 306.128C778.815 305.849 779.53 305.768 780.223 305.896C780.916 306.025 781.555 306.356 782.059 306.847C782.13 306.922 782.167 307.023 782.164 307.126C782.161 307.228 782.117 307.326 782.042 307.396C781.967 307.467 781.867 307.505 781.764 307.501C781.661 307.498 781.564 307.454 781.494 307.379L781.496 307.382Z" fill="#16165C"/>
<path d="M839.908 352.253C839.538 349.64 838.973 347.057 838.219 344.528C838.204 344.479 838.199 344.428 838.204 344.377C838.209 344.326 838.224 344.277 838.248 344.232C838.272 344.187 838.304 344.148 838.344 344.115C838.383 344.083 838.428 344.058 838.477 344.044C838.526 344.029 838.577 344.024 838.628 344.029C838.679 344.034 838.728 344.048 838.773 344.072C838.818 344.096 838.858 344.129 838.89 344.169C838.922 344.208 838.946 344.253 838.961 344.302C839.727 346.868 840.3 349.488 840.677 352.139C840.692 352.241 840.666 352.345 840.604 352.428C840.543 352.51 840.451 352.565 840.349 352.58C840.247 352.595 840.143 352.569 840.06 352.507C839.978 352.446 839.923 352.354 839.908 352.252V352.253Z" fill="#16165C"/>
<path d="M765.512 373.073C764.322 370.648 763.408 368.097 762.787 365.469C762.768 365.371 762.788 365.269 762.843 365.186C762.897 365.102 762.982 365.043 763.079 365.02C763.176 364.997 763.278 365.012 763.364 365.063C763.45 365.113 763.513 365.194 763.541 365.29C764.15 367.862 765.044 370.358 766.208 372.731C766.23 372.777 766.243 372.827 766.247 372.878C766.25 372.929 766.243 372.98 766.226 373.028C766.21 373.076 766.184 373.121 766.15 373.159C766.116 373.197 766.075 373.229 766.03 373.251C765.984 373.274 765.934 373.287 765.883 373.29C765.832 373.293 765.781 373.286 765.733 373.27C765.684 373.253 765.64 373.227 765.601 373.194C765.563 373.16 765.532 373.119 765.509 373.073H765.512Z" fill="#16165C"/>
<path d="M933.431 320.4C936.666 320.4 939.288 317.778 939.288 314.543C939.288 311.309 936.666 308.687 933.431 308.687C930.196 308.687 927.574 311.309 927.574 314.543C927.574 317.778 930.196 320.4 933.431 320.4Z" fill="#FC5F4F"/>
<path d="M889.023 303.5C891.072 303.5 892.732 301.839 892.732 299.791C892.732 297.743 891.072 296.082 889.023 296.082C886.975 296.082 885.314 297.743 885.314 299.791C885.314 301.839 886.975 303.5 889.023 303.5Z" fill="#16165C"/>
<path d="M717.258 343.618C717.167 343.575 717.097 343.498 717.061 343.404C717.026 343.309 717.029 343.205 717.069 343.112C717.109 343.02 717.184 342.947 717.278 342.908C717.371 342.87 717.475 342.87 717.569 342.907C733.465 349.883 741.097 345.356 741.173 345.313C741.26 345.262 741.364 345.247 741.461 345.272C741.559 345.296 741.644 345.358 741.697 345.444C741.75 345.53 741.768 345.633 741.746 345.732C741.724 345.83 741.665 345.916 741.581 345.972C735.698 349.61 724.25 346.685 717.258 343.618Z" fill="#16165C"/>
<path d="M890.503 544.418C860.962 539.03 831.982 516.837 831.692 516.614C831.65 516.583 831.615 516.545 831.588 516.5C831.561 516.456 831.543 516.406 831.535 516.355C831.528 516.303 831.531 516.251 831.544 516.201C831.557 516.15 831.581 516.103 831.612 516.062C831.644 516.021 831.684 515.987 831.729 515.961C831.775 515.936 831.824 515.92 831.876 515.914C831.928 515.908 831.98 515.913 832.03 515.928C832.08 515.942 832.126 515.967 832.166 516C832.454 516.222 861.289 538.3 890.642 543.654C890.743 543.673 890.833 543.731 890.892 543.815C890.95 543.9 890.973 544.004 890.955 544.106C890.936 544.207 890.878 544.297 890.794 544.355C890.709 544.414 890.605 544.436 890.503 544.418V544.418Z" fill="#16165C"/>
<path d="M672.865 285.403C672.865 287.484 673.483 289.518 674.639 291.248C675.795 292.978 677.438 294.327 679.36 295.123C681.283 295.919 683.398 296.128 685.439 295.722C687.48 295.316 689.355 294.313 690.826 292.842C692.298 291.371 693.3 289.496 693.706 287.455C694.112 285.414 693.903 283.299 693.107 281.376C692.311 279.454 690.962 277.811 689.232 276.655C687.502 275.499 685.468 274.881 683.387 274.881C680.597 274.882 677.921 275.991 675.948 277.964C673.975 279.937 672.867 282.613 672.865 285.403Z" fill="#F9F1CF"/>
<path d="M731.678 324.934C731.678 325.799 731.422 326.645 730.942 327.364C730.462 328.084 729.779 328.644 728.98 328.976C728.181 329.307 727.301 329.395 726.453 329.226C725.604 329.058 724.825 328.642 724.213 328.031C723.601 327.419 723.184 326.64 723.014 325.792C722.845 324.944 722.931 324.064 723.262 323.265C723.592 322.465 724.152 321.782 724.871 321.301C725.59 320.82 726.436 320.563 727.301 320.562C728.461 320.562 729.573 321.022 730.394 321.841C731.215 322.661 731.677 323.773 731.678 324.934V324.934Z" fill="#16165C"/>
<path d="M644.07 356.097H641.734C641.608 356.097 641.487 356.047 641.398 355.957C641.308 355.868 641.258 355.747 641.258 355.62C641.258 355.494 641.308 355.373 641.398 355.283C641.487 355.194 641.608 355.144 641.734 355.144H644.07C644.196 355.144 644.317 355.194 644.407 355.283C644.496 355.373 644.546 355.494 644.546 355.62C644.546 355.747 644.496 355.868 644.407 355.957C644.317 356.047 644.196 356.097 644.07 356.097V356.097Z" fill="#16165C"/>
<path d="M600.512 365.625C600.46 365.592 600.414 365.547 600.379 365.496C600.343 365.444 600.318 365.386 600.305 365.325C600.292 365.264 600.291 365.201 600.302 365.139C600.313 365.078 600.337 365.019 600.371 364.967C602.306 361.951 604.97 359.471 608.115 357.755C611.261 356.038 614.788 355.14 618.371 355.144H637.49C637.616 355.144 637.738 355.194 637.827 355.284C637.916 355.373 637.966 355.494 637.966 355.62C637.966 355.747 637.916 355.868 637.827 355.958C637.738 356.047 637.616 356.097 637.49 356.097H618.371C614.947 356.093 611.577 356.952 608.571 358.592C605.566 360.232 603.021 362.602 601.171 365.484C601.102 365.59 600.994 365.664 600.871 365.691C600.747 365.717 600.618 365.694 600.512 365.625V365.625Z" fill="#16165C"/>
<path d="M617.533 393.26L611.372 401.443L628.331 393.301H650.2C654.634 393.274 658.876 391.494 662.002 388.349C665.127 385.205 666.881 380.951 666.881 376.518C666.881 372.084 665.127 367.831 662.002 364.686C658.876 361.541 654.634 359.761 650.2 359.734H618.768C614.422 359.732 610.245 361.417 607.116 364.432C603.986 367.447 602.148 371.559 601.988 375.901C601.829 380.244 603.359 384.48 606.258 387.717C609.157 390.954 613.199 392.941 617.533 393.26V393.26Z" fill="#FF79A2"/>
<path d="M653.348 373.691H615.618C615.534 373.691 615.453 373.657 615.393 373.598C615.334 373.538 615.3 373.457 615.3 373.373C615.3 373.289 615.334 373.208 615.393 373.149C615.453 373.089 615.534 373.055 615.618 373.055H653.348C653.432 373.055 653.513 373.089 653.572 373.149C653.632 373.208 653.665 373.289 653.665 373.373C653.665 373.457 653.632 373.538 653.572 373.598C653.513 373.657 653.432 373.691 653.348 373.691Z" fill="white"/>
<path d="M636.153 378.59H615.617C615.532 378.59 615.452 378.556 615.392 378.497C615.333 378.437 615.299 378.356 615.299 378.272C615.299 378.188 615.333 378.107 615.392 378.048C615.452 377.988 615.532 377.955 615.617 377.955H636.153C636.237 377.955 636.318 377.988 636.377 378.048C636.437 378.107 636.47 378.188 636.47 378.272C636.47 378.356 636.437 378.437 636.377 378.497C636.318 378.556 636.237 378.59 636.153 378.59V378.59Z" fill="white"/>
<path d="M682.976 468.029C683.46 470.202 683.214 474.127 688.618 474.013C696.447 473.845 703.25 471.154 701.512 463.892C699.873 457.039 696.743 454.872 693.743 454.445C690.274 453.954 682.267 454.501 682.187 462.371C682.287 464.276 682.551 466.169 682.976 468.029Z" fill="#FFC7C1"/>
<path d="M681.373 461.875C681.373 461.875 682.287 457.903 683.624 456.341C685.421 454.242 691.191 450.326 693.461 450.906C694.397 451.145 694.623 453.993 693.803 455.299C693.019 456.549 690.095 458.562 690.095 458.562C690.095 458.562 692 462.993 686.291 465.386" fill="#FFC7C1"/>
<path d="M597.093 434.88C597.093 434.88 615.423 473.333 639.492 470.913C665.87 468.26 678.747 458.158 678.747 458.158C682.696 454.24 691.465 474.724 686.668 478.416C686.668 478.416 624.447 524.53 583.526 477.59" fill="#FFB448"/>
<path d="M489.689 631.238L468.434 649.944L453.18 633.716L476.178 616.185L489.689 631.238Z" fill="#FFC7C1"/>
<path d="M476.59 642.296C468.231 640.835 461.984 633.353 460.186 628.584C460.126 628.418 460.031 628.267 459.907 628.142C459.783 628.016 459.634 627.918 459.469 627.856C459.305 627.793 459.128 627.766 458.952 627.777C458.776 627.789 458.605 627.838 458.45 627.921C454.216 630.285 450.27 633.131 446.692 636.404C446.155 636.903 445.728 637.509 445.437 638.182C445.146 638.855 444.997 639.581 445 640.314C445.003 641.047 445.157 641.772 445.454 642.443C445.75 643.113 446.182 643.716 446.723 644.211L476.253 671.47C477.248 672.396 478.559 672.905 479.918 672.893C481.277 672.882 482.579 672.349 483.558 671.407C486.436 668.597 487.31 665.01 481.773 653.721L477.541 643.05C477.46 642.853 477.331 642.681 477.164 642.549C476.998 642.416 476.8 642.329 476.59 642.296V642.296Z" fill="#FC5F4F"/>
<path d="M604.902 635.833L603.263 664.099L580.998 663.538L584.7 634.861L604.902 635.833Z" fill="#FFC7C1"/>
<path d="M603.558 652.923C596.644 657.842 586.93 657.022 582.274 654.948C582.114 654.875 581.939 654.836 581.763 654.836C581.587 654.836 581.413 654.873 581.252 654.946C581.092 655.019 580.949 655.126 580.833 655.259C580.718 655.392 580.632 655.548 580.582 655.717C579.286 660.39 578.537 665.197 578.349 670.043C578.327 670.776 578.457 671.505 578.731 672.186C579.005 672.866 579.417 673.482 579.94 673.995C580.464 674.509 581.088 674.908 581.773 675.169C582.459 675.429 583.191 675.545 583.923 675.509L624.067 673.672C625.424 673.615 626.707 673.04 627.653 672.066C628.6 671.092 629.137 669.793 629.155 668.435C629.181 664.414 627.244 661.27 615.323 657.272L604.759 652.779C604.563 652.698 604.35 652.669 604.14 652.694C603.929 652.72 603.729 652.798 603.558 652.923V652.923Z" fill="#FC5F4F"/>
<path d="M481.788 374.466C479.602 374.888 476.079 375.092 474.03 370.09C471.061 362.844 473.699 360.381 479.862 356.65C485.889 353.001 488.367 356.592 489.952 359.174C491.786 362.16 494.477 369.718 487.292 372.932C485.505 373.6 483.663 374.113 481.788 374.466V374.466Z" fill="#FFC7C1"/>
<path d="M489.351 371.983C489.351 371.983 492.659 368.758 492.702 366.702C492.761 363.939 490.686 357.81 488.607 356.73C487.749 356.285 486.172 357.825 485.914 359.345C485.665 360.8 486.589 363.699 486.589 363.699C486.589 363.699 482.953 364.951 485.296 370.192" fill="#FFC7C1"/>
<path d="M530.405 514.169C530.405 514.169 510.476 548.071 591.086 556.553C591.086 556.553 575.437 609.706 578.929 639.63C579.089 641.004 579.714 642.282 580.7 643.253C581.687 644.223 582.975 644.827 584.352 644.965L598.163 646.345C600.627 646.59 603.103 646.026 605.217 644.737C607.33 643.447 608.966 641.504 609.874 639.201C617.683 619.446 634.702 561.416 625.698 541.245C611.851 510.221 555.473 493.537 555.473 493.537L530.405 514.169Z" fill="#BCA9FF"/>
<path d="M516.829 491.131C516.829 491.131 481.152 500.685 534.597 561.621C534.597 561.621 485.243 594.992 468.261 620.07C467.894 620.614 467.714 621.262 467.746 621.917C467.779 622.573 468.023 623.2 468.442 623.705L475.238 631.948C477.71 634.948 481.12 637.029 484.918 637.856C488.716 638.682 492.682 638.205 496.177 636.503C519.291 625.239 568.864 592.1 573.007 571.618C579.882 537.63 551.173 494.386 551.173 494.386L516.829 491.131Z" fill="#BCA9FF"/>
<path d="M573.788 554.489C573.708 554.489 573.631 554.459 573.572 554.406C573.514 554.352 573.477 554.279 573.47 554.199C570.866 524.917 551.112 494.862 550.912 494.561C550.887 494.526 550.869 494.487 550.86 494.445C550.85 494.404 550.849 494.361 550.857 494.319C550.865 494.277 550.881 494.237 550.904 494.201C550.928 494.165 550.958 494.135 550.994 494.111C551.03 494.088 551.07 494.071 551.112 494.064C551.154 494.056 551.197 494.057 551.238 494.066C551.28 494.075 551.32 494.093 551.354 494.118C551.389 494.143 551.418 494.174 551.441 494.211C551.641 494.512 571.486 524.7 574.103 554.143C574.106 554.184 574.102 554.226 574.09 554.266C574.077 554.306 574.057 554.343 574.03 554.375C574.003 554.407 573.97 554.433 573.933 554.453C573.896 554.472 573.856 554.484 573.814 554.488L573.788 554.489Z" fill="#16165C"/>
<path d="M511.022 496.732C498.142 500.902 504.387 425.873 551.966 420.676C599.545 415.478 604.638 449.652 604.638 454.45C604.638 454.45 589.533 460.371 584.859 501.811C583.55 513.424 540.606 487.156 511.022 496.732Z" fill="#FFB448"/>
<path d="M588.261 482.659C588.18 482.637 588.11 482.584 588.068 482.512C588.025 482.439 588.013 482.352 588.035 482.271C589.332 477.078 591.162 472.033 593.497 467.217C593.515 467.179 593.541 467.144 593.572 467.115C593.604 467.087 593.64 467.065 593.681 467.051C593.721 467.037 593.763 467.031 593.806 467.033C593.848 467.036 593.89 467.047 593.928 467.066C593.966 467.085 594 467.112 594.027 467.144C594.055 467.176 594.076 467.214 594.088 467.254C594.101 467.295 594.106 467.338 594.102 467.38C594.098 467.422 594.085 467.464 594.065 467.501C591.75 472.278 589.935 477.283 588.65 482.433C588.628 482.514 588.575 482.584 588.502 482.626C588.429 482.668 588.343 482.68 588.261 482.659V482.659Z" fill="#16165C"/>
<path d="M552.84 420.583C538.67 422.131 509.116 423.461 501.23 409.008C489.04 386.664 492.432 371.822 492.432 371.822C493.502 368.512 472.884 371.154 473.074 375.454C473.074 375.454 467.252 446.906 520.134 451.104" fill="#FFB448"/>
<path d="M586.72 388.31C586.719 389.98 586.223 391.611 585.294 392.999C584.366 394.386 583.047 395.468 581.504 396.106C579.962 396.744 578.264 396.91 576.627 396.584C574.99 396.257 573.486 395.453 572.306 394.272C571.126 393.091 570.323 391.587 569.997 389.949C569.672 388.312 569.839 386.614 570.479 385.072C571.118 383.53 572.2 382.212 573.588 381.284C574.976 380.357 576.608 379.862 578.278 379.862C579.387 379.862 580.485 380.081 581.51 380.506C582.534 380.93 583.465 381.552 584.249 382.337C585.033 383.122 585.655 384.053 586.079 385.078C586.503 386.103 586.721 387.201 586.72 388.31V388.31Z" fill="#16165C"/>
<path d="M565.737 408.871C565.736 410.601 565.222 412.292 564.26 413.731C563.298 415.169 561.931 416.289 560.333 416.951C558.734 417.612 556.975 417.785 555.278 417.447C553.581 417.109 552.023 416.275 550.8 415.051C549.576 413.828 548.744 412.269 548.406 410.572C548.069 408.875 548.243 407.116 548.905 405.517C549.567 403.919 550.689 402.553 552.127 401.592C553.566 400.63 555.257 400.117 556.988 400.117C558.137 400.118 559.275 400.344 560.337 400.784C561.398 401.224 562.363 401.869 563.176 402.682C563.988 403.495 564.632 404.46 565.072 405.522C565.511 406.583 565.737 407.722 565.737 408.871Z" fill="#16165C"/>
<path d="M564.737 409.794L550.403 398.552C550.37 398.526 550.343 398.494 550.322 398.458C550.302 398.422 550.289 398.381 550.284 398.34C550.279 398.299 550.282 398.257 550.293 398.217C550.304 398.176 550.323 398.139 550.349 398.106C550.375 398.073 550.407 398.046 550.443 398.025C550.48 398.005 550.52 397.992 550.561 397.987C550.602 397.981 550.644 397.985 550.685 397.996C550.725 398.007 550.762 398.026 550.795 398.052L565.129 409.295C565.162 409.321 565.189 409.352 565.209 409.389C565.23 409.425 565.243 409.465 565.248 409.506C565.253 409.548 565.25 409.59 565.239 409.63C565.227 409.67 565.208 409.708 565.183 409.741C565.157 409.773 565.125 409.801 565.089 409.821C565.052 409.842 565.012 409.855 564.971 409.86C564.929 409.865 564.888 409.862 564.847 409.851C564.807 409.839 564.77 409.82 564.737 409.794V409.794Z" fill="#16165C"/>
<path d="M576.917 414.818L576.211 418.418L576.197 418.474L576.126 418.77L575.837 420.133C573.388 430.135 556.469 430.311 558.932 420.316L562.229 408.006C562.363 408.26 562.504 408.515 562.645 408.769C565.238 413.492 571.447 415.582 576.917 414.818Z" fill="#FFC7C1"/>
<path d="M582.236 386.553C585.332 398.604 589.264 407.823 583.362 412.249C576.986 417.028 566.229 415.302 562.647 408.767C558.137 400.536 555.261 393.93 561.952 388.018C568.643 382.106 580.016 377.904 582.236 386.553Z" fill="#FFC7C1"/>
<path d="M581.752 382.303C584.229 386.254 579.91 393.419 572.111 398.306C564.312 403.193 555.978 403.952 553.505 400.001C551.033 396.05 552.227 382.441 560.419 378.247C571.628 372.509 579.275 378.348 581.752 382.303Z" fill="#16165C"/>
<path d="M576.916 414.818L576.211 418.418L576.197 418.474C572.103 417.98 568.284 415.955 566.343 412.644C569.505 414.582 573.246 415.352 576.916 414.818V414.818Z" fill="#16165C"/>
<path d="M566.235 401.236C566.413 401.888 566.393 402.578 566.179 403.219C565.964 403.86 565.564 404.423 565.029 404.837C564.495 405.25 563.849 405.496 563.175 405.543C562.501 405.59 561.828 405.436 561.241 405.1C560.654 404.765 560.18 404.263 559.878 403.658C559.577 403.053 559.462 402.372 559.547 401.702C559.633 401.031 559.915 400.401 560.359 399.891C560.802 399.38 561.387 399.013 562.039 398.836C562.472 398.718 562.925 398.686 563.37 398.743C563.815 398.799 564.245 398.943 564.635 399.166C565.024 399.389 565.366 399.687 565.641 400.042C565.916 400.397 566.118 400.802 566.235 401.236V401.236Z" fill="#FFC7C1"/>
<path d="M584.156 404.879C584.287 406.255 584.187 408.275 582.859 408.681C581.466 409.116 580.023 407.827 579.111 406.693C579.085 406.663 579.069 406.625 579.065 406.586C579.061 406.546 579.068 406.506 579.087 406.471C579.106 406.436 579.134 406.407 579.169 406.389C579.204 406.37 579.244 406.362 579.284 406.366C580.277 406.464 582.578 406.485 583.79 404.788C583.813 404.754 583.846 404.727 583.884 404.713C583.923 404.698 583.965 404.696 584.005 404.706C584.045 404.716 584.081 404.738 584.108 404.769C584.135 404.8 584.152 404.838 584.156 404.879Z" fill="#16165C"/>
<path d="M583.354 407.427C583.308 407.597 583.22 407.753 583.1 407.881C582.98 408.01 582.83 408.107 582.664 408.165C582.476 408.216 582.28 408.229 582.087 408.203C581.894 408.177 581.708 408.113 581.54 408.015C581.589 407.845 581.677 407.69 581.798 407.561C581.919 407.433 582.068 407.335 582.234 407.276C582.422 407.225 582.617 407.212 582.81 407.238C583.002 407.264 583.187 407.328 583.354 407.427V407.427Z" fill="#FC5F4F"/>
<path d="M576.646 399.78C576.651 399.931 576.615 400.08 576.539 400.211C576.464 400.341 576.354 400.448 576.221 400.519C576.087 400.589 575.937 400.621 575.787 400.61C575.637 400.6 575.492 400.547 575.371 400.458C575.249 400.369 575.155 400.247 575.099 400.107C575.043 399.967 575.028 399.815 575.055 399.666C575.082 399.518 575.15 399.38 575.252 399.269C575.353 399.158 575.484 399.077 575.63 399.037C575.863 399.003 576.1 399.062 576.29 399.201C576.48 399.34 576.608 399.548 576.646 399.78V399.78Z" fill="#16165C"/>
<path d="M584.156 397.883C584.162 398.032 584.126 398.181 584.051 398.311C583.976 398.44 583.867 398.546 583.735 398.616C583.602 398.687 583.453 398.718 583.304 398.708C583.155 398.697 583.011 398.644 582.891 398.556C582.77 398.467 582.677 398.346 582.621 398.207C582.566 398.068 582.551 397.916 582.578 397.769C582.606 397.622 582.674 397.485 582.775 397.375C582.876 397.265 583.007 397.186 583.151 397.146C583.382 397.113 583.616 397.171 583.804 397.309C583.992 397.447 584.119 397.653 584.156 397.883V397.883Z" fill="#16165C"/>
<path d="M580.109 403.3C580.03 403.299 579.954 403.27 579.896 403.216C579.838 403.163 579.802 403.09 579.794 403.011C579.787 402.933 579.809 402.855 579.857 402.792C579.904 402.728 579.973 402.685 580.051 402.67C580.769 402.535 581.177 402.289 581.262 401.939C581.473 401.069 579.892 399.447 578.848 398.629C578.814 398.604 578.785 398.572 578.763 398.535C578.742 398.499 578.728 398.458 578.722 398.416C578.716 398.374 578.719 398.331 578.73 398.29C578.741 398.249 578.76 398.211 578.786 398.177C578.812 398.144 578.845 398.116 578.882 398.095C578.919 398.075 578.96 398.061 579.002 398.057C579.044 398.052 579.087 398.056 579.128 398.069C579.168 398.081 579.206 398.101 579.239 398.128C579.549 398.37 582.258 400.542 581.881 402.088C581.731 402.703 581.156 403.108 580.166 403.295C580.147 403.298 580.128 403.3 580.109 403.3V403.3Z" fill="#16165C"/>
<path d="M573.044 398.895C572.964 398.868 572.899 398.81 572.862 398.734C572.825 398.659 572.82 398.571 572.847 398.492C573.123 397.691 573.705 397.033 574.466 396.662C575.227 396.291 576.104 396.237 576.905 396.512C576.946 396.524 576.984 396.544 577.017 396.572C577.049 396.599 577.076 396.633 577.096 396.671C577.115 396.709 577.127 396.75 577.13 396.793C577.133 396.835 577.127 396.878 577.113 396.919C577.099 396.959 577.077 396.996 577.049 397.028C577.02 397.06 576.986 397.085 576.947 397.103C576.908 397.121 576.866 397.131 576.824 397.133C576.781 397.134 576.738 397.127 576.699 397.112C576.057 396.892 575.354 396.935 574.744 397.233C574.135 397.531 573.668 398.058 573.447 398.7C573.419 398.779 573.361 398.844 573.286 398.881C573.21 398.917 573.123 398.923 573.044 398.895V398.895Z" fill="#16165C"/>
<path d="M580.669 396.531C580.631 396.513 580.598 396.487 580.571 396.455C580.543 396.424 580.522 396.387 580.509 396.348C580.496 396.308 580.491 396.266 580.494 396.225C580.497 396.183 580.508 396.142 580.526 396.105C580.675 395.806 580.882 395.538 581.134 395.319C581.387 395.099 581.68 394.932 581.997 394.825C582.315 394.719 582.65 394.676 582.983 394.7C583.317 394.723 583.643 394.812 583.942 394.962C583.98 394.98 584.013 395.006 584.041 395.038C584.069 395.069 584.09 395.106 584.103 395.146C584.116 395.185 584.122 395.227 584.119 395.269C584.116 395.311 584.105 395.352 584.087 395.389C584.068 395.427 584.042 395.46 584.011 395.488C583.979 395.515 583.942 395.537 583.903 395.55C583.822 395.577 583.735 395.571 583.659 395.533C583.434 395.421 583.19 395.354 582.939 395.337C582.689 395.319 582.437 395.351 582.199 395.431C581.96 395.51 581.74 395.636 581.551 395.801C581.362 395.966 581.207 396.167 581.095 396.392C581.057 396.467 580.99 396.524 580.91 396.55C580.831 396.576 580.744 396.569 580.669 396.531V396.531Z" fill="#16165C"/>
<path d="M563.206 402.534C563.136 402.534 563.067 402.51 563.012 402.467L562.361 401.958C562.297 401.906 562.256 401.831 562.246 401.748C562.237 401.666 562.26 401.583 562.311 401.517C562.362 401.451 562.437 401.408 562.519 401.397C562.601 401.386 562.685 401.408 562.751 401.457L563.402 401.965C563.456 402.006 563.495 402.062 563.515 402.126C563.535 402.19 563.534 402.259 563.512 402.322C563.49 402.386 563.449 402.441 563.394 402.479C563.339 402.518 563.273 402.538 563.206 402.537V402.534Z" fill="#16165C"/>
<path d="M513.592 450.279C513.517 450.241 513.459 450.175 513.433 450.095C513.406 450.015 513.413 449.927 513.45 449.852C514.664 447.426 516.016 445.073 517.5 442.802C517.522 442.766 517.551 442.734 517.586 442.71C517.62 442.685 517.66 442.667 517.701 442.658C517.742 442.649 517.785 442.648 517.827 442.656C517.869 442.663 517.909 442.679 517.944 442.703C517.98 442.726 518.01 442.756 518.034 442.791C518.058 442.827 518.074 442.866 518.082 442.908C518.09 442.95 518.09 442.993 518.081 443.034C518.072 443.076 518.055 443.115 518.031 443.15C516.561 445.4 515.221 447.733 514.018 450.137C513.98 450.212 513.914 450.269 513.834 450.296C513.755 450.323 513.667 450.316 513.592 450.279V450.279Z" fill="#16165C"/>
<path d="M521.893 417.927C495.543 411.095 496.281 381.912 496.295 381.617C496.297 381.575 496.306 381.534 496.324 381.496C496.341 381.458 496.366 381.424 496.396 381.395C496.427 381.367 496.463 381.345 496.502 381.33C496.541 381.316 496.583 381.309 496.624 381.31C496.666 381.312 496.707 381.322 496.745 381.339C496.783 381.356 496.817 381.381 496.846 381.411C496.874 381.442 496.896 381.478 496.911 381.517C496.925 381.556 496.932 381.598 496.93 381.639C496.92 381.928 496.205 410.609 522.056 417.312C522.135 417.336 522.201 417.39 522.241 417.461C522.28 417.533 522.291 417.617 522.271 417.696C522.25 417.775 522.2 417.843 522.13 417.886C522.061 417.929 521.977 417.944 521.897 417.927H521.893Z" fill="#16165C"/>
<path d="M283.265 235.329C281.739 234.572 280.472 233.38 279.623 231.903C278.774 230.426 278.383 228.731 278.498 227.031C278.613 225.332 279.229 223.705 280.269 222.356C281.309 221.006 282.725 219.996 284.339 219.451C285.953 218.907 287.692 218.854 289.337 219.298C290.981 219.742 292.457 220.664 293.578 221.947C294.698 223.229 295.413 224.816 295.632 226.505C295.851 228.194 295.565 229.91 294.808 231.437C293.792 233.482 292.006 235.041 289.842 235.771C287.678 236.501 285.312 236.341 283.265 235.329V235.329ZM282.529 225.35C282.081 226.252 281.911 227.268 282.041 228.267C282.17 229.266 282.593 230.204 283.255 230.963C283.918 231.722 284.791 232.267 285.764 232.529C286.736 232.792 287.765 232.761 288.72 232.439C289.674 232.117 290.512 231.519 291.127 230.721C291.742 229.922 292.106 228.96 292.174 227.955C292.242 226.949 292.01 225.947 291.507 225.073C291.005 224.2 290.255 223.495 289.352 223.048C288.142 222.45 286.744 222.357 285.464 222.788C284.185 223.219 283.129 224.141 282.529 225.35V225.35Z" fill="#FC5F4F"/>
<path d="M184.637 277.384C184.567 278.267 184.759 279.151 185.191 279.924C185.623 280.697 186.274 281.325 187.062 281.727C187.851 282.13 188.741 282.29 189.62 282.187C190.499 282.084 191.328 281.722 192.002 281.148C192.676 280.574 193.165 279.813 193.406 278.961C193.648 278.11 193.631 277.206 193.358 276.363C193.086 275.521 192.57 274.778 191.875 274.229C191.18 273.68 190.339 273.349 189.456 273.279C188.273 273.185 187.1 273.565 186.197 274.334C185.293 275.104 184.732 276.201 184.637 277.384V277.384Z" fill="#FFB448"/>
<path d="M327.915 564.964L315.68 589.716L294.166 578.19L310.579 546.424L327.915 564.964Z" fill="#FFC7C1"/>
<path d="M326.811 621.235C327.979 621.846 329.336 621.986 330.604 621.628C331.872 621.27 332.954 620.439 333.629 619.307C338.221 611.554 335.506 605.074 327.472 599.516C322.03 595.752 320.691 588.02 320.472 584.12C320.437 583.571 320.195 583.056 319.795 582.678C319.395 582.3 318.866 582.089 318.316 582.086C309.013 581.952 302.286 578.191 297.482 571.718C297.279 571.44 297.012 571.215 296.705 571.061C296.397 570.907 296.057 570.828 295.713 570.831C295.369 570.834 295.031 570.92 294.727 571.08C294.422 571.24 294.16 571.47 293.963 571.752C290.468 576.735 284.66 584.311 280.214 590.022C279.751 590.618 279.424 591.308 279.257 592.043C279.089 592.779 279.086 593.542 279.246 594.279C279.406 595.016 279.726 595.71 280.183 596.309C280.641 596.909 281.224 597.401 281.893 597.751L326.811 621.235Z" fill="#FF8429"/>
<path d="M164.711 529.516L137.117 530.509L137.04 506.108L172.789 505.46L164.711 529.516Z" fill="#FFC7C1"/>
<path d="M114.671 555.276C114.688 556.593 115.21 557.854 116.128 558.8C117.046 559.746 118.291 560.304 119.608 560.36C128.611 560.712 133.023 555.249 134.096 545.539C134.825 538.962 140.993 534.111 144.319 532.066C144.786 531.775 145.125 531.317 145.267 530.785C145.409 530.253 145.344 529.687 145.085 529.201C140.784 520.952 140.897 513.248 144.311 505.944C144.457 505.634 144.529 505.293 144.518 504.95C144.507 504.607 144.415 504.271 144.249 503.971C144.083 503.67 143.848 503.413 143.564 503.221C143.279 503.029 142.953 502.908 142.612 502.867C136.566 502.163 127.14 500.648 120.003 499.45C119.259 499.325 118.497 499.364 117.77 499.566C117.043 499.768 116.37 500.127 115.797 500.619C115.224 501.11 114.767 501.721 114.456 502.409C114.146 503.096 113.99 503.843 114 504.597L114.671 555.276Z" fill="#FF8429"/>
<path d="M232.414 276.633C239.108 276.633 244.533 271.207 244.533 264.514C244.533 257.821 239.108 252.395 232.414 252.395C225.721 252.395 220.295 257.821 220.295 264.514C220.295 271.207 225.721 276.633 232.414 276.633Z" fill="#16165C"/>
<path d="M262.441 341.173C262.441 341.173 293.912 391.84 329.799 383.307C364.522 375.05 383.423 319.91 383.423 319.91C385.542 313.44 373.017 302.442 366.413 305.599C347.496 316.78 338.883 331.618 326.322 346.251C306.849 327.784 287.75 317.29 266.542 320.825" fill="#7655FF"/>
<path d="M211.297 455.925C211.297 455.925 187.759 356.781 225.529 330.793C252.426 312.285 304.505 318.051 307.692 343.874C311.222 372.962 311.28 402.368 307.865 431.47C277.846 453.342 234.362 438.406 211.297 455.925Z" fill="#7655FF"/>
<path d="M309.043 364.839C308.59 357.695 307.94 350.666 307.111 343.945C307.092 343.791 307.135 343.636 307.23 343.513C307.326 343.391 307.466 343.311 307.62 343.292C307.697 343.28 307.775 343.285 307.85 343.304C307.925 343.324 307.995 343.359 308.056 343.407C308.118 343.455 308.168 343.514 308.206 343.582C308.243 343.65 308.267 343.725 308.275 343.802C309.108 350.545 309.758 357.598 310.214 364.765C310.223 364.921 310.171 365.074 310.068 365.191C309.965 365.308 309.82 365.379 309.664 365.388C309.509 365.398 309.356 365.346 309.239 365.243C309.122 365.14 309.05 364.995 309.04 364.839H309.043Z" fill="#16165C"/>
<path d="M309.968 407.133H309.94C309.785 407.126 309.639 407.057 309.534 406.942C309.43 406.827 309.376 406.675 309.383 406.52C309.65 400.975 309.792 395.29 309.804 389.627C309.804 389.472 309.866 389.323 309.976 389.213C310.086 389.103 310.235 389.041 310.391 389.041C310.546 389.041 310.695 389.103 310.805 389.213C310.915 389.323 310.977 389.472 310.977 389.627C310.965 395.311 310.823 401.015 310.553 406.576C310.546 406.727 310.481 406.868 310.372 406.972C310.263 407.075 310.118 407.133 309.968 407.133V407.133Z" fill="#16165C"/>
<path d="M245.466 321.594L242.869 291.017H242.885C243.518 293.917 244.735 296.658 246.463 299.072C248.191 301.486 250.393 303.523 252.934 305.058C252.934 305.069 252.945 305.078 252.954 305.073C256.702 307.459 260.957 308.933 265.378 309.376L265.188 312.577L264.836 318.677C264.4 325.204 246.878 327.346 245.466 321.594Z" fill="#FFC7C1"/>
<path d="M265.193 312.582C260.559 311.125 256.357 308.545 252.959 305.074C256.707 307.46 260.962 308.934 265.383 309.377L265.193 312.582Z" fill="#16165C"/>
<path d="M283.908 284.253C285.525 295.632 278.897 309.743 267.397 309.496C255.897 309.25 244.339 301.48 242.722 290.107C241.106 278.734 249.706 273.087 261.079 271.471C272.452 269.854 282.292 272.884 283.908 284.253Z" fill="#FFC7C1"/>
<path d="M284.115 286.61C284.006 279.771 280.729 276.218 274.205 276.606C274.205 276.606 273.853 293.171 257.81 291.457C257.81 291.457 258.029 309.224 244.48 307.842C238.393 307.221 225.795 280.939 237.105 265.218C250.389 246.75 293.24 251.258 287.41 282.056C286.935 283.94 285.756 285.571 284.115 286.61V286.61Z" fill="#16165C"/>
<path d="M262.15 294.874C261.792 295.968 261.118 296.932 260.212 297.642C259.307 298.353 258.211 298.779 257.063 298.867C255.915 298.956 254.767 298.701 253.764 298.137C252.761 297.573 251.947 296.724 251.426 295.698C250.905 294.671 250.7 293.514 250.837 292.371C250.973 291.228 251.446 290.151 252.194 289.277C252.943 288.402 253.934 287.769 255.042 287.457C256.15 287.146 257.325 287.17 258.42 287.526C259.889 288.006 261.107 289.05 261.806 290.428C262.506 291.806 262.629 293.405 262.15 294.874V294.874Z" fill="#FFC7C1"/>
<path d="M277.587 295.86C277.512 295.843 277.441 295.81 277.378 295.765C277.316 295.72 277.263 295.664 277.222 295.598C277.182 295.533 277.155 295.459 277.142 295.383C277.13 295.307 277.133 295.229 277.15 295.154C277.168 295.079 277.2 295.009 277.246 294.946C277.291 294.884 277.348 294.83 277.413 294.79C277.479 294.749 277.552 294.722 277.628 294.71C277.704 294.697 277.782 294.701 277.857 294.718C278.219 294.804 278.462 294.852 278.621 294.879C278.54 293.316 278.308 291.766 277.929 290.248C277.912 290.172 277.91 290.095 277.922 290.019C277.935 289.942 277.963 289.869 278.004 289.804C278.045 289.738 278.098 289.682 278.161 289.637C278.224 289.592 278.295 289.561 278.371 289.544C278.446 289.525 278.524 289.522 278.6 289.534C278.677 289.546 278.75 289.574 278.816 289.615C278.881 289.656 278.938 289.71 278.983 289.773C279.027 289.837 279.058 289.909 279.074 289.985C280.299 295.36 279.633 295.789 279.349 295.968C278.969 296.217 278.273 296.021 277.587 295.86Z" fill="#16165C"/>
<path d="M275 298.371C275.597 298.774 276.269 299.05 276.977 299.182C277.684 299.315 278.411 299.302 279.112 299.143C279.151 299.133 279.191 299.134 279.229 299.146C279.267 299.157 279.301 299.179 279.327 299.209C279.353 299.238 279.37 299.275 279.377 299.314C279.384 299.353 279.38 299.393 279.365 299.429C279.212 299.996 278.856 300.487 278.366 300.809C277.875 301.131 277.284 301.262 276.703 301.177C276.144 300.996 275.651 300.652 275.287 300.19C274.923 299.728 274.705 299.168 274.661 298.582C274.654 298.539 274.66 298.496 274.677 298.457C274.695 298.418 274.724 298.386 274.76 298.363C274.796 298.341 274.839 298.329 274.881 298.331C274.924 298.332 274.965 298.346 275 298.371Z" fill="#16165C"/>
<path d="M275.924 289.452C275.911 290.058 275.572 290.541 275.152 290.532C274.732 290.522 274.415 290.026 274.427 289.421C274.44 288.816 274.779 288.331 275.199 288.341C275.619 288.35 275.937 288.847 275.924 289.452Z" fill="#16165C"/>
<path d="M282.571 290.894C282.558 291.501 282.219 291.984 281.799 291.974C281.379 291.965 281.061 291.468 281.074 290.863C281.087 290.257 281.426 289.774 281.846 289.783C282.266 289.793 282.584 290.289 282.571 290.894Z" fill="#16165C"/>
<path d="M272.684 287.955C272.628 287.902 272.583 287.838 272.552 287.767C272.521 287.697 272.503 287.621 272.502 287.544C272.5 287.467 272.513 287.391 272.54 287.319C272.568 287.247 272.61 287.181 272.663 287.125C273.206 286.496 273.968 286.097 274.795 286.009C275.622 285.922 276.451 286.154 277.114 286.656C277.175 286.703 277.226 286.761 277.265 286.828C277.304 286.895 277.329 286.968 277.339 287.045C277.349 287.121 277.344 287.198 277.325 287.272C277.305 287.347 277.271 287.417 277.224 287.478C277.177 287.539 277.119 287.591 277.052 287.63C276.985 287.669 276.912 287.694 276.836 287.704C276.759 287.714 276.681 287.709 276.607 287.689C276.533 287.67 276.463 287.635 276.401 287.589C275.968 287.263 275.426 287.118 274.888 287.182C274.35 287.246 273.857 287.516 273.513 287.935C273.46 287.99 273.397 288.035 273.326 288.066C273.256 288.098 273.18 288.114 273.103 288.116C273.026 288.118 272.949 288.105 272.877 288.077C272.805 288.049 272.74 288.008 272.684 287.955V287.955Z" fill="#16165C"/>
<path d="M283.61 289.35C283.519 289.35 283.43 289.329 283.348 289.289C283.267 289.248 283.196 289.188 283.141 289.116C282.81 288.686 282.326 288.402 281.79 288.32C281.255 288.239 280.708 288.367 280.265 288.679C280.132 288.759 279.972 288.784 279.821 288.746C279.67 288.709 279.54 288.612 279.459 288.479C279.379 288.346 279.355 288.186 279.393 288.035C279.43 287.884 279.526 287.754 279.659 287.674C280.351 287.212 281.192 287.031 282.013 287.167C282.833 287.303 283.571 287.746 284.076 288.407C284.142 288.494 284.181 288.598 284.191 288.707C284.201 288.815 284.18 288.924 284.131 289.022C284.083 289.119 284.008 289.201 283.915 289.258C283.823 289.315 283.716 289.346 283.607 289.346L283.61 289.35Z" fill="#16165C"/>
<path d="M256.563 417.607C279.976 441.077 312.07 507.433 290.306 545.844C269.01 583.427 194.81 556.192 163.564 542.578C159.448 540.786 155.988 537.763 153.66 533.924C151.332 530.086 150.249 525.62 150.562 521.141L151.658 505.414C151.69 504.956 151.813 504.508 152.02 504.097C152.227 503.686 152.513 503.321 152.862 503.022C153.212 502.723 153.617 502.496 154.054 502.354C154.492 502.213 154.953 502.16 155.411 502.199C187.837 504.934 213.576 508.395 240.067 521.298C240.067 521.298 190.542 435.1 213.672 420.2C237.071 405.131 250.729 411.759 256.563 417.607Z" fill="#BCA9FF"/>
<path d="M252.702 439.352C282.85 425.571 356.23 418.574 384.666 452.346C412.489 485.39 361.134 545.473 337.497 570.029C334.384 573.264 330.345 575.456 325.937 576.303C321.528 577.149 316.965 576.61 312.875 574.758L298.512 568.258C298.093 568.068 297.716 567.797 297.403 567.46C297.09 567.123 296.847 566.727 296.688 566.296C296.529 565.864 296.458 565.405 296.478 564.946C296.497 564.486 296.608 564.035 296.804 563.619C310.653 534.175 317.182 512.111 338.497 491.767C338.497 491.767 245.263 502.836 239.346 475.966C233.361 448.787 245.189 442.785 252.702 439.352Z" fill="#BCA9FF"/>
<path d="M228.296 282.105C228.233 282.062 228.178 282.006 228.136 281.942C228.093 281.877 228.064 281.805 228.05 281.73C228.035 281.654 228.036 281.576 228.052 281.501C228.067 281.425 228.098 281.354 228.141 281.29L247.4 252.996C247.441 252.929 247.496 252.871 247.561 252.825C247.626 252.78 247.699 252.748 247.776 252.732C247.854 252.715 247.934 252.714 248.012 252.729C248.089 252.744 248.163 252.776 248.229 252.82C248.294 252.865 248.35 252.922 248.392 252.989C248.435 253.055 248.464 253.13 248.477 253.208C248.49 253.286 248.487 253.366 248.469 253.443C248.45 253.52 248.416 253.592 248.369 253.655L229.11 281.95C229.023 282.079 228.888 282.167 228.735 282.196C228.583 282.225 228.425 282.192 228.296 282.105Z" fill="#16165C"/>
<path d="M305.664 436.042C304.996 434.245 304.689 432.332 304.762 430.416C304.834 428.499 305.284 426.616 306.086 424.873C306.888 423.131 308.026 421.564 309.435 420.263C310.844 418.962 312.496 417.951 314.296 417.29C321.802 414.586 328.271 409.597 332.793 403.025C334.672 400.328 336.169 397.384 337.241 394.277C338.893 389.3 338.878 383.92 337.199 378.952C335.519 373.983 332.266 369.698 327.933 366.744L305.344 351.142C301.046 348.136 295.885 346.613 290.643 346.804C285.402 346.994 280.365 348.888 276.296 352.198C273.772 354.302 271.551 356.744 269.696 359.456C265.187 365.966 262.814 373.717 262.908 381.635C262.97 385.512 261.494 389.255 258.802 392.045C256.11 394.835 252.422 396.445 248.546 396.521C238.932 396.619 229.482 399.027 220.993 403.542C212.504 408.056 205.225 414.545 199.768 422.461C199.1 423.428 198.463 424.408 197.86 425.4C183.936 448.275 190.756 478.111 212.788 493.322L227.786 503.677C249.515 518.679 279.426 514.883 295.984 494.314C296.379 493.823 296.768 493.323 297.152 492.816C303.203 484.818 307.153 475.432 308.64 465.514C310.127 455.596 309.104 445.463 305.664 436.042Z" fill="#8873FF"/>
<path d="M290.492 421.887C297.65 417.247 299.692 407.683 295.052 400.525C290.411 393.366 280.847 391.325 273.689 395.965C266.531 400.605 264.489 410.17 269.129 417.328C273.769 424.486 283.334 426.527 290.492 421.887Z" fill="white"/>
<path d="M272.999 422.132C270.388 420.334 268.368 417.802 267.195 414.856C266.022 411.91 265.749 408.682 266.411 405.581C267.073 402.479 268.639 399.644 270.912 397.433C273.186 395.222 276.063 393.735 279.182 393.16C282.3 392.585 285.519 392.947 288.431 394.201C291.344 395.455 293.819 397.545 295.544 400.205C297.269 402.866 298.166 405.978 298.121 409.149C298.077 412.32 297.094 415.406 295.296 418.018C294.103 419.754 292.58 421.237 290.814 422.383C289.047 423.529 287.072 424.316 285.001 424.698C282.93 425.08 280.804 425.05 278.744 424.61C276.685 424.17 274.733 423.327 272.999 422.132ZM269.852 400.499C268.185 402.92 267.274 405.78 267.233 408.719C267.192 411.657 268.024 414.542 269.622 417.008C271.221 419.474 273.515 421.411 276.214 422.574C278.914 423.736 281.897 424.071 284.787 423.538C287.677 423.005 290.344 421.627 292.451 419.578C294.558 417.529 296.01 414.901 296.623 412.027C297.237 409.153 296.984 406.161 295.897 403.431C294.811 400.7 292.939 398.353 290.518 396.687C288.911 395.579 287.102 394.798 285.193 394.39C283.285 393.982 281.314 393.954 279.395 394.308C277.475 394.662 275.644 395.391 274.007 396.454C272.369 397.516 270.957 398.891 269.852 400.499V400.499Z" fill="#16165C"/>
<path d="M229.016 442.12L222.968 450.904C222.477 451.617 222.657 452.594 223.371 453.085L261.79 479.537C262.504 480.028 263.48 479.848 263.971 479.135L270.019 470.351C270.51 469.637 270.33 468.661 269.617 468.17L231.197 441.717C230.484 441.226 229.507 441.406 229.016 442.12Z" fill="white"/>
<path d="M249.292 439.345C249.23 439.299 249.177 439.242 249.137 439.176C249.096 439.11 249.069 439.037 249.058 438.961C249.046 438.885 249.049 438.807 249.067 438.732C249.086 438.657 249.118 438.586 249.164 438.524L360.362 286.545C360.455 286.424 360.592 286.345 360.744 286.323C360.895 286.302 361.049 286.34 361.172 286.43C361.296 286.521 361.379 286.655 361.405 286.806C361.43 286.957 361.395 287.112 361.308 287.237L250.111 439.217C250.019 439.342 249.882 439.426 249.728 439.45C249.575 439.474 249.418 439.436 249.292 439.345Z" fill="#16165C"/>
<path d="M254.654 443.036C254.591 442.992 254.537 442.936 254.495 442.871C254.453 442.805 254.425 442.732 254.412 442.656C254.398 442.579 254.4 442.501 254.417 442.426C254.434 442.35 254.466 442.278 254.511 442.215L362.742 288.19C362.786 288.125 362.842 288.071 362.907 288.028C362.972 287.986 363.045 287.957 363.122 287.943C363.198 287.929 363.277 287.93 363.353 287.947C363.429 287.963 363.501 287.995 363.564 288.04C363.628 288.084 363.682 288.142 363.724 288.207C363.765 288.273 363.793 288.347 363.805 288.423C363.818 288.5 363.816 288.578 363.798 288.654C363.78 288.73 363.747 288.801 363.702 288.864L255.471 442.889C255.427 442.953 255.371 443.007 255.306 443.049C255.241 443.09 255.169 443.119 255.093 443.132C255.017 443.146 254.939 443.144 254.864 443.128C254.789 443.111 254.718 443.08 254.654 443.036Z" fill="#16165C"/>
<path d="M260.015 446.729C259.886 446.642 259.797 446.507 259.767 446.354C259.737 446.201 259.769 446.043 259.856 445.914L365.122 289.85C365.164 289.784 365.219 289.727 365.283 289.682C365.348 289.638 365.42 289.606 365.497 289.591C365.574 289.575 365.653 289.574 365.73 289.589C365.807 289.605 365.88 289.635 365.945 289.679C366.01 289.723 366.066 289.78 366.108 289.845C366.151 289.911 366.18 289.985 366.194 290.062C366.208 290.139 366.206 290.218 366.189 290.294C366.171 290.371 366.138 290.443 366.093 290.507L260.829 446.571C260.742 446.7 260.607 446.789 260.454 446.818C260.302 446.848 260.143 446.816 260.015 446.729Z" fill="#16165C"/>
<path d="M265.377 450.42C265.247 450.336 265.155 450.203 265.122 450.051C265.09 449.899 265.119 449.74 265.203 449.609L367.496 291.503C367.58 291.372 367.713 291.281 367.865 291.248C368.018 291.215 368.177 291.244 368.307 291.329C368.438 291.413 368.53 291.546 368.562 291.698C368.595 291.85 368.566 292.009 368.481 292.14L266.189 450.246C266.147 450.311 266.093 450.367 266.029 450.41C265.966 450.454 265.894 450.485 265.819 450.501C265.744 450.518 265.666 450.519 265.59 450.505C265.514 450.491 265.442 450.462 265.377 450.42V450.42Z" fill="#16165C"/>
<path d="M397.072 270.678L374.235 292.757C373.662 293.311 372.915 293.65 372.12 293.716C371.326 293.781 370.533 293.57 369.876 293.118L358.951 285.596C358.295 285.144 357.815 284.479 357.593 283.714C357.371 282.948 357.421 282.129 357.733 281.395L370.21 252.186C370.411 251.716 370.714 251.296 371.097 250.957C371.48 250.618 371.934 250.369 372.425 250.226C372.916 250.084 373.433 250.052 373.937 250.134C374.442 250.216 374.923 250.408 375.344 250.698L396.629 265.354C397.05 265.644 397.402 266.024 397.658 266.466C397.914 266.908 398.069 267.402 398.112 267.911C398.154 268.421 398.083 268.934 397.903 269.412C397.723 269.891 397.439 270.323 397.072 270.678Z" fill="#8873FF"/>
<path d="M397.206 276.8L393.527 274.267C393.459 274.225 393.401 274.17 393.355 274.105C393.31 274.04 393.278 273.966 393.261 273.889C393.245 273.811 393.245 273.731 393.26 273.653C393.276 273.575 393.307 273.501 393.352 273.436C393.397 273.37 393.455 273.314 393.522 273.272C393.589 273.229 393.664 273.201 393.743 273.189C393.821 273.176 393.901 273.18 393.978 273.199C394.055 273.218 394.128 273.253 394.191 273.301L397.871 275.834C397.999 275.922 398.087 276.058 398.115 276.211C398.143 276.364 398.11 276.521 398.021 276.65C397.933 276.778 397.798 276.866 397.645 276.894C397.492 276.922 397.334 276.888 397.206 276.8Z" fill="#16165C"/>
<path d="M395.539 279.219C395.475 279.176 395.42 279.12 395.377 279.055C395.335 278.99 395.306 278.917 395.292 278.841C395.278 278.764 395.279 278.686 395.295 278.61C395.312 278.534 395.343 278.462 395.388 278.398L398.414 274.004C398.502 273.876 398.638 273.788 398.791 273.759C398.944 273.731 399.102 273.765 399.23 273.853C399.358 273.941 399.446 274.077 399.474 274.23C399.502 274.383 399.469 274.541 399.381 274.669L396.354 279.065C396.311 279.128 396.255 279.183 396.191 279.225C396.126 279.267 396.054 279.296 395.979 279.311C395.903 279.325 395.825 279.325 395.75 279.309C395.674 279.293 395.602 279.263 395.539 279.219V279.219Z" fill="#16165C"/>
<path d="M392.071 285.688L386.023 281.522C385.956 281.48 385.899 281.425 385.855 281.36C385.81 281.295 385.779 281.222 385.764 281.144C385.748 281.067 385.748 280.987 385.764 280.91C385.78 280.833 385.811 280.76 385.856 280.695C385.9 280.631 385.958 280.575 386.024 280.533C386.091 280.491 386.165 280.463 386.242 280.45C386.32 280.437 386.4 280.439 386.476 280.458C386.553 280.476 386.625 280.51 386.688 280.557L392.736 284.721C392.865 284.81 392.952 284.945 392.981 285.098C393.009 285.251 392.975 285.409 392.887 285.537C392.799 285.665 392.663 285.753 392.51 285.781C392.357 285.809 392.199 285.776 392.071 285.688V285.688Z" fill="#16165C"/>
<path d="M390.405 288.109C390.277 288.021 390.189 287.886 390.161 287.733C390.133 287.58 390.166 287.422 390.254 287.294L393.279 282.899C393.368 282.771 393.503 282.683 393.656 282.655C393.809 282.627 393.967 282.661 394.095 282.749C394.223 282.837 394.311 282.972 394.34 283.125C394.368 283.278 394.334 283.436 394.246 283.564L391.221 287.959C391.132 288.087 390.997 288.175 390.844 288.203C390.691 288.231 390.533 288.197 390.405 288.109V288.109Z" fill="#16165C"/>
<path d="M383.597 292.275L378.518 288.778C378.451 288.736 378.393 288.681 378.347 288.616C378.302 288.551 378.269 288.477 378.253 288.399C378.237 288.322 378.236 288.242 378.252 288.164C378.268 288.086 378.299 288.012 378.344 287.947C378.389 287.881 378.447 287.825 378.514 287.783C378.581 287.741 378.656 287.712 378.734 287.7C378.813 287.687 378.893 287.691 378.97 287.71C379.047 287.73 379.119 287.764 379.183 287.812L384.261 291.309C384.328 291.351 384.387 291.406 384.432 291.471C384.478 291.536 384.509 291.609 384.526 291.687C384.542 291.765 384.543 291.845 384.527 291.923C384.511 292.001 384.48 292.075 384.435 292.14C384.39 292.206 384.332 292.261 384.265 292.303C384.198 292.346 384.123 292.374 384.045 292.387C383.966 292.4 383.886 292.396 383.809 292.377C383.732 292.357 383.66 292.323 383.597 292.275Z" fill="#16165C"/>
<path d="M381.93 294.696C381.865 294.653 381.811 294.596 381.768 294.531C381.726 294.466 381.697 294.393 381.683 294.317C381.668 294.241 381.67 294.162 381.686 294.086C381.703 294.01 381.734 293.939 381.778 293.875L384.804 289.48C384.892 289.352 385.028 289.265 385.181 289.236C385.334 289.208 385.491 289.242 385.62 289.33C385.748 289.418 385.836 289.554 385.864 289.707C385.892 289.86 385.859 290.017 385.771 290.145L382.745 294.54C382.702 294.604 382.646 294.658 382.582 294.701C382.518 294.743 382.446 294.773 382.37 294.787C382.294 294.802 382.216 294.801 382.141 294.786C382.065 294.77 381.993 294.74 381.93 294.696Z" fill="#16165C"/>
<path d="M368.078 256.745L364.4 254.213C364.334 254.17 364.278 254.115 364.234 254.05C364.19 253.985 364.159 253.912 364.144 253.835C364.129 253.758 364.129 253.679 364.145 253.603C364.16 253.526 364.191 253.453 364.236 253.389C364.28 253.324 364.337 253.269 364.403 253.227C364.469 253.185 364.543 253.156 364.62 253.143C364.697 253.129 364.776 253.132 364.852 253.149C364.928 253.167 365 253.2 365.064 253.246L368.743 255.78C368.809 255.822 368.866 255.877 368.911 255.942C368.955 256.007 368.986 256.081 369.002 256.158C369.017 256.235 369.017 256.314 369.001 256.391C368.985 256.469 368.954 256.542 368.91 256.607C368.865 256.672 368.808 256.727 368.741 256.769C368.675 256.811 368.601 256.84 368.523 256.853C368.445 256.866 368.366 256.863 368.289 256.845C368.213 256.826 368.141 256.792 368.078 256.745V256.745Z" fill="#16165C"/>
<path d="M362.732 256.634C362.604 256.546 362.516 256.411 362.488 256.258C362.459 256.105 362.493 255.947 362.581 255.819L365.606 251.424C365.695 251.296 365.83 251.209 365.983 251.18C366.136 251.152 366.294 251.186 366.422 251.274C366.55 251.362 366.638 251.498 366.667 251.651C366.695 251.804 366.661 251.961 366.573 252.089L363.547 256.484C363.459 256.612 363.324 256.7 363.171 256.728C363.018 256.756 362.86 256.722 362.732 256.634V256.634Z" fill="#16165C"/>
<path d="M363.978 266.345L357.928 262.18C357.863 262.137 357.806 262.082 357.762 262.017C357.718 261.953 357.688 261.879 357.672 261.803C357.657 261.726 357.658 261.647 357.673 261.57C357.689 261.493 357.72 261.421 357.764 261.356C357.809 261.292 357.865 261.237 357.931 261.194C357.997 261.152 358.071 261.123 358.148 261.11C358.225 261.097 358.304 261.099 358.381 261.117C358.457 261.135 358.529 261.168 358.592 261.214L364.643 265.379C364.709 265.422 364.766 265.477 364.811 265.542C364.855 265.607 364.886 265.68 364.902 265.757C364.918 265.834 364.917 265.914 364.902 265.991C364.886 266.068 364.855 266.141 364.81 266.206C364.765 266.271 364.708 266.326 364.642 266.368C364.575 266.411 364.501 266.439 364.423 266.452C364.346 266.465 364.266 266.462 364.19 266.443C364.113 266.425 364.041 266.392 363.978 266.345V266.345Z" fill="#16165C"/>
<path d="M356.262 264.602C356.133 264.513 356.045 264.378 356.017 264.225C355.989 264.072 356.022 263.915 356.11 263.786L359.136 259.392C359.224 259.264 359.359 259.176 359.512 259.148C359.665 259.12 359.823 259.153 359.951 259.241C360.08 259.33 360.167 259.465 360.196 259.618C360.224 259.771 360.19 259.929 360.102 260.057L357.077 264.451C356.989 264.579 356.853 264.667 356.7 264.695C356.547 264.724 356.39 264.69 356.262 264.602Z" fill="#16165C"/>
<path d="M359.878 275.945L354.8 272.448C354.734 272.405 354.678 272.35 354.634 272.285C354.59 272.221 354.559 272.147 354.544 272.071C354.529 271.994 354.529 271.915 354.545 271.838C354.561 271.761 354.592 271.689 354.636 271.624C354.68 271.56 354.737 271.505 354.803 271.462C354.869 271.42 354.943 271.391 355.02 271.378C355.097 271.365 355.176 271.367 355.252 271.385C355.329 271.403 355.401 271.436 355.464 271.482L360.542 274.979C360.608 275.021 360.664 275.077 360.708 275.141C360.752 275.206 360.782 275.279 360.798 275.356C360.813 275.433 360.813 275.512 360.797 275.589C360.781 275.665 360.75 275.738 360.706 275.802C360.662 275.867 360.605 275.922 360.539 275.964C360.473 276.007 360.399 276.035 360.322 276.049C360.245 276.062 360.166 276.06 360.09 276.042C360.014 276.024 359.942 275.991 359.878 275.945V275.945Z" fill="#16165C"/>
<path d="M353.132 274.869C353.004 274.781 352.916 274.646 352.887 274.493C352.859 274.34 352.892 274.182 352.98 274.054L356.006 269.659C356.094 269.53 356.23 269.442 356.383 269.414C356.536 269.386 356.695 269.42 356.823 269.508C356.951 269.596 357.039 269.732 357.067 269.886C357.096 270.039 357.062 270.197 356.974 270.325L353.947 274.719C353.859 274.847 353.723 274.935 353.571 274.963C353.418 274.991 353.26 274.957 353.132 274.869Z" fill="#16165C"/>
<path d="M366.056 325.641C360.297 326.488 345.075 316.139 353.102 306.285C362.12 295.219 370.954 308.726 370.954 308.726C370.954 308.726 368.212 301.546 371.513 300.632C375.308 299.576 381.539 308.171 379.578 313.843C378.111 318.087 370.493 324.987 366.056 325.641Z" fill="#FFC7C1"/>
<path d="M254.578 448.503C254.578 448.503 274.511 467.425 280.284 450.975C284.367 439.342 268.726 439.081 268.726 439.081C268.726 439.081 275.948 438.025 275.654 435.201C275.287 431.659 265.697 431.024 260.216 434.027L254.578 448.503Z" fill="#FFC7C1"/>
<path d="M228.461 328.927C228.461 328.927 165.101 366.016 180.513 412.231C191.25 444.425 252.388 451.559 252.388 451.559C259.124 452.54 265.717 437.113 261.475 431.147C247.222 414.422 228.698 406.161 212.132 396.283C226.996 373.941 239.418 359.279 232.309 338.989" fill="#7655FF"/>
<path d="M257.802 449.081C257.684 448.98 257.612 448.835 257.601 448.68C257.589 448.525 257.64 448.372 257.741 448.254C261.502 443.873 263.794 435.413 260.999 431.479C246.897 414.939 228.533 406.727 211.834 396.781C211.766 396.74 211.706 396.686 211.66 396.622C211.613 396.557 211.58 396.484 211.562 396.406C211.544 396.329 211.543 396.248 211.557 396.17C211.572 396.092 211.602 396.018 211.646 395.951C214.952 390.979 218.625 385.685 221.589 381.16C221.63 381.093 221.684 381.036 221.748 380.99C221.812 380.945 221.885 380.912 221.961 380.895C222.038 380.878 222.117 380.876 222.194 380.89C222.271 380.904 222.345 380.934 222.41 380.977C222.476 381.02 222.532 381.076 222.576 381.141C222.62 381.206 222.65 381.279 222.665 381.356C222.68 381.433 222.679 381.512 222.662 381.589C222.646 381.666 222.615 381.738 222.57 381.803C219.719 386.155 216.258 391.151 212.965 396.087C229.413 405.832 247.746 414.122 261.923 430.76C265.091 435.218 262.744 444.225 258.63 449.02C258.58 449.079 258.519 449.127 258.45 449.162C258.381 449.196 258.306 449.217 258.229 449.222C258.152 449.228 258.075 449.218 258.001 449.194C257.928 449.17 257.86 449.132 257.802 449.081Z" fill="#16165C"/>
<path d="M369.892 541.989C369.805 541.913 369.734 541.821 369.683 541.717C369.631 541.614 369.601 541.501 369.593 541.386C369.586 541.27 369.601 541.154 369.638 541.045C369.675 540.935 369.733 540.835 369.809 540.748C406.996 498.175 397.102 466.122 396.999 465.803C396.96 465.692 396.943 465.575 396.95 465.458C396.957 465.341 396.987 465.226 397.038 465.121C397.09 465.015 397.162 464.921 397.251 464.844C397.34 464.768 397.443 464.709 397.554 464.673C397.666 464.636 397.783 464.622 397.9 464.632C398.017 464.642 398.131 464.674 398.235 464.729C398.339 464.783 398.431 464.857 398.506 464.948C398.581 465.038 398.637 465.143 398.67 465.255C398.778 465.584 408.977 498.588 371.134 541.905C370.98 542.081 370.763 542.188 370.531 542.204C370.298 542.22 370.068 542.143 369.892 541.989Z" fill="#16165C"/>
<path d="M256.616 294.014C256.512 294.014 256.41 293.986 256.32 293.933C256.23 293.881 256.156 293.805 256.105 293.714L255.284 292.262C255.243 292.195 255.216 292.12 255.204 292.042C255.193 291.964 255.197 291.885 255.217 291.808C255.237 291.732 255.272 291.661 255.32 291.598C255.368 291.536 255.428 291.484 255.497 291.445C255.565 291.407 255.641 291.382 255.72 291.374C255.798 291.365 255.877 291.372 255.952 291.395C256.028 291.417 256.098 291.455 256.159 291.505C256.22 291.555 256.269 291.618 256.306 291.688L257.127 293.14C257.177 293.229 257.203 293.329 257.202 293.432C257.201 293.534 257.173 293.634 257.122 293.723C257.07 293.811 256.997 293.884 256.908 293.935C256.819 293.986 256.719 294.013 256.616 294.014Z" fill="#16165C"/>
<path d="M22.0124 686.848L22.117 683.875C24.1222 683.891 26.1163 683.525 28.0979 682.805L28.9332 685.609C26.6639 686.444 24.3296 686.837 22.0124 686.848ZM15.1253 685.436C13.0183 684.535 11.1006 683.195 9.34114 681.472L11.3603 679.281C12.8478 680.765 14.5206 681.898 16.2939 682.678L15.1253 685.436ZM35.2144 682.246L33.656 679.818C35.2902 678.654 36.9658 677.196 38.5659 675.53L40.5355 677.608C38.8172 679.39 37.0233 680.965 35.2144 682.246ZM155.543 682.887C153.341 682.839 151.114 682.733 148.919 682.538L149.25 679.566C151.389 679.731 153.56 679.838 155.704 679.914L155.543 682.887ZM162.182 682.883L162.202 679.909C164.353 679.839 166.534 679.709 168.689 679.521L168.811 682.496C166.599 682.684 164.389 682.813 162.182 682.883ZM142.339 681.836C140.149 681.523 137.989 681.181 135.833 680.751L136.472 677.841C138.571 678.271 140.703 678.613 142.838 678.895L142.339 681.836ZM175.428 681.726L175.136 678.779C177.297 678.473 179.432 678.108 181.57 677.684L182.005 680.603C179.839 681.027 177.647 681.391 175.428 681.726ZM129.372 679.284C127.249 678.737 125.129 678.13 123.04 677.465L123.987 674.617C126.019 675.282 128.084 675.858 130.179 676.405L129.372 679.284ZM188.571 679.067L187.994 676.177C190.109 675.635 192.228 675.004 194.292 674.344L195.041 677.177C192.89 677.896 190.743 678.526 188.571 679.067ZM5.21356 675.844C4.11948 673.773 3.28748 671.529 2.77009 669.198L5.54644 668.397C6.01787 670.491 6.74875 672.47 7.74038 674.304L5.21356 675.844ZM116.838 675.265C114.811 674.482 112.759 673.611 110.766 672.682L112.018 669.954C113.956 670.854 115.952 671.694 117.923 672.476L116.838 675.265ZM201.412 674.963L200.519 672.187C202.56 671.409 204.605 670.543 206.622 669.647L207.687 672.364C205.584 673.289 203.511 674.155 201.412 674.963ZM45.0717 672.198L42.8335 670.442C44.096 668.745 45.3664 666.871 46.5586 664.849L48.9486 666.371C47.7255 668.451 46.3946 670.413 45.0717 672.198ZM104.853 669.718C103.722 669.091 102.564 668.463 101.463 667.806C100.692 667.358 99.9221 666.88 99.1524 666.403L100.68 663.824C101.422 664.301 102.165 664.749 102.936 665.197C104.036 665.854 105.14 666.452 106.242 667.08L104.853 669.718ZM213.754 669.382L212.544 666.751C214.482 665.737 216.424 664.634 218.339 663.501L219.694 666.074C217.75 667.206 215.75 668.338 213.754 669.382ZM93.6349 662.794C91.8248 661.572 90.0443 660.321 88.2651 659.04L89.929 656.58C91.7095 657.832 93.4617 659.083 95.2718 660.305L93.6349 662.794ZM2.10133 662.038C2.21053 659.595 2.65601 657.213 3.43251 655.011L6.16737 655.77C5.42438 657.855 5.04985 659.913 4.95381 662.061L2.10133 662.038ZM52.3867 660.245L49.8759 658.899C50.9269 656.876 51.9497 654.853 52.9468 652.771L55.4886 654.058C54.4914 656.14 53.4391 658.193 52.3867 660.245ZM82.9545 655.227C81.2036 653.946 79.4231 652.695 77.6413 651.473L79.2782 648.984C81.0587 650.235 82.8379 651.516 84.6184 652.767L82.9545 655.227ZM9.08003 650.023L6.7518 648.384C8.05437 646.422 9.60587 644.58 11.3754 642.916L13.2563 645.081C11.6628 646.599 10.2604 648.266 9.08003 650.023ZM58.398 647.751L55.8228 646.582C56.7352 644.498 57.6476 642.415 58.5049 640.302C57.3963 639.822 56.2863 639.371 55.202 638.98L56.259 636.191C58.2595 636.944 60.3113 637.815 62.3578 638.803L61.0788 641.502C60.1946 643.585 59.3091 645.698 58.398 647.751ZM72.2663 647.836C71.5248 647.359 70.7833 646.882 70.0405 646.434C68.968 645.777 67.8673 645.121 66.7652 644.493L68.2097 641.884C69.3387 642.542 70.4677 643.199 71.5671 643.885C72.3368 644.362 73.0783 644.84 73.8198 645.317L72.2663 647.836ZM18.379 641.09L16.9657 638.575C18.9132 637.355 20.9954 636.282 23.1813 635.417L24.1308 638.193C22.1183 638.971 20.1813 639.956 18.379 641.09ZM49.128 637.074C47.0335 636.527 44.9311 636.156 42.88 635.904L43.3222 632.963C45.4863 633.216 47.6991 633.647 49.9065 634.195L49.128 637.074ZM30.2615 636.3L29.7987 633.381C31.5668 633.013 33.3297 632.763 35.086 632.659C35.5956 632.634 36.0771 632.609 36.5868 632.583L36.5386 635.557C36.0854 635.583 35.6053 635.579 35.1508 635.634C33.5357 635.738 31.8871 635.96 30.2615 636.3ZM63.6329 634.927L60.9651 633.933C61.7672 631.79 62.5128 629.647 63.2585 627.504L65.9585 628.409C65.2116 630.582 64.4364 632.755 63.6329 634.927ZM68.0916 621.773L65.3876 620.955C66.0498 618.782 66.6851 616.579 67.2921 614.375L70.0296 615.075C69.3904 617.367 68.7551 619.57 68.0916 621.773ZM71.7674 608.435L68.999 607.794C69.5495 605.59 70.0449 603.356 70.5121 601.122L73.314 601.646C72.8159 603.939 72.2923 606.172 71.7674 608.435ZM74.6333 594.885L71.8275 594.449C72.2381 592.215 72.6206 589.98 72.9478 587.716L75.7576 588.063C75.429 590.357 75.0453 592.621 74.6333 594.885ZM76.7137 581.21L73.8718 580.951C74.1425 578.686 74.3837 576.45 74.598 574.185L77.4439 574.355C77.2566 576.65 77.0127 578.945 76.7137 581.21ZM78.006 567.47L75.1561 567.387C75.2541 565.828 75.3534 564.238 75.4231 562.678L75.5165 560.589L78.3703 560.583L78.2756 562.702C78.2045 564.291 78.1053 565.881 78.006 567.47ZM75.6497 553.817C75.6663 551.55 75.6546 549.283 75.5852 547.045L78.4469 546.862C78.4854 549.159 78.524 551.456 78.5061 553.753L75.6497 553.817ZM75.3525 540.241C75.2265 538.002 75.0737 535.734 74.8912 533.494L77.7326 533.135C77.9137 535.404 78.0653 537.702 78.1899 539.97L75.3525 540.241ZM74.231 526.775C73.9921 524.536 73.6967 522.295 73.3717 520.084L76.1927 519.548C76.515 521.818 76.8104 524.058 77.048 526.327L74.231 526.775ZM72.3417 513.421C71.9602 511.21 71.5506 508.998 71.0831 506.815L73.885 506.073C74.3512 508.285 74.7596 510.526 75.1679 512.767L72.3417 513.421ZM69.6241 500.266C69.1002 498.083 68.5466 495.929 67.9649 493.775L70.7182 492.855C71.2987 495.039 71.8791 497.223 72.4018 499.435L69.6241 500.266ZM66.1053 487.34C65.4375 485.215 64.7697 483.089 64.044 480.993L66.7488 479.896C67.4731 482.022 68.1679 484.177 68.8344 486.332L66.1053 487.34Z" fill="#FF0C57" fill-opacity="0.4"/>
<path d="M53.5649 494.642L56.1798 495.755L61.9769 482.141L74.4141 488.647L75.7811 485.973L60.6288 478.058L53.5649 494.642Z" fill="#FF0C57" fill-opacity="0.8"/>
<path d="M1111.58 687.213L1111.01 684.12C1109.16 684.223 1107.25 683.926 1105.3 683.26L1104.98 686.217C1107.21 686.991 1109.44 687.301 1111.58 687.213ZM1117.73 685.45C1119.54 684.422 1121.1 682.943 1122.45 681.074L1120.23 678.877C1119.09 680.486 1117.72 681.738 1116.21 682.626L1117.73 685.45ZM1098.63 682.98L1099.68 680.385C1097.98 679.241 1096.2 677.793 1094.45 676.126L1092.96 678.374C1094.84 680.158 1096.75 681.723 1098.63 682.98ZM987.382 688.765C989.411 688.621 991.455 688.415 993.455 688.119L992.674 685.038C990.72 685.301 988.728 685.504 986.757 685.675L987.382 688.765ZM981.237 689.043L980.742 685.946C978.741 685.963 976.702 685.922 974.677 685.817L975.041 688.922C977.118 689.023 979.184 689.064 981.237 689.043ZM999.432 687.108C1001.41 686.689 1003.35 686.241 1005.28 685.701L1004.22 682.697C1002.35 683.234 1000.43 683.68 998.499 684.066L999.432 687.108ZM968.794 688.401L968.593 685.318C966.544 685.092 964.51 684.802 962.463 684.451L962.528 687.51C964.601 687.86 966.687 688.146 968.794 688.401ZM1011.02 683.899C1012.9 683.238 1014.76 682.516 1016.59 681.734L1015.26 678.807C1013.48 679.586 1011.67 680.274 1009.82 680.934L1011.02 683.899ZM956.206 686.19L956.277 683.154C954.233 682.679 952.171 682.113 950.156 681.513L949.916 684.496C952.022 685.153 954.11 685.718 956.206 686.19ZM1125.37 675.034C1126.05 672.831 1126.46 670.457 1126.56 668.007L1123.87 667.29C1123.77 669.492 1123.41 671.585 1122.78 673.538L1125.37 675.034ZM1021.98 679.178C1023.73 678.277 1025.49 677.282 1027.18 676.229L1025.59 673.44C1023.94 674.46 1022.23 675.421 1020.53 676.319L1021.98 679.178ZM943.666 682.459L944.048 679.53C942.035 678.806 940.004 677.991 937.993 677.143L937.443 680.019C939.538 680.894 941.595 681.708 943.666 682.459ZM1087.9 672.931L1089.69 671.007C1088.25 669.292 1086.77 667.394 1085.35 665.338L1083.38 667.025C1084.84 669.14 1086.39 671.128 1087.9 672.931ZM1032.18 672.89C1033.13 672.188 1034.1 671.484 1035.01 670.753C1035.65 670.254 1036.29 669.723 1036.93 669.193L1035.1 666.572C1034.49 667.101 1033.87 667.599 1033.23 668.098C1032.32 668.83 1031.39 669.499 1030.47 670.2L1032.18 672.89ZM931.351 677.17L932.05 674.378C930.094 673.403 928.12 672.337 926.166 671.239L925.325 673.977C927.305 675.074 929.337 676.168 931.351 677.17ZM1041.45 665.199C1042.93 663.849 1044.38 662.47 1045.82 661.06L1043.89 658.568C1042.44 659.947 1041.02 661.325 1039.54 662.676L1041.45 665.199ZM1126.04 660.519C1125.54 657.978 1124.75 655.516 1123.68 653.255L1121.27 654.162C1122.29 656.302 1122.97 658.43 1123.4 660.665L1126.04 660.519ZM1079.22 660.789L1081.32 659.281C1080.03 657.218 1078.76 655.153 1077.5 653.026L1075.35 654.475C1076.61 656.602 1077.91 658.696 1079.22 660.789ZM1050.12 656.861C1051.54 655.453 1052.99 654.073 1054.44 652.725L1052.53 650.201C1051.08 651.58 1049.64 652.99 1048.19 654.37L1050.12 656.861ZM1117.65 648.298L1119.55 646.492C1118.03 644.503 1116.3 642.65 1114.39 640.992L1113 643.328C1114.72 644.841 1116.28 646.518 1117.65 648.298ZM1071.65 648.029L1073.85 646.701C1072.67 644.569 1071.49 642.438 1070.36 640.273C1071.31 639.726 1072.26 639.209 1073.21 638.754L1071.78 635.894C1070.05 636.763 1068.29 637.758 1066.55 638.875L1068.17 641.632C1069.32 643.765 1070.48 645.928 1071.65 648.029ZM1058.83 648.707C1059.44 648.178 1060.05 647.65 1060.67 647.152C1061.55 646.422 1062.47 645.691 1063.39 644.99L1061.63 642.334C1060.69 643.066 1059.75 643.799 1058.85 644.561C1058.21 645.091 1057.6 645.62 1056.99 646.148L1058.83 648.707ZM1107.62 639.387L1108.52 636.707C1106.53 635.518 1104.43 634.49 1102.27 633.681L1101.83 636.614C1103.82 637.339 1105.77 638.283 1107.62 639.387ZM1078.52 636.511C1080.37 635.852 1082.26 635.376 1084.12 635.026L1083.24 631.981C1081.27 632.337 1079.29 632.88 1077.34 633.545L1078.52 636.511ZM1095.86 634.902L1095.82 631.842C1094.12 631.533 1092.45 631.347 1090.81 631.315C1090.33 631.31 1089.88 631.304 1089.41 631.299L1089.93 634.395C1090.35 634.403 1090.8 634.378 1091.22 634.416C1092.74 634.456 1094.3 634.617 1095.86 634.902ZM1064.75 634.891L1067.06 633.742C1065.98 631.544 1064.95 629.343 1063.91 627.141L1061.56 628.2C1062.6 630.432 1063.66 632.662 1064.75 634.891ZM1058.52 621.376L1060.89 620.409C1059.93 618.173 1058.99 615.905 1058.08 613.635L1055.66 614.481C1056.61 616.841 1057.56 619.109 1058.52 621.376ZM1052.98 607.637L1055.44 606.851C1054.58 604.579 1053.77 602.273 1052.98 599.965L1050.47 600.63C1051.29 602.997 1052.14 605.302 1052.98 607.637ZM1048.16 593.642L1050.69 593.069C1049.95 590.758 1049.24 588.447 1048.57 586.101L1046.03 586.582C1046.7 588.958 1047.42 591.301 1048.16 593.642ZM1044.05 579.484L1046.64 579.093C1046.02 576.745 1045.44 574.426 1044.88 572.075L1042.27 572.373C1042.82 574.757 1043.41 577.137 1044.05 579.484ZM1040.65 565.224L1043.28 565.017C1042.94 563.396 1042.59 561.745 1042.28 560.122L1041.85 557.949L1039.21 558.064L1039.64 560.268C1039.96 561.921 1040.31 563.573 1040.65 565.224ZM1040.65 550.9C1040.27 548.539 1039.92 546.177 1039.62 543.842L1036.94 543.773C1037.28 546.168 1037.61 548.563 1037.99 550.954L1040.65 550.9ZM1038.75 536.743C1038.51 534.406 1038.28 532.036 1038.09 529.695L1035.41 529.442C1035.6 531.813 1035.83 534.213 1036.08 536.582L1038.75 536.743ZM1037.63 522.667C1037.49 520.324 1037.41 517.977 1037.35 515.66L1034.66 515.221C1034.72 517.6 1034.81 519.946 1034.95 522.32L1037.63 522.667ZM1037.24 508.674C1037.24 506.354 1037.26 504.032 1037.35 501.738L1034.63 501.084C1034.56 503.409 1034.54 505.761 1034.52 508.113L1037.24 508.674ZM1037.65 494.854C1037.78 492.557 1037.95 490.289 1038.14 488.02L1035.45 487.179C1035.26 489.479 1035.07 491.779 1034.94 494.106L1037.65 494.854ZM1038.83 481.238C1039.11 478.995 1039.39 476.752 1039.73 474.537L1037.05 473.509C1036.72 475.755 1036.42 478.03 1036.15 480.303L1038.83 481.238Z" fill="#FF0C57" fill-opacity="0.4"/>
<path d="M1062.66 490.711L1060.4 491.991L1052.78 477.959L1042.22 485.314L1040.51 482.568L1053.38 473.619L1062.66 490.711Z" fill="#FF0C57" fill-opacity="0.8"/>
<path d="M1098.67 362.919C1096.6 352.953 1093 343.721 1086.89 335.539C1086.06 334.431 1086.18 333.451 1086.67 332.3C1088.26 328.564 1089.12 324.641 1089.73 320.644C1091.57 308.594 1090.56 296.747 1087.44 285.022C1082.95 268.134 1076.57 252.065 1066.76 237.494C1065.77 236.022 1065.62 234.718 1066.15 233.003C1067.92 227.237 1068.14 221.416 1066.43 215.551C1063.56 205.714 1059.63 196.328 1054.83 187.291C1046.47 171.545 1034.72 158.853 1019.99 148.891C1010.19 142.262 999.857 136.505 989.542 130.722C986.676 129.117 983.79 127.545 980.916 125.959C980.982 125.76 981.049 125.558 981.112 125.359C982.884 125.422 984.657 125.464 986.429 125.555C987.617 125.614 988.767 125.467 989.825 124.928C991.577 124.032 991.746 122.27 990.204 121.048C989.337 120.36 988.274 120.13 987.219 119.905C982.746 118.956 978.208 118.394 973.691 117.735C972.361 117.543 971.017 117.429 969.679 117.363C967.618 117.265 965.993 118.091 965.006 119.926C964.06 121.691 964.791 123.189 965.888 124.617C968.997 128.667 971.684 133.003 974.452 137.285C975.666 139.164 976.874 141.05 978.1 142.919C978.665 143.782 979.383 144.529 980.523 144.157C981.754 143.757 981.974 142.659 981.934 141.536C981.916 141.011 981.732 140.484 981.597 139.966C981.05 137.88 980.157 135.925 979.281 133.965C978.86 133.022 978.142 132.185 977.978 131.018C978.727 130.915 979.142 131.275 979.577 131.545C992.589 139.617 1005.8 147.373 1018.22 156.376C1025.21 161.445 1031.56 167.201 1037.09 173.839C1047.76 186.638 1054.63 201.415 1059.53 217.181C1060.5 220.303 1060.92 223.577 1060.17 227.352C1059.21 226.109 1058.5 225.223 1057.84 224.306C1052.84 217.423 1046.75 211.649 1039.81 206.782C1032.71 201.793 1024.89 199.202 1016.07 199.851C1007.25 200.5 1003.13 208.38 1003.73 214.915C1004.12 219.185 1005.43 223.148 1007.71 226.766C1013.66 236.203 1021.91 242.75 1032.52 246.302C1041.66 249.359 1050.35 248.316 1058.65 243.524C1060.83 242.264 1060.93 242.304 1062.34 244.597C1068.05 253.951 1072.71 263.789 1076.14 274.213C1078.64 281.789 1080.87 289.428 1082.2 297.289C1083.75 306.48 1083.26 315.655 1081.49 324.777C1081.34 325.526 1081.34 326.398 1080.59 326.925C1079.74 326.894 1079.37 326.21 1078.91 325.698C1076.71 323.216 1074.33 320.911 1071.86 318.703C1067.46 314.759 1062.44 311.855 1056.67 310.43C1046.46 307.9 1039.53 312.386 1037.21 322.651C1034.5 334.563 1043.63 347.203 1054.88 348.353C1060.53 348.933 1065.95 348.501 1071.21 346.289C1074.62 344.854 1077.75 342.961 1080.57 340.571C1081.58 339.715 1082.25 339.84 1082.94 340.927C1084.47 343.347 1085.96 345.79 1087.27 348.34C1090.08 353.807 1091.61 359.684 1092.89 365.646C1094.96 375.319 1095.29 385.021 1092.82 394.643C1089.02 409.396 1075.07 420.317 1058.65 418.267C1057.22 418.087 1055.81 417.887 1054.63 416.939C1054.05 416.476 1053.37 416.057 1052.77 416.858C1052.22 417.572 1052.66 418.228 1053.11 418.795C1054.24 420.209 1055.86 420.762 1057.53 421.163C1062.59 422.388 1067.72 422.394 1072.7 421.002C1086.71 417.08 1095.47 407.871 1098.85 393.803C1101.32 383.542 1100.81 373.238 1098.67 362.919ZM1055.59 237.607C1053.32 239.374 1048.82 240.985 1044.49 241.501C1042.41 241.895 1040.01 241.682 1037.64 241.135C1027.09 238.711 1018.89 232.918 1013.12 223.789C1011.09 220.569 1009.85 217.021 1010.14 213.134C1010.45 209.093 1012.57 206.9 1016.61 206.627C1023.01 206.194 1028.79 208.114 1034.11 211.578C1041.48 216.38 1047.47 222.589 1052.58 229.686C1053.78 231.354 1055 233.018 1056.12 234.737C1057.08 236.208 1056.97 236.533 1055.59 237.607ZM1075.91 335.429C1071.86 339.038 1067.1 341.154 1061.61 342.12C1059.28 342.131 1056.78 342.203 1054.29 341.771C1047.95 340.667 1041.73 332.515 1043.38 324.469C1044.8 317.53 1048.13 315.234 1055.04 316.752C1058.69 317.553 1061.92 319.243 1064.92 321.412C1069.15 324.471 1072.68 328.274 1076.14 332.14C1077.51 333.68 1077.47 334.036 1075.91 335.429Z" fill="#FF0C57"/>
<path d="M28.0528 362.919C30.1186 352.953 33.7192 343.721 39.8349 335.539C40.6652 334.431 40.5387 333.451 40.0505 332.3C38.4666 328.564 37.6068 324.641 36.9956 320.644C35.1513 308.594 36.1663 296.747 39.2822 285.022C43.7738 268.134 50.1583 252.065 59.9633 237.494C60.9515 236.022 61.0999 234.718 60.5745 233.003C58.8053 227.237 58.5884 221.416 60.2978 215.55C63.161 205.714 67.0961 196.328 71.8928 187.291C80.2538 171.545 92.0026 158.853 106.73 148.891C116.531 142.262 126.866 136.505 137.181 130.722C140.047 129.117 142.934 127.545 145.808 125.958C145.741 125.76 145.675 125.557 145.612 125.359C143.839 125.422 142.066 125.464 140.294 125.554C139.106 125.614 137.956 125.467 136.899 124.928C135.147 124.032 134.978 122.27 136.52 121.048C137.387 120.36 138.45 120.129 139.505 119.905C143.977 118.956 148.515 118.394 153.033 117.735C154.362 117.543 155.706 117.429 157.044 117.363C159.106 117.265 160.73 118.091 161.717 119.926C162.664 121.691 161.933 123.189 160.836 124.616C157.727 128.667 155.039 133.003 152.271 137.285C151.058 139.163 149.85 141.049 148.623 142.919C148.059 143.782 147.341 144.529 146.201 144.157C144.97 143.757 144.75 142.659 144.79 141.536C144.807 141.01 144.991 140.484 145.126 139.966C145.673 137.88 146.566 135.925 147.442 133.964C147.864 133.022 148.582 132.185 148.745 131.018C147.997 130.914 147.582 131.274 147.147 131.545C134.135 139.617 120.921 147.372 108.507 156.376C101.514 161.445 95.1666 167.201 89.6308 173.839C78.9599 186.638 72.0971 201.415 67.1937 217.181C66.221 220.303 65.7998 223.577 66.5556 227.352C67.5095 226.109 68.223 225.223 68.888 224.306C73.8832 217.423 79.9692 211.649 86.9094 206.782C94.017 201.793 101.829 199.202 110.652 199.851C119.471 200.5 123.594 208.38 122.993 214.915C122.599 219.185 121.29 223.148 119.011 226.766C113.062 236.203 104.813 242.75 94.2015 246.302C85.0625 249.359 76.3702 248.316 68.0757 243.524C65.8947 242.264 65.7893 242.304 64.3872 244.597C58.6704 253.951 54.0145 263.789 50.581 274.213C48.0843 281.789 45.8511 289.428 44.5257 297.289C42.9726 306.48 43.464 315.655 45.2331 324.777C45.3801 325.526 45.384 326.398 46.1341 326.924C46.9854 326.894 47.3552 326.209 47.8087 325.698C50.0114 323.216 52.3911 320.911 54.8599 318.703C59.2655 314.759 64.2801 311.855 70.0496 310.43C80.2652 307.9 87.1892 312.386 89.5171 322.651C92.2218 334.563 83.0915 347.202 71.8417 348.353C66.1972 348.933 60.7738 348.501 55.5174 346.289C52.0998 344.854 48.9695 342.961 46.1486 340.571C45.1423 339.715 44.4709 339.84 43.7856 340.927C42.2503 343.347 40.7644 345.79 39.4533 348.34C36.6415 353.807 35.1183 359.684 33.8385 365.646C31.759 375.319 31.4339 385.021 33.9076 394.643C37.7018 409.396 51.6547 420.317 68.0765 418.267C69.5083 418.087 70.9147 417.887 72.0976 416.938C72.6737 416.476 73.3489 416.057 73.9552 416.858C74.499 417.572 74.0665 418.228 73.6134 418.795C72.4863 420.209 70.8676 420.762 69.1975 421.163C64.1293 422.387 59.0012 422.394 54.0222 421.002C40.0139 417.08 31.2554 407.871 27.8764 393.803C25.4057 383.542 25.9138 373.237 28.0528 362.919ZM71.1321 237.607C73.4055 239.374 77.8997 240.985 82.2292 241.501C84.3117 241.895 86.7132 241.682 89.0849 241.135C99.6319 238.711 107.829 232.918 113.599 223.789C115.636 220.569 116.878 217.021 116.58 213.134C116.273 209.093 114.154 206.9 110.112 206.627C103.716 206.194 97.9296 208.113 92.612 211.578C85.2419 216.38 79.2535 222.589 74.1423 229.686C72.9397 231.354 71.7273 233.018 70.6054 234.737C69.6417 236.208 69.7489 236.533 71.1321 237.607ZM50.8183 335.429C54.8628 339.038 59.6271 341.154 65.1152 342.12C67.4483 342.131 69.9444 342.203 72.431 341.771C78.7703 340.667 84.997 332.515 83.3464 324.469C81.9253 317.529 78.5894 315.234 71.6797 316.752C68.0341 317.553 64.8037 319.243 61.8045 321.412C57.5738 324.471 54.0466 328.274 50.5882 332.14C49.2133 333.68 49.2578 334.036 50.8183 335.429Z" fill="#FF0C57"/>
</svg>
