<svg width="32" height="32" viewBox="0 0 32 32" fill="none" xmlns="http://www.w3.org/2000/svg">
<path d="M16 32.0001C7.18 32.0001 0 24.8201 0 16.0001C0 7.18006 7.18 6.10352e-05 16 6.10352e-05C24.82 6.10352e-05 32 7.18006 32 16.0001C32 24.8201 24.82 32.0001 16 32.0001Z" fill="black"/>
<path fill-rule="evenodd" clip-rule="evenodd" d="M11.8681 14.3238H13.7332V19.4668C13.7332 19.7613 13.972 20.0001 14.2666 20.0001H18.5332C18.8278 20.0001 19.0666 19.7613 19.0666 19.4668V14.3238H21.1266C21.8354 14.3238 22.1941 13.4701 21.698 12.9638L17.0687 8.24012C16.7551 7.92004 16.2397 7.92004 15.926 8.24012L11.2968 12.9638C10.8006 13.4701 11.1593 14.3238 11.8681 14.3238ZM10.5332 21.6001C10.2387 21.6001 9.99988 21.8389 9.99988 22.1334V22.9334C9.99988 23.228 10.2387 23.4667 10.5332 23.4667H22.2665C22.5611 23.4667 22.7999 23.228 22.7999 22.9334V22.1334C22.7999 21.8389 22.5611 21.6001 22.2665 21.6001H10.5332Z" fill="white"/>
</svg>
